%FSLAX45Y45*%
G04 Gerber Fmt 4.5, Leading zero omitted, Abs format (unit mm)*
G04 Created by KiCad (PCBNEW (6.0.6)) date 2023-02-05 11:57:08*
%MOMM*%
%LPD*%
G01*
G04 APERTURE LIST*
%TA.AperFunction,Profile*%
%ADD10C,0.100000*%
%TD*%
%ADD11C,0.200000*%
%ADD12C,0.025000*%
%ADD13C,0.040000*%
%ADD14C,0.050000*%
%ADD15C,0.080000*%
%ADD16C,0.090000*%
%ADD17C,0.100000*%
%ADD18C,0.102000*%
%ADD19C,0.170000*%
%ADD20C,0.220000*%
%ADD21C,0.241000*%
G04 APERTURE END LIST*
D10*
X17500000Y-4900000D02*
X17700000Y-4700000D01*
X22500000Y-4900000D02*
X22500000Y-14800000D01*
X22500000Y-14800000D02*
X22300000Y-15000000D01*
X22300000Y-4700000D02*
X22500000Y-4900000D01*
X17500000Y-5100000D02*
X17500000Y-4900000D01*
X17500000Y-14800000D02*
X17500000Y-5100000D01*
X17700000Y-15000000D02*
X22300000Y-15000000D01*
X17700000Y-4700000D02*
X22300000Y-4700000D01*
X17500000Y-14800000D02*
X17700000Y-15000000D01*
D11*
D12*
X17707500Y-10067500D02*
X17732500Y-10092500D01*
X17732500Y-10067500D02*
X17707500Y-10092500D01*
X17747500Y-10455500D02*
X17772500Y-10480500D01*
X17772500Y-10455500D02*
X17747500Y-10480500D01*
X17747500Y-10515500D02*
X17772500Y-10540500D01*
X17772500Y-10515500D02*
X17747500Y-10540500D01*
X17767500Y-10117500D02*
X17792500Y-10142500D01*
X17792500Y-10117500D02*
X17767500Y-10142500D01*
X17817500Y-10365500D02*
X17842500Y-10390500D01*
X17842500Y-10365500D02*
X17817500Y-10390500D01*
X17887500Y-11687500D02*
X17912500Y-11712500D01*
X17912500Y-11687500D02*
X17887500Y-11712500D01*
X17927500Y-10865500D02*
X17952500Y-10890500D01*
X17952500Y-10865500D02*
X17927500Y-10890500D01*
X17937500Y-12537500D02*
X17962500Y-12562500D01*
X17962500Y-12537500D02*
X17937500Y-12562500D01*
X17937500Y-12817500D02*
X17962500Y-12842500D01*
X17962500Y-12817500D02*
X17937500Y-12842500D01*
X17957500Y-11275500D02*
X17982500Y-11300500D01*
X17982500Y-11275500D02*
X17957500Y-11300500D01*
X17987500Y-10865500D02*
X18012500Y-10890500D01*
X18012500Y-10865500D02*
X17987500Y-10890500D01*
X18002017Y-6822101D02*
X18027017Y-6847101D01*
X18027017Y-6822101D02*
X18002017Y-6847101D01*
X18007500Y-6737500D02*
X18032500Y-6762500D01*
X18032500Y-6737500D02*
X18007500Y-6762500D01*
X18007500Y-12537500D02*
X18032500Y-12562500D01*
X18032500Y-12537500D02*
X18007500Y-12562500D01*
X18007500Y-12817500D02*
X18032500Y-12842500D01*
X18032500Y-12817500D02*
X18007500Y-12842500D01*
X18107500Y-11277500D02*
X18132500Y-11302500D01*
X18132500Y-11277500D02*
X18107500Y-11302500D01*
X18227500Y-10077500D02*
X18252500Y-10102500D01*
X18252500Y-10077500D02*
X18227500Y-10102500D01*
X18247500Y-12957500D02*
X18272500Y-12982500D01*
X18272500Y-12957500D02*
X18247500Y-12982500D01*
X18277500Y-5577500D02*
X18302500Y-5602500D01*
X18302500Y-5577500D02*
X18277500Y-5602500D01*
X18287500Y-11857500D02*
X18312500Y-11882500D01*
X18312500Y-11857500D02*
X18287500Y-11882500D01*
X18293500Y-13024500D02*
X18318500Y-13049500D01*
X18318500Y-13024500D02*
X18293500Y-13049500D01*
X18297500Y-10037500D02*
X18322500Y-10062500D01*
X18322500Y-10037500D02*
X18297500Y-10062500D01*
X18302500Y-12492500D02*
X18327500Y-12517500D01*
X18327500Y-12492500D02*
X18302500Y-12517500D01*
X18307500Y-12417500D02*
X18332500Y-12442500D01*
X18332500Y-12417500D02*
X18307500Y-12442500D01*
X18327500Y-14457500D02*
X18352500Y-14482500D01*
X18352500Y-14457500D02*
X18327500Y-14482500D01*
X18327500Y-14537500D02*
X18352500Y-14562500D01*
X18352500Y-14537500D02*
X18327500Y-14562500D01*
X18357500Y-5577500D02*
X18382500Y-5602500D01*
X18382500Y-5577500D02*
X18357500Y-5602500D01*
X18467500Y-11797500D02*
X18492500Y-11822500D01*
X18492500Y-11797500D02*
X18467500Y-11822500D01*
X18497500Y-10407500D02*
X18522500Y-10432500D01*
X18522500Y-10407500D02*
X18497500Y-10432500D01*
X18497500Y-10497500D02*
X18522500Y-10522500D01*
X18522500Y-10497500D02*
X18497500Y-10522500D01*
X18497500Y-10677500D02*
X18522500Y-10702500D01*
X18522500Y-10677500D02*
X18497500Y-10702500D01*
X18497500Y-10757500D02*
X18522500Y-10782500D01*
X18522500Y-10757500D02*
X18497500Y-10782500D01*
X18727500Y-14267500D02*
X18752500Y-14292500D01*
X18752500Y-14267500D02*
X18727500Y-14292500D01*
X18737500Y-6027500D02*
X18762500Y-6052500D01*
X18762500Y-6027500D02*
X18737500Y-6052500D01*
X18737500Y-7387500D02*
X18762500Y-7412500D01*
X18762500Y-7387500D02*
X18737500Y-7412500D01*
X18777500Y-14030000D02*
X18802500Y-14055000D01*
X18802500Y-14030000D02*
X18777500Y-14055000D01*
X18777500Y-14097500D02*
X18802500Y-14122500D01*
X18802500Y-14097500D02*
X18777500Y-14122500D01*
X18807500Y-14737500D02*
X18832500Y-14762500D01*
X18832500Y-14737500D02*
X18807500Y-14762500D01*
X18837500Y-13897500D02*
X18862500Y-13922500D01*
X18862500Y-13897500D02*
X18837500Y-13922500D01*
X18837500Y-14237500D02*
X18862500Y-14262500D01*
X18862500Y-14237500D02*
X18837500Y-14262500D01*
X18847500Y-6027500D02*
X18872500Y-6052500D01*
X18872500Y-6027500D02*
X18847500Y-6052500D01*
X18847500Y-7387500D02*
X18872500Y-7412500D01*
X18872500Y-7387500D02*
X18847500Y-7412500D01*
X18847500Y-11917500D02*
X18872500Y-11942500D01*
X18872500Y-11917500D02*
X18847500Y-11942500D01*
X18847500Y-11977500D02*
X18872500Y-12002500D01*
X18872500Y-11977500D02*
X18847500Y-12002500D01*
X18847500Y-12707500D02*
X18872500Y-12732500D01*
X18872500Y-12707500D02*
X18847500Y-12732500D01*
X18847500Y-12767500D02*
X18872500Y-12792500D01*
X18872500Y-12767500D02*
X18847500Y-12792500D01*
X18905000Y-13897500D02*
X18930000Y-13922500D01*
X18930000Y-13897500D02*
X18905000Y-13922500D01*
X18905000Y-14237500D02*
X18930000Y-14262500D01*
X18930000Y-14237500D02*
X18905000Y-14262500D01*
X18927500Y-14387500D02*
X18952500Y-14412500D01*
X18952500Y-14387500D02*
X18927500Y-14412500D01*
X18987500Y-14387500D02*
X19012500Y-14412500D01*
X19012500Y-14387500D02*
X18987500Y-14412500D01*
X19047500Y-7097500D02*
X19072500Y-7122500D01*
X19072500Y-7097500D02*
X19047500Y-7122500D01*
X19077500Y-5757500D02*
X19102500Y-5782500D01*
X19102500Y-5757500D02*
X19077500Y-5782500D01*
X19087500Y-5947500D02*
X19112500Y-5972500D01*
X19112500Y-5947500D02*
X19087500Y-5972500D01*
X19087500Y-6027500D02*
X19112500Y-6052500D01*
X19112500Y-6027500D02*
X19087500Y-6052500D01*
X19107500Y-14737500D02*
X19132500Y-14762500D01*
X19132500Y-14737500D02*
X19107500Y-14762500D01*
X19116877Y-10616877D02*
X19141877Y-10641877D01*
X19141877Y-10616877D02*
X19116877Y-10641877D01*
X19167500Y-14787500D02*
X19192500Y-14812500D01*
X19192500Y-14787500D02*
X19167500Y-14812500D01*
X19212500Y-10602500D02*
X19237500Y-10627500D01*
X19237500Y-10602500D02*
X19212500Y-10627500D01*
X19212923Y-10277797D02*
X19237923Y-10302797D01*
X19237923Y-10277797D02*
X19212923Y-10302797D01*
X19277500Y-10347500D02*
X19302500Y-10372500D01*
X19302500Y-10347500D02*
X19277500Y-10372500D01*
X19277500Y-11117500D02*
X19302500Y-11142500D01*
X19302500Y-11117500D02*
X19277500Y-11142500D01*
X19307500Y-11047500D02*
X19332500Y-11072500D01*
X19332500Y-11047500D02*
X19307500Y-11072500D01*
X19307500Y-12577500D02*
X19332500Y-12602500D01*
X19332500Y-12577500D02*
X19307500Y-12602500D01*
X19317500Y-10227500D02*
X19342500Y-10252500D01*
X19342500Y-10227500D02*
X19317500Y-10252500D01*
X19350000Y-13345000D02*
X19375000Y-13370000D01*
X19375000Y-13345000D02*
X19350000Y-13370000D01*
X19355000Y-13895000D02*
X19380000Y-13920000D01*
X19380000Y-13895000D02*
X19355000Y-13920000D01*
X19357500Y-9567500D02*
X19382500Y-9592500D01*
X19382500Y-9567500D02*
X19357500Y-9592500D01*
X19357500Y-9647500D02*
X19382500Y-9672500D01*
X19382500Y-9647500D02*
X19357500Y-9672500D01*
X19367500Y-12527500D02*
X19392500Y-12552500D01*
X19392500Y-12527500D02*
X19367500Y-12552500D01*
X19397500Y-11257500D02*
X19422500Y-11282500D01*
X19422500Y-11257500D02*
X19397500Y-11282500D01*
X19407500Y-13345000D02*
X19432500Y-13370000D01*
X19432500Y-13345000D02*
X19407500Y-13370000D01*
X19415000Y-13895000D02*
X19440000Y-13920000D01*
X19440000Y-13895000D02*
X19415000Y-13920000D01*
X19422500Y-13555000D02*
X19447500Y-13580000D01*
X19447500Y-13555000D02*
X19422500Y-13580000D01*
X19422500Y-13685000D02*
X19447500Y-13710000D01*
X19447500Y-13685000D02*
X19422500Y-13710000D01*
X19447500Y-9877500D02*
X19472500Y-9902500D01*
X19472500Y-9877500D02*
X19447500Y-9902500D01*
X19467500Y-13345000D02*
X19492500Y-13370000D01*
X19492500Y-13345000D02*
X19467500Y-13370000D01*
X19475000Y-13895000D02*
X19500000Y-13920000D01*
X19500000Y-13895000D02*
X19475000Y-13920000D01*
X19477500Y-11237500D02*
X19502500Y-11262500D01*
X19502500Y-11237500D02*
X19477500Y-11262500D01*
X19487500Y-9917500D02*
X19512500Y-9942500D01*
X19512500Y-9917500D02*
X19487500Y-9942500D01*
X19527500Y-12677500D02*
X19552500Y-12702500D01*
X19552500Y-12677500D02*
X19527500Y-12702500D01*
X19552500Y-13555000D02*
X19577500Y-13580000D01*
X19577500Y-13555000D02*
X19552500Y-13580000D01*
X19552500Y-13682500D02*
X19577500Y-13707500D01*
X19577500Y-13682500D02*
X19552500Y-13707500D01*
X19560000Y-12977500D02*
X19585000Y-13002500D01*
X19585000Y-12977500D02*
X19560000Y-13002500D01*
X19560000Y-13317500D02*
X19585000Y-13342500D01*
X19585000Y-13317500D02*
X19560000Y-13342500D01*
X19567500Y-7097500D02*
X19592500Y-7122500D01*
X19592500Y-7097500D02*
X19567500Y-7122500D01*
X19567500Y-12467500D02*
X19592500Y-12492500D01*
X19592500Y-12467500D02*
X19567500Y-12492500D01*
X19597500Y-13942500D02*
X19622500Y-13967500D01*
X19622500Y-13942500D02*
X19597500Y-13967500D01*
X19597500Y-14197500D02*
X19622500Y-14222500D01*
X19622500Y-14197500D02*
X19597500Y-14222500D01*
X19627500Y-7097500D02*
X19652500Y-7122500D01*
X19652500Y-7097500D02*
X19627500Y-7122500D01*
X19627500Y-12977500D02*
X19652500Y-13002500D01*
X19652500Y-12977500D02*
X19627500Y-13002500D01*
X19627500Y-13317500D02*
X19652500Y-13342500D01*
X19652500Y-13317500D02*
X19627500Y-13342500D01*
X19665000Y-14197500D02*
X19690000Y-14222500D01*
X19690000Y-14197500D02*
X19665000Y-14222500D01*
X19667500Y-5827500D02*
X19692500Y-5852500D01*
X19692500Y-5827500D02*
X19667500Y-5852500D01*
X19667500Y-5887500D02*
X19692500Y-5912500D01*
X19692500Y-5887500D02*
X19667500Y-5912500D01*
X19667500Y-13942500D02*
X19692500Y-13967500D01*
X19692500Y-13942500D02*
X19667500Y-13967500D01*
X19677500Y-6627500D02*
X19702500Y-6652500D01*
X19702500Y-6627500D02*
X19677500Y-6652500D01*
X19677500Y-6707500D02*
X19702500Y-6732500D01*
X19702500Y-6707500D02*
X19677500Y-6732500D01*
X19677500Y-10440050D02*
X19702500Y-10465050D01*
X19702500Y-10440050D02*
X19677500Y-10465050D01*
X19695050Y-13327500D02*
X19720050Y-13352500D01*
X19720050Y-13327500D02*
X19695050Y-13352500D01*
X19727500Y-5737500D02*
X19752500Y-5762500D01*
X19752500Y-5737500D02*
X19727500Y-5762500D01*
X19737500Y-10377500D02*
X19762500Y-10402500D01*
X19762500Y-10377500D02*
X19737500Y-10402500D01*
X19737500Y-13797500D02*
X19762500Y-13822500D01*
X19762500Y-13797500D02*
X19737500Y-13822500D01*
X19757500Y-8677500D02*
X19782500Y-8702500D01*
X19782500Y-8677500D02*
X19757500Y-8702500D01*
X19757500Y-8757500D02*
X19782500Y-8782500D01*
X19782500Y-8757500D02*
X19757500Y-8782500D01*
X19757500Y-8877500D02*
X19782500Y-8902500D01*
X19782500Y-8877500D02*
X19757500Y-8902500D01*
X19757500Y-8962500D02*
X19782500Y-8987500D01*
X19782500Y-8962500D02*
X19757500Y-8987500D01*
X19757500Y-13277500D02*
X19782500Y-13302500D01*
X19782500Y-13277500D02*
X19757500Y-13302500D01*
X19767500Y-13537500D02*
X19792500Y-13562500D01*
X19792500Y-13537500D02*
X19767500Y-13562500D01*
X19774950Y-11624911D02*
X19799950Y-11649911D01*
X19799950Y-11624911D02*
X19774950Y-11649911D01*
X19777500Y-13867500D02*
X19802500Y-13892500D01*
X19802500Y-13867500D02*
X19777500Y-13892500D01*
X19797500Y-13667500D02*
X19822500Y-13692500D01*
X19822500Y-13667500D02*
X19797500Y-13692500D01*
X19799500Y-10299900D02*
X19824500Y-10324900D01*
X19824500Y-10299900D02*
X19799500Y-10324900D01*
X19810057Y-10410057D02*
X19835057Y-10435057D01*
X19835057Y-10410057D02*
X19810057Y-10435057D01*
X19815050Y-13745050D02*
X19840050Y-13770050D01*
X19840050Y-13745050D02*
X19815050Y-13770050D01*
X19837500Y-11557500D02*
X19862500Y-11582500D01*
X19862500Y-11557500D02*
X19837500Y-11582500D01*
X19837500Y-12197500D02*
X19862500Y-12222500D01*
X19862500Y-12197500D02*
X19837500Y-12222500D01*
X19847500Y-13527500D02*
X19872500Y-13552500D01*
X19872500Y-13527500D02*
X19847500Y-13552500D01*
X19860057Y-10360057D02*
X19885057Y-10385057D01*
X19885057Y-10360057D02*
X19860057Y-10385057D01*
X19877500Y-5517500D02*
X19902500Y-5542500D01*
X19902500Y-5517500D02*
X19877500Y-5542500D01*
X19877500Y-10227500D02*
X19902500Y-10252500D01*
X19902500Y-10227500D02*
X19877500Y-10252500D01*
X19877500Y-12517500D02*
X19902500Y-12542500D01*
X19902500Y-12517500D02*
X19877500Y-12542500D01*
X19897500Y-12437500D02*
X19922500Y-12462500D01*
X19922500Y-12437500D02*
X19897500Y-12462500D01*
X19899943Y-10569943D02*
X19924943Y-10594943D01*
X19924943Y-10569943D02*
X19899943Y-10594943D01*
X19916332Y-10303782D02*
X19941332Y-10328782D01*
X19941332Y-10303782D02*
X19916332Y-10328782D01*
X19937500Y-10677500D02*
X19962500Y-10702500D01*
X19962500Y-10677500D02*
X19937500Y-10702500D01*
X19947500Y-10507500D02*
X19972500Y-10532500D01*
X19972500Y-10507500D02*
X19947500Y-10532500D01*
X19947500Y-11297500D02*
X19972500Y-11322500D01*
X19972500Y-11297500D02*
X19947500Y-11322500D01*
X19947500Y-11377500D02*
X19972500Y-11402500D01*
X19972500Y-11377500D02*
X19947500Y-11402500D01*
X19957500Y-5527500D02*
X19982500Y-5552500D01*
X19982500Y-5527500D02*
X19957500Y-5552500D01*
X19997500Y-10737500D02*
X20022500Y-10762500D01*
X20022500Y-10737500D02*
X19997500Y-10762500D01*
X20007500Y-10817500D02*
X20032500Y-10842500D01*
X20032500Y-10817500D02*
X20007500Y-10842500D01*
X20027500Y-10527500D02*
X20052500Y-10552500D01*
X20052500Y-10527500D02*
X20027500Y-10552500D01*
X20027500Y-10897500D02*
X20052500Y-10922500D01*
X20052500Y-10897500D02*
X20027500Y-10922500D01*
X20027500Y-11147500D02*
X20052500Y-11172500D01*
X20052500Y-11147500D02*
X20027500Y-11172500D01*
X20037500Y-11227550D02*
X20062500Y-11252550D01*
X20062500Y-11227550D02*
X20037500Y-11252550D01*
X20057500Y-10597500D02*
X20082500Y-10622500D01*
X20082500Y-10597500D02*
X20057500Y-10622500D01*
X20097500Y-13557500D02*
X20122500Y-13582500D01*
X20122500Y-13557500D02*
X20097500Y-13582500D01*
X20104300Y-6210500D02*
X20129300Y-6235500D01*
X20129300Y-6210500D02*
X20104300Y-6235500D01*
X20107500Y-11087500D02*
X20132500Y-11112500D01*
X20132500Y-11087500D02*
X20107500Y-11112500D01*
X20117500Y-13637500D02*
X20142500Y-13662500D01*
X20142500Y-13637500D02*
X20117500Y-13662500D01*
X20147500Y-10597500D02*
X20172500Y-10622500D01*
X20172500Y-10597500D02*
X20147500Y-10622500D01*
X20157500Y-6137500D02*
X20182500Y-6162500D01*
X20182500Y-6137500D02*
X20157500Y-6162500D01*
X20157500Y-11147500D02*
X20182500Y-11172500D01*
X20182500Y-11147500D02*
X20157500Y-11172500D01*
X20187500Y-10347500D02*
X20212500Y-10372500D01*
X20212500Y-10347500D02*
X20187500Y-10372500D01*
X20187500Y-13477500D02*
X20212500Y-13502500D01*
X20212500Y-13477500D02*
X20187500Y-13502500D01*
X20196174Y-13338996D02*
X20221174Y-13363996D01*
X20221174Y-13338996D02*
X20196174Y-13363996D01*
X20199950Y-13899336D02*
X20224950Y-13924336D01*
X20224950Y-13899336D02*
X20199950Y-13924336D01*
X20205900Y-7810700D02*
X20230900Y-7835700D01*
X20230900Y-7810700D02*
X20205900Y-7835700D01*
X20207500Y-13555050D02*
X20232500Y-13580050D01*
X20232500Y-13555050D02*
X20207500Y-13580050D01*
X20217500Y-10537500D02*
X20242500Y-10562500D01*
X20242500Y-10537500D02*
X20217500Y-10562500D01*
X20227500Y-10257500D02*
X20252500Y-10282500D01*
X20252500Y-10257500D02*
X20227500Y-10282500D01*
X20227500Y-13827500D02*
X20252500Y-13852500D01*
X20252500Y-13827500D02*
X20227500Y-13852500D01*
X20246343Y-13402938D02*
X20271343Y-13427938D01*
X20271343Y-13402938D02*
X20246343Y-13427938D01*
X20247500Y-6047500D02*
X20272500Y-6072500D01*
X20272500Y-6047500D02*
X20247500Y-6072500D01*
X20247500Y-7397500D02*
X20272500Y-7422500D01*
X20272500Y-7397500D02*
X20247500Y-7422500D01*
X20253123Y-9861877D02*
X20278123Y-9886877D01*
X20278123Y-9861877D02*
X20253123Y-9886877D01*
X20257500Y-8737500D02*
X20282500Y-8762500D01*
X20282500Y-8737500D02*
X20257500Y-8762500D01*
X20257500Y-9947500D02*
X20282500Y-9972500D01*
X20282500Y-9947500D02*
X20257500Y-9972500D01*
X20267168Y-7868150D02*
X20292168Y-7893150D01*
X20292168Y-7868150D02*
X20267168Y-7893150D01*
X20267500Y-10327500D02*
X20292500Y-10352500D01*
X20292500Y-10327500D02*
X20267500Y-10352500D01*
X20277500Y-10487500D02*
X20302500Y-10512500D01*
X20302500Y-10487500D02*
X20277500Y-10512500D01*
X20297500Y-5897500D02*
X20322500Y-5922500D01*
X20322500Y-5897500D02*
X20297500Y-5922500D01*
X20297500Y-5957500D02*
X20322500Y-5982500D01*
X20322500Y-5957500D02*
X20297500Y-5982500D01*
X20297500Y-7247500D02*
X20322500Y-7272500D01*
X20322500Y-7247500D02*
X20297500Y-7272500D01*
X20297500Y-7307500D02*
X20322500Y-7332500D01*
X20322500Y-7307500D02*
X20297500Y-7332500D01*
X20297500Y-8597500D02*
X20322500Y-8622500D01*
X20322500Y-8597500D02*
X20297500Y-8622500D01*
X20297500Y-8657500D02*
X20322500Y-8682500D01*
X20322500Y-8657500D02*
X20297500Y-8682500D01*
X20297500Y-10637500D02*
X20322500Y-10662500D01*
X20322500Y-10637500D02*
X20297500Y-10662500D01*
X20302179Y-13946118D02*
X20327179Y-13971118D01*
X20327179Y-13946118D02*
X20302179Y-13971118D01*
X20302179Y-14201118D02*
X20327179Y-14226118D01*
X20327179Y-14201118D02*
X20302179Y-14226118D01*
X20307500Y-11007500D02*
X20332500Y-11032500D01*
X20332500Y-11007500D02*
X20307500Y-11032500D01*
X20307500Y-13867500D02*
X20332500Y-13892500D01*
X20332500Y-13867500D02*
X20307500Y-13892500D01*
X20337500Y-10567500D02*
X20362500Y-10592500D01*
X20362500Y-10567500D02*
X20337500Y-10592500D01*
X20347500Y-10067500D02*
X20372500Y-10092500D01*
X20372500Y-10067500D02*
X20347500Y-10092500D01*
X20350000Y-12977500D02*
X20375000Y-13002500D01*
X20375000Y-12977500D02*
X20350000Y-13002500D01*
X20350000Y-13317500D02*
X20375000Y-13342500D01*
X20375000Y-13317500D02*
X20350000Y-13342500D01*
X20369679Y-14201118D02*
X20394679Y-14226118D01*
X20394679Y-14201118D02*
X20369679Y-14226118D01*
X20372179Y-13946118D02*
X20397179Y-13971118D01*
X20397179Y-13946118D02*
X20372179Y-13971118D01*
X20387500Y-10977500D02*
X20412500Y-11002500D01*
X20412500Y-10977500D02*
X20387500Y-11002500D01*
X20417500Y-10524950D02*
X20442500Y-10549950D01*
X20442500Y-10524950D02*
X20417500Y-10549950D01*
X20417500Y-12977500D02*
X20442500Y-13002500D01*
X20442500Y-12977500D02*
X20417500Y-13002500D01*
X20417500Y-13317500D02*
X20442500Y-13342500D01*
X20442500Y-13317500D02*
X20417500Y-13342500D01*
X20420000Y-13557500D02*
X20445000Y-13582500D01*
X20445000Y-13557500D02*
X20420000Y-13582500D01*
X20420000Y-13685000D02*
X20445000Y-13710000D01*
X20445000Y-13685000D02*
X20420000Y-13710000D01*
X20421800Y-9107500D02*
X20446800Y-9132500D01*
X20446800Y-9107500D02*
X20421800Y-9132500D01*
X20424424Y-9187500D02*
X20449424Y-9212500D01*
X20449424Y-9187500D02*
X20424424Y-9212500D01*
X20427500Y-13917500D02*
X20452500Y-13942500D01*
X20452500Y-13917500D02*
X20427500Y-13942500D01*
X20437500Y-9597500D02*
X20462500Y-9622500D01*
X20462500Y-9597500D02*
X20437500Y-9622500D01*
X20479969Y-9939969D02*
X20504969Y-9964969D01*
X20504969Y-9939969D02*
X20479969Y-9964969D01*
X20487500Y-14057500D02*
X20512500Y-14082500D01*
X20512500Y-14057500D02*
X20487500Y-14082500D01*
X20505000Y-13345000D02*
X20530000Y-13370000D01*
X20530000Y-13345000D02*
X20505000Y-13370000D01*
X20505000Y-13895000D02*
X20530000Y-13920000D01*
X20530000Y-13895000D02*
X20505000Y-13920000D01*
X20526162Y-10226462D02*
X20551162Y-10251462D01*
X20551162Y-10226462D02*
X20526162Y-10251462D01*
X20552500Y-13555000D02*
X20577500Y-13580000D01*
X20577500Y-13555000D02*
X20552500Y-13580000D01*
X20552500Y-13685000D02*
X20577500Y-13710000D01*
X20577500Y-13685000D02*
X20552500Y-13710000D01*
X20565000Y-13345000D02*
X20590000Y-13370000D01*
X20590000Y-13345000D02*
X20565000Y-13370000D01*
X20565000Y-13895000D02*
X20590000Y-13920000D01*
X20590000Y-13895000D02*
X20565000Y-13920000D01*
X20587500Y-10430050D02*
X20612500Y-10455050D01*
X20612500Y-10430050D02*
X20587500Y-10455050D01*
X20587968Y-9817968D02*
X20612968Y-9842968D01*
X20612968Y-9817968D02*
X20587968Y-9842968D01*
X20607500Y-9667500D02*
X20632500Y-9692500D01*
X20632500Y-9667500D02*
X20607500Y-9692500D01*
X20625000Y-13345000D02*
X20650000Y-13370000D01*
X20650000Y-13345000D02*
X20625000Y-13370000D01*
X20625000Y-13895000D02*
X20650000Y-13920000D01*
X20650000Y-13895000D02*
X20625000Y-13920000D01*
X20667500Y-10427500D02*
X20692500Y-10452500D01*
X20692500Y-10427500D02*
X20667500Y-10452500D01*
X20707500Y-8857500D02*
X20732500Y-8882500D01*
X20732500Y-8857500D02*
X20707500Y-8882500D01*
X20737500Y-11317500D02*
X20762500Y-11342500D01*
X20762500Y-11317500D02*
X20737500Y-11342500D01*
X20739300Y-10744400D02*
X20764300Y-10769400D01*
X20764300Y-10744400D02*
X20739300Y-10769400D01*
X20767500Y-10607500D02*
X20792500Y-10632500D01*
X20792500Y-10607500D02*
X20767500Y-10632500D01*
X20777500Y-10017500D02*
X20802500Y-10042500D01*
X20802500Y-10017500D02*
X20777500Y-10042500D01*
X20780306Y-10525940D02*
X20805306Y-10550940D01*
X20805306Y-10525940D02*
X20780306Y-10550940D01*
X20807500Y-9937500D02*
X20832500Y-9962500D01*
X20832500Y-9937500D02*
X20807500Y-9962500D01*
X20807500Y-11247500D02*
X20832500Y-11272500D01*
X20832500Y-11247500D02*
X20807500Y-11272500D01*
X20877500Y-10127500D02*
X20902500Y-10152500D01*
X20902500Y-10127500D02*
X20877500Y-10152500D01*
X20882450Y-7127500D02*
X20907450Y-7152500D01*
X20907450Y-7127500D02*
X20882450Y-7152500D01*
X20887500Y-5677500D02*
X20912500Y-5702500D01*
X20912500Y-5677500D02*
X20887500Y-5702500D01*
X20887500Y-5767500D02*
X20912500Y-5792500D01*
X20912500Y-5767500D02*
X20887500Y-5792500D01*
X20897475Y-7217475D02*
X20922475Y-7242475D01*
X20922475Y-7217475D02*
X20897475Y-7242475D01*
X20897500Y-8377500D02*
X20922500Y-8402500D01*
X20922500Y-8377500D02*
X20897500Y-8402500D01*
X20927500Y-6037500D02*
X20952500Y-6062500D01*
X20952500Y-6037500D02*
X20927500Y-6062500D01*
X20927500Y-7387500D02*
X20952500Y-7412500D01*
X20952500Y-7387500D02*
X20927500Y-7412500D01*
X20930050Y-9707500D02*
X20955050Y-9732500D01*
X20955050Y-9707500D02*
X20930050Y-9732500D01*
X21007500Y-9667500D02*
X21032500Y-9692500D01*
X21032500Y-9667500D02*
X21007500Y-9692500D01*
X21070000Y-13897500D02*
X21095000Y-13922500D01*
X21095000Y-13897500D02*
X21070000Y-13922500D01*
X21070000Y-14237500D02*
X21095000Y-14262500D01*
X21095000Y-14237500D02*
X21070000Y-14262500D01*
X21117500Y-5747500D02*
X21142500Y-5772500D01*
X21142500Y-5747500D02*
X21117500Y-5772500D01*
X21117500Y-7107500D02*
X21142500Y-7132500D01*
X21142500Y-7107500D02*
X21117500Y-7132500D01*
X21117500Y-8447500D02*
X21142500Y-8472500D01*
X21142500Y-8447500D02*
X21117500Y-8472500D01*
X21130050Y-9477500D02*
X21155050Y-9502500D01*
X21155050Y-9477500D02*
X21130050Y-9502500D01*
X21130050Y-9567500D02*
X21155050Y-9592500D01*
X21155050Y-9567500D02*
X21130050Y-9592500D01*
X21137500Y-13897500D02*
X21162500Y-13922500D01*
X21162500Y-13897500D02*
X21137500Y-13922500D01*
X21137500Y-14237500D02*
X21162500Y-14262500D01*
X21162500Y-14237500D02*
X21137500Y-14262500D01*
X21177500Y-8387500D02*
X21202500Y-8412500D01*
X21202500Y-8387500D02*
X21177500Y-8412500D01*
X21197500Y-14037500D02*
X21222500Y-14062500D01*
X21222500Y-14037500D02*
X21197500Y-14062500D01*
X21197500Y-14105000D02*
X21222500Y-14130000D01*
X21222500Y-14105000D02*
X21197500Y-14130000D01*
X21237500Y-7107500D02*
X21262500Y-7132500D01*
X21262500Y-7107500D02*
X21237500Y-7132500D01*
X21237500Y-8447500D02*
X21262500Y-8472500D01*
X21262500Y-8447500D02*
X21237500Y-8472500D01*
X21247500Y-5747450D02*
X21272500Y-5772450D01*
X21272500Y-5747450D02*
X21247500Y-5772450D01*
X21297500Y-12487500D02*
X21322500Y-12512500D01*
X21322500Y-12487500D02*
X21297500Y-12512500D01*
X21341961Y-12281801D02*
X21366961Y-12306801D01*
X21366961Y-12281801D02*
X21341961Y-12306801D01*
X21357500Y-11927500D02*
X21382500Y-11952500D01*
X21382500Y-11927500D02*
X21357500Y-11952500D01*
X21357500Y-11987500D02*
X21382500Y-12012500D01*
X21382500Y-11987500D02*
X21357500Y-12012500D01*
X21517500Y-12507500D02*
X21542500Y-12532500D01*
X21542500Y-12507500D02*
X21517500Y-12532500D01*
X21577500Y-12507500D02*
X21602500Y-12532500D01*
X21602500Y-12507500D02*
X21577500Y-12532500D01*
X21587500Y-12957500D02*
X21612500Y-12982500D01*
X21612500Y-12957500D02*
X21587500Y-12982500D01*
X21598038Y-6628038D02*
X21623038Y-6653038D01*
X21623038Y-6628038D02*
X21598038Y-6653038D01*
X21637500Y-7987500D02*
X21662500Y-8012500D01*
X21662500Y-7987500D02*
X21637500Y-8012500D01*
X21637500Y-12507500D02*
X21662500Y-12532500D01*
X21662500Y-12507500D02*
X21637500Y-12532500D01*
X21647500Y-5377500D02*
X21672500Y-5402500D01*
X21672500Y-5377500D02*
X21647500Y-5402500D01*
X21647500Y-10567500D02*
X21672500Y-10592500D01*
X21672500Y-10567500D02*
X21647500Y-10592500D01*
X21647500Y-10647500D02*
X21672500Y-10672500D01*
X21672500Y-10647500D02*
X21647500Y-10672500D01*
X21667500Y-12957500D02*
X21692500Y-12982500D01*
X21692500Y-12957500D02*
X21667500Y-12982500D01*
X21677500Y-11557500D02*
X21702500Y-11582500D01*
X21702500Y-11557500D02*
X21677500Y-11582500D01*
X21687500Y-6637500D02*
X21712500Y-6662500D01*
X21712500Y-6637500D02*
X21687500Y-6662500D01*
X21697500Y-5457500D02*
X21722500Y-5482500D01*
X21722500Y-5457500D02*
X21697500Y-5482500D01*
X21697500Y-11617500D02*
X21722500Y-11642500D01*
X21722500Y-11617500D02*
X21697500Y-11642500D01*
X21717500Y-8007500D02*
X21742500Y-8032500D01*
X21742500Y-8007500D02*
X21717500Y-8032500D01*
X21797500Y-9527500D02*
X21822500Y-9552500D01*
X21822500Y-9527500D02*
X21797500Y-9552500D01*
X21847500Y-12507500D02*
X21872500Y-12532500D01*
X21872500Y-12507500D02*
X21847500Y-12532500D01*
X21897500Y-9317500D02*
X21922500Y-9342500D01*
X21922500Y-9317500D02*
X21897500Y-9342500D01*
X21907500Y-12507500D02*
X21932500Y-12532500D01*
X21932500Y-12507500D02*
X21907500Y-12532500D01*
X21967500Y-12507500D02*
X21992500Y-12532500D01*
X21992500Y-12507500D02*
X21967500Y-12532500D01*
X22017500Y-9317500D02*
X22042500Y-9342500D01*
X22042500Y-9317500D02*
X22017500Y-9342500D01*
X22108500Y-11978500D02*
X22133500Y-12003500D01*
X22133500Y-11978500D02*
X22108500Y-12003500D01*
X22117500Y-12797500D02*
X22142500Y-12822500D01*
X22142500Y-12797500D02*
X22117500Y-12822500D01*
X22287500Y-5797500D02*
X22312500Y-5822500D01*
X22312500Y-5797500D02*
X22287500Y-5822500D01*
X22287500Y-11847500D02*
X22312500Y-11872500D01*
X22312500Y-11847500D02*
X22287500Y-11872500D01*
X22287500Y-11923563D02*
X22312500Y-11948563D01*
X22312500Y-11923563D02*
X22287500Y-11948563D01*
X22337500Y-5727500D02*
X22362500Y-5752500D01*
X22362500Y-5727500D02*
X22337500Y-5752500D01*
D13*
X19120050Y-7470000D02*
G75*
G03*
X19120050Y-7470000I-20000J0D01*
G01*
X19190000Y-14270000D02*
G75*
G03*
X19190000Y-14270000I-20000J0D01*
G01*
X19230000Y-14360000D02*
G75*
G03*
X19230000Y-14360000I-20000J0D01*
G01*
X19270000Y-6130000D02*
G75*
G03*
X19270000Y-6130000I-20000J0D01*
G01*
X19270000Y-6220000D02*
G75*
G03*
X19270000Y-6220000I-20000J0D01*
G01*
X19270000Y-7490000D02*
G75*
G03*
X19270000Y-7490000I-20000J0D01*
G01*
X19270000Y-7590000D02*
G75*
G03*
X19270000Y-7590000I-20000J0D01*
G01*
X19280000Y-14270000D02*
G75*
G03*
X19280000Y-14270000I-20000J0D01*
G01*
X19330000Y-14360000D02*
G75*
G03*
X19330000Y-14360000I-20000J0D01*
G01*
X19380000Y-6130000D02*
G75*
G03*
X19380000Y-6130000I-20000J0D01*
G01*
X19380000Y-6220000D02*
G75*
G03*
X19380000Y-6220000I-20000J0D01*
G01*
X19380000Y-7490000D02*
G75*
G03*
X19380000Y-7490000I-20000J0D01*
G01*
X19380000Y-7590000D02*
G75*
G03*
X19380000Y-7590000I-20000J0D01*
G01*
X19380000Y-14270000D02*
G75*
G03*
X19380000Y-14270000I-20000J0D01*
G01*
X19430000Y-14360000D02*
G75*
G03*
X19430000Y-14360000I-20000J0D01*
G01*
X19530000Y-14360000D02*
G75*
G03*
X19530000Y-14360000I-20000J0D01*
G01*
X19920000Y-13080000D02*
G75*
G03*
X19920000Y-13080000I-20000J0D01*
G01*
X19920000Y-13200000D02*
G75*
G03*
X19920000Y-13200000I-20000J0D01*
G01*
X20040000Y-13080000D02*
G75*
G03*
X20040000Y-13080000I-20000J0D01*
G01*
X20040000Y-13200000D02*
G75*
G03*
X20040000Y-13200000I-20000J0D01*
G01*
X20150000Y-13080000D02*
G75*
G03*
X20150000Y-13080000I-20000J0D01*
G01*
X20150000Y-13200000D02*
G75*
G03*
X20150000Y-13200000I-20000J0D01*
G01*
X20480000Y-12450000D02*
G75*
G03*
X20480000Y-12450000I-20000J0D01*
G01*
X20480000Y-12580000D02*
G75*
G03*
X20480000Y-12580000I-20000J0D01*
G01*
X20610000Y-12450000D02*
G75*
G03*
X20610000Y-12450000I-20000J0D01*
G01*
X20610000Y-12580000D02*
G75*
G03*
X20610000Y-12580000I-20000J0D01*
G01*
X20660000Y-5580000D02*
G75*
G03*
X20660000Y-5580000I-20000J0D01*
G01*
X20660000Y-5670000D02*
G75*
G03*
X20660000Y-5670000I-20000J0D01*
G01*
X20660000Y-6940000D02*
G75*
G03*
X20660000Y-6940000I-20000J0D01*
G01*
X20660000Y-7030000D02*
G75*
G03*
X20660000Y-7030000I-20000J0D01*
G01*
X20660000Y-14270000D02*
G75*
G03*
X20660000Y-14270000I-20000J0D01*
G01*
X20670000Y-8300000D02*
G75*
G03*
X20670000Y-8300000I-20000J0D01*
G01*
X20670000Y-8390000D02*
G75*
G03*
X20670000Y-8390000I-20000J0D01*
G01*
X20710000Y-14360000D02*
G75*
G03*
X20710000Y-14360000I-20000J0D01*
G01*
X20760000Y-14270000D02*
G75*
G03*
X20760000Y-14270000I-20000J0D01*
G01*
X20770000Y-5580000D02*
G75*
G03*
X20770000Y-5580000I-20000J0D01*
G01*
X20770000Y-5670000D02*
G75*
G03*
X20770000Y-5670000I-20000J0D01*
G01*
X20770000Y-6940000D02*
G75*
G03*
X20770000Y-6940000I-20000J0D01*
G01*
X20770000Y-7030000D02*
G75*
G03*
X20770000Y-7030000I-20000J0D01*
G01*
X20780000Y-8300000D02*
G75*
G03*
X20780000Y-8300000I-20000J0D01*
G01*
X20780000Y-8390000D02*
G75*
G03*
X20780000Y-8390000I-20000J0D01*
G01*
X20820000Y-14360000D02*
G75*
G03*
X20820000Y-14360000I-20000J0D01*
G01*
X20860000Y-14270000D02*
G75*
G03*
X20860000Y-14270000I-20000J0D01*
G01*
D14*
X17870000Y-9610000D02*
X17870000Y-9660000D01*
X17845000Y-9635000D02*
X17895000Y-9635000D01*
X17870000Y-9735000D02*
X17870000Y-9785000D01*
X17845000Y-9760000D02*
X17895000Y-9760000D01*
X17870000Y-9860000D02*
X17870000Y-9910000D01*
X17845000Y-9885000D02*
X17895000Y-9885000D01*
D15*
X18000785Y-13360784D02*
X18000785Y-13304215D01*
X17944216Y-13304215D01*
X17944216Y-13360784D01*
X18000785Y-13360784D01*
X18000785Y-13710784D02*
X18000785Y-13654215D01*
X17944216Y-13654215D01*
X17944216Y-13710784D01*
X18000785Y-13710784D01*
X22050785Y-13385784D02*
X22050785Y-13329215D01*
X21994216Y-13329215D01*
X21994216Y-13385784D01*
X22050785Y-13385784D01*
X22050785Y-13735784D02*
X22050785Y-13679215D01*
X21994216Y-13679215D01*
X21994216Y-13735784D01*
X22050785Y-13735784D01*
D16*
X21894800Y-9932000D02*
X21939800Y-9887000D01*
X21894800Y-9842000D01*
X21849800Y-9887000D01*
X21894800Y-9932000D01*
X21894800Y-10332000D02*
X21939800Y-10287000D01*
X21894800Y-10242000D01*
X21849800Y-10287000D01*
X21894800Y-10332000D01*
D17*
X19010000Y-8202500D02*
X19110000Y-8302500D01*
X19110000Y-8202500D02*
X19010000Y-8302500D01*
X19110000Y-8252500D02*
G75*
G03*
X19110000Y-8252500I-50000J0D01*
G01*
X19010000Y-8456500D02*
X19110000Y-8556500D01*
X19110000Y-8456500D02*
X19010000Y-8556500D01*
X19110000Y-8506500D02*
G75*
G03*
X19110000Y-8506500I-50000J0D01*
G01*
X19010000Y-8823500D02*
X19110000Y-8923500D01*
X19110000Y-8823500D02*
X19010000Y-8923500D01*
X19110000Y-8873500D02*
G75*
G03*
X19110000Y-8873500I-50000J0D01*
G01*
X19010000Y-9077500D02*
X19110000Y-9177500D01*
X19110000Y-9077500D02*
X19010000Y-9177500D01*
X19110000Y-9127500D02*
G75*
G03*
X19110000Y-9127500I-50000J0D01*
G01*
X21770000Y-10882500D02*
X21870000Y-10982500D01*
X21870000Y-10882500D02*
X21770000Y-10982500D01*
X21870000Y-10932500D02*
G75*
G03*
X21870000Y-10932500I-50000J0D01*
G01*
X21770000Y-11136500D02*
X21870000Y-11236500D01*
X21870000Y-11136500D02*
X21770000Y-11236500D01*
X21870000Y-11186500D02*
G75*
G03*
X21870000Y-11186500I-50000J0D01*
G01*
X22200000Y-10617000D02*
X22300000Y-10717000D01*
X22300000Y-10617000D02*
X22200000Y-10717000D01*
X22300000Y-10667000D02*
G75*
G03*
X22300000Y-10667000I-50000J0D01*
G01*
X22200000Y-10871000D02*
X22300000Y-10971000D01*
X22300000Y-10871000D02*
X22200000Y-10971000D01*
X22300000Y-10921000D02*
G75*
G03*
X22300000Y-10921000I-50000J0D01*
G01*
X22200000Y-11125000D02*
X22300000Y-11225000D01*
X22300000Y-11125000D02*
X22200000Y-11225000D01*
X22300000Y-11175000D02*
G75*
G03*
X22300000Y-11175000I-50000J0D01*
G01*
X22200000Y-11379000D02*
X22300000Y-11479000D01*
X22300000Y-11379000D02*
X22200000Y-11479000D01*
X22300000Y-11429000D02*
G75*
G03*
X22300000Y-11429000I-50000J0D01*
G01*
D18*
X18242025Y-5763500D02*
X18344025Y-5865500D01*
X18344025Y-5763500D02*
X18242025Y-5865500D01*
X18293025Y-5763500D02*
X18293025Y-5865500D01*
X18242025Y-5814500D02*
X18344025Y-5814500D01*
X18242025Y-6063500D02*
X18344025Y-6165500D01*
X18344025Y-6063500D02*
X18242025Y-6165500D01*
X18293025Y-6063500D02*
X18293025Y-6165500D01*
X18242025Y-6114500D02*
X18344025Y-6114500D01*
X18242025Y-7113500D02*
X18344025Y-7215500D01*
X18344025Y-7113500D02*
X18242025Y-7215500D01*
X18293025Y-7113500D02*
X18293025Y-7215500D01*
X18242025Y-7164500D02*
X18344025Y-7164500D01*
X18242025Y-7413500D02*
X18344025Y-7515500D01*
X18344025Y-7413500D02*
X18242025Y-7515500D01*
X18293025Y-7413500D02*
X18293025Y-7515500D01*
X18242025Y-7464500D02*
X18344025Y-7464500D01*
X18242025Y-8463500D02*
X18344025Y-8565500D01*
X18344025Y-8463500D02*
X18242025Y-8565500D01*
X18293025Y-8463500D02*
X18293025Y-8565500D01*
X18242025Y-8514500D02*
X18344025Y-8514500D01*
X18242025Y-8763500D02*
X18344025Y-8865500D01*
X18344025Y-8763500D02*
X18242025Y-8865500D01*
X18293025Y-8763500D02*
X18293025Y-8865500D01*
X18242025Y-8814500D02*
X18344025Y-8814500D01*
X21653300Y-5643700D02*
X21755300Y-5745700D01*
X21755300Y-5643700D02*
X21653300Y-5745700D01*
X21704300Y-5643700D02*
X21704300Y-5745700D01*
X21653300Y-5694700D02*
X21755300Y-5694700D01*
X21653300Y-5943700D02*
X21755300Y-6045700D01*
X21755300Y-5943700D02*
X21653300Y-6045700D01*
X21704300Y-5943700D02*
X21704300Y-6045700D01*
X21653300Y-5994700D02*
X21755300Y-5994700D01*
X21653300Y-6993700D02*
X21755300Y-7095700D01*
X21755300Y-6993700D02*
X21653300Y-7095700D01*
X21704300Y-6993700D02*
X21704300Y-7095700D01*
X21653300Y-7044700D02*
X21755300Y-7044700D01*
X21653300Y-7293700D02*
X21755300Y-7395700D01*
X21755300Y-7293700D02*
X21653300Y-7395700D01*
X21704300Y-7293700D02*
X21704300Y-7395700D01*
X21653300Y-7344700D02*
X21755300Y-7344700D01*
X21653300Y-8343700D02*
X21755300Y-8445700D01*
X21755300Y-8343700D02*
X21653300Y-8445700D01*
X21704300Y-8343700D02*
X21704300Y-8445700D01*
X21653300Y-8394700D02*
X21755300Y-8394700D01*
X21653300Y-8643700D02*
X21755300Y-8745700D01*
X21755300Y-8643700D02*
X21653300Y-8745700D01*
X21704300Y-8643700D02*
X21704300Y-8745700D01*
X21653300Y-8694700D02*
X21755300Y-8694700D01*
D19*
X19966250Y-14637500D02*
X20136250Y-14807500D01*
X20136250Y-14637500D02*
X19966250Y-14807500D01*
X20111355Y-14782605D02*
X20111355Y-14662395D01*
X19991145Y-14662395D01*
X19991145Y-14782605D01*
X20111355Y-14782605D01*
X20536250Y-14637500D02*
X20706250Y-14807500D01*
X20706250Y-14637500D02*
X20536250Y-14807500D01*
X20681355Y-14782605D02*
X20681355Y-14662395D01*
X20561145Y-14662395D01*
X20561145Y-14782605D01*
X20681355Y-14782605D01*
D20*
X17740000Y-4890000D02*
X17960000Y-5110000D01*
X17960000Y-4890000D02*
X17740000Y-5110000D01*
X17850000Y-5110000D02*
X17960000Y-5000000D01*
X17850000Y-4890000D01*
X17740000Y-5000000D01*
X17850000Y-5110000D01*
X17740000Y-14540000D02*
X17960000Y-14760000D01*
X17960000Y-14540000D02*
X17740000Y-14760000D01*
X17850000Y-14760000D02*
X17960000Y-14650000D01*
X17850000Y-14540000D01*
X17740000Y-14650000D01*
X17850000Y-14760000D01*
X22040000Y-4890000D02*
X22260000Y-5110000D01*
X22260000Y-4890000D02*
X22040000Y-5110000D01*
X22150000Y-5110000D02*
X22260000Y-5000000D01*
X22150000Y-4890000D01*
X22040000Y-5000000D01*
X22150000Y-5110000D01*
X22040000Y-14540000D02*
X22260000Y-14760000D01*
X22260000Y-14540000D02*
X22040000Y-14760000D01*
X22150000Y-14760000D02*
X22260000Y-14650000D01*
X22150000Y-14540000D01*
X22040000Y-14650000D01*
X22150000Y-14760000D01*
D21*
X17861025Y-5479000D02*
X17861025Y-5720000D01*
X17740525Y-5599500D02*
X17981525Y-5599500D01*
X17981525Y-5599500D02*
G75*
G03*
X17981525Y-5599500I-120500J0D01*
G01*
X17861025Y-6209000D02*
X17861025Y-6450000D01*
X17740525Y-6329500D02*
X17981525Y-6329500D01*
X17981525Y-6329500D02*
G75*
G03*
X17981525Y-6329500I-120500J0D01*
G01*
X17861025Y-6829000D02*
X17861025Y-7070000D01*
X17740525Y-6949500D02*
X17981525Y-6949500D01*
X17981525Y-6949500D02*
G75*
G03*
X17981525Y-6949500I-120500J0D01*
G01*
X17861025Y-7559000D02*
X17861025Y-7800000D01*
X17740525Y-7679500D02*
X17981525Y-7679500D01*
X17981525Y-7679500D02*
G75*
G03*
X17981525Y-7679500I-120500J0D01*
G01*
X17861025Y-8179000D02*
X17861025Y-8420000D01*
X17740525Y-8299500D02*
X17981525Y-8299500D01*
X17981525Y-8299500D02*
G75*
G03*
X17981525Y-8299500I-120500J0D01*
G01*
X17861025Y-8909000D02*
X17861025Y-9150000D01*
X17740525Y-9029500D02*
X17981525Y-9029500D01*
X17981525Y-9029500D02*
G75*
G03*
X17981525Y-9029500I-120500J0D01*
G01*
X22136300Y-5359200D02*
X22136300Y-5600200D01*
X22015800Y-5479700D02*
X22256800Y-5479700D01*
X22256800Y-5479700D02*
G75*
G03*
X22256800Y-5479700I-120500J0D01*
G01*
X22136300Y-6089200D02*
X22136300Y-6330200D01*
X22015800Y-6209700D02*
X22256800Y-6209700D01*
X22256800Y-6209700D02*
G75*
G03*
X22256800Y-6209700I-120500J0D01*
G01*
X22136300Y-6709200D02*
X22136300Y-6950200D01*
X22015800Y-6829700D02*
X22256800Y-6829700D01*
X22256800Y-6829700D02*
G75*
G03*
X22256800Y-6829700I-120500J0D01*
G01*
X22136300Y-7439200D02*
X22136300Y-7680200D01*
X22015800Y-7559700D02*
X22256800Y-7559700D01*
X22256800Y-7559700D02*
G75*
G03*
X22256800Y-7559700I-120500J0D01*
G01*
X22136300Y-8059200D02*
X22136300Y-8300200D01*
X22015800Y-8179700D02*
X22256800Y-8179700D01*
X22256800Y-8179700D02*
G75*
G03*
X22256800Y-8179700I-120500J0D01*
G01*
X22136300Y-8789200D02*
X22136300Y-9030200D01*
X22015800Y-8909700D02*
X22256800Y-8909700D01*
X22256800Y-8909700D02*
G75*
G03*
X22256800Y-8909700I-120500J0D01*
G01*
D11*
X17752619Y-15315476D02*
X17752619Y-15115476D01*
X17800238Y-15115476D01*
X17828810Y-15125000D01*
X17847857Y-15144048D01*
X17857381Y-15163095D01*
X17866905Y-15201190D01*
X17866905Y-15229762D01*
X17857381Y-15267857D01*
X17847857Y-15286905D01*
X17828810Y-15305952D01*
X17800238Y-15315476D01*
X17752619Y-15315476D01*
X17952619Y-15315476D02*
X17952619Y-15182143D01*
X17952619Y-15220238D02*
X17962143Y-15201190D01*
X17971667Y-15191667D01*
X17990714Y-15182143D01*
X18009762Y-15182143D01*
X18076429Y-15315476D02*
X18076429Y-15182143D01*
X18076429Y-15115476D02*
X18066905Y-15125000D01*
X18076429Y-15134524D01*
X18085952Y-15125000D01*
X18076429Y-15115476D01*
X18076429Y-15134524D01*
X18200238Y-15315476D02*
X18181190Y-15305952D01*
X18171667Y-15286905D01*
X18171667Y-15115476D01*
X18305000Y-15315476D02*
X18285952Y-15305952D01*
X18276429Y-15286905D01*
X18276429Y-15115476D01*
X18533571Y-15315476D02*
X18533571Y-15115476D01*
X18600238Y-15258333D01*
X18666905Y-15115476D01*
X18666905Y-15315476D01*
X18847857Y-15315476D02*
X18847857Y-15210714D01*
X18838333Y-15191667D01*
X18819286Y-15182143D01*
X18781190Y-15182143D01*
X18762143Y-15191667D01*
X18847857Y-15305952D02*
X18828810Y-15315476D01*
X18781190Y-15315476D01*
X18762143Y-15305952D01*
X18752619Y-15286905D01*
X18752619Y-15267857D01*
X18762143Y-15248809D01*
X18781190Y-15239286D01*
X18828810Y-15239286D01*
X18847857Y-15229762D01*
X18943095Y-15182143D02*
X18943095Y-15382143D01*
X18943095Y-15191667D02*
X18962143Y-15182143D01*
X19000238Y-15182143D01*
X19019286Y-15191667D01*
X19028810Y-15201190D01*
X19038333Y-15220238D01*
X19038333Y-15277381D01*
X19028810Y-15296428D01*
X19019286Y-15305952D01*
X19000238Y-15315476D01*
X18962143Y-15315476D01*
X18943095Y-15305952D01*
X19124048Y-15296428D02*
X19133571Y-15305952D01*
X19124048Y-15315476D01*
X19114524Y-15305952D01*
X19124048Y-15296428D01*
X19124048Y-15315476D01*
X19124048Y-15191667D02*
X19133571Y-15201190D01*
X19124048Y-15210714D01*
X19114524Y-15201190D01*
X19124048Y-15191667D01*
X19124048Y-15210714D01*
D12*
X17470000Y-15632500D02*
X17495000Y-15657500D01*
X17495000Y-15632500D02*
X17470000Y-15657500D01*
D11*
X17790714Y-15535476D02*
X17809762Y-15535476D01*
X17828810Y-15545000D01*
X17838333Y-15554524D01*
X17847857Y-15573571D01*
X17857381Y-15611667D01*
X17857381Y-15659286D01*
X17847857Y-15697381D01*
X17838333Y-15716428D01*
X17828810Y-15725952D01*
X17809762Y-15735476D01*
X17790714Y-15735476D01*
X17771667Y-15725952D01*
X17762143Y-15716428D01*
X17752619Y-15697381D01*
X17743095Y-15659286D01*
X17743095Y-15611667D01*
X17752619Y-15573571D01*
X17762143Y-15554524D01*
X17771667Y-15545000D01*
X17790714Y-15535476D01*
X17943095Y-15716428D02*
X17952619Y-15725952D01*
X17943095Y-15735476D01*
X17933571Y-15725952D01*
X17943095Y-15716428D01*
X17943095Y-15735476D01*
X18028810Y-15554524D02*
X18038333Y-15545000D01*
X18057381Y-15535476D01*
X18105000Y-15535476D01*
X18124048Y-15545000D01*
X18133571Y-15554524D01*
X18143095Y-15573571D01*
X18143095Y-15592619D01*
X18133571Y-15621190D01*
X18019286Y-15735476D01*
X18143095Y-15735476D01*
X18324048Y-15535476D02*
X18228810Y-15535476D01*
X18219286Y-15630714D01*
X18228810Y-15621190D01*
X18247857Y-15611667D01*
X18295476Y-15611667D01*
X18314524Y-15621190D01*
X18324048Y-15630714D01*
X18333571Y-15649762D01*
X18333571Y-15697381D01*
X18324048Y-15716428D01*
X18314524Y-15725952D01*
X18295476Y-15735476D01*
X18247857Y-15735476D01*
X18228810Y-15725952D01*
X18219286Y-15716428D01*
X18457381Y-15535476D02*
X18476429Y-15535476D01*
X18495476Y-15545000D01*
X18505000Y-15554524D01*
X18514524Y-15573571D01*
X18524048Y-15611667D01*
X18524048Y-15659286D01*
X18514524Y-15697381D01*
X18505000Y-15716428D01*
X18495476Y-15725952D01*
X18476429Y-15735476D01*
X18457381Y-15735476D01*
X18438333Y-15725952D01*
X18428810Y-15716428D01*
X18419286Y-15697381D01*
X18409762Y-15659286D01*
X18409762Y-15611667D01*
X18419286Y-15573571D01*
X18428810Y-15554524D01*
X18438333Y-15545000D01*
X18457381Y-15535476D01*
X18609762Y-15735476D02*
X18609762Y-15602143D01*
X18609762Y-15621190D02*
X18619286Y-15611667D01*
X18638333Y-15602143D01*
X18666905Y-15602143D01*
X18685952Y-15611667D01*
X18695476Y-15630714D01*
X18695476Y-15735476D01*
X18695476Y-15630714D02*
X18705000Y-15611667D01*
X18724048Y-15602143D01*
X18752619Y-15602143D01*
X18771667Y-15611667D01*
X18781190Y-15630714D01*
X18781190Y-15735476D01*
X18876429Y-15735476D02*
X18876429Y-15602143D01*
X18876429Y-15621190D02*
X18885952Y-15611667D01*
X18905000Y-15602143D01*
X18933571Y-15602143D01*
X18952619Y-15611667D01*
X18962143Y-15630714D01*
X18962143Y-15735476D01*
X18962143Y-15630714D02*
X18971667Y-15611667D01*
X18990714Y-15602143D01*
X19019286Y-15602143D01*
X19038333Y-15611667D01*
X19047857Y-15630714D01*
X19047857Y-15735476D01*
X19438333Y-15525952D02*
X19266905Y-15783095D01*
X19695476Y-15535476D02*
X19714524Y-15535476D01*
X19733571Y-15545000D01*
X19743095Y-15554524D01*
X19752619Y-15573571D01*
X19762143Y-15611667D01*
X19762143Y-15659286D01*
X19752619Y-15697381D01*
X19743095Y-15716428D01*
X19733571Y-15725952D01*
X19714524Y-15735476D01*
X19695476Y-15735476D01*
X19676429Y-15725952D01*
X19666905Y-15716428D01*
X19657381Y-15697381D01*
X19647857Y-15659286D01*
X19647857Y-15611667D01*
X19657381Y-15573571D01*
X19666905Y-15554524D01*
X19676429Y-15545000D01*
X19695476Y-15535476D01*
X19847857Y-15716428D02*
X19857381Y-15725952D01*
X19847857Y-15735476D01*
X19838333Y-15725952D01*
X19847857Y-15716428D01*
X19847857Y-15735476D01*
X19981190Y-15535476D02*
X20000238Y-15535476D01*
X20019286Y-15545000D01*
X20028810Y-15554524D01*
X20038333Y-15573571D01*
X20047857Y-15611667D01*
X20047857Y-15659286D01*
X20038333Y-15697381D01*
X20028810Y-15716428D01*
X20019286Y-15725952D01*
X20000238Y-15735476D01*
X19981190Y-15735476D01*
X19962143Y-15725952D01*
X19952619Y-15716428D01*
X19943095Y-15697381D01*
X19933571Y-15659286D01*
X19933571Y-15611667D01*
X19943095Y-15573571D01*
X19952619Y-15554524D01*
X19962143Y-15545000D01*
X19981190Y-15535476D01*
X20171667Y-15535476D02*
X20190714Y-15535476D01*
X20209762Y-15545000D01*
X20219286Y-15554524D01*
X20228810Y-15573571D01*
X20238333Y-15611667D01*
X20238333Y-15659286D01*
X20228810Y-15697381D01*
X20219286Y-15716428D01*
X20209762Y-15725952D01*
X20190714Y-15735476D01*
X20171667Y-15735476D01*
X20152619Y-15725952D01*
X20143095Y-15716428D01*
X20133571Y-15697381D01*
X20124048Y-15659286D01*
X20124048Y-15611667D01*
X20133571Y-15573571D01*
X20143095Y-15554524D01*
X20152619Y-15545000D01*
X20171667Y-15535476D01*
X20333571Y-15735476D02*
X20371667Y-15735476D01*
X20390714Y-15725952D01*
X20400238Y-15716428D01*
X20419286Y-15687857D01*
X20428810Y-15649762D01*
X20428810Y-15573571D01*
X20419286Y-15554524D01*
X20409762Y-15545000D01*
X20390714Y-15535476D01*
X20352619Y-15535476D01*
X20333571Y-15545000D01*
X20324048Y-15554524D01*
X20314524Y-15573571D01*
X20314524Y-15621190D01*
X20324048Y-15640238D01*
X20333571Y-15649762D01*
X20352619Y-15659286D01*
X20390714Y-15659286D01*
X20409762Y-15649762D01*
X20419286Y-15640238D01*
X20428810Y-15621190D01*
X20543095Y-15621190D02*
X20524048Y-15611667D01*
X20514524Y-15602143D01*
X20505000Y-15583095D01*
X20505000Y-15573571D01*
X20514524Y-15554524D01*
X20524048Y-15545000D01*
X20543095Y-15535476D01*
X20581190Y-15535476D01*
X20600238Y-15545000D01*
X20609762Y-15554524D01*
X20619286Y-15573571D01*
X20619286Y-15583095D01*
X20609762Y-15602143D01*
X20600238Y-15611667D01*
X20581190Y-15621190D01*
X20543095Y-15621190D01*
X20524048Y-15630714D01*
X20514524Y-15640238D01*
X20505000Y-15659286D01*
X20505000Y-15697381D01*
X20514524Y-15716428D01*
X20524048Y-15725952D01*
X20543095Y-15735476D01*
X20581190Y-15735476D01*
X20600238Y-15725952D01*
X20609762Y-15716428D01*
X20619286Y-15697381D01*
X20619286Y-15659286D01*
X20609762Y-15640238D01*
X20600238Y-15630714D01*
X20581190Y-15621190D01*
X20695476Y-15535476D02*
X20695476Y-15573571D01*
X20771667Y-15535476D02*
X20771667Y-15573571D01*
X21066905Y-15811667D02*
X21057381Y-15802143D01*
X21038333Y-15773571D01*
X21028810Y-15754524D01*
X21019286Y-15725952D01*
X21009762Y-15678333D01*
X21009762Y-15640238D01*
X21019286Y-15592619D01*
X21028810Y-15564048D01*
X21038333Y-15545000D01*
X21057381Y-15516428D01*
X21066905Y-15506905D01*
X21133571Y-15554524D02*
X21143095Y-15545000D01*
X21162143Y-15535476D01*
X21209762Y-15535476D01*
X21228810Y-15545000D01*
X21238333Y-15554524D01*
X21247857Y-15573571D01*
X21247857Y-15592619D01*
X21238333Y-15621190D01*
X21124048Y-15735476D01*
X21247857Y-15735476D01*
X21419286Y-15535476D02*
X21381190Y-15535476D01*
X21362143Y-15545000D01*
X21352619Y-15554524D01*
X21333571Y-15583095D01*
X21324048Y-15621190D01*
X21324048Y-15697381D01*
X21333571Y-15716428D01*
X21343095Y-15725952D01*
X21362143Y-15735476D01*
X21400238Y-15735476D01*
X21419286Y-15725952D01*
X21428810Y-15716428D01*
X21438333Y-15697381D01*
X21438333Y-15649762D01*
X21428810Y-15630714D01*
X21419286Y-15621190D01*
X21400238Y-15611667D01*
X21362143Y-15611667D01*
X21343095Y-15621190D01*
X21333571Y-15630714D01*
X21324048Y-15649762D01*
X21505000Y-15535476D02*
X21638333Y-15535476D01*
X21552619Y-15735476D01*
X21866905Y-15735476D02*
X21866905Y-15535476D01*
X21952619Y-15735476D02*
X21952619Y-15630714D01*
X21943095Y-15611667D01*
X21924048Y-15602143D01*
X21895476Y-15602143D01*
X21876429Y-15611667D01*
X21866905Y-15621190D01*
X22076429Y-15735476D02*
X22057381Y-15725952D01*
X22047857Y-15716428D01*
X22038333Y-15697381D01*
X22038333Y-15640238D01*
X22047857Y-15621190D01*
X22057381Y-15611667D01*
X22076429Y-15602143D01*
X22105000Y-15602143D01*
X22124048Y-15611667D01*
X22133571Y-15621190D01*
X22143095Y-15640238D01*
X22143095Y-15697381D01*
X22133571Y-15716428D01*
X22124048Y-15725952D01*
X22105000Y-15735476D01*
X22076429Y-15735476D01*
X22257381Y-15735476D02*
X22238333Y-15725952D01*
X22228810Y-15706905D01*
X22228810Y-15535476D01*
X22409762Y-15725952D02*
X22390714Y-15735476D01*
X22352619Y-15735476D01*
X22333571Y-15725952D01*
X22324048Y-15706905D01*
X22324048Y-15630714D01*
X22333571Y-15611667D01*
X22352619Y-15602143D01*
X22390714Y-15602143D01*
X22409762Y-15611667D01*
X22419286Y-15630714D01*
X22419286Y-15649762D01*
X22324048Y-15668809D01*
X22495476Y-15725952D02*
X22514524Y-15735476D01*
X22552619Y-15735476D01*
X22571667Y-15725952D01*
X22581190Y-15706905D01*
X22581190Y-15697381D01*
X22571667Y-15678333D01*
X22552619Y-15668809D01*
X22524048Y-15668809D01*
X22505000Y-15659286D01*
X22495476Y-15640238D01*
X22495476Y-15630714D01*
X22505000Y-15611667D01*
X22524048Y-15602143D01*
X22552619Y-15602143D01*
X22571667Y-15611667D01*
X22647857Y-15811667D02*
X22657381Y-15802143D01*
X22676428Y-15773571D01*
X22685952Y-15754524D01*
X22695476Y-15725952D01*
X22705000Y-15678333D01*
X22705000Y-15640238D01*
X22695476Y-15592619D01*
X22685952Y-15564048D01*
X22676428Y-15545000D01*
X22657381Y-15516428D01*
X22647857Y-15506905D01*
D13*
X17495000Y-15909000D02*
G75*
G03*
X17495000Y-15909000I-20000J0D01*
G01*
D11*
X17790714Y-15799476D02*
X17809762Y-15799476D01*
X17828810Y-15809000D01*
X17838333Y-15818524D01*
X17847857Y-15837571D01*
X17857381Y-15875667D01*
X17857381Y-15923286D01*
X17847857Y-15961381D01*
X17838333Y-15980428D01*
X17828810Y-15989952D01*
X17809762Y-15999476D01*
X17790714Y-15999476D01*
X17771667Y-15989952D01*
X17762143Y-15980428D01*
X17752619Y-15961381D01*
X17743095Y-15923286D01*
X17743095Y-15875667D01*
X17752619Y-15837571D01*
X17762143Y-15818524D01*
X17771667Y-15809000D01*
X17790714Y-15799476D01*
X17943095Y-15980428D02*
X17952619Y-15989952D01*
X17943095Y-15999476D01*
X17933571Y-15989952D01*
X17943095Y-15980428D01*
X17943095Y-15999476D01*
X18124048Y-15866143D02*
X18124048Y-15999476D01*
X18076429Y-15789952D02*
X18028810Y-15932809D01*
X18152619Y-15932809D01*
X18266905Y-15799476D02*
X18285952Y-15799476D01*
X18305000Y-15809000D01*
X18314524Y-15818524D01*
X18324048Y-15837571D01*
X18333571Y-15875667D01*
X18333571Y-15923286D01*
X18324048Y-15961381D01*
X18314524Y-15980428D01*
X18305000Y-15989952D01*
X18285952Y-15999476D01*
X18266905Y-15999476D01*
X18247857Y-15989952D01*
X18238333Y-15980428D01*
X18228810Y-15961381D01*
X18219286Y-15923286D01*
X18219286Y-15875667D01*
X18228810Y-15837571D01*
X18238333Y-15818524D01*
X18247857Y-15809000D01*
X18266905Y-15799476D01*
X18457381Y-15799476D02*
X18476429Y-15799476D01*
X18495476Y-15809000D01*
X18505000Y-15818524D01*
X18514524Y-15837571D01*
X18524048Y-15875667D01*
X18524048Y-15923286D01*
X18514524Y-15961381D01*
X18505000Y-15980428D01*
X18495476Y-15989952D01*
X18476429Y-15999476D01*
X18457381Y-15999476D01*
X18438333Y-15989952D01*
X18428810Y-15980428D01*
X18419286Y-15961381D01*
X18409762Y-15923286D01*
X18409762Y-15875667D01*
X18419286Y-15837571D01*
X18428810Y-15818524D01*
X18438333Y-15809000D01*
X18457381Y-15799476D01*
X18609762Y-15999476D02*
X18609762Y-15866143D01*
X18609762Y-15885190D02*
X18619286Y-15875667D01*
X18638333Y-15866143D01*
X18666905Y-15866143D01*
X18685952Y-15875667D01*
X18695476Y-15894714D01*
X18695476Y-15999476D01*
X18695476Y-15894714D02*
X18705000Y-15875667D01*
X18724048Y-15866143D01*
X18752619Y-15866143D01*
X18771667Y-15875667D01*
X18781190Y-15894714D01*
X18781190Y-15999476D01*
X18876429Y-15999476D02*
X18876429Y-15866143D01*
X18876429Y-15885190D02*
X18885952Y-15875667D01*
X18905000Y-15866143D01*
X18933571Y-15866143D01*
X18952619Y-15875667D01*
X18962143Y-15894714D01*
X18962143Y-15999476D01*
X18962143Y-15894714D02*
X18971667Y-15875667D01*
X18990714Y-15866143D01*
X19019286Y-15866143D01*
X19038333Y-15875667D01*
X19047857Y-15894714D01*
X19047857Y-15999476D01*
X19438333Y-15789952D02*
X19266905Y-16047095D01*
X19695476Y-15799476D02*
X19714524Y-15799476D01*
X19733571Y-15809000D01*
X19743095Y-15818524D01*
X19752619Y-15837571D01*
X19762143Y-15875667D01*
X19762143Y-15923286D01*
X19752619Y-15961381D01*
X19743095Y-15980428D01*
X19733571Y-15989952D01*
X19714524Y-15999476D01*
X19695476Y-15999476D01*
X19676429Y-15989952D01*
X19666905Y-15980428D01*
X19657381Y-15961381D01*
X19647857Y-15923286D01*
X19647857Y-15875667D01*
X19657381Y-15837571D01*
X19666905Y-15818524D01*
X19676429Y-15809000D01*
X19695476Y-15799476D01*
X19847857Y-15980428D02*
X19857381Y-15989952D01*
X19847857Y-15999476D01*
X19838333Y-15989952D01*
X19847857Y-15980428D01*
X19847857Y-15999476D01*
X19981190Y-15799476D02*
X20000238Y-15799476D01*
X20019286Y-15809000D01*
X20028810Y-15818524D01*
X20038333Y-15837571D01*
X20047857Y-15875667D01*
X20047857Y-15923286D01*
X20038333Y-15961381D01*
X20028810Y-15980428D01*
X20019286Y-15989952D01*
X20000238Y-15999476D01*
X19981190Y-15999476D01*
X19962143Y-15989952D01*
X19952619Y-15980428D01*
X19943095Y-15961381D01*
X19933571Y-15923286D01*
X19933571Y-15875667D01*
X19943095Y-15837571D01*
X19952619Y-15818524D01*
X19962143Y-15809000D01*
X19981190Y-15799476D01*
X20238333Y-15999476D02*
X20124048Y-15999476D01*
X20181190Y-15999476D02*
X20181190Y-15799476D01*
X20162143Y-15828048D01*
X20143095Y-15847095D01*
X20124048Y-15856619D01*
X20419286Y-15799476D02*
X20324048Y-15799476D01*
X20314524Y-15894714D01*
X20324048Y-15885190D01*
X20343095Y-15875667D01*
X20390714Y-15875667D01*
X20409762Y-15885190D01*
X20419286Y-15894714D01*
X20428810Y-15913762D01*
X20428810Y-15961381D01*
X20419286Y-15980428D01*
X20409762Y-15989952D01*
X20390714Y-15999476D01*
X20343095Y-15999476D01*
X20324048Y-15989952D01*
X20314524Y-15980428D01*
X20495476Y-15799476D02*
X20628810Y-15799476D01*
X20543095Y-15999476D01*
X20695476Y-15799476D02*
X20695476Y-15837571D01*
X20771667Y-15799476D02*
X20771667Y-15837571D01*
X21066905Y-16075667D02*
X21057381Y-16066143D01*
X21038333Y-16037571D01*
X21028810Y-16018524D01*
X21019286Y-15989952D01*
X21009762Y-15942333D01*
X21009762Y-15904238D01*
X21019286Y-15856619D01*
X21028810Y-15828048D01*
X21038333Y-15809000D01*
X21057381Y-15780428D01*
X21066905Y-15770905D01*
X21228810Y-15866143D02*
X21228810Y-15999476D01*
X21181190Y-15789952D02*
X21133571Y-15932809D01*
X21257381Y-15932809D01*
X21314524Y-15799476D02*
X21438333Y-15799476D01*
X21371667Y-15875667D01*
X21400238Y-15875667D01*
X21419286Y-15885190D01*
X21428810Y-15894714D01*
X21438333Y-15913762D01*
X21438333Y-15961381D01*
X21428810Y-15980428D01*
X21419286Y-15989952D01*
X21400238Y-15999476D01*
X21343095Y-15999476D01*
X21324048Y-15989952D01*
X21314524Y-15980428D01*
X21676429Y-15999476D02*
X21676429Y-15799476D01*
X21762143Y-15999476D02*
X21762143Y-15894714D01*
X21752619Y-15875667D01*
X21733571Y-15866143D01*
X21705000Y-15866143D01*
X21685952Y-15875667D01*
X21676429Y-15885190D01*
X21885952Y-15999476D02*
X21866905Y-15989952D01*
X21857381Y-15980428D01*
X21847857Y-15961381D01*
X21847857Y-15904238D01*
X21857381Y-15885190D01*
X21866905Y-15875667D01*
X21885952Y-15866143D01*
X21914524Y-15866143D01*
X21933571Y-15875667D01*
X21943095Y-15885190D01*
X21952619Y-15904238D01*
X21952619Y-15961381D01*
X21943095Y-15980428D01*
X21933571Y-15989952D01*
X21914524Y-15999476D01*
X21885952Y-15999476D01*
X22066905Y-15999476D02*
X22047857Y-15989952D01*
X22038333Y-15970905D01*
X22038333Y-15799476D01*
X22219286Y-15989952D02*
X22200238Y-15999476D01*
X22162143Y-15999476D01*
X22143095Y-15989952D01*
X22133571Y-15970905D01*
X22133571Y-15894714D01*
X22143095Y-15875667D01*
X22162143Y-15866143D01*
X22200238Y-15866143D01*
X22219286Y-15875667D01*
X22228810Y-15894714D01*
X22228810Y-15913762D01*
X22133571Y-15932809D01*
X22305000Y-15989952D02*
X22324048Y-15999476D01*
X22362143Y-15999476D01*
X22381190Y-15989952D01*
X22390714Y-15970905D01*
X22390714Y-15961381D01*
X22381190Y-15942333D01*
X22362143Y-15932809D01*
X22333571Y-15932809D01*
X22314524Y-15923286D01*
X22305000Y-15904238D01*
X22305000Y-15894714D01*
X22314524Y-15875667D01*
X22333571Y-15866143D01*
X22362143Y-15866143D01*
X22381190Y-15875667D01*
X22457381Y-16075667D02*
X22466905Y-16066143D01*
X22485952Y-16037571D01*
X22495476Y-16018524D01*
X22505000Y-15989952D01*
X22514524Y-15942333D01*
X22514524Y-15904238D01*
X22505000Y-15856619D01*
X22495476Y-15828048D01*
X22485952Y-15809000D01*
X22466905Y-15780428D01*
X22457381Y-15770905D01*
D14*
X17470000Y-16148000D02*
X17470000Y-16198000D01*
X17445000Y-16173000D02*
X17495000Y-16173000D01*
D11*
X17790714Y-16063476D02*
X17809762Y-16063476D01*
X17828810Y-16073000D01*
X17838333Y-16082524D01*
X17847857Y-16101571D01*
X17857381Y-16139667D01*
X17857381Y-16187286D01*
X17847857Y-16225381D01*
X17838333Y-16244428D01*
X17828810Y-16253952D01*
X17809762Y-16263476D01*
X17790714Y-16263476D01*
X17771667Y-16253952D01*
X17762143Y-16244428D01*
X17752619Y-16225381D01*
X17743095Y-16187286D01*
X17743095Y-16139667D01*
X17752619Y-16101571D01*
X17762143Y-16082524D01*
X17771667Y-16073000D01*
X17790714Y-16063476D01*
X17943095Y-16244428D02*
X17952619Y-16253952D01*
X17943095Y-16263476D01*
X17933571Y-16253952D01*
X17943095Y-16244428D01*
X17943095Y-16263476D01*
X18133571Y-16063476D02*
X18038333Y-16063476D01*
X18028810Y-16158714D01*
X18038333Y-16149190D01*
X18057381Y-16139667D01*
X18105000Y-16139667D01*
X18124048Y-16149190D01*
X18133571Y-16158714D01*
X18143095Y-16177762D01*
X18143095Y-16225381D01*
X18133571Y-16244428D01*
X18124048Y-16253952D01*
X18105000Y-16263476D01*
X18057381Y-16263476D01*
X18038333Y-16253952D01*
X18028810Y-16244428D01*
X18266905Y-16063476D02*
X18285952Y-16063476D01*
X18305000Y-16073000D01*
X18314524Y-16082524D01*
X18324048Y-16101571D01*
X18333571Y-16139667D01*
X18333571Y-16187286D01*
X18324048Y-16225381D01*
X18314524Y-16244428D01*
X18305000Y-16253952D01*
X18285952Y-16263476D01*
X18266905Y-16263476D01*
X18247857Y-16253952D01*
X18238333Y-16244428D01*
X18228810Y-16225381D01*
X18219286Y-16187286D01*
X18219286Y-16139667D01*
X18228810Y-16101571D01*
X18238333Y-16082524D01*
X18247857Y-16073000D01*
X18266905Y-16063476D01*
X18457381Y-16063476D02*
X18476429Y-16063476D01*
X18495476Y-16073000D01*
X18505000Y-16082524D01*
X18514524Y-16101571D01*
X18524048Y-16139667D01*
X18524048Y-16187286D01*
X18514524Y-16225381D01*
X18505000Y-16244428D01*
X18495476Y-16253952D01*
X18476429Y-16263476D01*
X18457381Y-16263476D01*
X18438333Y-16253952D01*
X18428810Y-16244428D01*
X18419286Y-16225381D01*
X18409762Y-16187286D01*
X18409762Y-16139667D01*
X18419286Y-16101571D01*
X18428810Y-16082524D01*
X18438333Y-16073000D01*
X18457381Y-16063476D01*
X18609762Y-16263476D02*
X18609762Y-16130143D01*
X18609762Y-16149190D02*
X18619286Y-16139667D01*
X18638333Y-16130143D01*
X18666905Y-16130143D01*
X18685952Y-16139667D01*
X18695476Y-16158714D01*
X18695476Y-16263476D01*
X18695476Y-16158714D02*
X18705000Y-16139667D01*
X18724048Y-16130143D01*
X18752619Y-16130143D01*
X18771667Y-16139667D01*
X18781190Y-16158714D01*
X18781190Y-16263476D01*
X18876429Y-16263476D02*
X18876429Y-16130143D01*
X18876429Y-16149190D02*
X18885952Y-16139667D01*
X18905000Y-16130143D01*
X18933571Y-16130143D01*
X18952619Y-16139667D01*
X18962143Y-16158714D01*
X18962143Y-16263476D01*
X18962143Y-16158714D02*
X18971667Y-16139667D01*
X18990714Y-16130143D01*
X19019286Y-16130143D01*
X19038333Y-16139667D01*
X19047857Y-16158714D01*
X19047857Y-16263476D01*
X19438333Y-16053952D02*
X19266905Y-16311095D01*
X19695476Y-16063476D02*
X19714524Y-16063476D01*
X19733571Y-16073000D01*
X19743095Y-16082524D01*
X19752619Y-16101571D01*
X19762143Y-16139667D01*
X19762143Y-16187286D01*
X19752619Y-16225381D01*
X19743095Y-16244428D01*
X19733571Y-16253952D01*
X19714524Y-16263476D01*
X19695476Y-16263476D01*
X19676429Y-16253952D01*
X19666905Y-16244428D01*
X19657381Y-16225381D01*
X19647857Y-16187286D01*
X19647857Y-16139667D01*
X19657381Y-16101571D01*
X19666905Y-16082524D01*
X19676429Y-16073000D01*
X19695476Y-16063476D01*
X19847857Y-16244428D02*
X19857381Y-16253952D01*
X19847857Y-16263476D01*
X19838333Y-16253952D01*
X19847857Y-16244428D01*
X19847857Y-16263476D01*
X19981190Y-16063476D02*
X20000238Y-16063476D01*
X20019286Y-16073000D01*
X20028810Y-16082524D01*
X20038333Y-16101571D01*
X20047857Y-16139667D01*
X20047857Y-16187286D01*
X20038333Y-16225381D01*
X20028810Y-16244428D01*
X20019286Y-16253952D01*
X20000238Y-16263476D01*
X19981190Y-16263476D01*
X19962143Y-16253952D01*
X19952619Y-16244428D01*
X19943095Y-16225381D01*
X19933571Y-16187286D01*
X19933571Y-16139667D01*
X19943095Y-16101571D01*
X19952619Y-16082524D01*
X19962143Y-16073000D01*
X19981190Y-16063476D01*
X20238333Y-16263476D02*
X20124048Y-16263476D01*
X20181190Y-16263476D02*
X20181190Y-16063476D01*
X20162143Y-16092048D01*
X20143095Y-16111095D01*
X20124048Y-16120619D01*
X20333571Y-16263476D02*
X20371667Y-16263476D01*
X20390714Y-16253952D01*
X20400238Y-16244428D01*
X20419286Y-16215857D01*
X20428810Y-16177762D01*
X20428810Y-16101571D01*
X20419286Y-16082524D01*
X20409762Y-16073000D01*
X20390714Y-16063476D01*
X20352619Y-16063476D01*
X20333571Y-16073000D01*
X20324048Y-16082524D01*
X20314524Y-16101571D01*
X20314524Y-16149190D01*
X20324048Y-16168238D01*
X20333571Y-16177762D01*
X20352619Y-16187286D01*
X20390714Y-16187286D01*
X20409762Y-16177762D01*
X20419286Y-16168238D01*
X20428810Y-16149190D01*
X20495476Y-16063476D02*
X20628810Y-16063476D01*
X20543095Y-16263476D01*
X20695476Y-16063476D02*
X20695476Y-16101571D01*
X20771667Y-16063476D02*
X20771667Y-16101571D01*
X21066905Y-16339667D02*
X21057381Y-16330143D01*
X21038333Y-16301571D01*
X21028810Y-16282524D01*
X21019286Y-16253952D01*
X21009762Y-16206333D01*
X21009762Y-16168238D01*
X21019286Y-16120619D01*
X21028810Y-16092048D01*
X21038333Y-16073000D01*
X21057381Y-16044428D01*
X21066905Y-16034905D01*
X21124048Y-16063476D02*
X21247857Y-16063476D01*
X21181190Y-16139667D01*
X21209762Y-16139667D01*
X21228810Y-16149190D01*
X21238333Y-16158714D01*
X21247857Y-16177762D01*
X21247857Y-16225381D01*
X21238333Y-16244428D01*
X21228810Y-16253952D01*
X21209762Y-16263476D01*
X21152619Y-16263476D01*
X21133571Y-16253952D01*
X21124048Y-16244428D01*
X21485952Y-16263476D02*
X21485952Y-16063476D01*
X21571667Y-16263476D02*
X21571667Y-16158714D01*
X21562143Y-16139667D01*
X21543095Y-16130143D01*
X21514524Y-16130143D01*
X21495476Y-16139667D01*
X21485952Y-16149190D01*
X21695476Y-16263476D02*
X21676429Y-16253952D01*
X21666905Y-16244428D01*
X21657381Y-16225381D01*
X21657381Y-16168238D01*
X21666905Y-16149190D01*
X21676429Y-16139667D01*
X21695476Y-16130143D01*
X21724048Y-16130143D01*
X21743095Y-16139667D01*
X21752619Y-16149190D01*
X21762143Y-16168238D01*
X21762143Y-16225381D01*
X21752619Y-16244428D01*
X21743095Y-16253952D01*
X21724048Y-16263476D01*
X21695476Y-16263476D01*
X21876429Y-16263476D02*
X21857381Y-16253952D01*
X21847857Y-16234905D01*
X21847857Y-16063476D01*
X22028810Y-16253952D02*
X22009762Y-16263476D01*
X21971667Y-16263476D01*
X21952619Y-16253952D01*
X21943095Y-16234905D01*
X21943095Y-16158714D01*
X21952619Y-16139667D01*
X21971667Y-16130143D01*
X22009762Y-16130143D01*
X22028810Y-16139667D01*
X22038333Y-16158714D01*
X22038333Y-16177762D01*
X21943095Y-16196809D01*
X22114524Y-16253952D02*
X22133571Y-16263476D01*
X22171667Y-16263476D01*
X22190714Y-16253952D01*
X22200238Y-16234905D01*
X22200238Y-16225381D01*
X22190714Y-16206333D01*
X22171667Y-16196809D01*
X22143095Y-16196809D01*
X22124048Y-16187286D01*
X22114524Y-16168238D01*
X22114524Y-16158714D01*
X22124048Y-16139667D01*
X22143095Y-16130143D01*
X22171667Y-16130143D01*
X22190714Y-16139667D01*
X22266905Y-16339667D02*
X22276429Y-16330143D01*
X22295476Y-16301571D01*
X22305000Y-16282524D01*
X22314524Y-16253952D01*
X22324048Y-16206333D01*
X22324048Y-16168238D01*
X22314524Y-16120619D01*
X22305000Y-16092048D01*
X22295476Y-16073000D01*
X22276429Y-16044428D01*
X22266905Y-16034905D01*
D15*
X17483285Y-16465284D02*
X17483285Y-16408715D01*
X17426716Y-16408715D01*
X17426716Y-16465284D01*
X17483285Y-16465284D01*
D11*
X17790714Y-16327476D02*
X17809762Y-16327476D01*
X17828810Y-16337000D01*
X17838333Y-16346524D01*
X17847857Y-16365571D01*
X17857381Y-16403667D01*
X17857381Y-16451286D01*
X17847857Y-16489381D01*
X17838333Y-16508428D01*
X17828810Y-16517952D01*
X17809762Y-16527476D01*
X17790714Y-16527476D01*
X17771667Y-16517952D01*
X17762143Y-16508428D01*
X17752619Y-16489381D01*
X17743095Y-16451286D01*
X17743095Y-16403667D01*
X17752619Y-16365571D01*
X17762143Y-16346524D01*
X17771667Y-16337000D01*
X17790714Y-16327476D01*
X17943095Y-16508428D02*
X17952619Y-16517952D01*
X17943095Y-16527476D01*
X17933571Y-16517952D01*
X17943095Y-16508428D01*
X17943095Y-16527476D01*
X18066905Y-16413190D02*
X18047857Y-16403667D01*
X18038333Y-16394143D01*
X18028810Y-16375095D01*
X18028810Y-16365571D01*
X18038333Y-16346524D01*
X18047857Y-16337000D01*
X18066905Y-16327476D01*
X18105000Y-16327476D01*
X18124048Y-16337000D01*
X18133571Y-16346524D01*
X18143095Y-16365571D01*
X18143095Y-16375095D01*
X18133571Y-16394143D01*
X18124048Y-16403667D01*
X18105000Y-16413190D01*
X18066905Y-16413190D01*
X18047857Y-16422714D01*
X18038333Y-16432238D01*
X18028810Y-16451286D01*
X18028810Y-16489381D01*
X18038333Y-16508428D01*
X18047857Y-16517952D01*
X18066905Y-16527476D01*
X18105000Y-16527476D01*
X18124048Y-16517952D01*
X18133571Y-16508428D01*
X18143095Y-16489381D01*
X18143095Y-16451286D01*
X18133571Y-16432238D01*
X18124048Y-16422714D01*
X18105000Y-16413190D01*
X18266905Y-16327476D02*
X18285952Y-16327476D01*
X18305000Y-16337000D01*
X18314524Y-16346524D01*
X18324048Y-16365571D01*
X18333571Y-16403667D01*
X18333571Y-16451286D01*
X18324048Y-16489381D01*
X18314524Y-16508428D01*
X18305000Y-16517952D01*
X18285952Y-16527476D01*
X18266905Y-16527476D01*
X18247857Y-16517952D01*
X18238333Y-16508428D01*
X18228810Y-16489381D01*
X18219286Y-16451286D01*
X18219286Y-16403667D01*
X18228810Y-16365571D01*
X18238333Y-16346524D01*
X18247857Y-16337000D01*
X18266905Y-16327476D01*
X18457381Y-16327476D02*
X18476429Y-16327476D01*
X18495476Y-16337000D01*
X18505000Y-16346524D01*
X18514524Y-16365571D01*
X18524048Y-16403667D01*
X18524048Y-16451286D01*
X18514524Y-16489381D01*
X18505000Y-16508428D01*
X18495476Y-16517952D01*
X18476429Y-16527476D01*
X18457381Y-16527476D01*
X18438333Y-16517952D01*
X18428810Y-16508428D01*
X18419286Y-16489381D01*
X18409762Y-16451286D01*
X18409762Y-16403667D01*
X18419286Y-16365571D01*
X18428810Y-16346524D01*
X18438333Y-16337000D01*
X18457381Y-16327476D01*
X18609762Y-16527476D02*
X18609762Y-16394143D01*
X18609762Y-16413190D02*
X18619286Y-16403667D01*
X18638333Y-16394143D01*
X18666905Y-16394143D01*
X18685952Y-16403667D01*
X18695476Y-16422714D01*
X18695476Y-16527476D01*
X18695476Y-16422714D02*
X18705000Y-16403667D01*
X18724048Y-16394143D01*
X18752619Y-16394143D01*
X18771667Y-16403667D01*
X18781190Y-16422714D01*
X18781190Y-16527476D01*
X18876429Y-16527476D02*
X18876429Y-16394143D01*
X18876429Y-16413190D02*
X18885952Y-16403667D01*
X18905000Y-16394143D01*
X18933571Y-16394143D01*
X18952619Y-16403667D01*
X18962143Y-16422714D01*
X18962143Y-16527476D01*
X18962143Y-16422714D02*
X18971667Y-16403667D01*
X18990714Y-16394143D01*
X19019286Y-16394143D01*
X19038333Y-16403667D01*
X19047857Y-16422714D01*
X19047857Y-16527476D01*
X19438333Y-16317952D02*
X19266905Y-16575095D01*
X19695476Y-16327476D02*
X19714524Y-16327476D01*
X19733571Y-16337000D01*
X19743095Y-16346524D01*
X19752619Y-16365571D01*
X19762143Y-16403667D01*
X19762143Y-16451286D01*
X19752619Y-16489381D01*
X19743095Y-16508428D01*
X19733571Y-16517952D01*
X19714524Y-16527476D01*
X19695476Y-16527476D01*
X19676429Y-16517952D01*
X19666905Y-16508428D01*
X19657381Y-16489381D01*
X19647857Y-16451286D01*
X19647857Y-16403667D01*
X19657381Y-16365571D01*
X19666905Y-16346524D01*
X19676429Y-16337000D01*
X19695476Y-16327476D01*
X19847857Y-16508428D02*
X19857381Y-16517952D01*
X19847857Y-16527476D01*
X19838333Y-16517952D01*
X19847857Y-16508428D01*
X19847857Y-16527476D01*
X19981190Y-16327476D02*
X20000238Y-16327476D01*
X20019286Y-16337000D01*
X20028810Y-16346524D01*
X20038333Y-16365571D01*
X20047857Y-16403667D01*
X20047857Y-16451286D01*
X20038333Y-16489381D01*
X20028810Y-16508428D01*
X20019286Y-16517952D01*
X20000238Y-16527476D01*
X19981190Y-16527476D01*
X19962143Y-16517952D01*
X19952619Y-16508428D01*
X19943095Y-16489381D01*
X19933571Y-16451286D01*
X19933571Y-16403667D01*
X19943095Y-16365571D01*
X19952619Y-16346524D01*
X19962143Y-16337000D01*
X19981190Y-16327476D01*
X20114524Y-16327476D02*
X20238333Y-16327476D01*
X20171667Y-16403667D01*
X20200238Y-16403667D01*
X20219286Y-16413190D01*
X20228810Y-16422714D01*
X20238333Y-16441762D01*
X20238333Y-16489381D01*
X20228810Y-16508428D01*
X20219286Y-16517952D01*
X20200238Y-16527476D01*
X20143095Y-16527476D01*
X20124048Y-16517952D01*
X20114524Y-16508428D01*
X20428810Y-16527476D02*
X20314524Y-16527476D01*
X20371667Y-16527476D02*
X20371667Y-16327476D01*
X20352619Y-16356048D01*
X20333571Y-16375095D01*
X20314524Y-16384619D01*
X20609762Y-16327476D02*
X20514524Y-16327476D01*
X20505000Y-16422714D01*
X20514524Y-16413190D01*
X20533571Y-16403667D01*
X20581190Y-16403667D01*
X20600238Y-16413190D01*
X20609762Y-16422714D01*
X20619286Y-16441762D01*
X20619286Y-16489381D01*
X20609762Y-16508428D01*
X20600238Y-16517952D01*
X20581190Y-16527476D01*
X20533571Y-16527476D01*
X20514524Y-16517952D01*
X20505000Y-16508428D01*
X20695476Y-16327476D02*
X20695476Y-16365571D01*
X20771667Y-16327476D02*
X20771667Y-16365571D01*
X21066905Y-16603667D02*
X21057381Y-16594143D01*
X21038333Y-16565571D01*
X21028810Y-16546524D01*
X21019286Y-16517952D01*
X21009762Y-16470333D01*
X21009762Y-16432238D01*
X21019286Y-16384619D01*
X21028810Y-16356048D01*
X21038333Y-16337000D01*
X21057381Y-16308428D01*
X21066905Y-16298905D01*
X21228810Y-16394143D02*
X21228810Y-16527476D01*
X21181190Y-16317952D02*
X21133571Y-16460809D01*
X21257381Y-16460809D01*
X21485952Y-16527476D02*
X21485952Y-16327476D01*
X21571667Y-16527476D02*
X21571667Y-16422714D01*
X21562143Y-16403667D01*
X21543095Y-16394143D01*
X21514524Y-16394143D01*
X21495476Y-16403667D01*
X21485952Y-16413190D01*
X21695476Y-16527476D02*
X21676429Y-16517952D01*
X21666905Y-16508428D01*
X21657381Y-16489381D01*
X21657381Y-16432238D01*
X21666905Y-16413190D01*
X21676429Y-16403667D01*
X21695476Y-16394143D01*
X21724048Y-16394143D01*
X21743095Y-16403667D01*
X21752619Y-16413190D01*
X21762143Y-16432238D01*
X21762143Y-16489381D01*
X21752619Y-16508428D01*
X21743095Y-16517952D01*
X21724048Y-16527476D01*
X21695476Y-16527476D01*
X21876429Y-16527476D02*
X21857381Y-16517952D01*
X21847857Y-16498905D01*
X21847857Y-16327476D01*
X22028810Y-16517952D02*
X22009762Y-16527476D01*
X21971667Y-16527476D01*
X21952619Y-16517952D01*
X21943095Y-16498905D01*
X21943095Y-16422714D01*
X21952619Y-16403667D01*
X21971667Y-16394143D01*
X22009762Y-16394143D01*
X22028810Y-16403667D01*
X22038333Y-16422714D01*
X22038333Y-16441762D01*
X21943095Y-16460809D01*
X22114524Y-16517952D02*
X22133571Y-16527476D01*
X22171667Y-16527476D01*
X22190714Y-16517952D01*
X22200238Y-16498905D01*
X22200238Y-16489381D01*
X22190714Y-16470333D01*
X22171667Y-16460809D01*
X22143095Y-16460809D01*
X22124048Y-16451286D01*
X22114524Y-16432238D01*
X22114524Y-16422714D01*
X22124048Y-16403667D01*
X22143095Y-16394143D01*
X22171667Y-16394143D01*
X22190714Y-16403667D01*
X22266905Y-16603667D02*
X22276429Y-16594143D01*
X22295476Y-16565571D01*
X22305000Y-16546524D01*
X22314524Y-16517952D01*
X22324048Y-16470333D01*
X22324048Y-16432238D01*
X22314524Y-16384619D01*
X22305000Y-16356048D01*
X22295476Y-16337000D01*
X22276429Y-16308428D01*
X22266905Y-16298905D01*
D16*
X17450000Y-16746000D02*
X17495000Y-16701000D01*
X17450000Y-16656000D01*
X17405000Y-16701000D01*
X17450000Y-16746000D01*
D11*
X17790714Y-16591476D02*
X17809762Y-16591476D01*
X17828810Y-16601000D01*
X17838333Y-16610524D01*
X17847857Y-16629571D01*
X17857381Y-16667667D01*
X17857381Y-16715286D01*
X17847857Y-16753381D01*
X17838333Y-16772428D01*
X17828810Y-16781952D01*
X17809762Y-16791476D01*
X17790714Y-16791476D01*
X17771667Y-16781952D01*
X17762143Y-16772428D01*
X17752619Y-16753381D01*
X17743095Y-16715286D01*
X17743095Y-16667667D01*
X17752619Y-16629571D01*
X17762143Y-16610524D01*
X17771667Y-16601000D01*
X17790714Y-16591476D01*
X17943095Y-16772428D02*
X17952619Y-16781952D01*
X17943095Y-16791476D01*
X17933571Y-16781952D01*
X17943095Y-16772428D01*
X17943095Y-16791476D01*
X18047857Y-16791476D02*
X18085952Y-16791476D01*
X18105000Y-16781952D01*
X18114524Y-16772428D01*
X18133571Y-16743857D01*
X18143095Y-16705762D01*
X18143095Y-16629571D01*
X18133571Y-16610524D01*
X18124048Y-16601000D01*
X18105000Y-16591476D01*
X18066905Y-16591476D01*
X18047857Y-16601000D01*
X18038333Y-16610524D01*
X18028810Y-16629571D01*
X18028810Y-16677190D01*
X18038333Y-16696238D01*
X18047857Y-16705762D01*
X18066905Y-16715286D01*
X18105000Y-16715286D01*
X18124048Y-16705762D01*
X18133571Y-16696238D01*
X18143095Y-16677190D01*
X18266905Y-16591476D02*
X18285952Y-16591476D01*
X18305000Y-16601000D01*
X18314524Y-16610524D01*
X18324048Y-16629571D01*
X18333571Y-16667667D01*
X18333571Y-16715286D01*
X18324048Y-16753381D01*
X18314524Y-16772428D01*
X18305000Y-16781952D01*
X18285952Y-16791476D01*
X18266905Y-16791476D01*
X18247857Y-16781952D01*
X18238333Y-16772428D01*
X18228810Y-16753381D01*
X18219286Y-16715286D01*
X18219286Y-16667667D01*
X18228810Y-16629571D01*
X18238333Y-16610524D01*
X18247857Y-16601000D01*
X18266905Y-16591476D01*
X18457381Y-16591476D02*
X18476429Y-16591476D01*
X18495476Y-16601000D01*
X18505000Y-16610524D01*
X18514524Y-16629571D01*
X18524048Y-16667667D01*
X18524048Y-16715286D01*
X18514524Y-16753381D01*
X18505000Y-16772428D01*
X18495476Y-16781952D01*
X18476429Y-16791476D01*
X18457381Y-16791476D01*
X18438333Y-16781952D01*
X18428810Y-16772428D01*
X18419286Y-16753381D01*
X18409762Y-16715286D01*
X18409762Y-16667667D01*
X18419286Y-16629571D01*
X18428810Y-16610524D01*
X18438333Y-16601000D01*
X18457381Y-16591476D01*
X18609762Y-16791476D02*
X18609762Y-16658143D01*
X18609762Y-16677190D02*
X18619286Y-16667667D01*
X18638333Y-16658143D01*
X18666905Y-16658143D01*
X18685952Y-16667667D01*
X18695476Y-16686714D01*
X18695476Y-16791476D01*
X18695476Y-16686714D02*
X18705000Y-16667667D01*
X18724048Y-16658143D01*
X18752619Y-16658143D01*
X18771667Y-16667667D01*
X18781190Y-16686714D01*
X18781190Y-16791476D01*
X18876429Y-16791476D02*
X18876429Y-16658143D01*
X18876429Y-16677190D02*
X18885952Y-16667667D01*
X18905000Y-16658143D01*
X18933571Y-16658143D01*
X18952619Y-16667667D01*
X18962143Y-16686714D01*
X18962143Y-16791476D01*
X18962143Y-16686714D02*
X18971667Y-16667667D01*
X18990714Y-16658143D01*
X19019286Y-16658143D01*
X19038333Y-16667667D01*
X19047857Y-16686714D01*
X19047857Y-16791476D01*
X19438333Y-16581952D02*
X19266905Y-16839095D01*
X19695476Y-16591476D02*
X19714524Y-16591476D01*
X19733571Y-16601000D01*
X19743095Y-16610524D01*
X19752619Y-16629571D01*
X19762143Y-16667667D01*
X19762143Y-16715286D01*
X19752619Y-16753381D01*
X19743095Y-16772428D01*
X19733571Y-16781952D01*
X19714524Y-16791476D01*
X19695476Y-16791476D01*
X19676429Y-16781952D01*
X19666905Y-16772428D01*
X19657381Y-16753381D01*
X19647857Y-16715286D01*
X19647857Y-16667667D01*
X19657381Y-16629571D01*
X19666905Y-16610524D01*
X19676429Y-16601000D01*
X19695476Y-16591476D01*
X19847857Y-16772428D02*
X19857381Y-16781952D01*
X19847857Y-16791476D01*
X19838333Y-16781952D01*
X19847857Y-16772428D01*
X19847857Y-16791476D01*
X19981190Y-16591476D02*
X20000238Y-16591476D01*
X20019286Y-16601000D01*
X20028810Y-16610524D01*
X20038333Y-16629571D01*
X20047857Y-16667667D01*
X20047857Y-16715286D01*
X20038333Y-16753381D01*
X20028810Y-16772428D01*
X20019286Y-16781952D01*
X20000238Y-16791476D01*
X19981190Y-16791476D01*
X19962143Y-16781952D01*
X19952619Y-16772428D01*
X19943095Y-16753381D01*
X19933571Y-16715286D01*
X19933571Y-16667667D01*
X19943095Y-16629571D01*
X19952619Y-16610524D01*
X19962143Y-16601000D01*
X19981190Y-16591476D01*
X20114524Y-16591476D02*
X20238333Y-16591476D01*
X20171667Y-16667667D01*
X20200238Y-16667667D01*
X20219286Y-16677190D01*
X20228810Y-16686714D01*
X20238333Y-16705762D01*
X20238333Y-16753381D01*
X20228810Y-16772428D01*
X20219286Y-16781952D01*
X20200238Y-16791476D01*
X20143095Y-16791476D01*
X20124048Y-16781952D01*
X20114524Y-16772428D01*
X20419286Y-16591476D02*
X20324048Y-16591476D01*
X20314524Y-16686714D01*
X20324048Y-16677190D01*
X20343095Y-16667667D01*
X20390714Y-16667667D01*
X20409762Y-16677190D01*
X20419286Y-16686714D01*
X20428810Y-16705762D01*
X20428810Y-16753381D01*
X20419286Y-16772428D01*
X20409762Y-16781952D01*
X20390714Y-16791476D01*
X20343095Y-16791476D01*
X20324048Y-16781952D01*
X20314524Y-16772428D01*
X20600238Y-16658143D02*
X20600238Y-16791476D01*
X20552619Y-16581952D02*
X20505000Y-16724809D01*
X20628810Y-16724809D01*
X20695476Y-16591476D02*
X20695476Y-16629571D01*
X20771667Y-16591476D02*
X20771667Y-16629571D01*
X21066905Y-16867667D02*
X21057381Y-16858143D01*
X21038333Y-16829571D01*
X21028810Y-16810524D01*
X21019286Y-16781952D01*
X21009762Y-16734333D01*
X21009762Y-16696238D01*
X21019286Y-16648619D01*
X21028810Y-16620048D01*
X21038333Y-16601000D01*
X21057381Y-16572428D01*
X21066905Y-16562905D01*
X21133571Y-16610524D02*
X21143095Y-16601000D01*
X21162143Y-16591476D01*
X21209762Y-16591476D01*
X21228810Y-16601000D01*
X21238333Y-16610524D01*
X21247857Y-16629571D01*
X21247857Y-16648619D01*
X21238333Y-16677190D01*
X21124048Y-16791476D01*
X21247857Y-16791476D01*
X21485952Y-16791476D02*
X21485952Y-16591476D01*
X21571667Y-16791476D02*
X21571667Y-16686714D01*
X21562143Y-16667667D01*
X21543095Y-16658143D01*
X21514524Y-16658143D01*
X21495476Y-16667667D01*
X21485952Y-16677190D01*
X21695476Y-16791476D02*
X21676429Y-16781952D01*
X21666905Y-16772428D01*
X21657381Y-16753381D01*
X21657381Y-16696238D01*
X21666905Y-16677190D01*
X21676429Y-16667667D01*
X21695476Y-16658143D01*
X21724048Y-16658143D01*
X21743095Y-16667667D01*
X21752619Y-16677190D01*
X21762143Y-16696238D01*
X21762143Y-16753381D01*
X21752619Y-16772428D01*
X21743095Y-16781952D01*
X21724048Y-16791476D01*
X21695476Y-16791476D01*
X21876429Y-16791476D02*
X21857381Y-16781952D01*
X21847857Y-16762905D01*
X21847857Y-16591476D01*
X22028810Y-16781952D02*
X22009762Y-16791476D01*
X21971667Y-16791476D01*
X21952619Y-16781952D01*
X21943095Y-16762905D01*
X21943095Y-16686714D01*
X21952619Y-16667667D01*
X21971667Y-16658143D01*
X22009762Y-16658143D01*
X22028810Y-16667667D01*
X22038333Y-16686714D01*
X22038333Y-16705762D01*
X21943095Y-16724809D01*
X22114524Y-16781952D02*
X22133571Y-16791476D01*
X22171667Y-16791476D01*
X22190714Y-16781952D01*
X22200238Y-16762905D01*
X22200238Y-16753381D01*
X22190714Y-16734333D01*
X22171667Y-16724809D01*
X22143095Y-16724809D01*
X22124048Y-16715286D01*
X22114524Y-16696238D01*
X22114524Y-16686714D01*
X22124048Y-16667667D01*
X22143095Y-16658143D01*
X22171667Y-16658143D01*
X22190714Y-16667667D01*
X22266905Y-16867667D02*
X22276429Y-16858143D01*
X22295476Y-16829571D01*
X22305000Y-16810524D01*
X22314524Y-16781952D01*
X22324048Y-16734333D01*
X22324048Y-16696238D01*
X22314524Y-16648619D01*
X22305000Y-16620048D01*
X22295476Y-16601000D01*
X22276429Y-16572428D01*
X22266905Y-16562905D01*
D17*
X17395000Y-16915000D02*
X17495000Y-17015000D01*
X17495000Y-16915000D02*
X17395000Y-17015000D01*
X17495000Y-16965000D02*
G75*
G03*
X17495000Y-16965000I-50000J0D01*
G01*
D11*
X17857381Y-17055476D02*
X17743095Y-17055476D01*
X17800238Y-17055476D02*
X17800238Y-16855476D01*
X17781190Y-16884048D01*
X17762143Y-16903095D01*
X17743095Y-16912619D01*
X17943095Y-17036429D02*
X17952619Y-17045952D01*
X17943095Y-17055476D01*
X17933571Y-17045952D01*
X17943095Y-17036429D01*
X17943095Y-17055476D01*
X18076429Y-16855476D02*
X18095476Y-16855476D01*
X18114524Y-16865000D01*
X18124048Y-16874524D01*
X18133571Y-16893571D01*
X18143095Y-16931667D01*
X18143095Y-16979286D01*
X18133571Y-17017381D01*
X18124048Y-17036429D01*
X18114524Y-17045952D01*
X18095476Y-17055476D01*
X18076429Y-17055476D01*
X18057381Y-17045952D01*
X18047857Y-17036429D01*
X18038333Y-17017381D01*
X18028810Y-16979286D01*
X18028810Y-16931667D01*
X18038333Y-16893571D01*
X18047857Y-16874524D01*
X18057381Y-16865000D01*
X18076429Y-16855476D01*
X18266905Y-16855476D02*
X18285952Y-16855476D01*
X18305000Y-16865000D01*
X18314524Y-16874524D01*
X18324048Y-16893571D01*
X18333571Y-16931667D01*
X18333571Y-16979286D01*
X18324048Y-17017381D01*
X18314524Y-17036429D01*
X18305000Y-17045952D01*
X18285952Y-17055476D01*
X18266905Y-17055476D01*
X18247857Y-17045952D01*
X18238333Y-17036429D01*
X18228810Y-17017381D01*
X18219286Y-16979286D01*
X18219286Y-16931667D01*
X18228810Y-16893571D01*
X18238333Y-16874524D01*
X18247857Y-16865000D01*
X18266905Y-16855476D01*
X18457381Y-16855476D02*
X18476429Y-16855476D01*
X18495476Y-16865000D01*
X18505000Y-16874524D01*
X18514524Y-16893571D01*
X18524048Y-16931667D01*
X18524048Y-16979286D01*
X18514524Y-17017381D01*
X18505000Y-17036429D01*
X18495476Y-17045952D01*
X18476429Y-17055476D01*
X18457381Y-17055476D01*
X18438333Y-17045952D01*
X18428810Y-17036429D01*
X18419286Y-17017381D01*
X18409762Y-16979286D01*
X18409762Y-16931667D01*
X18419286Y-16893571D01*
X18428810Y-16874524D01*
X18438333Y-16865000D01*
X18457381Y-16855476D01*
X18609762Y-17055476D02*
X18609762Y-16922143D01*
X18609762Y-16941190D02*
X18619286Y-16931667D01*
X18638333Y-16922143D01*
X18666905Y-16922143D01*
X18685952Y-16931667D01*
X18695476Y-16950714D01*
X18695476Y-17055476D01*
X18695476Y-16950714D02*
X18705000Y-16931667D01*
X18724048Y-16922143D01*
X18752619Y-16922143D01*
X18771667Y-16931667D01*
X18781190Y-16950714D01*
X18781190Y-17055476D01*
X18876429Y-17055476D02*
X18876429Y-16922143D01*
X18876429Y-16941190D02*
X18885952Y-16931667D01*
X18905000Y-16922143D01*
X18933571Y-16922143D01*
X18952619Y-16931667D01*
X18962143Y-16950714D01*
X18962143Y-17055476D01*
X18962143Y-16950714D02*
X18971667Y-16931667D01*
X18990714Y-16922143D01*
X19019286Y-16922143D01*
X19038333Y-16931667D01*
X19047857Y-16950714D01*
X19047857Y-17055476D01*
X19438333Y-16845952D02*
X19266905Y-17103095D01*
X19695476Y-16855476D02*
X19714524Y-16855476D01*
X19733571Y-16865000D01*
X19743095Y-16874524D01*
X19752619Y-16893571D01*
X19762143Y-16931667D01*
X19762143Y-16979286D01*
X19752619Y-17017381D01*
X19743095Y-17036429D01*
X19733571Y-17045952D01*
X19714524Y-17055476D01*
X19695476Y-17055476D01*
X19676429Y-17045952D01*
X19666905Y-17036429D01*
X19657381Y-17017381D01*
X19647857Y-16979286D01*
X19647857Y-16931667D01*
X19657381Y-16893571D01*
X19666905Y-16874524D01*
X19676429Y-16865000D01*
X19695476Y-16855476D01*
X19847857Y-17036429D02*
X19857381Y-17045952D01*
X19847857Y-17055476D01*
X19838333Y-17045952D01*
X19847857Y-17036429D01*
X19847857Y-17055476D01*
X19981190Y-16855476D02*
X20000238Y-16855476D01*
X20019286Y-16865000D01*
X20028810Y-16874524D01*
X20038333Y-16893571D01*
X20047857Y-16931667D01*
X20047857Y-16979286D01*
X20038333Y-17017381D01*
X20028810Y-17036429D01*
X20019286Y-17045952D01*
X20000238Y-17055476D01*
X19981190Y-17055476D01*
X19962143Y-17045952D01*
X19952619Y-17036429D01*
X19943095Y-17017381D01*
X19933571Y-16979286D01*
X19933571Y-16931667D01*
X19943095Y-16893571D01*
X19952619Y-16874524D01*
X19962143Y-16865000D01*
X19981190Y-16855476D01*
X20114524Y-16855476D02*
X20238333Y-16855476D01*
X20171667Y-16931667D01*
X20200238Y-16931667D01*
X20219286Y-16941190D01*
X20228810Y-16950714D01*
X20238333Y-16969762D01*
X20238333Y-17017381D01*
X20228810Y-17036429D01*
X20219286Y-17045952D01*
X20200238Y-17055476D01*
X20143095Y-17055476D01*
X20124048Y-17045952D01*
X20114524Y-17036429D01*
X20333571Y-17055476D02*
X20371667Y-17055476D01*
X20390714Y-17045952D01*
X20400238Y-17036429D01*
X20419286Y-17007857D01*
X20428810Y-16969762D01*
X20428810Y-16893571D01*
X20419286Y-16874524D01*
X20409762Y-16865000D01*
X20390714Y-16855476D01*
X20352619Y-16855476D01*
X20333571Y-16865000D01*
X20324048Y-16874524D01*
X20314524Y-16893571D01*
X20314524Y-16941190D01*
X20324048Y-16960238D01*
X20333571Y-16969762D01*
X20352619Y-16979286D01*
X20390714Y-16979286D01*
X20409762Y-16969762D01*
X20419286Y-16960238D01*
X20428810Y-16941190D01*
X20600238Y-16922143D02*
X20600238Y-17055476D01*
X20552619Y-16845952D02*
X20505000Y-16988810D01*
X20628810Y-16988810D01*
X20695476Y-16855476D02*
X20695476Y-16893571D01*
X20771667Y-16855476D02*
X20771667Y-16893571D01*
X21066905Y-17131667D02*
X21057381Y-17122143D01*
X21038333Y-17093571D01*
X21028810Y-17074524D01*
X21019286Y-17045952D01*
X21009762Y-16998333D01*
X21009762Y-16960238D01*
X21019286Y-16912619D01*
X21028810Y-16884048D01*
X21038333Y-16865000D01*
X21057381Y-16836429D01*
X21066905Y-16826905D01*
X21247857Y-17055476D02*
X21133571Y-17055476D01*
X21190714Y-17055476D02*
X21190714Y-16855476D01*
X21171667Y-16884048D01*
X21152619Y-16903095D01*
X21133571Y-16912619D01*
X21371667Y-16855476D02*
X21390714Y-16855476D01*
X21409762Y-16865000D01*
X21419286Y-16874524D01*
X21428810Y-16893571D01*
X21438333Y-16931667D01*
X21438333Y-16979286D01*
X21428810Y-17017381D01*
X21419286Y-17036429D01*
X21409762Y-17045952D01*
X21390714Y-17055476D01*
X21371667Y-17055476D01*
X21352619Y-17045952D01*
X21343095Y-17036429D01*
X21333571Y-17017381D01*
X21324048Y-16979286D01*
X21324048Y-16931667D01*
X21333571Y-16893571D01*
X21343095Y-16874524D01*
X21352619Y-16865000D01*
X21371667Y-16855476D01*
X21676429Y-17055476D02*
X21676429Y-16855476D01*
X21762143Y-17055476D02*
X21762143Y-16950714D01*
X21752619Y-16931667D01*
X21733571Y-16922143D01*
X21705000Y-16922143D01*
X21685952Y-16931667D01*
X21676429Y-16941190D01*
X21885952Y-17055476D02*
X21866905Y-17045952D01*
X21857381Y-17036429D01*
X21847857Y-17017381D01*
X21847857Y-16960238D01*
X21857381Y-16941190D01*
X21866905Y-16931667D01*
X21885952Y-16922143D01*
X21914524Y-16922143D01*
X21933571Y-16931667D01*
X21943095Y-16941190D01*
X21952619Y-16960238D01*
X21952619Y-17017381D01*
X21943095Y-17036429D01*
X21933571Y-17045952D01*
X21914524Y-17055476D01*
X21885952Y-17055476D01*
X22066905Y-17055476D02*
X22047857Y-17045952D01*
X22038333Y-17026905D01*
X22038333Y-16855476D01*
X22219286Y-17045952D02*
X22200238Y-17055476D01*
X22162143Y-17055476D01*
X22143095Y-17045952D01*
X22133571Y-17026905D01*
X22133571Y-16950714D01*
X22143095Y-16931667D01*
X22162143Y-16922143D01*
X22200238Y-16922143D01*
X22219286Y-16931667D01*
X22228810Y-16950714D01*
X22228810Y-16969762D01*
X22133571Y-16988810D01*
X22305000Y-17045952D02*
X22324048Y-17055476D01*
X22362143Y-17055476D01*
X22381190Y-17045952D01*
X22390714Y-17026905D01*
X22390714Y-17017381D01*
X22381190Y-16998333D01*
X22362143Y-16988810D01*
X22333571Y-16988810D01*
X22314524Y-16979286D01*
X22305000Y-16960238D01*
X22305000Y-16950714D01*
X22314524Y-16931667D01*
X22333571Y-16922143D01*
X22362143Y-16922143D01*
X22381190Y-16931667D01*
X22457381Y-17131667D02*
X22466905Y-17122143D01*
X22485952Y-17093571D01*
X22495476Y-17074524D01*
X22505000Y-17045952D01*
X22514524Y-16998333D01*
X22514524Y-16960238D01*
X22505000Y-16912619D01*
X22495476Y-16884048D01*
X22485952Y-16865000D01*
X22466905Y-16836429D01*
X22457381Y-16826905D01*
D18*
X17393000Y-17178000D02*
X17495000Y-17280000D01*
X17495000Y-17178000D02*
X17393000Y-17280000D01*
X17444000Y-17178000D02*
X17444000Y-17280000D01*
X17393000Y-17229000D02*
X17495000Y-17229000D01*
D11*
X17857381Y-17319476D02*
X17743095Y-17319476D01*
X17800238Y-17319476D02*
X17800238Y-17119476D01*
X17781190Y-17148048D01*
X17762143Y-17167095D01*
X17743095Y-17176619D01*
X17943095Y-17300429D02*
X17952619Y-17309952D01*
X17943095Y-17319476D01*
X17933571Y-17309952D01*
X17943095Y-17300429D01*
X17943095Y-17319476D01*
X18076429Y-17119476D02*
X18095476Y-17119476D01*
X18114524Y-17129000D01*
X18124048Y-17138524D01*
X18133571Y-17157571D01*
X18143095Y-17195667D01*
X18143095Y-17243286D01*
X18133571Y-17281381D01*
X18124048Y-17300429D01*
X18114524Y-17309952D01*
X18095476Y-17319476D01*
X18076429Y-17319476D01*
X18057381Y-17309952D01*
X18047857Y-17300429D01*
X18038333Y-17281381D01*
X18028810Y-17243286D01*
X18028810Y-17195667D01*
X18038333Y-17157571D01*
X18047857Y-17138524D01*
X18057381Y-17129000D01*
X18076429Y-17119476D01*
X18219286Y-17138524D02*
X18228810Y-17129000D01*
X18247857Y-17119476D01*
X18295476Y-17119476D01*
X18314524Y-17129000D01*
X18324048Y-17138524D01*
X18333571Y-17157571D01*
X18333571Y-17176619D01*
X18324048Y-17205190D01*
X18209762Y-17319476D01*
X18333571Y-17319476D01*
X18457381Y-17119476D02*
X18476429Y-17119476D01*
X18495476Y-17129000D01*
X18505000Y-17138524D01*
X18514524Y-17157571D01*
X18524048Y-17195667D01*
X18524048Y-17243286D01*
X18514524Y-17281381D01*
X18505000Y-17300429D01*
X18495476Y-17309952D01*
X18476429Y-17319476D01*
X18457381Y-17319476D01*
X18438333Y-17309952D01*
X18428810Y-17300429D01*
X18419286Y-17281381D01*
X18409762Y-17243286D01*
X18409762Y-17195667D01*
X18419286Y-17157571D01*
X18428810Y-17138524D01*
X18438333Y-17129000D01*
X18457381Y-17119476D01*
X18609762Y-17319476D02*
X18609762Y-17186143D01*
X18609762Y-17205190D02*
X18619286Y-17195667D01*
X18638333Y-17186143D01*
X18666905Y-17186143D01*
X18685952Y-17195667D01*
X18695476Y-17214714D01*
X18695476Y-17319476D01*
X18695476Y-17214714D02*
X18705000Y-17195667D01*
X18724048Y-17186143D01*
X18752619Y-17186143D01*
X18771667Y-17195667D01*
X18781190Y-17214714D01*
X18781190Y-17319476D01*
X18876429Y-17319476D02*
X18876429Y-17186143D01*
X18876429Y-17205190D02*
X18885952Y-17195667D01*
X18905000Y-17186143D01*
X18933571Y-17186143D01*
X18952619Y-17195667D01*
X18962143Y-17214714D01*
X18962143Y-17319476D01*
X18962143Y-17214714D02*
X18971667Y-17195667D01*
X18990714Y-17186143D01*
X19019286Y-17186143D01*
X19038333Y-17195667D01*
X19047857Y-17214714D01*
X19047857Y-17319476D01*
X19438333Y-17109952D02*
X19266905Y-17367095D01*
X19695476Y-17119476D02*
X19714524Y-17119476D01*
X19733571Y-17129000D01*
X19743095Y-17138524D01*
X19752619Y-17157571D01*
X19762143Y-17195667D01*
X19762143Y-17243286D01*
X19752619Y-17281381D01*
X19743095Y-17300429D01*
X19733571Y-17309952D01*
X19714524Y-17319476D01*
X19695476Y-17319476D01*
X19676429Y-17309952D01*
X19666905Y-17300429D01*
X19657381Y-17281381D01*
X19647857Y-17243286D01*
X19647857Y-17195667D01*
X19657381Y-17157571D01*
X19666905Y-17138524D01*
X19676429Y-17129000D01*
X19695476Y-17119476D01*
X19847857Y-17300429D02*
X19857381Y-17309952D01*
X19847857Y-17319476D01*
X19838333Y-17309952D01*
X19847857Y-17300429D01*
X19847857Y-17319476D01*
X19981190Y-17119476D02*
X20000238Y-17119476D01*
X20019286Y-17129000D01*
X20028810Y-17138524D01*
X20038333Y-17157571D01*
X20047857Y-17195667D01*
X20047857Y-17243286D01*
X20038333Y-17281381D01*
X20028810Y-17300429D01*
X20019286Y-17309952D01*
X20000238Y-17319476D01*
X19981190Y-17319476D01*
X19962143Y-17309952D01*
X19952619Y-17300429D01*
X19943095Y-17281381D01*
X19933571Y-17243286D01*
X19933571Y-17195667D01*
X19943095Y-17157571D01*
X19952619Y-17138524D01*
X19962143Y-17129000D01*
X19981190Y-17119476D01*
X20219286Y-17186143D02*
X20219286Y-17319476D01*
X20171667Y-17109952D02*
X20124048Y-17252810D01*
X20247857Y-17252810D01*
X20362143Y-17119476D02*
X20381190Y-17119476D01*
X20400238Y-17129000D01*
X20409762Y-17138524D01*
X20419286Y-17157571D01*
X20428810Y-17195667D01*
X20428810Y-17243286D01*
X20419286Y-17281381D01*
X20409762Y-17300429D01*
X20400238Y-17309952D01*
X20381190Y-17319476D01*
X20362143Y-17319476D01*
X20343095Y-17309952D01*
X20333571Y-17300429D01*
X20324048Y-17281381D01*
X20314524Y-17243286D01*
X20314524Y-17195667D01*
X20324048Y-17157571D01*
X20333571Y-17138524D01*
X20343095Y-17129000D01*
X20362143Y-17119476D01*
X20505000Y-17138524D02*
X20514524Y-17129000D01*
X20533571Y-17119476D01*
X20581190Y-17119476D01*
X20600238Y-17129000D01*
X20609762Y-17138524D01*
X20619286Y-17157571D01*
X20619286Y-17176619D01*
X20609762Y-17205190D01*
X20495476Y-17319476D01*
X20619286Y-17319476D01*
X20695476Y-17119476D02*
X20695476Y-17157571D01*
X20771667Y-17119476D02*
X20771667Y-17157571D01*
X21066905Y-17395667D02*
X21057381Y-17386143D01*
X21038333Y-17357571D01*
X21028810Y-17338524D01*
X21019286Y-17309952D01*
X21009762Y-17262333D01*
X21009762Y-17224238D01*
X21019286Y-17176619D01*
X21028810Y-17148048D01*
X21038333Y-17129000D01*
X21057381Y-17100429D01*
X21066905Y-17090905D01*
X21247857Y-17319476D02*
X21133571Y-17319476D01*
X21190714Y-17319476D02*
X21190714Y-17119476D01*
X21171667Y-17148048D01*
X21152619Y-17167095D01*
X21133571Y-17176619D01*
X21324048Y-17138524D02*
X21333571Y-17129000D01*
X21352619Y-17119476D01*
X21400238Y-17119476D01*
X21419286Y-17129000D01*
X21428810Y-17138524D01*
X21438333Y-17157571D01*
X21438333Y-17176619D01*
X21428810Y-17205190D01*
X21314524Y-17319476D01*
X21438333Y-17319476D01*
X21676429Y-17319476D02*
X21676429Y-17119476D01*
X21762143Y-17319476D02*
X21762143Y-17214714D01*
X21752619Y-17195667D01*
X21733571Y-17186143D01*
X21705000Y-17186143D01*
X21685952Y-17195667D01*
X21676429Y-17205190D01*
X21885952Y-17319476D02*
X21866905Y-17309952D01*
X21857381Y-17300429D01*
X21847857Y-17281381D01*
X21847857Y-17224238D01*
X21857381Y-17205190D01*
X21866905Y-17195667D01*
X21885952Y-17186143D01*
X21914524Y-17186143D01*
X21933571Y-17195667D01*
X21943095Y-17205190D01*
X21952619Y-17224238D01*
X21952619Y-17281381D01*
X21943095Y-17300429D01*
X21933571Y-17309952D01*
X21914524Y-17319476D01*
X21885952Y-17319476D01*
X22066905Y-17319476D02*
X22047857Y-17309952D01*
X22038333Y-17290905D01*
X22038333Y-17119476D01*
X22219286Y-17309952D02*
X22200238Y-17319476D01*
X22162143Y-17319476D01*
X22143095Y-17309952D01*
X22133571Y-17290905D01*
X22133571Y-17214714D01*
X22143095Y-17195667D01*
X22162143Y-17186143D01*
X22200238Y-17186143D01*
X22219286Y-17195667D01*
X22228810Y-17214714D01*
X22228810Y-17233762D01*
X22133571Y-17252810D01*
X22305000Y-17309952D02*
X22324048Y-17319476D01*
X22362143Y-17319476D01*
X22381190Y-17309952D01*
X22390714Y-17290905D01*
X22390714Y-17281381D01*
X22381190Y-17262333D01*
X22362143Y-17252810D01*
X22333571Y-17252810D01*
X22314524Y-17243286D01*
X22305000Y-17224238D01*
X22305000Y-17214714D01*
X22314524Y-17195667D01*
X22333571Y-17186143D01*
X22362143Y-17186143D01*
X22381190Y-17195667D01*
X22457381Y-17395667D02*
X22466905Y-17386143D01*
X22485952Y-17357571D01*
X22495476Y-17338524D01*
X22505000Y-17309952D01*
X22514524Y-17262333D01*
X22514524Y-17224238D01*
X22505000Y-17176619D01*
X22495476Y-17148048D01*
X22485952Y-17129000D01*
X22466905Y-17100429D01*
X22457381Y-17090905D01*
D19*
X17325000Y-17408000D02*
X17495000Y-17578000D01*
X17495000Y-17408000D02*
X17325000Y-17578000D01*
X17470105Y-17553105D02*
X17470105Y-17432895D01*
X17349895Y-17432895D01*
X17349895Y-17553105D01*
X17470105Y-17553105D01*
D11*
X17857381Y-17583476D02*
X17743095Y-17583476D01*
X17800238Y-17583476D02*
X17800238Y-17383476D01*
X17781190Y-17412048D01*
X17762143Y-17431095D01*
X17743095Y-17440619D01*
X17943095Y-17564429D02*
X17952619Y-17573952D01*
X17943095Y-17583476D01*
X17933571Y-17573952D01*
X17943095Y-17564429D01*
X17943095Y-17583476D01*
X18019286Y-17383476D02*
X18152619Y-17383476D01*
X18066905Y-17583476D01*
X18266905Y-17383476D02*
X18285952Y-17383476D01*
X18305000Y-17393000D01*
X18314524Y-17402524D01*
X18324048Y-17421571D01*
X18333571Y-17459667D01*
X18333571Y-17507286D01*
X18324048Y-17545381D01*
X18314524Y-17564429D01*
X18305000Y-17573952D01*
X18285952Y-17583476D01*
X18266905Y-17583476D01*
X18247857Y-17573952D01*
X18238333Y-17564429D01*
X18228810Y-17545381D01*
X18219286Y-17507286D01*
X18219286Y-17459667D01*
X18228810Y-17421571D01*
X18238333Y-17402524D01*
X18247857Y-17393000D01*
X18266905Y-17383476D01*
X18457381Y-17383476D02*
X18476429Y-17383476D01*
X18495476Y-17393000D01*
X18505000Y-17402524D01*
X18514524Y-17421571D01*
X18524048Y-17459667D01*
X18524048Y-17507286D01*
X18514524Y-17545381D01*
X18505000Y-17564429D01*
X18495476Y-17573952D01*
X18476429Y-17583476D01*
X18457381Y-17583476D01*
X18438333Y-17573952D01*
X18428810Y-17564429D01*
X18419286Y-17545381D01*
X18409762Y-17507286D01*
X18409762Y-17459667D01*
X18419286Y-17421571D01*
X18428810Y-17402524D01*
X18438333Y-17393000D01*
X18457381Y-17383476D01*
X18609762Y-17583476D02*
X18609762Y-17450143D01*
X18609762Y-17469190D02*
X18619286Y-17459667D01*
X18638333Y-17450143D01*
X18666905Y-17450143D01*
X18685952Y-17459667D01*
X18695476Y-17478714D01*
X18695476Y-17583476D01*
X18695476Y-17478714D02*
X18705000Y-17459667D01*
X18724048Y-17450143D01*
X18752619Y-17450143D01*
X18771667Y-17459667D01*
X18781190Y-17478714D01*
X18781190Y-17583476D01*
X18876429Y-17583476D02*
X18876429Y-17450143D01*
X18876429Y-17469190D02*
X18885952Y-17459667D01*
X18905000Y-17450143D01*
X18933571Y-17450143D01*
X18952619Y-17459667D01*
X18962143Y-17478714D01*
X18962143Y-17583476D01*
X18962143Y-17478714D02*
X18971667Y-17459667D01*
X18990714Y-17450143D01*
X19019286Y-17450143D01*
X19038333Y-17459667D01*
X19047857Y-17478714D01*
X19047857Y-17583476D01*
X19438333Y-17373952D02*
X19266905Y-17631095D01*
X19695476Y-17383476D02*
X19714524Y-17383476D01*
X19733571Y-17393000D01*
X19743095Y-17402524D01*
X19752619Y-17421571D01*
X19762143Y-17459667D01*
X19762143Y-17507286D01*
X19752619Y-17545381D01*
X19743095Y-17564429D01*
X19733571Y-17573952D01*
X19714524Y-17583476D01*
X19695476Y-17583476D01*
X19676429Y-17573952D01*
X19666905Y-17564429D01*
X19657381Y-17545381D01*
X19647857Y-17507286D01*
X19647857Y-17459667D01*
X19657381Y-17421571D01*
X19666905Y-17402524D01*
X19676429Y-17393000D01*
X19695476Y-17383476D01*
X19847857Y-17564429D02*
X19857381Y-17573952D01*
X19847857Y-17583476D01*
X19838333Y-17573952D01*
X19847857Y-17564429D01*
X19847857Y-17583476D01*
X19981190Y-17383476D02*
X20000238Y-17383476D01*
X20019286Y-17393000D01*
X20028810Y-17402524D01*
X20038333Y-17421571D01*
X20047857Y-17459667D01*
X20047857Y-17507286D01*
X20038333Y-17545381D01*
X20028810Y-17564429D01*
X20019286Y-17573952D01*
X20000238Y-17583476D01*
X19981190Y-17583476D01*
X19962143Y-17573952D01*
X19952619Y-17564429D01*
X19943095Y-17545381D01*
X19933571Y-17507286D01*
X19933571Y-17459667D01*
X19943095Y-17421571D01*
X19952619Y-17402524D01*
X19962143Y-17393000D01*
X19981190Y-17383476D01*
X20219286Y-17383476D02*
X20181190Y-17383476D01*
X20162143Y-17393000D01*
X20152619Y-17402524D01*
X20133571Y-17431095D01*
X20124048Y-17469190D01*
X20124048Y-17545381D01*
X20133571Y-17564429D01*
X20143095Y-17573952D01*
X20162143Y-17583476D01*
X20200238Y-17583476D01*
X20219286Y-17573952D01*
X20228810Y-17564429D01*
X20238333Y-17545381D01*
X20238333Y-17497762D01*
X20228810Y-17478714D01*
X20219286Y-17469190D01*
X20200238Y-17459667D01*
X20162143Y-17459667D01*
X20143095Y-17469190D01*
X20133571Y-17478714D01*
X20124048Y-17497762D01*
X20409762Y-17383476D02*
X20371667Y-17383476D01*
X20352619Y-17393000D01*
X20343095Y-17402524D01*
X20324048Y-17431095D01*
X20314524Y-17469190D01*
X20314524Y-17545381D01*
X20324048Y-17564429D01*
X20333571Y-17573952D01*
X20352619Y-17583476D01*
X20390714Y-17583476D01*
X20409762Y-17573952D01*
X20419286Y-17564429D01*
X20428810Y-17545381D01*
X20428810Y-17497762D01*
X20419286Y-17478714D01*
X20409762Y-17469190D01*
X20390714Y-17459667D01*
X20352619Y-17459667D01*
X20333571Y-17469190D01*
X20324048Y-17478714D01*
X20314524Y-17497762D01*
X20524048Y-17583476D02*
X20562143Y-17583476D01*
X20581190Y-17573952D01*
X20590714Y-17564429D01*
X20609762Y-17535857D01*
X20619286Y-17497762D01*
X20619286Y-17421571D01*
X20609762Y-17402524D01*
X20600238Y-17393000D01*
X20581190Y-17383476D01*
X20543095Y-17383476D01*
X20524048Y-17393000D01*
X20514524Y-17402524D01*
X20505000Y-17421571D01*
X20505000Y-17469190D01*
X20514524Y-17488238D01*
X20524048Y-17497762D01*
X20543095Y-17507286D01*
X20581190Y-17507286D01*
X20600238Y-17497762D01*
X20609762Y-17488238D01*
X20619286Y-17469190D01*
X20695476Y-17383476D02*
X20695476Y-17421571D01*
X20771667Y-17383476D02*
X20771667Y-17421571D01*
X21066905Y-17659667D02*
X21057381Y-17650143D01*
X21038333Y-17621571D01*
X21028810Y-17602524D01*
X21019286Y-17573952D01*
X21009762Y-17526333D01*
X21009762Y-17488238D01*
X21019286Y-17440619D01*
X21028810Y-17412048D01*
X21038333Y-17393000D01*
X21057381Y-17364429D01*
X21066905Y-17354905D01*
X21133571Y-17402524D02*
X21143095Y-17393000D01*
X21162143Y-17383476D01*
X21209762Y-17383476D01*
X21228810Y-17393000D01*
X21238333Y-17402524D01*
X21247857Y-17421571D01*
X21247857Y-17440619D01*
X21238333Y-17469190D01*
X21124048Y-17583476D01*
X21247857Y-17583476D01*
X21485952Y-17583476D02*
X21485952Y-17383476D01*
X21571667Y-17583476D02*
X21571667Y-17478714D01*
X21562143Y-17459667D01*
X21543095Y-17450143D01*
X21514524Y-17450143D01*
X21495476Y-17459667D01*
X21485952Y-17469190D01*
X21695476Y-17583476D02*
X21676429Y-17573952D01*
X21666905Y-17564429D01*
X21657381Y-17545381D01*
X21657381Y-17488238D01*
X21666905Y-17469190D01*
X21676429Y-17459667D01*
X21695476Y-17450143D01*
X21724048Y-17450143D01*
X21743095Y-17459667D01*
X21752619Y-17469190D01*
X21762143Y-17488238D01*
X21762143Y-17545381D01*
X21752619Y-17564429D01*
X21743095Y-17573952D01*
X21724048Y-17583476D01*
X21695476Y-17583476D01*
X21876429Y-17583476D02*
X21857381Y-17573952D01*
X21847857Y-17554905D01*
X21847857Y-17383476D01*
X22028810Y-17573952D02*
X22009762Y-17583476D01*
X21971667Y-17583476D01*
X21952619Y-17573952D01*
X21943095Y-17554905D01*
X21943095Y-17478714D01*
X21952619Y-17459667D01*
X21971667Y-17450143D01*
X22009762Y-17450143D01*
X22028810Y-17459667D01*
X22038333Y-17478714D01*
X22038333Y-17497762D01*
X21943095Y-17516810D01*
X22114524Y-17573952D02*
X22133571Y-17583476D01*
X22171667Y-17583476D01*
X22190714Y-17573952D01*
X22200238Y-17554905D01*
X22200238Y-17545381D01*
X22190714Y-17526333D01*
X22171667Y-17516810D01*
X22143095Y-17516810D01*
X22124048Y-17507286D01*
X22114524Y-17488238D01*
X22114524Y-17478714D01*
X22124048Y-17459667D01*
X22143095Y-17450143D01*
X22171667Y-17450143D01*
X22190714Y-17459667D01*
X22266905Y-17659667D02*
X22276429Y-17650143D01*
X22295476Y-17621571D01*
X22305000Y-17602524D01*
X22314524Y-17573952D01*
X22324048Y-17526333D01*
X22324048Y-17488238D01*
X22314524Y-17440619D01*
X22305000Y-17412048D01*
X22295476Y-17393000D01*
X22276429Y-17364429D01*
X22266905Y-17354905D01*
X17295000Y-17683000D02*
X17495000Y-17883000D01*
X17495000Y-17683000D02*
X17295000Y-17883000D01*
X17395000Y-17883000D02*
X17495000Y-17783000D01*
X17395000Y-17683000D01*
X17295000Y-17783000D01*
X17395000Y-17883000D01*
X17743095Y-17692524D02*
X17752619Y-17683000D01*
X17771667Y-17673476D01*
X17819286Y-17673476D01*
X17838333Y-17683000D01*
X17847857Y-17692524D01*
X17857381Y-17711571D01*
X17857381Y-17730619D01*
X17847857Y-17759190D01*
X17733571Y-17873476D01*
X17857381Y-17873476D01*
X17943095Y-17854429D02*
X17952619Y-17863952D01*
X17943095Y-17873476D01*
X17933571Y-17863952D01*
X17943095Y-17854429D01*
X17943095Y-17873476D01*
X18028810Y-17692524D02*
X18038333Y-17683000D01*
X18057381Y-17673476D01*
X18105000Y-17673476D01*
X18124048Y-17683000D01*
X18133571Y-17692524D01*
X18143095Y-17711571D01*
X18143095Y-17730619D01*
X18133571Y-17759190D01*
X18019286Y-17873476D01*
X18143095Y-17873476D01*
X18266905Y-17673476D02*
X18285952Y-17673476D01*
X18305000Y-17683000D01*
X18314524Y-17692524D01*
X18324048Y-17711571D01*
X18333571Y-17749667D01*
X18333571Y-17797286D01*
X18324048Y-17835381D01*
X18314524Y-17854429D01*
X18305000Y-17863952D01*
X18285952Y-17873476D01*
X18266905Y-17873476D01*
X18247857Y-17863952D01*
X18238333Y-17854429D01*
X18228810Y-17835381D01*
X18219286Y-17797286D01*
X18219286Y-17749667D01*
X18228810Y-17711571D01*
X18238333Y-17692524D01*
X18247857Y-17683000D01*
X18266905Y-17673476D01*
X18457381Y-17673476D02*
X18476429Y-17673476D01*
X18495476Y-17683000D01*
X18505000Y-17692524D01*
X18514524Y-17711571D01*
X18524048Y-17749667D01*
X18524048Y-17797286D01*
X18514524Y-17835381D01*
X18505000Y-17854429D01*
X18495476Y-17863952D01*
X18476429Y-17873476D01*
X18457381Y-17873476D01*
X18438333Y-17863952D01*
X18428810Y-17854429D01*
X18419286Y-17835381D01*
X18409762Y-17797286D01*
X18409762Y-17749667D01*
X18419286Y-17711571D01*
X18428810Y-17692524D01*
X18438333Y-17683000D01*
X18457381Y-17673476D01*
X18609762Y-17873476D02*
X18609762Y-17740143D01*
X18609762Y-17759190D02*
X18619286Y-17749667D01*
X18638333Y-17740143D01*
X18666905Y-17740143D01*
X18685952Y-17749667D01*
X18695476Y-17768714D01*
X18695476Y-17873476D01*
X18695476Y-17768714D02*
X18705000Y-17749667D01*
X18724048Y-17740143D01*
X18752619Y-17740143D01*
X18771667Y-17749667D01*
X18781190Y-17768714D01*
X18781190Y-17873476D01*
X18876429Y-17873476D02*
X18876429Y-17740143D01*
X18876429Y-17759190D02*
X18885952Y-17749667D01*
X18905000Y-17740143D01*
X18933571Y-17740143D01*
X18952619Y-17749667D01*
X18962143Y-17768714D01*
X18962143Y-17873476D01*
X18962143Y-17768714D02*
X18971667Y-17749667D01*
X18990714Y-17740143D01*
X19019286Y-17740143D01*
X19038333Y-17749667D01*
X19047857Y-17768714D01*
X19047857Y-17873476D01*
X19438333Y-17663952D02*
X19266905Y-17921095D01*
X19695476Y-17673476D02*
X19714524Y-17673476D01*
X19733571Y-17683000D01*
X19743095Y-17692524D01*
X19752619Y-17711571D01*
X19762143Y-17749667D01*
X19762143Y-17797286D01*
X19752619Y-17835381D01*
X19743095Y-17854429D01*
X19733571Y-17863952D01*
X19714524Y-17873476D01*
X19695476Y-17873476D01*
X19676429Y-17863952D01*
X19666905Y-17854429D01*
X19657381Y-17835381D01*
X19647857Y-17797286D01*
X19647857Y-17749667D01*
X19657381Y-17711571D01*
X19666905Y-17692524D01*
X19676429Y-17683000D01*
X19695476Y-17673476D01*
X19847857Y-17854429D02*
X19857381Y-17863952D01*
X19847857Y-17873476D01*
X19838333Y-17863952D01*
X19847857Y-17854429D01*
X19847857Y-17873476D01*
X19981190Y-17673476D02*
X20000238Y-17673476D01*
X20019286Y-17683000D01*
X20028810Y-17692524D01*
X20038333Y-17711571D01*
X20047857Y-17749667D01*
X20047857Y-17797286D01*
X20038333Y-17835381D01*
X20028810Y-17854429D01*
X20019286Y-17863952D01*
X20000238Y-17873476D01*
X19981190Y-17873476D01*
X19962143Y-17863952D01*
X19952619Y-17854429D01*
X19943095Y-17835381D01*
X19933571Y-17797286D01*
X19933571Y-17749667D01*
X19943095Y-17711571D01*
X19952619Y-17692524D01*
X19962143Y-17683000D01*
X19981190Y-17673476D01*
X20162143Y-17759190D02*
X20143095Y-17749667D01*
X20133571Y-17740143D01*
X20124048Y-17721095D01*
X20124048Y-17711571D01*
X20133571Y-17692524D01*
X20143095Y-17683000D01*
X20162143Y-17673476D01*
X20200238Y-17673476D01*
X20219286Y-17683000D01*
X20228810Y-17692524D01*
X20238333Y-17711571D01*
X20238333Y-17721095D01*
X20228810Y-17740143D01*
X20219286Y-17749667D01*
X20200238Y-17759190D01*
X20162143Y-17759190D01*
X20143095Y-17768714D01*
X20133571Y-17778238D01*
X20124048Y-17797286D01*
X20124048Y-17835381D01*
X20133571Y-17854429D01*
X20143095Y-17863952D01*
X20162143Y-17873476D01*
X20200238Y-17873476D01*
X20219286Y-17863952D01*
X20228810Y-17854429D01*
X20238333Y-17835381D01*
X20238333Y-17797286D01*
X20228810Y-17778238D01*
X20219286Y-17768714D01*
X20200238Y-17759190D01*
X20409762Y-17673476D02*
X20371667Y-17673476D01*
X20352619Y-17683000D01*
X20343095Y-17692524D01*
X20324048Y-17721095D01*
X20314524Y-17759190D01*
X20314524Y-17835381D01*
X20324048Y-17854429D01*
X20333571Y-17863952D01*
X20352619Y-17873476D01*
X20390714Y-17873476D01*
X20409762Y-17863952D01*
X20419286Y-17854429D01*
X20428810Y-17835381D01*
X20428810Y-17787762D01*
X20419286Y-17768714D01*
X20409762Y-17759190D01*
X20390714Y-17749667D01*
X20352619Y-17749667D01*
X20333571Y-17759190D01*
X20324048Y-17768714D01*
X20314524Y-17787762D01*
X20600238Y-17673476D02*
X20562143Y-17673476D01*
X20543095Y-17683000D01*
X20533571Y-17692524D01*
X20514524Y-17721095D01*
X20505000Y-17759190D01*
X20505000Y-17835381D01*
X20514524Y-17854429D01*
X20524048Y-17863952D01*
X20543095Y-17873476D01*
X20581190Y-17873476D01*
X20600238Y-17863952D01*
X20609762Y-17854429D01*
X20619286Y-17835381D01*
X20619286Y-17787762D01*
X20609762Y-17768714D01*
X20600238Y-17759190D01*
X20581190Y-17749667D01*
X20543095Y-17749667D01*
X20524048Y-17759190D01*
X20514524Y-17768714D01*
X20505000Y-17787762D01*
X20695476Y-17673476D02*
X20695476Y-17711571D01*
X20771667Y-17673476D02*
X20771667Y-17711571D01*
X21066905Y-17949667D02*
X21057381Y-17940143D01*
X21038333Y-17911571D01*
X21028810Y-17892524D01*
X21019286Y-17863952D01*
X21009762Y-17816333D01*
X21009762Y-17778238D01*
X21019286Y-17730619D01*
X21028810Y-17702048D01*
X21038333Y-17683000D01*
X21057381Y-17654429D01*
X21066905Y-17644905D01*
X21228810Y-17740143D02*
X21228810Y-17873476D01*
X21181190Y-17663952D02*
X21133571Y-17806810D01*
X21257381Y-17806810D01*
X21485952Y-17873476D02*
X21485952Y-17673476D01*
X21571667Y-17873476D02*
X21571667Y-17768714D01*
X21562143Y-17749667D01*
X21543095Y-17740143D01*
X21514524Y-17740143D01*
X21495476Y-17749667D01*
X21485952Y-17759190D01*
X21695476Y-17873476D02*
X21676429Y-17863952D01*
X21666905Y-17854429D01*
X21657381Y-17835381D01*
X21657381Y-17778238D01*
X21666905Y-17759190D01*
X21676429Y-17749667D01*
X21695476Y-17740143D01*
X21724048Y-17740143D01*
X21743095Y-17749667D01*
X21752619Y-17759190D01*
X21762143Y-17778238D01*
X21762143Y-17835381D01*
X21752619Y-17854429D01*
X21743095Y-17863952D01*
X21724048Y-17873476D01*
X21695476Y-17873476D01*
X21876429Y-17873476D02*
X21857381Y-17863952D01*
X21847857Y-17844905D01*
X21847857Y-17673476D01*
X22028810Y-17863952D02*
X22009762Y-17873476D01*
X21971667Y-17873476D01*
X21952619Y-17863952D01*
X21943095Y-17844905D01*
X21943095Y-17768714D01*
X21952619Y-17749667D01*
X21971667Y-17740143D01*
X22009762Y-17740143D01*
X22028810Y-17749667D01*
X22038333Y-17768714D01*
X22038333Y-17787762D01*
X21943095Y-17806810D01*
X22114524Y-17863952D02*
X22133571Y-17873476D01*
X22171667Y-17873476D01*
X22190714Y-17863952D01*
X22200238Y-17844905D01*
X22200238Y-17835381D01*
X22190714Y-17816333D01*
X22171667Y-17806810D01*
X22143095Y-17806810D01*
X22124048Y-17797286D01*
X22114524Y-17778238D01*
X22114524Y-17768714D01*
X22124048Y-17749667D01*
X22143095Y-17740143D01*
X22171667Y-17740143D01*
X22190714Y-17749667D01*
X22266905Y-17949667D02*
X22276429Y-17940143D01*
X22295476Y-17911571D01*
X22305000Y-17892524D01*
X22314524Y-17863952D01*
X22324048Y-17816333D01*
X22324048Y-17778238D01*
X22314524Y-17730619D01*
X22305000Y-17702048D01*
X22295476Y-17683000D01*
X22276429Y-17654429D01*
X22266905Y-17644905D01*
X17395000Y-18003000D02*
X17395000Y-18203000D01*
X17295000Y-18103000D02*
X17495000Y-18103000D01*
X17495000Y-18103000D02*
G75*
G03*
X17495000Y-18103000I-100000J0D01*
G01*
X17743095Y-18012524D02*
X17752619Y-18003000D01*
X17771667Y-17993476D01*
X17819286Y-17993476D01*
X17838333Y-18003000D01*
X17847857Y-18012524D01*
X17857381Y-18031571D01*
X17857381Y-18050619D01*
X17847857Y-18079190D01*
X17733571Y-18193476D01*
X17857381Y-18193476D01*
X17943095Y-18174429D02*
X17952619Y-18183952D01*
X17943095Y-18193476D01*
X17933571Y-18183952D01*
X17943095Y-18174429D01*
X17943095Y-18193476D01*
X18124048Y-18060143D02*
X18124048Y-18193476D01*
X18076429Y-17983952D02*
X18028810Y-18126810D01*
X18152619Y-18126810D01*
X18333571Y-18193476D02*
X18219286Y-18193476D01*
X18276429Y-18193476D02*
X18276429Y-17993476D01*
X18257381Y-18022048D01*
X18238333Y-18041095D01*
X18219286Y-18050619D01*
X18457381Y-17993476D02*
X18476429Y-17993476D01*
X18495476Y-18003000D01*
X18505000Y-18012524D01*
X18514524Y-18031571D01*
X18524048Y-18069667D01*
X18524048Y-18117286D01*
X18514524Y-18155381D01*
X18505000Y-18174429D01*
X18495476Y-18183952D01*
X18476429Y-18193476D01*
X18457381Y-18193476D01*
X18438333Y-18183952D01*
X18428810Y-18174429D01*
X18419286Y-18155381D01*
X18409762Y-18117286D01*
X18409762Y-18069667D01*
X18419286Y-18031571D01*
X18428810Y-18012524D01*
X18438333Y-18003000D01*
X18457381Y-17993476D01*
X18609762Y-18193476D02*
X18609762Y-18060143D01*
X18609762Y-18079190D02*
X18619286Y-18069667D01*
X18638333Y-18060143D01*
X18666905Y-18060143D01*
X18685952Y-18069667D01*
X18695476Y-18088714D01*
X18695476Y-18193476D01*
X18695476Y-18088714D02*
X18705000Y-18069667D01*
X18724048Y-18060143D01*
X18752619Y-18060143D01*
X18771667Y-18069667D01*
X18781190Y-18088714D01*
X18781190Y-18193476D01*
X18876429Y-18193476D02*
X18876429Y-18060143D01*
X18876429Y-18079190D02*
X18885952Y-18069667D01*
X18905000Y-18060143D01*
X18933571Y-18060143D01*
X18952619Y-18069667D01*
X18962143Y-18088714D01*
X18962143Y-18193476D01*
X18962143Y-18088714D02*
X18971667Y-18069667D01*
X18990714Y-18060143D01*
X19019286Y-18060143D01*
X19038333Y-18069667D01*
X19047857Y-18088714D01*
X19047857Y-18193476D01*
X19438333Y-17983952D02*
X19266905Y-18241095D01*
X19695476Y-17993476D02*
X19714524Y-17993476D01*
X19733571Y-18003000D01*
X19743095Y-18012524D01*
X19752619Y-18031571D01*
X19762143Y-18069667D01*
X19762143Y-18117286D01*
X19752619Y-18155381D01*
X19743095Y-18174429D01*
X19733571Y-18183952D01*
X19714524Y-18193476D01*
X19695476Y-18193476D01*
X19676429Y-18183952D01*
X19666905Y-18174429D01*
X19657381Y-18155381D01*
X19647857Y-18117286D01*
X19647857Y-18069667D01*
X19657381Y-18031571D01*
X19666905Y-18012524D01*
X19676429Y-18003000D01*
X19695476Y-17993476D01*
X19847857Y-18174429D02*
X19857381Y-18183952D01*
X19847857Y-18193476D01*
X19838333Y-18183952D01*
X19847857Y-18174429D01*
X19847857Y-18193476D01*
X19981190Y-17993476D02*
X20000238Y-17993476D01*
X20019286Y-18003000D01*
X20028810Y-18012524D01*
X20038333Y-18031571D01*
X20047857Y-18069667D01*
X20047857Y-18117286D01*
X20038333Y-18155381D01*
X20028810Y-18174429D01*
X20019286Y-18183952D01*
X20000238Y-18193476D01*
X19981190Y-18193476D01*
X19962143Y-18183952D01*
X19952619Y-18174429D01*
X19943095Y-18155381D01*
X19933571Y-18117286D01*
X19933571Y-18069667D01*
X19943095Y-18031571D01*
X19952619Y-18012524D01*
X19962143Y-18003000D01*
X19981190Y-17993476D01*
X20143095Y-18193476D02*
X20181190Y-18193476D01*
X20200238Y-18183952D01*
X20209762Y-18174429D01*
X20228810Y-18145857D01*
X20238333Y-18107762D01*
X20238333Y-18031571D01*
X20228810Y-18012524D01*
X20219286Y-18003000D01*
X20200238Y-17993476D01*
X20162143Y-17993476D01*
X20143095Y-18003000D01*
X20133571Y-18012524D01*
X20124048Y-18031571D01*
X20124048Y-18079190D01*
X20133571Y-18098238D01*
X20143095Y-18107762D01*
X20162143Y-18117286D01*
X20200238Y-18117286D01*
X20219286Y-18107762D01*
X20228810Y-18098238D01*
X20238333Y-18079190D01*
X20409762Y-18060143D02*
X20409762Y-18193476D01*
X20362143Y-17983952D02*
X20314524Y-18126810D01*
X20438333Y-18126810D01*
X20524048Y-18193476D02*
X20562143Y-18193476D01*
X20581190Y-18183952D01*
X20590714Y-18174429D01*
X20609762Y-18145857D01*
X20619286Y-18107762D01*
X20619286Y-18031571D01*
X20609762Y-18012524D01*
X20600238Y-18003000D01*
X20581190Y-17993476D01*
X20543095Y-17993476D01*
X20524048Y-18003000D01*
X20514524Y-18012524D01*
X20505000Y-18031571D01*
X20505000Y-18079190D01*
X20514524Y-18098238D01*
X20524048Y-18107762D01*
X20543095Y-18117286D01*
X20581190Y-18117286D01*
X20600238Y-18107762D01*
X20609762Y-18098238D01*
X20619286Y-18079190D01*
X20695476Y-17993476D02*
X20695476Y-18031571D01*
X20771667Y-17993476D02*
X20771667Y-18031571D01*
X21066905Y-18269667D02*
X21057381Y-18260143D01*
X21038333Y-18231571D01*
X21028810Y-18212524D01*
X21019286Y-18183952D01*
X21009762Y-18136333D01*
X21009762Y-18098238D01*
X21019286Y-18050619D01*
X21028810Y-18022048D01*
X21038333Y-18003000D01*
X21057381Y-17974429D01*
X21066905Y-17964905D01*
X21247857Y-18193476D02*
X21133571Y-18193476D01*
X21190714Y-18193476D02*
X21190714Y-17993476D01*
X21171667Y-18022048D01*
X21152619Y-18041095D01*
X21133571Y-18050619D01*
X21324048Y-18012524D02*
X21333571Y-18003000D01*
X21352619Y-17993476D01*
X21400238Y-17993476D01*
X21419286Y-18003000D01*
X21428810Y-18012524D01*
X21438333Y-18031571D01*
X21438333Y-18050619D01*
X21428810Y-18079190D01*
X21314524Y-18193476D01*
X21438333Y-18193476D01*
X21676429Y-18193476D02*
X21676429Y-17993476D01*
X21762143Y-18193476D02*
X21762143Y-18088714D01*
X21752619Y-18069667D01*
X21733571Y-18060143D01*
X21705000Y-18060143D01*
X21685952Y-18069667D01*
X21676429Y-18079190D01*
X21885952Y-18193476D02*
X21866905Y-18183952D01*
X21857381Y-18174429D01*
X21847857Y-18155381D01*
X21847857Y-18098238D01*
X21857381Y-18079190D01*
X21866905Y-18069667D01*
X21885952Y-18060143D01*
X21914524Y-18060143D01*
X21933571Y-18069667D01*
X21943095Y-18079190D01*
X21952619Y-18098238D01*
X21952619Y-18155381D01*
X21943095Y-18174429D01*
X21933571Y-18183952D01*
X21914524Y-18193476D01*
X21885952Y-18193476D01*
X22066905Y-18193476D02*
X22047857Y-18183952D01*
X22038333Y-18164905D01*
X22038333Y-17993476D01*
X22219286Y-18183952D02*
X22200238Y-18193476D01*
X22162143Y-18193476D01*
X22143095Y-18183952D01*
X22133571Y-18164905D01*
X22133571Y-18088714D01*
X22143095Y-18069667D01*
X22162143Y-18060143D01*
X22200238Y-18060143D01*
X22219286Y-18069667D01*
X22228810Y-18088714D01*
X22228810Y-18107762D01*
X22133571Y-18126810D01*
X22305000Y-18183952D02*
X22324048Y-18193476D01*
X22362143Y-18193476D01*
X22381190Y-18183952D01*
X22390714Y-18164905D01*
X22390714Y-18155381D01*
X22381190Y-18136333D01*
X22362143Y-18126810D01*
X22333571Y-18126810D01*
X22314524Y-18117286D01*
X22305000Y-18098238D01*
X22305000Y-18088714D01*
X22314524Y-18069667D01*
X22333571Y-18060143D01*
X22362143Y-18060143D01*
X22381190Y-18069667D01*
X22457381Y-18269667D02*
X22466905Y-18260143D01*
X22485952Y-18231571D01*
X22495476Y-18212524D01*
X22505000Y-18183952D01*
X22514524Y-18136333D01*
X22514524Y-18098238D01*
X22505000Y-18050619D01*
X22495476Y-18022048D01*
X22485952Y-18003000D01*
X22466905Y-17974429D01*
X22457381Y-17964905D01*
M02*
