M48
; DRILL file {KiCad (6.0.6)} date Sun Feb  5 11:57:08 2023
; FORMAT={-:-/ absolute / metric / decimal}
; #@! TF.CreationDate,2023-02-05T11:57:08-05:00
; #@! TF.GenerationSoftware,Kicad,Pcbnew,(6.0.6)
; #@! TF.FileFunction,Plated,1,4,PTH
FMAT,2
METRIC
; #@! TA.AperFunction,Plated,PTH,ViaDrill
T1C0.250
; #@! TA.AperFunction,Plated,PTH,ViaDrill
T2C0.400
; #@! TA.AperFunction,Plated,PTH,ComponentDrill
T3C0.500
; #@! TA.AperFunction,Plated,PTH,ComponentDrill
T4C0.800
; #@! TA.AperFunction,Plated,PTH,ComponentDrill
T5C0.900
; #@! TA.AperFunction,Plated,PTH,ComponentDrill
T6C1.000
; #@! TA.AperFunction,Plated,PTH,ComponentDrill
T7C1.020
; #@! TA.AperFunction,Plated,PTH,ComponentDrill
T8C1.700
; #@! TA.AperFunction,Plated,PTH,ComponentDrill
T9C2.200
; #@! TA.AperFunction,Plated,PTH,ComponentDrill
T10C2.410
%
G90
G05
T1
X177.2Y-100.8
X177.6Y-104.68
X177.6Y-105.28
X177.8Y-101.3
X178.3Y-103.78
X179.0Y-117.0
X179.4Y-108.78
X179.5Y-125.5
X179.5Y-128.3
X179.7Y-112.88
X180.0Y-108.78
X180.145Y-68.346
X180.2Y-67.5
X180.2Y-125.5
X180.2Y-128.3
X181.2Y-112.9
X182.4Y-100.9
X182.6Y-129.7
X182.9Y-55.9
X183.0Y-118.7
X183.06Y-130.37
X183.1Y-100.5
X183.15Y-125.05
X183.2Y-124.3
X183.4Y-144.7
X183.4Y-145.5
X183.7Y-55.9
X184.8Y-118.1
X185.1Y-104.2
X185.1Y-105.1
X185.1Y-106.9
X185.1Y-107.7
X187.4Y-142.8
X187.5Y-60.4
X187.5Y-74.0
X187.9Y-140.425
X187.9Y-141.1
X188.2Y-147.5
X188.5Y-139.1
X188.5Y-142.5
X188.6Y-60.4
X188.6Y-74.0
X188.6Y-119.3
X188.6Y-119.9
X188.6Y-127.2
X188.6Y-127.8
X189.175Y-139.1
X189.175Y-142.5
X189.4Y-144.0
X190.0Y-144.0
X190.6Y-71.1
X190.9Y-57.7
X191.0Y-59.6
X191.0Y-60.4
X191.2Y-147.5
X191.294Y-106.294
X191.8Y-148.0
X192.25Y-106.15
X192.254Y-102.903
X192.9Y-103.6
X192.9Y-111.3
X193.2Y-110.6
X193.2Y-125.9
X193.3Y-102.4
X193.625Y-133.575
X193.675Y-139.075
X193.7Y-95.8
X193.7Y-96.6
X193.8Y-125.4
X194.1Y-112.7
X194.2Y-133.575
X194.275Y-139.075
X194.35Y-135.675
X194.35Y-136.975
X194.6Y-98.9
X194.8Y-133.575
X194.875Y-139.075
X194.9Y-112.5
X195.0Y-99.3
X195.4Y-126.9
X195.65Y-135.675
X195.65Y-136.95
X195.725Y-129.9
X195.725Y-133.3
X195.8Y-71.1
X195.8Y-124.8
X196.1Y-139.55
X196.1Y-142.1
X196.4Y-71.1
X196.4Y-129.9
X196.4Y-133.3
X196.775Y-142.1
X196.8Y-58.4
X196.8Y-59.0
X196.8Y-139.55
X196.9Y-66.4
X196.9Y-67.2
X196.9Y-104.525
X197.076Y-133.4
X197.4Y-57.5
X197.5Y-103.9
X197.5Y-138.1
X197.7Y-86.9
X197.7Y-87.7
X197.7Y-88.9
X197.7Y-89.75
X197.7Y-132.9
X197.8Y-135.5
X197.874Y-116.374
X197.9Y-138.8
X198.1Y-136.8
X198.12Y-103.124
X198.226Y-104.226
X198.275Y-137.576
X198.5Y-115.7
X198.5Y-122.1
X198.6Y-135.4
X198.726Y-103.726
X198.9Y-55.3
X198.9Y-102.4
X198.9Y-125.3
X199.1Y-124.5
X199.124Y-105.824
X199.288Y-103.163
X199.5Y-106.9
X199.6Y-105.2
X199.6Y-113.1
X199.6Y-113.9
X199.7Y-55.4
X200.1Y-107.5
X200.2Y-108.3
X200.4Y-105.4
X200.4Y-109.1
X200.4Y-111.6
X200.5Y-112.4
X200.7Y-106.1
X201.1Y-135.7
X201.168Y-62.23
X201.2Y-111.0
X201.3Y-136.5
X201.6Y-106.1
X201.7Y-61.5
X201.7Y-111.6
X202.0Y-103.6
X202.0Y-134.9
X202.087Y-133.515
X202.124Y-139.118
X202.184Y-78.232
X202.2Y-135.675
X202.3Y-105.5
X202.4Y-102.7
X202.4Y-138.4
X202.588Y-134.154
X202.6Y-60.6
X202.6Y-74.1
X202.656Y-98.744
X202.7Y-87.5
X202.7Y-99.6
X202.797Y-78.806
X202.8Y-103.4
X202.9Y-105.0
X203.1Y-59.1
X203.1Y-59.7
X203.1Y-72.6
X203.1Y-73.2
X203.1Y-86.1
X203.1Y-86.7
X203.1Y-106.5
X203.147Y-139.586
X203.147Y-142.136
X203.2Y-110.2
X203.2Y-138.8
X203.5Y-105.8
X203.6Y-100.8
X203.625Y-129.9
X203.625Y-133.3
X203.822Y-142.136
X203.847Y-139.586
X204.0Y-109.9
X204.3Y-105.374
X204.3Y-129.9
X204.3Y-133.3
X204.325Y-135.7
X204.325Y-136.975
X204.343Y-91.2
X204.369Y-92.0
X204.4Y-139.3
X204.5Y-96.1
X204.925Y-99.525
X205.0Y-140.7
X205.175Y-133.575
X205.175Y-139.075
X205.387Y-102.39
X205.65Y-135.675
X205.65Y-136.975
X205.775Y-133.575
X205.775Y-139.075
X206.0Y-104.425
X206.005Y-98.305
X206.2Y-96.8
X206.375Y-133.575
X206.375Y-139.075
X206.8Y-104.4
X207.2Y-88.7
X207.5Y-113.3
X207.518Y-107.569
X207.8Y-106.2
X207.9Y-100.3
X207.928Y-105.384
X208.2Y-99.5
X208.2Y-112.6
X208.9Y-101.4
X208.95Y-71.4
X209.0Y-56.9
X209.0Y-57.8
X209.1Y-72.3
X209.1Y-83.9
X209.4Y-60.5
X209.4Y-74.0
X209.425Y-97.2
X210.2Y-96.8
X210.825Y-139.1
X210.825Y-142.5
X211.3Y-57.6
X211.3Y-71.2
X211.3Y-84.6
X211.425Y-94.9
X211.425Y-95.8
X211.5Y-139.1
X211.5Y-142.5
X211.9Y-84.0
X212.1Y-140.5
X212.1Y-141.175
X212.5Y-71.2
X212.5Y-84.6
X212.6Y-57.599
X213.1Y-125.0
X213.545Y-122.943
X213.7Y-119.4
X213.7Y-120.0
X215.3Y-125.2
X215.9Y-125.2
X216.0Y-129.7
X216.105Y-66.405
X216.5Y-80.0
X216.5Y-125.2
X216.6Y-53.9
X216.6Y-105.8
X216.6Y-106.6
X216.8Y-129.7
X216.9Y-115.7
X217.0Y-66.5
X217.1Y-54.7
X217.1Y-116.3
X217.3Y-80.2
X218.1Y-95.4
X218.6Y-125.2
X219.1Y-93.3
X219.2Y-125.2
X219.8Y-125.2
X220.3Y-93.3
X221.21Y-119.91
X221.3Y-128.1
X223.0Y-58.1
X223.0Y-118.6
X223.0Y-119.361
X223.5Y-57.4
T2
X191.0Y-74.7
X191.7Y-142.7
X192.1Y-143.6
X192.5Y-61.3
X192.5Y-62.2
X192.5Y-74.9
X192.5Y-75.9
X192.6Y-142.7
X193.1Y-143.6
X193.6Y-61.3
X193.6Y-62.2
X193.6Y-74.9
X193.6Y-75.9
X193.6Y-142.7
X194.1Y-143.6
X195.1Y-143.6
X199.0Y-130.8
X199.0Y-132.0
X200.2Y-130.8
X200.2Y-132.0
X201.3Y-130.8
X201.3Y-132.0
X204.6Y-124.5
X204.6Y-125.8
X205.9Y-124.5
X205.9Y-125.8
X206.4Y-55.8
X206.4Y-56.7
X206.4Y-69.4
X206.4Y-70.3
X206.4Y-142.7
X206.5Y-83.0
X206.5Y-83.9
X206.9Y-143.6
X207.4Y-142.7
X207.5Y-55.8
X207.5Y-56.7
X207.5Y-69.4
X207.5Y-70.3
X207.6Y-83.0
X207.6Y-83.9
X208.0Y-143.6
X208.4Y-142.7
T3
X178.7Y-96.35
X178.7Y-97.6
X178.7Y-98.85
T4
X179.725Y-133.325
X179.725Y-136.825
X220.225Y-133.575
X220.225Y-137.075
T5
X218.948Y-98.87
X218.948Y-102.87
T6
X190.6Y-82.525
X190.6Y-85.065
X190.6Y-88.735
X190.6Y-91.275
X218.2Y-109.325
X218.2Y-111.865
X222.5Y-106.67
X222.5Y-109.21
X222.5Y-111.75
X222.5Y-114.29
T7
X182.93Y-58.145
X182.93Y-61.145
X182.93Y-71.645
X182.93Y-74.645
X182.93Y-85.145
X182.93Y-88.145
X217.043Y-56.947
X217.043Y-59.947
X217.043Y-70.447
X217.043Y-73.447
X217.043Y-83.947
X217.043Y-86.947
T8
X200.512Y-147.225
X206.212Y-147.225
T9
X178.5Y-50.0
X178.5Y-146.5
X221.5Y-50.0
X221.5Y-146.5
T10
X178.61Y-55.995
X178.61Y-63.295
X178.61Y-69.495
X178.61Y-76.795
X178.61Y-82.995
X178.61Y-90.295
X221.363Y-54.797
X221.363Y-62.097
X221.363Y-68.297
X221.363Y-75.597
X221.363Y-81.797
X221.363Y-89.097
T0
M30
