G04 #@! TF.GenerationSoftware,KiCad,Pcbnew,(6.0.6)*
G04 #@! TF.CreationDate,2023-02-05T11:57:00-05:00*
G04 #@! TF.ProjectId,KXRPowerBoardV2,4b585250-6f77-4657-9242-6f6172645632,rev?*
G04 #@! TF.SameCoordinates,Original*
G04 #@! TF.FileFunction,Soldermask,Top*
G04 #@! TF.FilePolarity,Negative*
%FSLAX46Y46*%
G04 Gerber Fmt 4.6, Leading zero omitted, Abs format (unit mm)*
G04 Created by KiCad (PCBNEW (6.0.6)) date 2023-02-05 11:57:00*
%MOMM*%
%LPD*%
G01*
G04 APERTURE LIST*
G04 Aperture macros list*
%AMRoundRect*
0 Rectangle with rounded corners*
0 $1 Rounding radius*
0 $2 $3 $4 $5 $6 $7 $8 $9 X,Y pos of 4 corners*
0 Add a 4 corners polygon primitive as box body*
4,1,4,$2,$3,$4,$5,$6,$7,$8,$9,$2,$3,0*
0 Add four circle primitives for the rounded corners*
1,1,$1+$1,$2,$3*
1,1,$1+$1,$4,$5*
1,1,$1+$1,$6,$7*
1,1,$1+$1,$8,$9*
0 Add four rect primitives between the rounded corners*
20,1,$1+$1,$2,$3,$4,$5,0*
20,1,$1+$1,$4,$5,$6,$7,0*
20,1,$1+$1,$6,$7,$8,$9,0*
20,1,$1+$1,$8,$9,$2,$3,0*%
%AMRotRect*
0 Rectangle, with rotation*
0 The origin of the aperture is its center*
0 $1 length*
0 $2 width*
0 $3 Rotation angle, in degrees counterclockwise*
0 Add horizontal line*
21,1,$1,$2,0,0,$3*%
%AMFreePoly0*
4,1,17,1.395000,0.765000,0.855000,0.765000,0.855000,0.535000,1.395000,0.535000,1.395000,0.115000,0.855000,0.115000,0.855000,-0.115000,1.395000,-0.115000,1.395000,-0.535000,0.855000,-0.535000,0.855000,-0.765000,1.395000,-0.765000,1.395000,-1.185000,-0.855000,-1.185000,-0.855000,1.185000,1.395000,1.185000,1.395000,0.765000,1.395000,0.765000,$1*%
%AMFreePoly1*
4,1,22,0.500000,-0.750000,0.000000,-0.750000,0.000000,-0.745033,-0.079941,-0.743568,-0.215256,-0.701293,-0.333266,-0.622738,-0.424486,-0.514219,-0.481581,-0.384460,-0.499164,-0.250000,-0.500000,-0.250000,-0.500000,0.250000,-0.499164,0.250000,-0.499963,0.256109,-0.478152,0.396186,-0.417904,0.524511,-0.324060,0.630769,-0.204165,0.706417,-0.067858,0.745374,0.000000,0.744959,0.000000,0.750000,
0.500000,0.750000,0.500000,-0.750000,0.500000,-0.750000,$1*%
%AMFreePoly2*
4,1,20,0.000000,0.744959,0.073905,0.744508,0.209726,0.703889,0.328688,0.626782,0.421226,0.519385,0.479903,0.390333,0.500000,0.250000,0.500000,-0.250000,0.499851,-0.262216,0.476331,-0.402017,0.414519,-0.529596,0.319384,-0.634700,0.198574,-0.708877,0.061801,-0.746166,0.000000,-0.745033,0.000000,-0.750000,-0.500000,-0.750000,-0.500000,0.750000,0.000000,0.750000,0.000000,0.744959,
0.000000,0.744959,$1*%
G04 Aperture macros list end*
%ADD10C,1.531200*%
%ADD11C,0.836200*%
%ADD12C,0.010000*%
%ADD13RoundRect,0.135000X-0.185000X0.135000X-0.185000X-0.135000X0.185000X-0.135000X0.185000X0.135000X0*%
%ADD14RoundRect,0.140000X0.170000X-0.140000X0.170000X0.140000X-0.170000X0.140000X-0.170000X-0.140000X0*%
%ADD15R,1.700000X1.700000*%
%ADD16O,1.700000X1.700000*%
%ADD17RoundRect,0.135000X0.135000X0.185000X-0.135000X0.185000X-0.135000X-0.185000X0.135000X-0.185000X0*%
%ADD18R,0.450000X0.700000*%
%ADD19RoundRect,0.140000X0.219203X0.021213X0.021213X0.219203X-0.219203X-0.021213X-0.021213X-0.219203X0*%
%ADD20RoundRect,0.135000X0.185000X-0.135000X0.185000X0.135000X-0.185000X0.135000X-0.185000X-0.135000X0*%
%ADD21RoundRect,0.140000X-0.219203X-0.021213X-0.021213X-0.219203X0.219203X0.021213X0.021213X0.219203X0*%
%ADD22RoundRect,0.135000X-0.135000X-0.185000X0.135000X-0.185000X0.135000X0.185000X-0.135000X0.185000X0*%
%ADD23RoundRect,0.218750X0.026517X-0.335876X0.335876X-0.026517X-0.026517X0.335876X-0.335876X0.026517X0*%
%ADD24RoundRect,0.140000X-0.170000X0.140000X-0.170000X-0.140000X0.170000X-0.140000X0.170000X0.140000X0*%
%ADD25RoundRect,0.250000X-0.325000X-0.650000X0.325000X-0.650000X0.325000X0.650000X-0.325000X0.650000X0*%
%ADD26RoundRect,0.135000X-0.035355X0.226274X-0.226274X0.035355X0.035355X-0.226274X0.226274X-0.035355X0*%
%ADD27RoundRect,0.250000X0.325000X1.100000X-0.325000X1.100000X-0.325000X-1.100000X0.325000X-1.100000X0*%
%ADD28RoundRect,0.140000X0.140000X0.170000X-0.140000X0.170000X-0.140000X-0.170000X0.140000X-0.170000X0*%
%ADD29R,0.700000X0.420000*%
%ADD30FreePoly0,180.000000*%
%ADD31RoundRect,0.218750X0.218750X0.256250X-0.218750X0.256250X-0.218750X-0.256250X0.218750X-0.256250X0*%
%ADD32FreePoly0,0.000000*%
%ADD33RoundRect,0.150000X0.825000X0.150000X-0.825000X0.150000X-0.825000X-0.150000X0.825000X-0.150000X0*%
%ADD34R,1.500000X2.000000*%
%ADD35R,3.800000X2.000000*%
%ADD36C,3.800000*%
%ADD37RoundRect,0.250000X-0.512652X-0.159099X-0.159099X-0.512652X0.512652X0.159099X0.159099X0.512652X0*%
%ADD38RoundRect,0.250000X-0.325000X-1.100000X0.325000X-1.100000X0.325000X1.100000X-0.325000X1.100000X0*%
%ADD39RoundRect,0.218750X0.256250X-0.218750X0.256250X0.218750X-0.256250X0.218750X-0.256250X-0.218750X0*%
%ADD40R,1.600000X1.600000*%
%ADD41C,1.600000*%
%ADD42RoundRect,0.140000X0.021213X-0.219203X0.219203X-0.021213X-0.021213X0.219203X-0.219203X0.021213X0*%
%ADD43RoundRect,0.218750X-0.218750X-0.256250X0.218750X-0.256250X0.218750X0.256250X-0.218750X0.256250X0*%
%ADD44RoundRect,0.135000X-0.226274X-0.035355X-0.035355X-0.226274X0.226274X0.035355X0.035355X0.226274X0*%
%ADD45R,3.500000X2.450000*%
%ADD46RoundRect,0.250000X-1.100000X0.325000X-1.100000X-0.325000X1.100000X-0.325000X1.100000X0.325000X0*%
%ADD47RotRect,1.400000X1.200000X315.000000*%
%ADD48RoundRect,0.250000X0.325000X0.650000X-0.325000X0.650000X-0.325000X-0.650000X0.325000X-0.650000X0*%
%ADD49RoundRect,0.250000X-1.330000X-1.800000X1.330000X-1.800000X1.330000X1.800000X-1.330000X1.800000X0*%
%ADD50O,3.160000X4.100000*%
%ADD51RoundRect,0.140000X-0.021213X0.219203X-0.219203X0.021213X0.021213X-0.219203X0.219203X-0.021213X0*%
%ADD52RoundRect,0.250000X1.100000X-0.325000X1.100000X0.325000X-1.100000X0.325000X-1.100000X-0.325000X0*%
%ADD53RoundRect,0.150000X0.150000X-0.825000X0.150000X0.825000X-0.150000X0.825000X-0.150000X-0.825000X0*%
%ADD54FreePoly1,0.000000*%
%ADD55FreePoly2,0.000000*%
%ADD56R,6.500000X1.920000*%
%ADD57RoundRect,0.150000X-0.150000X0.825000X-0.150000X-0.825000X0.150000X-0.825000X0.150000X0.825000X0*%
%ADD58R,0.250000X0.700000*%
%ADD59R,0.700000X0.250000*%
%ADD60R,1.125000X1.125000*%
%ADD61R,0.375000X0.375000*%
%ADD62RoundRect,0.200000X-0.450000X0.200000X-0.450000X-0.200000X0.450000X-0.200000X0.450000X0.200000X0*%
%ADD63O,1.300000X0.800000*%
%ADD64RoundRect,0.140000X-0.140000X-0.170000X0.140000X-0.170000X0.140000X0.170000X-0.140000X0.170000X0*%
%ADD65R,0.475000X0.300000*%
%ADD66RoundRect,0.218750X-0.256250X0.218750X-0.256250X-0.218750X0.256250X-0.218750X0.256250X0.218750X0*%
%ADD67RoundRect,0.250000X-0.650000X0.325000X-0.650000X-0.325000X0.650000X-0.325000X0.650000X0.325000X0*%
%ADD68RoundRect,0.075000X0.415425X0.521491X-0.521491X-0.415425X-0.415425X-0.521491X0.521491X0.415425X0*%
%ADD69RoundRect,0.075000X-0.415425X0.521491X-0.521491X0.415425X0.415425X-0.521491X0.521491X-0.415425X0*%
G04 APERTURE END LIST*
D10*
X179375850Y-63295000D02*
G75*
G03*
X179375850Y-63295000I-765600J0D01*
G01*
D11*
X183348350Y-58145000D02*
G75*
G03*
X183348350Y-58145000I-418100J0D01*
G01*
D10*
X179375850Y-55995000D02*
G75*
G03*
X179375850Y-55995000I-765600J0D01*
G01*
G36*
X183766450Y-61981200D02*
G01*
X182094050Y-61981200D01*
X182094050Y-60308800D01*
X183766450Y-60308800D01*
X183766450Y-61981200D01*
G37*
D12*
X183766450Y-61981200D02*
X182094050Y-61981200D01*
X182094050Y-60308800D01*
X183766450Y-60308800D01*
X183766450Y-61981200D01*
D10*
X179375850Y-90295000D02*
G75*
G03*
X179375850Y-90295000I-765600J0D01*
G01*
D11*
X183348350Y-85145000D02*
G75*
G03*
X183348350Y-85145000I-418100J0D01*
G01*
D10*
X179375850Y-82995000D02*
G75*
G03*
X179375850Y-82995000I-765600J0D01*
G01*
G36*
X183766450Y-88981200D02*
G01*
X182094050Y-88981200D01*
X182094050Y-87308800D01*
X183766450Y-87308800D01*
X183766450Y-88981200D01*
G37*
D12*
X183766450Y-88981200D02*
X182094050Y-88981200D01*
X182094050Y-87308800D01*
X183766450Y-87308800D01*
X183766450Y-88981200D01*
D11*
X217461100Y-59947000D02*
G75*
G03*
X217461100Y-59947000I-418100J0D01*
G01*
D10*
X222128600Y-54797000D02*
G75*
G03*
X222128600Y-54797000I-765600J0D01*
G01*
X222128600Y-62097000D02*
G75*
G03*
X222128600Y-62097000I-765600J0D01*
G01*
G36*
X217879200Y-57783200D02*
G01*
X216206800Y-57783200D01*
X216206800Y-56110800D01*
X217879200Y-56110800D01*
X217879200Y-57783200D01*
G37*
D12*
X217879200Y-57783200D02*
X216206800Y-57783200D01*
X216206800Y-56110800D01*
X217879200Y-56110800D01*
X217879200Y-57783200D01*
D10*
X222128600Y-68297000D02*
G75*
G03*
X222128600Y-68297000I-765600J0D01*
G01*
X222128600Y-75597000D02*
G75*
G03*
X222128600Y-75597000I-765600J0D01*
G01*
D11*
X217461100Y-73447000D02*
G75*
G03*
X217461100Y-73447000I-418100J0D01*
G01*
G36*
X217879200Y-71283200D02*
G01*
X216206800Y-71283200D01*
X216206800Y-69610800D01*
X217879200Y-69610800D01*
X217879200Y-71283200D01*
G37*
D12*
X217879200Y-71283200D02*
X216206800Y-71283200D01*
X216206800Y-69610800D01*
X217879200Y-69610800D01*
X217879200Y-71283200D01*
D10*
X179375850Y-69495000D02*
G75*
G03*
X179375850Y-69495000I-765600J0D01*
G01*
D11*
X183348350Y-71645000D02*
G75*
G03*
X183348350Y-71645000I-418100J0D01*
G01*
D10*
X179375850Y-76795000D02*
G75*
G03*
X179375850Y-76795000I-765600J0D01*
G01*
G36*
X183766450Y-75481200D02*
G01*
X182094050Y-75481200D01*
X182094050Y-73808800D01*
X183766450Y-73808800D01*
X183766450Y-75481200D01*
G37*
D12*
X183766450Y-75481200D02*
X182094050Y-75481200D01*
X182094050Y-73808800D01*
X183766450Y-73808800D01*
X183766450Y-75481200D01*
D10*
X222128600Y-81797000D02*
G75*
G03*
X222128600Y-81797000I-765600J0D01*
G01*
X222128600Y-89097000D02*
G75*
G03*
X222128600Y-89097000I-765600J0D01*
G01*
D11*
X217461100Y-86947000D02*
G75*
G03*
X217461100Y-86947000I-418100J0D01*
G01*
G36*
X217879200Y-84783200D02*
G01*
X216206800Y-84783200D01*
X216206800Y-83110800D01*
X217879200Y-83110800D01*
X217879200Y-84783200D01*
G37*
D12*
X217879200Y-84783200D02*
X216206800Y-84783200D01*
X216206800Y-83110800D01*
X217879200Y-83110800D01*
X217879200Y-84783200D01*
D13*
X189046000Y-69375000D03*
X189046000Y-70395000D03*
D14*
X207927250Y-89157000D03*
X207927250Y-88197000D03*
D15*
X222500000Y-114290000D03*
D16*
X222500000Y-111750000D03*
X222500000Y-109210000D03*
X222500000Y-106670000D03*
D13*
X190546000Y-69375000D03*
X190546000Y-70395000D03*
D17*
X221210000Y-120650000D03*
X220190000Y-120650000D03*
D18*
X219048000Y-95400000D03*
X220348000Y-95400000D03*
X219698000Y-93400000D03*
D19*
X207120411Y-108060411D03*
X206441589Y-107381589D03*
D20*
X206502000Y-75760000D03*
X206502000Y-74740000D03*
D21*
X206889812Y-96810731D03*
X207568634Y-97489553D03*
D13*
X197700000Y-140290000D03*
X197700000Y-141310000D03*
X193546000Y-69375000D03*
X193546000Y-70395000D03*
D22*
X221994000Y-125500000D03*
X223014000Y-125500000D03*
D20*
X212427250Y-62250000D03*
X212427250Y-61230000D03*
D23*
X193441000Y-109141847D03*
X194554694Y-108028153D03*
D14*
X207927250Y-62200000D03*
X207927250Y-61240000D03*
D24*
X200500000Y-136040000D03*
X200500000Y-137000000D03*
D25*
X193500000Y-140825000D03*
X196450000Y-140825000D03*
D22*
X216438000Y-95370000D03*
X217458000Y-95370000D03*
D26*
X197083624Y-110129376D03*
X196362376Y-110850624D03*
D27*
X191818000Y-140825000D03*
X188868000Y-140825000D03*
D28*
X180713000Y-112125000D03*
X179753000Y-112125000D03*
D29*
X189546000Y-64370000D03*
X189546000Y-63720000D03*
X189546000Y-63070000D03*
X189546000Y-62420000D03*
D30*
X187591000Y-63395000D03*
D22*
X217790000Y-122700000D03*
X218810000Y-122700000D03*
D18*
X211277250Y-73197000D03*
X212577250Y-73197000D03*
X211927250Y-71197000D03*
D29*
X189546000Y-77805000D03*
X189546000Y-77155000D03*
X189546000Y-76505000D03*
X189546000Y-75855000D03*
D30*
X187591000Y-76830000D03*
D31*
X196833500Y-69885000D03*
X195258500Y-69885000D03*
D20*
X212427250Y-75760000D03*
X212427250Y-74740000D03*
D29*
X210427250Y-67222000D03*
X210427250Y-67872000D03*
X210427250Y-68522000D03*
X210427250Y-69172000D03*
D32*
X212382250Y-68197000D03*
D33*
X194775000Y-148505000D03*
X194775000Y-147235000D03*
X194775000Y-145965000D03*
X194775000Y-144695000D03*
X189825000Y-144695000D03*
X189825000Y-145965000D03*
X189825000Y-147235000D03*
X189825000Y-148505000D03*
D34*
X179950000Y-126900000D03*
X182250000Y-126900000D03*
D35*
X182250000Y-120600000D03*
D34*
X184550000Y-126900000D03*
D21*
X193816589Y-101939589D03*
X194495411Y-102618411D03*
D15*
X190600000Y-91275000D03*
D16*
X190600000Y-88735000D03*
D36*
X221500000Y-50000000D03*
D37*
X194062498Y-99935498D03*
X195406000Y-101279000D03*
D38*
X208192000Y-140825000D03*
X211142000Y-140825000D03*
D28*
X218780000Y-121650000D03*
X217820000Y-121650000D03*
D20*
X206427250Y-62250000D03*
X206427250Y-61230000D03*
D39*
X177250000Y-125787500D03*
X177250000Y-124212500D03*
D40*
X179725000Y-133325000D03*
D41*
X179725000Y-136825000D03*
D24*
X179750000Y-116980000D03*
X179750000Y-117940000D03*
D33*
X202475000Y-128605000D03*
X202475000Y-127335000D03*
X202475000Y-126065000D03*
X202475000Y-124795000D03*
X197525000Y-124795000D03*
X197525000Y-126065000D03*
X197525000Y-127335000D03*
X197525000Y-128605000D03*
D42*
X197272589Y-111718411D03*
X197951411Y-111039589D03*
D31*
X196833500Y-56395000D03*
X195258500Y-56395000D03*
D43*
X203139750Y-88697000D03*
X204714750Y-88697000D03*
D44*
X205506376Y-108224376D03*
X206227624Y-108945624D03*
D15*
X218200000Y-109325000D03*
D16*
X218200000Y-111865000D03*
D45*
X210770000Y-121131000D03*
X210770000Y-126981000D03*
D20*
X210927250Y-75760000D03*
X210927250Y-74740000D03*
D17*
X199510000Y-123100000D03*
X198490000Y-123100000D03*
D13*
X187546000Y-69375000D03*
X187546000Y-70395000D03*
D46*
X215392000Y-116635000D03*
X215392000Y-119585000D03*
D44*
X204637752Y-109133752D03*
X205359000Y-109855000D03*
D47*
X204100365Y-98723365D03*
X205656000Y-100279000D03*
X206858081Y-99076919D03*
X205302446Y-97521284D03*
D48*
X206450000Y-140825000D03*
X203500000Y-140825000D03*
D22*
X220190000Y-122700000D03*
X221210000Y-122700000D03*
D49*
X200512500Y-147225000D03*
D50*
X206212500Y-147225000D03*
D24*
X199500000Y-137860000D03*
X199500000Y-138820000D03*
D20*
X209427250Y-89217000D03*
X209427250Y-88197000D03*
D26*
X193654624Y-106827376D03*
X192933376Y-107548624D03*
D18*
X188696000Y-71895000D03*
X187396000Y-71895000D03*
X188046000Y-73895000D03*
D51*
X207495411Y-102439589D03*
X206816589Y-103118411D03*
D13*
X199500000Y-136000000D03*
X199500000Y-137020000D03*
D20*
X210927250Y-62250000D03*
X210927250Y-61230000D03*
X206427250Y-89207000D03*
X206427250Y-88187000D03*
D52*
X215800000Y-127205000D03*
X215800000Y-124255000D03*
D43*
X203139750Y-61740000D03*
X204714750Y-61740000D03*
D13*
X197400000Y-131065000D03*
X197400000Y-132085000D03*
D53*
X178308000Y-110100000D03*
X179578000Y-110100000D03*
X180848000Y-110100000D03*
X182118000Y-110100000D03*
X182118000Y-105150000D03*
X180848000Y-105150000D03*
X179578000Y-105150000D03*
X178308000Y-105150000D03*
D17*
X201510000Y-123100000D03*
X200490000Y-123100000D03*
D54*
X180750000Y-102280000D03*
D55*
X182050000Y-102280000D03*
D56*
X211755000Y-137485000D03*
X211755000Y-132665000D03*
D14*
X207899000Y-75730000D03*
X207899000Y-74770000D03*
D21*
X207566589Y-100939589D03*
X208245411Y-101618411D03*
D57*
X207582250Y-54222000D03*
X206312250Y-54222000D03*
X205042250Y-54222000D03*
X203772250Y-54222000D03*
X203772250Y-59172000D03*
X205042250Y-59172000D03*
X206312250Y-59172000D03*
X207582250Y-59172000D03*
D18*
X211277250Y-86697000D03*
X212577250Y-86697000D03*
X211927250Y-84697000D03*
D13*
X177250000Y-121250000D03*
X177250000Y-122270000D03*
D24*
X192046000Y-69405000D03*
X192046000Y-70365000D03*
D58*
X196255000Y-134425000D03*
X195755000Y-134425000D03*
X195255000Y-134425000D03*
X194755000Y-134425000D03*
X194255000Y-134425000D03*
X193755000Y-134425000D03*
D59*
X193105000Y-135075000D03*
X193105000Y-135575000D03*
X193105000Y-136075000D03*
X193105000Y-136575000D03*
X193105000Y-137075000D03*
X193105000Y-137575000D03*
D58*
X193755000Y-138225000D03*
X194255000Y-138225000D03*
X194755000Y-138225000D03*
X195255000Y-138225000D03*
X195755000Y-138225000D03*
X196255000Y-138225000D03*
D59*
X196905000Y-137575000D03*
X196905000Y-137075000D03*
X196905000Y-136575000D03*
X196905000Y-136075000D03*
X196905000Y-135575000D03*
X196905000Y-135075000D03*
D60*
X195667000Y-135662000D03*
X195667000Y-136987000D03*
X194343000Y-135662000D03*
X194343000Y-136987000D03*
D61*
X196818000Y-134512000D03*
X193192000Y-134512000D03*
X193192000Y-138138000D03*
X196818000Y-138138000D03*
D20*
X212427250Y-89207000D03*
X212427250Y-88187000D03*
D17*
X179010000Y-102300000D03*
X177990000Y-102300000D03*
D20*
X187400000Y-144510000D03*
X187400000Y-143490000D03*
D62*
X178700000Y-96350000D03*
D63*
X178700000Y-97600000D03*
X178700000Y-98850000D03*
D51*
X203818634Y-96560731D03*
X203139812Y-97239553D03*
D57*
X207645000Y-81345000D03*
X206375000Y-81345000D03*
X205105000Y-81345000D03*
X203835000Y-81345000D03*
X203835000Y-86295000D03*
X205105000Y-86295000D03*
X206375000Y-86295000D03*
X207645000Y-86295000D03*
D22*
X216438000Y-93800000D03*
X217458000Y-93800000D03*
D52*
X219202000Y-127205000D03*
X219202000Y-124255000D03*
D15*
X190600000Y-82525000D03*
D16*
X190600000Y-85065000D03*
D43*
X203139750Y-75250000D03*
X204714750Y-75250000D03*
D14*
X182750000Y-117960000D03*
X182750000Y-117000000D03*
D53*
X192391000Y-63816000D03*
X193661000Y-63816000D03*
X194931000Y-63816000D03*
X196201000Y-63816000D03*
X196201000Y-58866000D03*
X194931000Y-58866000D03*
X193661000Y-58866000D03*
X192391000Y-58866000D03*
D57*
X207582250Y-67775000D03*
X206312250Y-67775000D03*
X205042250Y-67775000D03*
X203772250Y-67775000D03*
X203772250Y-72725000D03*
X205042250Y-72725000D03*
X206312250Y-72725000D03*
X207582250Y-72725000D03*
D64*
X211720000Y-118700000D03*
X212680000Y-118700000D03*
D40*
X218948000Y-102870000D03*
D41*
X218948000Y-98870000D03*
D36*
X221500000Y-146500000D03*
D26*
X206766624Y-101668376D03*
X206045376Y-102389624D03*
D58*
X203755000Y-138225000D03*
X204255000Y-138225000D03*
X204755000Y-138225000D03*
X205255000Y-138225000D03*
X205755000Y-138225000D03*
X206255000Y-138225000D03*
D59*
X206905000Y-137575000D03*
X206905000Y-137075000D03*
X206905000Y-136575000D03*
X206905000Y-136075000D03*
X206905000Y-135575000D03*
X206905000Y-135075000D03*
D58*
X206255000Y-134425000D03*
X205755000Y-134425000D03*
X205255000Y-134425000D03*
X204755000Y-134425000D03*
X204255000Y-134425000D03*
X203755000Y-134425000D03*
D59*
X203105000Y-135075000D03*
X203105000Y-135575000D03*
X203105000Y-136075000D03*
X203105000Y-136575000D03*
X203105000Y-137075000D03*
X203105000Y-137575000D03*
D60*
X204343000Y-136988000D03*
X204343000Y-135663000D03*
X205667000Y-136988000D03*
X205667000Y-135663000D03*
D61*
X203192000Y-138138000D03*
X206818000Y-138138000D03*
X206818000Y-134512000D03*
X203192000Y-134512000D03*
D14*
X200500000Y-135120000D03*
X200500000Y-134160000D03*
D27*
X206980000Y-131575000D03*
X204030000Y-131575000D03*
D13*
X187546000Y-55885000D03*
X187546000Y-56905000D03*
D14*
X220600000Y-118680000D03*
X220600000Y-117720000D03*
D20*
X209427250Y-62250000D03*
X209427250Y-61230000D03*
D13*
X190546000Y-55885000D03*
X190546000Y-56905000D03*
D53*
X192391000Y-77475000D03*
X193661000Y-77475000D03*
X194931000Y-77475000D03*
X196201000Y-77475000D03*
X196201000Y-72525000D03*
X194931000Y-72525000D03*
X193661000Y-72525000D03*
X192391000Y-72525000D03*
D40*
X220225000Y-133575000D03*
D41*
X220225000Y-137075000D03*
D20*
X202200000Y-141310000D03*
X202200000Y-140290000D03*
D56*
X188255000Y-137485000D03*
X188255000Y-132665000D03*
D13*
X199500000Y-134110000D03*
X199500000Y-135130000D03*
D24*
X192046000Y-55895000D03*
X192046000Y-56855000D03*
D13*
X193546000Y-55885000D03*
X193546000Y-56905000D03*
D18*
X188696000Y-58395000D03*
X187396000Y-58395000D03*
X188046000Y-60395000D03*
D24*
X187400000Y-147540000D03*
X187400000Y-148500000D03*
D36*
X178500000Y-146500000D03*
D65*
X214808000Y-121170000D03*
X214808000Y-121670000D03*
X214808000Y-122170000D03*
X214808000Y-122670000D03*
X216484000Y-122670000D03*
X216484000Y-122170000D03*
X216484000Y-121670000D03*
X216484000Y-121170000D03*
D36*
X178500000Y-50000000D03*
D20*
X202600000Y-132110000D03*
X202600000Y-131090000D03*
D23*
X194769153Y-110411847D03*
X195882847Y-109298153D03*
D29*
X210427250Y-53722000D03*
X210427250Y-54372000D03*
X210427250Y-55022000D03*
X210427250Y-55672000D03*
D32*
X212382250Y-54697000D03*
D18*
X211277250Y-59697000D03*
X212577250Y-59697000D03*
X211927250Y-57697000D03*
D20*
X187400000Y-146510000D03*
X187400000Y-145490000D03*
D22*
X217790000Y-120650000D03*
X218810000Y-120650000D03*
D66*
X181250000Y-116692500D03*
X181250000Y-118267500D03*
D20*
X210927250Y-89207000D03*
X210927250Y-88187000D03*
D29*
X210427250Y-80722000D03*
X210427250Y-81372000D03*
X210427250Y-82022000D03*
X210427250Y-82672000D03*
D32*
X212382250Y-81697000D03*
D67*
X187250000Y-124525000D03*
X187250000Y-127475000D03*
D14*
X184000000Y-117960000D03*
X184000000Y-117000000D03*
D24*
X195450000Y-127495000D03*
X195450000Y-128455000D03*
D43*
X221716500Y-127000000D03*
X223291500Y-127000000D03*
D38*
X193030000Y-131575000D03*
X195980000Y-131575000D03*
D28*
X221180000Y-121666000D03*
X220220000Y-121666000D03*
D20*
X209427250Y-75760000D03*
X209427250Y-74740000D03*
D13*
X189046000Y-55885000D03*
X189046000Y-56905000D03*
D22*
X211718000Y-117430000D03*
X212738000Y-117430000D03*
D20*
X200500000Y-138830000D03*
X200500000Y-137810000D03*
D67*
X187250000Y-119525000D03*
X187250000Y-122475000D03*
D68*
X205293876Y-104030212D03*
X204940322Y-103676658D03*
X204586769Y-103323105D03*
X204233215Y-102969551D03*
X203879662Y-102615998D03*
X203526109Y-102262445D03*
X203172555Y-101908891D03*
X202819002Y-101555338D03*
X202465449Y-101201785D03*
X202111895Y-100848231D03*
X201758342Y-100494678D03*
X201404788Y-100141124D03*
D69*
X199407212Y-100141124D03*
X199053658Y-100494678D03*
X198700105Y-100848231D03*
X198346551Y-101201785D03*
X197992998Y-101555338D03*
X197639445Y-101908891D03*
X197285891Y-102262445D03*
X196932338Y-102615998D03*
X196578785Y-102969551D03*
X196225231Y-103323105D03*
X195871678Y-103676658D03*
X195518124Y-104030212D03*
D68*
X195518124Y-106027788D03*
X195871678Y-106381342D03*
X196225231Y-106734895D03*
X196578785Y-107088449D03*
X196932338Y-107442002D03*
X197285891Y-107795555D03*
X197639445Y-108149109D03*
X197992998Y-108502662D03*
X198346551Y-108856215D03*
X198700105Y-109209769D03*
X199053658Y-109563322D03*
X199407212Y-109916876D03*
D69*
X201404788Y-109916876D03*
X201758342Y-109563322D03*
X202111895Y-109209769D03*
X202465449Y-108856215D03*
X202819002Y-108502662D03*
X203172555Y-108149109D03*
X203526109Y-107795555D03*
X203879662Y-107442002D03*
X204233215Y-107088449D03*
X204586769Y-106734895D03*
X204940322Y-106381342D03*
X205293876Y-106027788D03*
M02*
