G04 #@! TF.GenerationSoftware,KiCad,Pcbnew,(6.0.6)*
G04 #@! TF.CreationDate,2023-02-05T11:57:00-05:00*
G04 #@! TF.ProjectId,KXRPowerBoardV2,4b585250-6f77-4657-9242-6f6172645632,rev?*
G04 #@! TF.SameCoordinates,Original*
G04 #@! TF.FileFunction,Soldermask,Bot*
G04 #@! TF.FilePolarity,Negative*
%FSLAX46Y46*%
G04 Gerber Fmt 4.6, Leading zero omitted, Abs format (unit mm)*
G04 Created by KiCad (PCBNEW (6.0.6)) date 2023-02-05 11:57:00*
%MOMM*%
%LPD*%
G01*
G04 APERTURE LIST*
G04 Aperture macros list*
%AMRoundRect*
0 Rectangle with rounded corners*
0 $1 Rounding radius*
0 $2 $3 $4 $5 $6 $7 $8 $9 X,Y pos of 4 corners*
0 Add a 4 corners polygon primitive as box body*
4,1,4,$2,$3,$4,$5,$6,$7,$8,$9,$2,$3,0*
0 Add four circle primitives for the rounded corners*
1,1,$1+$1,$2,$3*
1,1,$1+$1,$4,$5*
1,1,$1+$1,$6,$7*
1,1,$1+$1,$8,$9*
0 Add four rect primitives between the rounded corners*
20,1,$1+$1,$2,$3,$4,$5,0*
20,1,$1+$1,$4,$5,$6,$7,0*
20,1,$1+$1,$6,$7,$8,$9,0*
20,1,$1+$1,$8,$9,$2,$3,0*%
G04 Aperture macros list end*
%ADD10C,1.531200*%
%ADD11C,0.836200*%
%ADD12C,0.010000*%
%ADD13R,1.700000X1.700000*%
%ADD14O,1.700000X1.700000*%
%ADD15C,3.800000*%
%ADD16R,1.600000X1.600000*%
%ADD17C,1.600000*%
%ADD18RoundRect,0.250000X-1.330000X-1.800000X1.330000X-1.800000X1.330000X1.800000X-1.330000X1.800000X0*%
%ADD19O,3.160000X4.100000*%
%ADD20RoundRect,0.200000X-0.450000X0.200000X-0.450000X-0.200000X0.450000X-0.200000X0.450000X0.200000X0*%
%ADD21O,1.300000X0.800000*%
G04 APERTURE END LIST*
D10*
X179375850Y-55995000D02*
G75*
G03*
X179375850Y-55995000I-765600J0D01*
G01*
D11*
X183348350Y-58145000D02*
G75*
G03*
X183348350Y-58145000I-418100J0D01*
G01*
D10*
X179375850Y-63295000D02*
G75*
G03*
X179375850Y-63295000I-765600J0D01*
G01*
G36*
X183766450Y-61981200D02*
G01*
X182094050Y-61981200D01*
X182094050Y-60308800D01*
X183766450Y-60308800D01*
X183766450Y-61981200D01*
G37*
D12*
X183766450Y-61981200D02*
X182094050Y-61981200D01*
X182094050Y-60308800D01*
X183766450Y-60308800D01*
X183766450Y-61981200D01*
D10*
X179375850Y-90295000D02*
G75*
G03*
X179375850Y-90295000I-765600J0D01*
G01*
D11*
X183348350Y-85145000D02*
G75*
G03*
X183348350Y-85145000I-418100J0D01*
G01*
D10*
X179375850Y-82995000D02*
G75*
G03*
X179375850Y-82995000I-765600J0D01*
G01*
G36*
X183766450Y-88981200D02*
G01*
X182094050Y-88981200D01*
X182094050Y-87308800D01*
X183766450Y-87308800D01*
X183766450Y-88981200D01*
G37*
D12*
X183766450Y-88981200D02*
X182094050Y-88981200D01*
X182094050Y-87308800D01*
X183766450Y-87308800D01*
X183766450Y-88981200D01*
D10*
X222128600Y-62097000D02*
G75*
G03*
X222128600Y-62097000I-765600J0D01*
G01*
D11*
X217461100Y-59947000D02*
G75*
G03*
X217461100Y-59947000I-418100J0D01*
G01*
D10*
X222128600Y-54797000D02*
G75*
G03*
X222128600Y-54797000I-765600J0D01*
G01*
G36*
X217879200Y-57783200D02*
G01*
X216206800Y-57783200D01*
X216206800Y-56110800D01*
X217879200Y-56110800D01*
X217879200Y-57783200D01*
G37*
D12*
X217879200Y-57783200D02*
X216206800Y-57783200D01*
X216206800Y-56110800D01*
X217879200Y-56110800D01*
X217879200Y-57783200D01*
D11*
X217461100Y-73447000D02*
G75*
G03*
X217461100Y-73447000I-418100J0D01*
G01*
D10*
X222128600Y-75597000D02*
G75*
G03*
X222128600Y-75597000I-765600J0D01*
G01*
X222128600Y-68297000D02*
G75*
G03*
X222128600Y-68297000I-765600J0D01*
G01*
G36*
X217879200Y-71283200D02*
G01*
X216206800Y-71283200D01*
X216206800Y-69610800D01*
X217879200Y-69610800D01*
X217879200Y-71283200D01*
G37*
D12*
X217879200Y-71283200D02*
X216206800Y-71283200D01*
X216206800Y-69610800D01*
X217879200Y-69610800D01*
X217879200Y-71283200D01*
D10*
X179375850Y-69495000D02*
G75*
G03*
X179375850Y-69495000I-765600J0D01*
G01*
X179375850Y-76795000D02*
G75*
G03*
X179375850Y-76795000I-765600J0D01*
G01*
D11*
X183348350Y-71645000D02*
G75*
G03*
X183348350Y-71645000I-418100J0D01*
G01*
G36*
X183766450Y-75481200D02*
G01*
X182094050Y-75481200D01*
X182094050Y-73808800D01*
X183766450Y-73808800D01*
X183766450Y-75481200D01*
G37*
D12*
X183766450Y-75481200D02*
X182094050Y-75481200D01*
X182094050Y-73808800D01*
X183766450Y-73808800D01*
X183766450Y-75481200D01*
D11*
X217461100Y-86947000D02*
G75*
G03*
X217461100Y-86947000I-418100J0D01*
G01*
D10*
X222128600Y-89097000D02*
G75*
G03*
X222128600Y-89097000I-765600J0D01*
G01*
X222128600Y-81797000D02*
G75*
G03*
X222128600Y-81797000I-765600J0D01*
G01*
G36*
X217879200Y-84783200D02*
G01*
X216206800Y-84783200D01*
X216206800Y-83110800D01*
X217879200Y-83110800D01*
X217879200Y-84783200D01*
G37*
D12*
X217879200Y-84783200D02*
X216206800Y-84783200D01*
X216206800Y-83110800D01*
X217879200Y-83110800D01*
X217879200Y-84783200D01*
D13*
X222500000Y-114290000D03*
D14*
X222500000Y-111750000D03*
X222500000Y-109210000D03*
X222500000Y-106670000D03*
D13*
X190600000Y-91275000D03*
D14*
X190600000Y-88735000D03*
D15*
X221500000Y-50000000D03*
D16*
X179725000Y-133325000D03*
D17*
X179725000Y-136825000D03*
D13*
X218200000Y-109325000D03*
D14*
X218200000Y-111865000D03*
D18*
X200512500Y-147225000D03*
D19*
X206212500Y-147225000D03*
D20*
X178700000Y-96350000D03*
D21*
X178700000Y-97600000D03*
X178700000Y-98850000D03*
D13*
X190600000Y-82525000D03*
D14*
X190600000Y-85065000D03*
D16*
X218948000Y-102870000D03*
D17*
X218948000Y-98870000D03*
D15*
X221500000Y-146500000D03*
D16*
X220225000Y-133575000D03*
D17*
X220225000Y-137075000D03*
D15*
X178500000Y-146500000D03*
X178500000Y-50000000D03*
M02*
