G04 #@! TF.GenerationSoftware,KiCad,Pcbnew,(6.0.6)*
G04 #@! TF.CreationDate,2023-02-05T11:55:43-05:00*
G04 #@! TF.ProjectId,NoseConeBoardV1,4e6f7365-436f-46e6-9542-6f6172645631,rev?*
G04 #@! TF.SameCoordinates,Original*
G04 #@! TF.FileFunction,Copper,L1,Top*
G04 #@! TF.FilePolarity,Positive*
%FSLAX46Y46*%
G04 Gerber Fmt 4.6, Leading zero omitted, Abs format (unit mm)*
G04 Created by KiCad (PCBNEW (6.0.6)) date 2023-02-05 11:55:43*
%MOMM*%
%LPD*%
G01*
G04 APERTURE LIST*
G04 Aperture macros list*
%AMRoundRect*
0 Rectangle with rounded corners*
0 $1 Rounding radius*
0 $2 $3 $4 $5 $6 $7 $8 $9 X,Y pos of 4 corners*
0 Add a 4 corners polygon primitive as box body*
4,1,4,$2,$3,$4,$5,$6,$7,$8,$9,$2,$3,0*
0 Add four circle primitives for the rounded corners*
1,1,$1+$1,$2,$3*
1,1,$1+$1,$4,$5*
1,1,$1+$1,$6,$7*
1,1,$1+$1,$8,$9*
0 Add four rect primitives between the rounded corners*
20,1,$1+$1,$2,$3,$4,$5,0*
20,1,$1+$1,$4,$5,$6,$7,0*
20,1,$1+$1,$6,$7,$8,$9,0*
20,1,$1+$1,$8,$9,$2,$3,0*%
%AMHorizOval*
0 Thick line with rounded ends*
0 $1 width*
0 $2 $3 position (X,Y) of the first rounded end (center of the circle)*
0 $4 $5 position (X,Y) of the second rounded end (center of the circle)*
0 Add line between two ends*
20,1,$1,$2,$3,$4,$5,0*
0 Add two circle primitives to create the rounded ends*
1,1,$1,$2,$3*
1,1,$1,$4,$5*%
%AMRotRect*
0 Rectangle, with rotation*
0 The origin of the aperture is its center*
0 $1 length*
0 $2 width*
0 $3 Rotation angle, in degrees counterclockwise*
0 Add horizontal line*
21,1,$1,$2,0,0,$3*%
%AMFreePoly0*
4,1,17,1.395000,0.765000,0.855000,0.765000,0.855000,0.535000,1.395000,0.535000,1.395000,0.115000,0.855000,0.115000,0.855000,-0.115000,1.395000,-0.115000,1.395000,-0.535000,0.855000,-0.535000,0.855000,-0.765000,1.395000,-0.765000,1.395000,-1.185000,-0.855000,-1.185000,-0.855000,1.185000,1.395000,1.185000,1.395000,0.765000,1.395000,0.765000,$1*%
%AMFreePoly1*
4,1,22,0.499999,-0.750000,0.000000,-0.750000,0.000000,-0.745033,-0.079941,-0.743568,-0.215256,-0.701293,-0.333266,-0.622738,-0.424486,-0.514219,-0.481581,-0.384460,-0.499164,-0.250000,-0.500000,-0.250000,-0.500000,0.250000,-0.499164,0.250000,-0.499963,0.256109,-0.478152,0.396186,-0.417904,0.524511,-0.324060,0.630769,-0.204165,0.706417,-0.067858,0.745374,0.000000,0.744960,0.000000,0.750000,
0.499999,0.750000,0.499999,-0.750000,0.499999,-0.750000,$1*%
%AMFreePoly2*
4,1,20,0.000000,0.744960,0.073905,0.744508,0.209726,0.703889,0.328688,0.626782,0.421226,0.519385,0.479903,0.390333,0.500000,0.250000,0.500000,-0.250000,0.499851,-0.262216,0.476331,-0.402017,0.414519,-0.529596,0.319384,-0.634700,0.198574,-0.708877,0.061801,-0.746166,0.000000,-0.745033,0.000000,-0.750000,-0.499999,-0.750000,-0.499999,0.750000,0.000000,0.750000,0.000000,0.744960,
0.000000,0.744960,$1*%
G04 Aperture macros list end*
G04 #@! TA.AperFunction,SMDPad,CuDef*
%ADD10RoundRect,0.140000X0.111865X-0.189700X0.207631X0.073414X-0.111865X0.189700X-0.207631X-0.073414X0*%
G04 #@! TD*
G04 #@! TA.AperFunction,ComponentPad*
%ADD11R,1.700000X1.700000*%
G04 #@! TD*
G04 #@! TA.AperFunction,ComponentPad*
%ADD12O,1.700000X1.700000*%
G04 #@! TD*
G04 #@! TA.AperFunction,SMDPad,CuDef*
%ADD13RoundRect,0.140000X-0.170000X0.140000X-0.170000X-0.140000X0.170000X-0.140000X0.170000X0.140000X0*%
G04 #@! TD*
G04 #@! TA.AperFunction,SMDPad,CuDef*
%ADD14RotRect,1.500000X1.000000X100.000000*%
G04 #@! TD*
G04 #@! TA.AperFunction,SMDPad,CuDef*
%ADD15R,1.000000X1.500000*%
G04 #@! TD*
G04 #@! TA.AperFunction,SMDPad,CuDef*
%ADD16R,0.450000X0.700000*%
G04 #@! TD*
G04 #@! TA.AperFunction,SMDPad,CuDef*
%ADD17RoundRect,0.150000X0.825000X0.150000X-0.825000X0.150000X-0.825000X-0.150000X0.825000X-0.150000X0*%
G04 #@! TD*
G04 #@! TA.AperFunction,SMDPad,CuDef*
%ADD18RoundRect,0.140000X0.219203X0.021213X0.021213X0.219203X-0.219203X-0.021213X-0.021213X-0.219203X0*%
G04 #@! TD*
G04 #@! TA.AperFunction,SMDPad,CuDef*
%ADD19RoundRect,0.140000X0.140000X0.170000X-0.140000X0.170000X-0.140000X-0.170000X0.140000X-0.170000X0*%
G04 #@! TD*
G04 #@! TA.AperFunction,SMDPad,CuDef*
%ADD20RoundRect,0.140000X0.077224X-0.206244X0.217224X0.036244X-0.077224X0.206244X-0.217224X-0.036244X0*%
G04 #@! TD*
G04 #@! TA.AperFunction,SMDPad,CuDef*
%ADD21RoundRect,0.140000X0.143107X-0.167393X0.191728X0.108353X-0.143107X0.167393X-0.191728X-0.108353X0*%
G04 #@! TD*
G04 #@! TA.AperFunction,SMDPad,CuDef*
%ADD22RoundRect,0.250000X-0.325000X-1.100000X0.325000X-1.100000X0.325000X1.100000X-0.325000X1.100000X0*%
G04 #@! TD*
G04 #@! TA.AperFunction,SMDPad,CuDef*
%ADD23RotRect,1.500000X1.000000X350.000000*%
G04 #@! TD*
G04 #@! TA.AperFunction,SMDPad,CuDef*
%ADD24RoundRect,0.135000X0.135000X0.185000X-0.135000X0.185000X-0.135000X-0.185000X0.135000X-0.185000X0*%
G04 #@! TD*
G04 #@! TA.AperFunction,SMDPad,CuDef*
%ADD25RoundRect,0.140000X-0.216520X-0.040237X-0.002028X-0.220218X0.216520X0.040237X0.002028X0.220218X0*%
G04 #@! TD*
G04 #@! TA.AperFunction,SMDPad,CuDef*
%ADD26RoundRect,0.140000X-0.219203X-0.021213X-0.021213X-0.219203X0.219203X0.021213X0.021213X0.219203X0*%
G04 #@! TD*
G04 #@! TA.AperFunction,SMDPad,CuDef*
%ADD27RoundRect,0.250000X-0.689429X-0.229810X-0.229810X-0.689429X0.689429X0.229810X0.229810X0.689429X0*%
G04 #@! TD*
G04 #@! TA.AperFunction,SMDPad,CuDef*
%ADD28RoundRect,0.250000X-0.650000X0.325000X-0.650000X-0.325000X0.650000X-0.325000X0.650000X0.325000X0*%
G04 #@! TD*
G04 #@! TA.AperFunction,SMDPad,CuDef*
%ADD29RoundRect,0.218750X0.218750X0.256250X-0.218750X0.256250X-0.218750X-0.256250X0.218750X-0.256250X0*%
G04 #@! TD*
G04 #@! TA.AperFunction,SMDPad,CuDef*
%ADD30RoundRect,0.218750X0.026517X-0.335876X0.335876X-0.026517X-0.026517X0.335876X-0.335876X0.026517X0*%
G04 #@! TD*
G04 #@! TA.AperFunction,ComponentPad*
%ADD31C,3.800000*%
G04 #@! TD*
G04 #@! TA.AperFunction,SMDPad,CuDef*
%ADD32RoundRect,0.140000X0.216520X0.040237X0.002028X0.220218X-0.216520X-0.040237X-0.002028X-0.220218X0*%
G04 #@! TD*
G04 #@! TA.AperFunction,SMDPad,CuDef*
%ADD33RoundRect,0.140000X0.036244X0.217224X-0.206244X0.077224X-0.036244X-0.217224X0.206244X-0.077224X0*%
G04 #@! TD*
G04 #@! TA.AperFunction,SMDPad,CuDef*
%ADD34RoundRect,0.135000X-0.226274X-0.035355X-0.035355X-0.226274X0.226274X0.035355X0.035355X0.226274X0*%
G04 #@! TD*
G04 #@! TA.AperFunction,SMDPad,CuDef*
%ADD35R,1.500000X1.000000*%
G04 #@! TD*
G04 #@! TA.AperFunction,SMDPad,CuDef*
%ADD36RoundRect,0.140000X-0.077224X0.206244X-0.217224X-0.036244X0.077224X-0.206244X0.217224X0.036244X0*%
G04 #@! TD*
G04 #@! TA.AperFunction,SMDPad,CuDef*
%ADD37RotRect,1.500000X1.000000X150.000000*%
G04 #@! TD*
G04 #@! TA.AperFunction,SMDPad,CuDef*
%ADD38RoundRect,0.135000X-0.035355X0.226274X-0.226274X0.035355X0.035355X-0.226274X0.226274X-0.035355X0*%
G04 #@! TD*
G04 #@! TA.AperFunction,SMDPad,CuDef*
%ADD39R,3.500000X2.450000*%
G04 #@! TD*
G04 #@! TA.AperFunction,SMDPad,CuDef*
%ADD40RotRect,1.500000X1.000000X140.000000*%
G04 #@! TD*
G04 #@! TA.AperFunction,SMDPad,CuDef*
%ADD41RotRect,1.500000X1.000000X20.000000*%
G04 #@! TD*
G04 #@! TA.AperFunction,SMDPad,CuDef*
%ADD42RoundRect,0.140000X-0.140000X-0.170000X0.140000X-0.170000X0.140000X0.170000X-0.140000X0.170000X0*%
G04 #@! TD*
G04 #@! TA.AperFunction,SMDPad,CuDef*
%ADD43RoundRect,0.140000X-0.217224X0.036244X-0.077224X-0.206244X0.217224X-0.036244X0.077224X0.206244X0*%
G04 #@! TD*
G04 #@! TA.AperFunction,SMDPad,CuDef*
%ADD44RoundRect,0.140000X-0.021213X0.219203X-0.219203X0.021213X0.021213X-0.219203X0.219203X-0.021213X0*%
G04 #@! TD*
G04 #@! TA.AperFunction,SMDPad,CuDef*
%ADD45RoundRect,0.140000X-0.189700X-0.111865X0.073414X-0.207631X0.189700X0.111865X-0.073414X0.207631X0*%
G04 #@! TD*
G04 #@! TA.AperFunction,SMDPad,CuDef*
%ADD46RotRect,1.500000X1.000000X200.000000*%
G04 #@! TD*
G04 #@! TA.AperFunction,SMDPad,CuDef*
%ADD47RoundRect,0.140000X-0.036244X-0.217224X0.206244X-0.077224X0.036244X0.217224X-0.206244X0.077224X0*%
G04 #@! TD*
G04 #@! TA.AperFunction,SMDPad,CuDef*
%ADD48RotRect,1.500000X1.000000X250.000000*%
G04 #@! TD*
G04 #@! TA.AperFunction,SMDPad,CuDef*
%ADD49RotRect,1.400000X1.200000X315.000000*%
G04 #@! TD*
G04 #@! TA.AperFunction,SMDPad,CuDef*
%ADD50RoundRect,0.140000X0.207631X-0.073414X0.111865X0.189700X-0.207631X0.073414X-0.111865X-0.189700X0*%
G04 #@! TD*
G04 #@! TA.AperFunction,SMDPad,CuDef*
%ADD51RoundRect,0.150000X0.353553X0.848528X-0.848528X-0.353553X-0.353553X-0.848528X0.848528X0.353553X0*%
G04 #@! TD*
G04 #@! TA.AperFunction,SMDPad,CuDef*
%ADD52RotRect,1.500000X1.000000X330.000000*%
G04 #@! TD*
G04 #@! TA.AperFunction,SMDPad,CuDef*
%ADD53RoundRect,0.140000X-0.206244X-0.077224X0.036244X-0.217224X0.206244X0.077224X-0.036244X0.217224X0*%
G04 #@! TD*
G04 #@! TA.AperFunction,SMDPad,CuDef*
%ADD54RoundRect,0.150000X0.477297X0.689429X-0.689429X-0.477297X-0.477297X-0.689429X0.689429X0.477297X0*%
G04 #@! TD*
G04 #@! TA.AperFunction,SMDPad,CuDef*
%ADD55RoundRect,0.250000X0.325000X1.100000X-0.325000X1.100000X-0.325000X-1.100000X0.325000X-1.100000X0*%
G04 #@! TD*
G04 #@! TA.AperFunction,SMDPad,CuDef*
%ADD56RoundRect,0.140000X0.170000X-0.140000X0.170000X0.140000X-0.170000X0.140000X-0.170000X-0.140000X0*%
G04 #@! TD*
G04 #@! TA.AperFunction,SMDPad,CuDef*
%ADD57RotRect,1.500000X1.000000X130.000000*%
G04 #@! TD*
G04 #@! TA.AperFunction,SMDPad,CuDef*
%ADD58RoundRect,0.135000X-0.135000X-0.185000X0.135000X-0.185000X0.135000X0.185000X-0.135000X0.185000X0*%
G04 #@! TD*
G04 #@! TA.AperFunction,SMDPad,CuDef*
%ADD59RotRect,1.500000X1.000000X190.000000*%
G04 #@! TD*
G04 #@! TA.AperFunction,SMDPad,CuDef*
%ADD60RoundRect,0.140000X-0.191728X0.108353X-0.143107X-0.167393X0.191728X-0.108353X0.143107X0.167393X0*%
G04 #@! TD*
G04 #@! TA.AperFunction,SMDPad,CuDef*
%ADD61RotRect,1.500000X1.000000X60.000000*%
G04 #@! TD*
G04 #@! TA.AperFunction,SMDPad,CuDef*
%ADD62RotRect,1.500000X1.000000X320.000000*%
G04 #@! TD*
G04 #@! TA.AperFunction,SMDPad,CuDef*
%ADD63RotRect,1.500000X1.000000X260.000000*%
G04 #@! TD*
G04 #@! TA.AperFunction,SMDPad,CuDef*
%ADD64RoundRect,0.140000X0.217224X-0.036244X0.077224X0.206244X-0.217224X0.036244X-0.077224X-0.206244X0*%
G04 #@! TD*
G04 #@! TA.AperFunction,SMDPad,CuDef*
%ADD65RotRect,1.500000X1.000000X10.000000*%
G04 #@! TD*
G04 #@! TA.AperFunction,SMDPad,CuDef*
%ADD66RoundRect,0.135000X-0.185000X0.135000X-0.185000X-0.135000X0.185000X-0.135000X0.185000X0.135000X0*%
G04 #@! TD*
G04 #@! TA.AperFunction,SMDPad,CuDef*
%ADD67RoundRect,0.140000X-0.002028X0.220218X-0.216520X0.040237X0.002028X-0.220218X0.216520X-0.040237X0*%
G04 #@! TD*
G04 #@! TA.AperFunction,ComponentPad*
%ADD68RoundRect,0.200000X0.176777X-0.459619X0.459619X-0.176777X-0.176777X0.459619X-0.459619X0.176777X0*%
G04 #@! TD*
G04 #@! TA.AperFunction,ComponentPad*
%ADD69HorizOval,0.800000X-0.176777X0.176777X0.176777X-0.176777X0*%
G04 #@! TD*
G04 #@! TA.AperFunction,SMDPad,CuDef*
%ADD70R,1.500000X2.000000*%
G04 #@! TD*
G04 #@! TA.AperFunction,SMDPad,CuDef*
%ADD71R,3.800000X2.000000*%
G04 #@! TD*
G04 #@! TA.AperFunction,SMDPad,CuDef*
%ADD72RoundRect,0.140000X-0.073414X-0.207631X0.189700X-0.111865X0.073414X0.207631X-0.189700X0.111865X0*%
G04 #@! TD*
G04 #@! TA.AperFunction,SMDPad,CuDef*
%ADD73RotRect,1.500000X1.000000X230.000000*%
G04 #@! TD*
G04 #@! TA.AperFunction,SMDPad,CuDef*
%ADD74RoundRect,0.218750X-0.256250X0.218750X-0.256250X-0.218750X0.256250X-0.218750X0.256250X0.218750X0*%
G04 #@! TD*
G04 #@! TA.AperFunction,SMDPad,CuDef*
%ADD75R,0.475000X0.300000*%
G04 #@! TD*
G04 #@! TA.AperFunction,SMDPad,CuDef*
%ADD76RoundRect,0.140000X0.189700X0.111865X-0.073414X0.207631X-0.189700X-0.111865X0.073414X-0.207631X0*%
G04 #@! TD*
G04 #@! TA.AperFunction,SMDPad,CuDef*
%ADD77RotRect,1.500000X1.000000X50.000000*%
G04 #@! TD*
G04 #@! TA.AperFunction,SMDPad,CuDef*
%ADD78RoundRect,0.135000X0.226274X0.035355X0.035355X0.226274X-0.226274X-0.035355X-0.035355X-0.226274X0*%
G04 #@! TD*
G04 #@! TA.AperFunction,SMDPad,CuDef*
%ADD79RoundRect,0.140000X-0.040237X0.216520X-0.220218X0.002028X0.040237X-0.216520X0.220218X-0.002028X0*%
G04 #@! TD*
G04 #@! TA.AperFunction,SMDPad,CuDef*
%ADD80RotRect,1.500000X1.000000X290.000000*%
G04 #@! TD*
G04 #@! TA.AperFunction,SMDPad,CuDef*
%ADD81RotRect,1.500000X1.000000X210.000000*%
G04 #@! TD*
G04 #@! TA.AperFunction,ComponentPad*
%ADD82C,2.050000*%
G04 #@! TD*
G04 #@! TA.AperFunction,ComponentPad*
%ADD83C,2.250000*%
G04 #@! TD*
G04 #@! TA.AperFunction,SMDPad,CuDef*
%ADD84RoundRect,0.140000X0.073414X0.207631X-0.189700X0.111865X-0.073414X-0.207631X0.189700X-0.111865X0*%
G04 #@! TD*
G04 #@! TA.AperFunction,SMDPad,CuDef*
%ADD85RoundRect,0.140000X0.220218X0.002028X0.040237X0.216520X-0.220218X-0.002028X-0.040237X-0.216520X0*%
G04 #@! TD*
G04 #@! TA.AperFunction,SMDPad,CuDef*
%ADD86RotRect,1.500000X1.000000X340.000000*%
G04 #@! TD*
G04 #@! TA.AperFunction,SMDPad,CuDef*
%ADD87RoundRect,0.140000X0.021213X-0.219203X0.219203X-0.021213X-0.021213X0.219203X-0.219203X0.021213X0*%
G04 #@! TD*
G04 #@! TA.AperFunction,SMDPad,CuDef*
%ADD88RoundRect,0.140000X-0.143107X0.167393X-0.191728X-0.108353X0.143107X-0.167393X0.191728X0.108353X0*%
G04 #@! TD*
G04 #@! TA.AperFunction,SMDPad,CuDef*
%ADD89RotRect,1.500000X1.000000X40.000000*%
G04 #@! TD*
G04 #@! TA.AperFunction,SMDPad,CuDef*
%ADD90RoundRect,0.140000X-0.167393X-0.143107X0.108353X-0.191728X0.167393X0.143107X-0.108353X0.191728X0*%
G04 #@! TD*
G04 #@! TA.AperFunction,SMDPad,CuDef*
%ADD91RoundRect,0.075000X0.415425X0.521491X-0.521491X-0.415425X-0.415425X-0.521491X0.521491X0.415425X0*%
G04 #@! TD*
G04 #@! TA.AperFunction,SMDPad,CuDef*
%ADD92RoundRect,0.075000X-0.415425X0.521491X-0.521491X0.415425X0.415425X-0.521491X0.521491X-0.415425X0*%
G04 #@! TD*
G04 #@! TA.AperFunction,SMDPad,CuDef*
%ADD93RoundRect,0.140000X0.002028X-0.220218X0.216520X-0.040237X-0.002028X0.220218X-0.216520X0.040237X0*%
G04 #@! TD*
G04 #@! TA.AperFunction,SMDPad,CuDef*
%ADD94RoundRect,0.140000X-0.220218X-0.002028X-0.040237X-0.216520X0.220218X0.002028X0.040237X0.216520X0*%
G04 #@! TD*
G04 #@! TA.AperFunction,SMDPad,CuDef*
%ADD95RoundRect,0.135000X0.035355X-0.226274X0.226274X-0.035355X-0.035355X0.226274X-0.226274X0.035355X0*%
G04 #@! TD*
G04 #@! TA.AperFunction,SMDPad,CuDef*
%ADD96RotRect,1.500000X1.000000X30.000000*%
G04 #@! TD*
G04 #@! TA.AperFunction,SMDPad,CuDef*
%ADD97RotRect,1.500000X1.000000X240.000000*%
G04 #@! TD*
G04 #@! TA.AperFunction,SMDPad,CuDef*
%ADD98RotRect,1.500000X1.000000X280.000000*%
G04 #@! TD*
G04 #@! TA.AperFunction,SMDPad,CuDef*
%ADD99RotRect,1.500000X1.000000X70.000000*%
G04 #@! TD*
G04 #@! TA.AperFunction,SMDPad,CuDef*
%ADD100R,0.700000X0.420000*%
G04 #@! TD*
G04 #@! TA.AperFunction,SMDPad,CuDef*
%ADD101FreePoly0,0.000000*%
G04 #@! TD*
G04 #@! TA.AperFunction,ComponentPad*
%ADD102R,1.600000X1.600000*%
G04 #@! TD*
G04 #@! TA.AperFunction,ComponentPad*
%ADD103C,1.600000*%
G04 #@! TD*
G04 #@! TA.AperFunction,SMDPad,CuDef*
%ADD104RoundRect,0.135000X0.185000X-0.135000X0.185000X0.135000X-0.185000X0.135000X-0.185000X-0.135000X0*%
G04 #@! TD*
G04 #@! TA.AperFunction,SMDPad,CuDef*
%ADD105RoundRect,0.140000X0.040237X-0.216520X0.220218X-0.002028X-0.040237X0.216520X-0.220218X0.002028X0*%
G04 #@! TD*
G04 #@! TA.AperFunction,SMDPad,CuDef*
%ADD106RoundRect,0.140000X-0.207631X0.073414X-0.111865X-0.189700X0.207631X-0.073414X0.111865X0.189700X0*%
G04 #@! TD*
G04 #@! TA.AperFunction,SMDPad,CuDef*
%ADD107FreePoly1,135.000000*%
G04 #@! TD*
G04 #@! TA.AperFunction,SMDPad,CuDef*
%ADD108FreePoly2,135.000000*%
G04 #@! TD*
G04 #@! TA.AperFunction,SMDPad,CuDef*
%ADD109RotRect,1.500000X1.000000X80.000000*%
G04 #@! TD*
G04 #@! TA.AperFunction,SMDPad,CuDef*
%ADD110RoundRect,0.140000X0.191728X-0.108353X0.143107X0.167393X-0.191728X0.108353X-0.143107X-0.167393X0*%
G04 #@! TD*
G04 #@! TA.AperFunction,SMDPad,CuDef*
%ADD111RotRect,1.500000X1.000000X300.000000*%
G04 #@! TD*
G04 #@! TA.AperFunction,SMDPad,CuDef*
%ADD112RotRect,1.500000X1.000000X310.000000*%
G04 #@! TD*
G04 #@! TA.AperFunction,SMDPad,CuDef*
%ADD113RoundRect,0.140000X0.108353X0.191728X-0.167393X0.143107X-0.108353X-0.191728X0.167393X-0.143107X0*%
G04 #@! TD*
G04 #@! TA.AperFunction,SMDPad,CuDef*
%ADD114RotRect,1.500000X1.000000X120.000000*%
G04 #@! TD*
G04 #@! TA.AperFunction,SMDPad,CuDef*
%ADD115RoundRect,0.381000X-0.762000X-0.381000X0.762000X-0.381000X0.762000X0.381000X-0.762000X0.381000X0*%
G04 #@! TD*
G04 #@! TA.AperFunction,SMDPad,CuDef*
%ADD116RoundRect,0.381000X-0.381000X0.762000X-0.381000X-0.762000X0.381000X-0.762000X0.381000X0.762000X0*%
G04 #@! TD*
G04 #@! TA.AperFunction,SMDPad,CuDef*
%ADD117RoundRect,0.381000X0.381000X-0.762000X0.381000X0.762000X-0.381000X0.762000X-0.381000X-0.762000X0*%
G04 #@! TD*
G04 #@! TA.AperFunction,SMDPad,CuDef*
%ADD118RoundRect,0.140000X-0.108353X-0.191728X0.167393X-0.143107X0.108353X0.191728X-0.167393X0.143107X0*%
G04 #@! TD*
G04 #@! TA.AperFunction,SMDPad,CuDef*
%ADD119RoundRect,0.140000X0.206244X0.077224X-0.036244X0.217224X-0.206244X-0.077224X0.036244X-0.217224X0*%
G04 #@! TD*
G04 #@! TA.AperFunction,ComponentPad*
%ADD120RotRect,1.520000X1.520000X45.000000*%
G04 #@! TD*
G04 #@! TA.AperFunction,ComponentPad*
%ADD121C,1.520000*%
G04 #@! TD*
G04 #@! TA.AperFunction,ComponentPad*
%ADD122C,2.910000*%
G04 #@! TD*
G04 #@! TA.AperFunction,SMDPad,CuDef*
%ADD123RotRect,1.500000X1.000000X220.000000*%
G04 #@! TD*
G04 #@! TA.AperFunction,SMDPad,CuDef*
%ADD124RotRect,1.500000X1.000000X160.000000*%
G04 #@! TD*
G04 #@! TA.AperFunction,SMDPad,CuDef*
%ADD125RotRect,1.500000X1.000000X110.000000*%
G04 #@! TD*
G04 #@! TA.AperFunction,SMDPad,CuDef*
%ADD126RotRect,1.500000X1.000000X170.000000*%
G04 #@! TD*
G04 #@! TA.AperFunction,SMDPad,CuDef*
%ADD127RoundRect,0.250000X-1.100000X0.325000X-1.100000X-0.325000X1.100000X-0.325000X1.100000X0.325000X0*%
G04 #@! TD*
G04 #@! TA.AperFunction,SMDPad,CuDef*
%ADD128RoundRect,0.140000X0.167393X0.143107X-0.108353X0.191728X-0.167393X-0.143107X0.108353X-0.191728X0*%
G04 #@! TD*
G04 #@! TA.AperFunction,SMDPad,CuDef*
%ADD129RoundRect,0.140000X-0.111865X0.189700X-0.207631X-0.073414X0.111865X-0.189700X0.207631X0.073414X0*%
G04 #@! TD*
G04 #@! TA.AperFunction,ViaPad*
%ADD130C,0.500000*%
G04 #@! TD*
G04 #@! TA.AperFunction,Conductor*
%ADD131C,0.500000*%
G04 #@! TD*
G04 #@! TA.AperFunction,Conductor*
%ADD132C,0.250000*%
G04 #@! TD*
G04 #@! TA.AperFunction,Conductor*
%ADD133C,1.000000*%
G04 #@! TD*
G04 #@! TA.AperFunction,Conductor*
%ADD134C,0.293970*%
G04 #@! TD*
G04 #@! TA.AperFunction,Conductor*
%ADD135C,1.974000*%
G04 #@! TD*
G04 APERTURE END LIST*
D10*
X194462898Y-204492645D03*
X194791238Y-203590541D03*
D11*
X211820001Y-114000000D03*
D12*
X214360001Y-114000000D03*
D13*
X205500000Y-185919999D03*
X205500000Y-186879999D03*
D14*
X198987515Y-95690896D03*
X202138899Y-95135222D03*
X201288023Y-90309664D03*
X198136639Y-90865338D03*
D15*
X208609364Y-94569130D03*
X211809364Y-94569130D03*
X211809364Y-89669130D03*
X208609364Y-89669130D03*
D16*
X241150000Y-145999999D03*
X242450000Y-145999999D03*
X241800000Y-143999999D03*
D17*
X241175000Y-151705000D03*
X241175000Y-150435000D03*
X241175000Y-149165000D03*
X241175000Y-147895000D03*
X236225000Y-147895000D03*
X236225000Y-149165000D03*
X236225000Y-150435000D03*
X236225000Y-151705000D03*
D16*
X202550000Y-125300000D03*
X203850000Y-125300000D03*
X203200000Y-123300000D03*
D18*
X227658090Y-158828801D03*
X226979268Y-158149979D03*
D11*
X205670001Y-114000000D03*
D12*
X208210001Y-114000000D03*
D19*
X213067500Y-170999999D03*
X212107500Y-170999999D03*
D20*
X185260261Y-200932245D03*
X185740261Y-200100861D03*
D21*
X204143985Y-206400935D03*
X204310687Y-205455519D03*
D11*
X206200000Y-109775000D03*
D12*
X208740000Y-109775000D03*
X211280000Y-109775000D03*
X213820000Y-109775000D03*
D22*
X212525001Y-194999999D03*
X215475001Y-194999999D03*
D23*
X265193271Y-158189595D03*
X264637597Y-161340979D03*
X269463155Y-162191855D03*
X270018829Y-159040471D03*
D24*
X203610000Y-120500000D03*
X202590000Y-120500000D03*
D25*
X164500581Y-116725455D03*
X165235983Y-117342531D03*
D26*
X217060589Y-145460589D03*
X217739411Y-146139411D03*
D27*
X202435525Y-143678508D03*
X204521491Y-145764474D03*
D28*
X214900000Y-176924999D03*
X214900000Y-179874999D03*
D29*
X210487500Y-170999999D03*
X208912500Y-170999999D03*
D18*
X248239411Y-121439411D03*
X247560589Y-120760589D03*
D30*
X202843153Y-157156847D03*
X203956847Y-156043153D03*
D31*
X180000000Y-190100000D03*
D32*
X255918147Y-183512805D03*
X255182745Y-182895729D03*
D33*
X257222479Y-118588233D03*
X256391095Y-119068233D03*
D19*
X266689364Y-146319130D03*
X265729364Y-146319130D03*
D34*
X215439376Y-153339376D03*
X216160624Y-154060624D03*
D35*
X154659364Y-151719130D03*
X154659364Y-148519130D03*
X149759364Y-148519130D03*
X149759364Y-151719130D03*
D36*
X235158467Y-99306015D03*
X234678467Y-100137399D03*
D37*
X161301653Y-123729771D03*
X162901653Y-120958489D03*
X158658129Y-118508489D03*
X157058129Y-121279771D03*
D38*
X205500000Y-154100000D03*
X204778752Y-154821248D03*
D28*
X204600000Y-177024999D03*
X204600000Y-179974999D03*
D39*
X203500000Y-189074999D03*
X203500000Y-194924999D03*
D40*
X166627135Y-115637949D03*
X168684055Y-113186607D03*
X164930437Y-110036947D03*
X162873517Y-112488289D03*
D41*
X261862057Y-129616403D03*
X262956521Y-132623420D03*
X267561015Y-130947521D03*
X266466551Y-127940504D03*
D42*
X209220000Y-169599999D03*
X210180000Y-169599999D03*
D22*
X207700001Y-194999999D03*
X210650001Y-194999999D03*
D43*
X178678467Y-103106015D03*
X179158467Y-103937399D03*
D44*
X212800000Y-141600000D03*
X212121178Y-142278822D03*
D45*
X155835849Y-134372664D03*
X156737953Y-134701004D03*
D46*
X158556671Y-170621857D03*
X157462207Y-167614840D03*
X152857713Y-169290739D03*
X153952177Y-172297756D03*
D47*
X163196249Y-181650027D03*
X164027633Y-181170027D03*
D48*
X192713654Y-202866287D03*
X189706637Y-201771823D03*
X188030738Y-206376317D03*
X191037755Y-207470781D03*
D49*
X213144365Y-143744365D03*
X214700000Y-145300000D03*
X215902081Y-144097919D03*
X214346446Y-142542284D03*
D42*
X153729364Y-153919130D03*
X154689364Y-153919130D03*
D18*
X217039411Y-153139411D03*
X216360589Y-152460589D03*
D50*
X233097494Y-201893292D03*
X232769154Y-200991188D03*
D35*
X265759364Y-148519130D03*
X265759364Y-151719130D03*
X270659364Y-151719130D03*
X270659364Y-148519130D03*
D42*
X206307500Y-170999999D03*
X207267500Y-170999999D03*
D51*
X246438664Y-123316117D03*
X245378004Y-122255457D03*
X244317344Y-121194797D03*
X243256683Y-120134136D03*
X242196023Y-119073476D03*
X241135363Y-118012816D03*
X240074703Y-116952156D03*
X239014043Y-115891496D03*
X237953383Y-114830836D03*
X236892722Y-113770175D03*
X225561336Y-125101562D03*
X226621996Y-126162222D03*
X227682657Y-127222882D03*
X228743317Y-128283542D03*
X229803977Y-129344202D03*
X230864637Y-130404862D03*
X231925297Y-131465523D03*
X232985957Y-132526183D03*
X234064295Y-133569165D03*
X235124956Y-134629825D03*
D52*
X259117075Y-176508489D03*
X257517075Y-179279771D03*
X261760599Y-181729771D03*
X263360599Y-178958489D03*
D53*
X159396249Y-125170027D03*
X160227633Y-125650027D03*
D31*
X239900000Y-109900000D03*
D54*
X228115807Y-161986339D03*
X227217781Y-161088314D03*
X226319755Y-160190288D03*
X225421730Y-159292262D03*
X221921551Y-162792441D03*
X222819577Y-163690466D03*
X223717603Y-164588492D03*
X224615628Y-165486518D03*
D55*
X182675000Y-170099999D03*
X179725000Y-170099999D03*
D56*
X214009364Y-206599130D03*
X214009364Y-205639130D03*
D42*
X213520000Y-189700001D03*
X214480000Y-189700001D03*
D57*
X173276842Y-108593821D03*
X175728184Y-106536901D03*
X172578524Y-102783283D03*
X170127182Y-104840203D03*
D58*
X213490000Y-190700001D03*
X214510000Y-190700001D03*
D59*
X155781130Y-161340979D03*
X155225456Y-158189595D03*
X150399898Y-159040471D03*
X150955572Y-162191855D03*
D60*
X196659446Y-95157051D03*
X196826148Y-96102467D03*
D61*
X236598723Y-101211419D03*
X239370005Y-102811419D03*
X241820005Y-98567895D03*
X239048723Y-96967895D03*
D62*
X253791593Y-184600311D03*
X251734673Y-187051653D03*
X255488291Y-190201313D03*
X257545211Y-187749971D03*
D11*
X255475000Y-151700000D03*
D12*
X255475000Y-149160000D03*
X255475000Y-146620000D03*
X255475000Y-144080000D03*
D13*
X184999999Y-169719998D03*
X184999999Y-170679998D03*
D11*
X206220001Y-105500000D03*
D12*
X208760001Y-105500000D03*
X211300001Y-105500000D03*
X213840001Y-105500000D03*
D58*
X211090000Y-191699999D03*
X212110000Y-191699999D03*
D63*
X202138899Y-205103037D03*
X198987515Y-204547363D03*
X198136639Y-209372921D03*
X201288023Y-209928595D03*
D26*
X202839097Y-146682080D03*
X203517919Y-147360902D03*
D64*
X241740261Y-197132245D03*
X241260261Y-196300861D03*
D65*
X264637598Y-138897281D03*
X265193272Y-142048665D03*
X270018830Y-141197789D03*
X269463156Y-138046405D03*
D66*
X238400000Y-144690000D03*
X238400000Y-145710000D03*
D67*
X251032961Y-110903517D03*
X250297559Y-111520593D03*
D13*
X234100000Y-150820000D03*
X234100000Y-151780000D03*
D68*
X224114035Y-176681802D03*
D69*
X224997918Y-175797919D03*
X225881802Y-174914035D03*
D70*
X212000000Y-175549999D03*
D71*
X209700000Y-181849999D03*
D70*
X209700000Y-175549999D03*
X207400000Y-175549999D03*
D72*
X158435202Y-173007260D03*
X159337306Y-172678920D03*
D11*
X251425000Y-146950000D03*
D12*
X251425000Y-149490000D03*
D73*
X175728183Y-193701359D03*
X173276841Y-191644439D03*
X170127181Y-195398057D03*
X172578523Y-197454977D03*
D74*
X234100000Y-143900001D03*
X234100000Y-145475001D03*
D55*
X177574999Y-170099999D03*
X174624999Y-170099999D03*
D75*
X207762000Y-190849999D03*
X207762000Y-191349999D03*
X207762000Y-191849999D03*
X207762000Y-192349999D03*
X209438000Y-192349999D03*
X209438000Y-191849999D03*
X209438000Y-191349999D03*
X209438000Y-190849999D03*
D76*
X264582879Y-165865596D03*
X263680775Y-165537256D03*
D77*
X244690545Y-106536901D03*
X247141887Y-108593821D03*
X250291547Y-104840203D03*
X247840205Y-102783283D03*
D78*
X215260624Y-154960624D03*
X214539376Y-154239376D03*
D30*
X201543153Y-155856847D03*
X202656847Y-154743153D03*
D79*
X243603039Y-104410347D03*
X242985963Y-105145749D03*
D34*
X221758055Y-166728766D03*
X222479303Y-167450014D03*
D80*
X230712091Y-201771823D03*
X227705074Y-202866287D03*
X229380973Y-207470781D03*
X232387990Y-206376317D03*
D81*
X162901653Y-179279771D03*
X161301653Y-176508489D03*
X157058129Y-178958489D03*
X158658129Y-181729771D03*
D58*
X211080000Y-189699999D03*
X212100000Y-189699999D03*
D66*
X237100000Y-144690000D03*
X237100000Y-145710000D03*
D82*
X183200000Y-124500000D03*
D83*
X180660000Y-127040000D03*
X185740000Y-127040000D03*
X180660000Y-121960000D03*
X185740000Y-121960000D03*
D84*
X261983526Y-127231000D03*
X261081422Y-127559340D03*
D85*
X249424977Y-190942727D03*
X248807901Y-190207325D03*
D86*
X262956521Y-167614840D03*
X261862057Y-170621857D03*
X266466551Y-172297756D03*
X267561015Y-169290739D03*
D82*
X227400000Y-114300000D03*
D83*
X223807898Y-114300000D03*
X227400000Y-110707898D03*
X227400000Y-117892102D03*
X230992102Y-114300000D03*
D87*
X206960589Y-156839411D03*
X207639411Y-156160589D03*
D88*
X216274743Y-93837325D03*
X216108041Y-94782741D03*
D19*
X212080000Y-190699999D03*
X211120000Y-190699999D03*
D24*
X214510000Y-192800000D03*
X213490000Y-192800000D03*
D89*
X251734673Y-113186608D03*
X253791593Y-115637950D03*
X257545211Y-112488290D03*
X255488291Y-110036948D03*
D90*
X153927559Y-144053751D03*
X154872975Y-144220453D03*
D91*
X214887876Y-149001212D03*
X214534322Y-148647658D03*
X214180769Y-148294105D03*
X213827215Y-147940551D03*
X213473662Y-147586998D03*
X213120109Y-147233445D03*
X212766555Y-146879891D03*
X212413002Y-146526338D03*
X212059449Y-146172785D03*
X211705895Y-145819231D03*
X211352342Y-145465678D03*
X210998788Y-145112124D03*
D92*
X209001212Y-145112124D03*
X208647658Y-145465678D03*
X208294105Y-145819231D03*
X207940551Y-146172785D03*
X207586998Y-146526338D03*
X207233445Y-146879891D03*
X206879891Y-147233445D03*
X206526338Y-147586998D03*
X206172785Y-147940551D03*
X205819231Y-148294105D03*
X205465678Y-148647658D03*
X205112124Y-149001212D03*
D91*
X205112124Y-150998788D03*
X205465678Y-151352342D03*
X205819231Y-151705895D03*
X206172785Y-152059449D03*
X206526338Y-152413002D03*
X206879891Y-152766555D03*
X207233445Y-153120109D03*
X207586998Y-153473662D03*
X207940551Y-153827215D03*
X208294105Y-154180769D03*
X208647658Y-154534322D03*
X209001212Y-154887876D03*
D92*
X210998788Y-154887876D03*
X211352342Y-154534322D03*
X211705895Y-154180769D03*
X212059449Y-153827215D03*
X212413002Y-153473662D03*
X212766555Y-153120109D03*
X213120109Y-152766555D03*
X213473662Y-152413002D03*
X213827215Y-152059449D03*
X214180769Y-151705895D03*
X214534322Y-151352342D03*
X214887876Y-150998788D03*
D24*
X203610000Y-121700000D03*
X202590000Y-121700000D03*
D93*
X169385767Y-189334743D03*
X170121169Y-188717667D03*
D94*
X170993751Y-109295533D03*
X171610827Y-110030935D03*
D95*
X215578787Y-146921213D03*
X216300035Y-146199965D03*
D96*
X257517075Y-120958489D03*
X259117075Y-123729771D03*
X263360599Y-121279771D03*
X261760599Y-118508489D03*
D97*
X183820005Y-199026841D03*
X181048723Y-197426841D03*
X178598723Y-201670365D03*
X181370005Y-203270365D03*
D11*
X214370001Y-101300000D03*
D12*
X211830001Y-101300000D03*
D98*
X221431213Y-204547364D03*
X218279829Y-205103038D03*
X219130705Y-209928596D03*
X222282089Y-209372922D03*
D42*
X211120000Y-192799999D03*
X212080000Y-192799999D03*
D58*
X207599999Y-172999999D03*
X208619999Y-172999999D03*
D68*
X237314035Y-163381802D03*
D69*
X238197918Y-162497919D03*
X239081802Y-161614035D03*
D99*
X227705074Y-97371973D03*
X230712091Y-98466437D03*
X232387990Y-93861943D03*
X229380973Y-92767479D03*
D100*
X244300000Y-147025000D03*
X244300000Y-147675000D03*
X244300000Y-148325000D03*
X244300000Y-148975000D03*
D101*
X246255000Y-148000000D03*
D102*
X212000000Y-122800000D03*
D103*
X208000000Y-122800000D03*
D104*
X239700000Y-145710000D03*
X239700000Y-144690000D03*
D105*
X176815689Y-195827913D03*
X177432765Y-195092511D03*
D29*
X212087500Y-172999999D03*
X210512500Y-172999999D03*
D106*
X187321234Y-98344968D03*
X187649574Y-99247072D03*
D44*
X216939411Y-146860589D03*
X216260589Y-147539411D03*
D31*
X180000000Y-110000000D03*
D107*
X220378298Y-165449009D03*
D108*
X219459060Y-164529771D03*
D109*
X218279829Y-95135223D03*
X221431213Y-95690897D03*
X222282089Y-90865339D03*
X219130705Y-90309665D03*
D110*
X223759282Y-205081209D03*
X223592580Y-204135793D03*
D111*
X239370005Y-197426841D03*
X236598723Y-199026841D03*
X239048723Y-203270365D03*
X241820005Y-201670365D03*
D11*
X205670001Y-101275000D03*
D12*
X208210001Y-101275000D03*
D112*
X247141886Y-191644439D03*
X244690544Y-193701359D03*
X247840204Y-197454977D03*
X250291546Y-195398057D03*
D113*
X265171443Y-136569212D03*
X264226027Y-136735914D03*
D114*
X181048723Y-102811419D03*
X183820005Y-101211419D03*
X181370005Y-96967895D03*
X178598723Y-98567895D03*
D15*
X211809364Y-205669130D03*
X208609364Y-205669130D03*
X208609364Y-210569130D03*
X211809364Y-210569130D03*
D115*
X161600000Y-143921500D03*
X161600000Y-146461500D03*
X161600000Y-149001500D03*
X161600000Y-151541500D03*
X161600000Y-154081500D03*
X161600000Y-156621500D03*
X161600000Y-159161500D03*
X161600000Y-161701500D03*
X161600000Y-164241500D03*
X186600000Y-164241500D03*
X186600000Y-161701500D03*
X186600000Y-159161500D03*
X186600000Y-156621500D03*
X186600000Y-154081500D03*
X186600000Y-151541500D03*
X186600000Y-149001500D03*
X186600000Y-146461500D03*
X186600000Y-143921500D03*
D116*
X183100000Y-130741500D03*
X180560000Y-130741500D03*
D117*
X167640000Y-130741500D03*
X165100000Y-130741500D03*
D58*
X213490000Y-191700000D03*
X214510000Y-191700000D03*
D31*
X239900000Y-190000000D03*
D118*
X155247285Y-163669048D03*
X156192701Y-163502346D03*
D119*
X261022479Y-175068233D03*
X260191095Y-174588233D03*
D120*
X229566465Y-164945145D03*
D121*
X227445145Y-167066465D03*
D122*
X234141446Y-166479567D03*
X228979566Y-171641446D03*
D13*
X206409364Y-93639130D03*
X206409364Y-94599130D03*
D123*
X168684055Y-187051652D03*
X166627135Y-184600310D03*
X162873517Y-187749970D03*
X164930437Y-190201312D03*
D124*
X157462207Y-132623420D03*
X158556671Y-129616403D03*
X153952177Y-127940504D03*
X152857713Y-130947521D03*
D125*
X189706637Y-98466437D03*
X192713654Y-97371973D03*
X191037755Y-92767479D03*
X188030738Y-93861943D03*
D126*
X155225457Y-142048665D03*
X155781131Y-138897281D03*
X150955573Y-138046405D03*
X150399899Y-141197789D03*
D127*
X208600000Y-186225000D03*
X208600000Y-189175000D03*
D26*
X215960589Y-141960589D03*
X216639411Y-142639411D03*
D38*
X204560624Y-153200000D03*
X203839376Y-153921248D03*
D128*
X266491169Y-156184509D03*
X265545753Y-156017807D03*
D66*
X235800000Y-144690000D03*
X235800000Y-145710000D03*
D129*
X225955830Y-95745615D03*
X225627490Y-96647719D03*
D130*
X203500000Y-196600000D03*
X215250000Y-191350000D03*
X203500000Y-197300000D03*
X213900000Y-195000000D03*
X203500000Y-197900000D03*
X212900000Y-189700000D03*
X150859369Y-159880271D03*
X214700000Y-118300000D03*
X261800000Y-149100000D03*
X161000000Y-165400000D03*
X207200000Y-192700000D03*
X210909364Y-89319130D03*
X164025633Y-116326926D03*
X239680730Y-202551376D03*
X245500000Y-120400000D03*
X208300000Y-150800000D03*
X215200000Y-176000000D03*
X149409364Y-149419130D03*
X179500000Y-131300000D03*
X223800000Y-167300000D03*
X179537390Y-201858205D03*
X204300000Y-180900000D03*
X207800000Y-150200000D03*
X225400000Y-127000000D03*
X161000000Y-142800000D03*
X216382405Y-93226744D03*
X213800000Y-158800000D03*
X187109182Y-97762358D03*
X178800000Y-170700000D03*
X245100000Y-120000000D03*
X221335786Y-91009870D03*
X249823505Y-191417675D03*
X266488538Y-171340731D03*
X196551784Y-94546470D03*
X209800000Y-194900000D03*
X209500000Y-153700000D03*
X209200000Y-187100000D03*
X220077808Y-210116995D03*
X216300000Y-148600000D03*
X188400000Y-159900000D03*
X202900000Y-160500000D03*
X262641610Y-120647764D03*
X218774500Y-146200000D03*
X180737998Y-97686884D03*
X243100000Y-122000000D03*
X205800000Y-160500000D03*
X211700000Y-151600000D03*
X176417160Y-196302861D03*
X270207229Y-140250686D03*
X153316978Y-143946089D03*
X150211499Y-159987574D03*
X163691331Y-188247524D03*
X257759415Y-118278233D03*
X266962695Y-130200264D03*
X198962189Y-209873888D03*
X163800000Y-158400000D03*
X179500000Y-130100000D03*
X213700000Y-171000000D03*
X237100000Y-146300000D03*
X186000000Y-165474500D03*
X202600000Y-119800000D03*
X244100000Y-145000000D03*
X152836639Y-170256170D03*
X194250846Y-205075255D03*
X211700000Y-174200000D03*
X184950261Y-201469181D03*
X214300000Y-165000000D03*
X170595223Y-108820585D03*
X235468467Y-98769079D03*
X238300000Y-117000000D03*
X178800000Y-170100000D03*
X158859313Y-124860027D03*
X150454606Y-138871955D03*
X208000000Y-187100000D03*
X212700000Y-190700000D03*
X188756754Y-207013027D03*
X269964122Y-161366305D03*
X150066024Y-149425959D03*
X202400000Y-147200000D03*
X164000000Y-131300000D03*
X233200000Y-134700000D03*
X168800000Y-130100000D03*
X153315467Y-128666520D03*
X231430965Y-93839956D03*
X205700000Y-171000000D03*
X189600000Y-160800000D03*
X208600000Y-187100000D03*
X171664108Y-103093677D03*
X262566136Y-127018948D03*
X164083813Y-110501412D03*
X172080970Y-103601097D03*
X187300000Y-142800000D03*
X168910819Y-189733271D03*
X256334915Y-189736848D03*
X168800000Y-130700000D03*
X242400000Y-143900000D03*
X265782024Y-136461550D03*
X216400000Y-195500000D03*
X157777118Y-179590496D03*
X228100000Y-160200000D03*
X188987763Y-206398304D03*
X244200000Y-124700000D03*
X200340920Y-90121265D03*
X209800000Y-195500000D03*
X209900000Y-140100000D03*
X211500000Y-156500000D03*
X204500000Y-157900000D03*
X157905019Y-119112912D03*
X267101750Y-156292171D03*
X215500000Y-141400000D03*
X155253239Y-134160612D03*
X248337758Y-196637163D03*
X209516193Y-210262470D03*
X267103261Y-171571740D03*
X214600000Y-176000000D03*
X231000000Y-151000000D03*
X204036323Y-207011516D03*
X186100000Y-142800000D03*
X242050261Y-197669181D03*
X267582089Y-129982090D03*
X230128230Y-206872461D03*
X164000000Y-130700000D03*
X207300000Y-157500000D03*
X210902535Y-89975790D03*
X188700000Y-149700000D03*
X239800000Y-114800000D03*
X163183911Y-188664386D03*
X200700000Y-155000000D03*
X240881338Y-98380055D03*
X226300000Y-162000000D03*
X173700000Y-170100000D03*
X247000000Y-120200000D03*
X217593767Y-152293767D03*
X207200000Y-149600000D03*
X154636704Y-163776710D03*
X212300000Y-174200000D03*
X209509364Y-210919130D03*
X170591646Y-196244681D03*
X231661974Y-93225233D03*
X240200000Y-115200000D03*
X203000000Y-150700000D03*
X267309364Y-146319130D03*
X261948439Y-180791104D03*
X207900000Y-192900000D03*
X226167882Y-95163005D03*
X270352704Y-150812301D03*
X158470289Y-119447156D03*
X216400000Y-194300000D03*
X188700000Y-152300000D03*
X208500000Y-119400000D03*
X237800000Y-116600000D03*
X200448223Y-90769135D03*
X234600000Y-150300000D03*
X206800000Y-144000000D03*
X206409364Y-93019130D03*
X180415582Y-97114785D03*
X212200000Y-176900000D03*
X256393095Y-183911334D03*
X249827082Y-103993579D03*
X153109364Y-153919130D03*
X199082942Y-209228390D03*
X227400000Y-124900000D03*
X216400000Y-194900000D03*
X235900000Y-147300000D03*
X169400000Y-165700000D03*
X190072324Y-92746405D03*
X223900000Y-152500000D03*
X214400000Y-141300000D03*
X157852592Y-173219312D03*
X257234817Y-111573874D03*
X188700000Y-147200000D03*
X187200000Y-165500000D03*
X186600000Y-165500000D03*
X162659313Y-181960027D03*
X153930190Y-128897529D03*
X209600000Y-146900000D03*
X173700000Y-169500000D03*
X209000000Y-151500000D03*
X226300000Y-148100000D03*
X232800000Y-134300000D03*
X251507909Y-110504989D03*
X241200000Y-143900000D03*
X226600000Y-157700000D03*
X269559359Y-140357989D03*
X202500000Y-142500000D03*
X164000000Y-130100000D03*
X262513709Y-181125348D03*
X157205019Y-179912912D03*
X249399758Y-104492220D03*
X203800000Y-123200000D03*
X162200000Y-142800000D03*
X179500000Y-130700000D03*
X161600000Y-165400000D03*
X206300000Y-156200000D03*
X153456033Y-170037996D03*
X263213709Y-120325348D03*
X219970505Y-209469125D03*
X211400000Y-148100000D03*
X214009364Y-207219130D03*
X221456539Y-90364372D03*
X211600000Y-176900000D03*
X190900000Y-161700000D03*
X206157782Y-149397939D03*
X173700000Y-170700000D03*
X171018970Y-195746040D03*
X208600000Y-169600000D03*
X185600000Y-169700000D03*
X213710738Y-150497203D03*
X165100000Y-162400000D03*
X203400000Y-168300000D03*
X164582454Y-110928736D03*
X151100104Y-138992708D03*
X269318624Y-161245552D03*
X244001568Y-103935399D03*
X206000000Y-145800000D03*
X206200000Y-185900000D03*
X261559415Y-175378233D03*
X225800000Y-127400000D03*
X256727397Y-111990736D03*
X215400000Y-152400000D03*
X210900000Y-153200000D03*
X161600000Y-142800000D03*
X240003146Y-203123475D03*
X213300000Y-141100000D03*
X246400000Y-150200000D03*
X214100000Y-135900000D03*
X265165489Y-166077648D03*
X220300000Y-162800000D03*
X168800000Y-131300000D03*
X233000000Y-143900000D03*
X162200000Y-165400000D03*
X190290498Y-93365799D03*
X248754620Y-197144583D03*
X223866944Y-205691790D03*
X204900000Y-180900000D03*
X230346404Y-207491855D03*
X255836274Y-189309524D03*
X233309546Y-202475902D03*
X235300000Y-132900000D03*
X241215582Y-97814785D03*
X234900000Y-132400000D03*
X200000000Y-138000000D03*
X198300000Y-168300000D03*
X209800000Y-194300000D03*
X179203146Y-202423475D03*
X271009364Y-150819130D03*
X207300000Y-148800000D03*
X178368467Y-102569079D03*
X212200000Y-171900000D03*
X227800000Y-125300000D03*
X243500000Y-122400000D03*
X225200000Y-165800000D03*
X203200000Y-122600000D03*
X209700000Y-152900000D03*
X224800000Y-166200000D03*
X178800000Y-169500000D03*
X236500000Y-147300000D03*
X214600000Y-116000000D03*
X186700000Y-142800000D03*
X215100000Y-158900000D03*
X245000000Y-124700000D03*
X215000000Y-159700000D03*
X215100000Y-164700000D03*
X225500000Y-148100000D03*
X210868797Y-147468797D03*
X200000000Y-138800000D03*
X198300000Y-167500000D03*
X203400000Y-167500000D03*
X231000000Y-151800000D03*
X212300000Y-148625500D03*
X209400000Y-119100000D03*
X214400000Y-135100000D03*
X217350000Y-144650000D03*
X212700000Y-191600000D03*
X244100000Y-150700000D03*
X243400000Y-150700000D03*
X208600000Y-188000000D03*
X243400000Y-151500000D03*
X244100000Y-151500000D03*
X239550000Y-151150000D03*
X239700000Y-146300000D03*
X214100000Y-158000000D03*
X272100000Y-148500000D03*
X262400000Y-149700000D03*
X223900000Y-153500000D03*
X214800000Y-152900000D03*
X212300000Y-156200000D03*
X207600000Y-155300000D03*
X215300000Y-116400000D03*
X212500000Y-151400000D03*
X215300000Y-117700000D03*
X211200000Y-152400000D03*
X223100000Y-166900000D03*
X220350000Y-163550000D03*
X207800000Y-148200000D03*
X216600000Y-149400000D03*
X209100000Y-140100000D03*
X207400000Y-143500000D03*
X210300000Y-146400000D03*
X188700000Y-146400000D03*
X169400000Y-164900000D03*
X210100000Y-157700000D03*
X165900000Y-162400000D03*
X209024454Y-152509857D03*
X188700000Y-148900000D03*
X205600000Y-146600000D03*
X188658500Y-151541500D03*
X202958500Y-151541500D03*
X188400000Y-159100000D03*
X206500000Y-150100000D03*
X207100000Y-150700000D03*
X189600000Y-160000000D03*
X207600000Y-151300000D03*
X190900000Y-160900000D03*
X208400000Y-152000000D03*
X163800000Y-159200000D03*
X203700000Y-160500000D03*
X203900000Y-158500000D03*
X206900000Y-155600000D03*
X204900000Y-160500000D03*
X215300000Y-192300000D03*
X210300000Y-192500000D03*
X245600000Y-150200000D03*
X243600000Y-145600000D03*
D131*
X222609364Y-97569129D02*
X222600832Y-97567182D01*
X256362028Y-121621866D02*
X256272230Y-121688471D01*
X203400000Y-101900000D02*
X204025000Y-101275000D01*
D132*
X213900000Y-195000000D02*
X212525001Y-194999999D01*
D133*
X178575000Y-166525000D02*
X177574999Y-167525001D01*
D131*
X156986244Y-161144533D02*
X157200570Y-161080782D01*
X246369203Y-190699002D02*
X246206830Y-190545265D01*
D132*
X161301653Y-123729771D02*
X160227633Y-125650027D01*
D131*
X202138900Y-205103038D02*
X202345636Y-204013257D01*
X203700000Y-163000000D02*
X218600000Y-163000000D01*
X206409364Y-94599130D02*
X208609364Y-94569130D01*
X234523784Y-198236540D02*
X230309128Y-200368661D01*
X216387009Y-203771745D02*
X216409364Y-203769130D01*
D132*
X264637598Y-138897281D02*
X264226027Y-136735914D01*
D131*
X207400000Y-175549999D02*
X202849999Y-175549999D01*
X203937712Y-97937712D02*
X203937712Y-96515511D01*
D132*
X158556671Y-170621857D02*
X159337306Y-172678920D01*
D131*
X154659364Y-151719130D02*
X155880282Y-151734935D01*
X230102504Y-200452009D02*
X225632178Y-201827494D01*
X158556671Y-170621857D02*
X159337306Y-172678920D01*
D132*
X227705074Y-97371973D02*
X225627490Y-96647719D01*
D131*
X214009364Y-205639130D02*
X211809364Y-205669130D01*
X156304506Y-147046027D02*
X156314304Y-146890900D01*
X261919196Y-167222006D02*
X262956521Y-167614841D01*
X225810043Y-160700000D02*
X226319755Y-160190288D01*
X218045554Y-96446449D02*
X218038856Y-96558052D01*
X221234767Y-203342250D02*
X221171016Y-203127924D01*
X212000000Y-122800000D02*
X210000000Y-120800000D01*
X181048723Y-102811419D02*
X181590851Y-103779126D01*
X208593560Y-95790048D02*
X208619125Y-96012189D01*
X189706637Y-98466437D02*
X190072488Y-99513583D01*
D132*
X232769154Y-200991188D02*
X230712091Y-201771823D01*
D131*
X239943281Y-104990752D02*
X239909364Y-104969129D01*
X262786974Y-162663775D02*
X262941883Y-162008932D01*
D133*
X203575000Y-194999999D02*
X203500000Y-194924999D01*
D131*
X197709364Y-202669129D02*
X197717895Y-202671077D01*
D132*
X171610827Y-110030935D02*
X173276842Y-108593821D01*
D131*
X221431212Y-204547364D02*
X221234766Y-203342250D01*
X164056699Y-178616394D02*
X164146498Y-178549789D01*
X220900000Y-160700000D02*
X225810043Y-160700000D01*
D132*
X206409364Y-94599130D02*
X208609364Y-94569130D01*
X198987515Y-95690896D02*
X196826148Y-96102467D01*
D131*
X198987516Y-95690896D02*
X199183962Y-96896010D01*
X202000000Y-174700000D02*
X202000000Y-164700000D01*
X244292095Y-106999459D02*
X243966615Y-107377309D01*
X263811391Y-143988609D02*
X264055220Y-147695908D01*
X236598723Y-101211419D02*
X234678467Y-100137400D01*
X263882044Y-157955320D02*
X263770442Y-157948622D01*
X262956521Y-167614841D02*
X263680775Y-165537257D01*
D132*
X192713654Y-202866287D02*
X194791238Y-203590541D01*
D133*
X177574999Y-167525001D02*
X177574999Y-170099999D01*
D131*
X190159364Y-99719130D02*
X190209364Y-99819130D01*
D132*
X202138899Y-205103037D02*
X204310687Y-205455519D01*
X262956521Y-167614840D02*
X263680775Y-165537256D01*
D131*
X181712100Y-103966465D02*
X181778705Y-104056264D01*
X204025000Y-101275000D02*
X205670001Y-101275000D01*
X184444151Y-197977398D02*
X184533081Y-197772236D01*
X205670001Y-99670001D02*
X203937712Y-97937712D01*
X264059364Y-153719130D02*
X264209364Y-149519130D01*
D133*
X212100000Y-197600000D02*
X212525001Y-197174999D01*
D131*
X227658090Y-158828801D02*
X227658090Y-158851953D01*
X236598724Y-101211419D02*
X235974578Y-102260863D01*
D133*
X182600000Y-170174999D02*
X182675000Y-170099999D01*
D131*
X198987515Y-95690896D02*
X196826147Y-96102466D01*
X265759364Y-148519130D02*
X264934364Y-148519130D01*
X249550537Y-187228363D02*
X249559363Y-187219129D01*
X258499555Y-125800405D02*
X260657486Y-129920091D01*
X180494245Y-195209051D02*
X180509363Y-195219130D01*
D132*
X251734673Y-113186608D02*
X250297559Y-111520593D01*
X257517075Y-120958489D02*
X256391095Y-119068233D01*
D131*
X263702347Y-142330645D02*
X263811391Y-143988609D01*
D133*
X202100000Y-177000000D02*
X204575001Y-177000000D01*
D131*
X244217559Y-106150886D02*
X242985964Y-105145750D01*
X159958427Y-170219592D02*
X162042407Y-174486791D01*
D132*
X254142262Y-184170634D02*
X255182745Y-182895729D01*
D131*
X235974577Y-102260862D02*
X235885647Y-102466024D01*
X163869360Y-178737642D02*
X162901653Y-179279771D01*
X155225456Y-142048666D02*
X154872974Y-144220453D01*
D133*
X198775001Y-194924999D02*
X198775001Y-180324999D01*
D131*
X184999999Y-170679998D02*
X183254999Y-170679998D01*
X178009363Y-106869129D02*
X177972128Y-106897056D01*
X176452112Y-192860950D02*
X176090147Y-193281154D01*
X255475000Y-144080000D02*
X263720000Y-144080000D01*
X204600000Y-177024999D02*
X207075001Y-177024999D01*
X263720000Y-144080000D02*
X263811391Y-143988609D01*
D132*
X259117075Y-176508489D02*
X260191095Y-174588233D01*
X157462207Y-132623420D02*
X156737953Y-134701004D01*
D133*
X182600000Y-183100000D02*
X182600000Y-170174999D01*
D131*
X173276841Y-108593821D02*
X174049525Y-109539257D01*
D133*
X207700001Y-197200001D02*
X208100000Y-197600000D01*
D132*
X168684055Y-187051652D02*
X170121169Y-188717667D01*
X181048723Y-102811419D02*
X179158467Y-103937399D01*
D131*
X202000000Y-164700000D02*
X203700000Y-163000000D01*
X247141887Y-191644439D02*
X246369203Y-190699003D01*
X218279828Y-95135222D02*
X216108041Y-94782740D01*
X257517075Y-120958489D02*
X256391094Y-119068233D01*
X203400000Y-117300000D02*
X203400000Y-101900000D01*
X254142262Y-184170634D02*
X255182744Y-182895730D01*
X154689364Y-153919130D02*
X154659364Y-151719130D01*
D132*
X247141886Y-191644439D02*
X248807901Y-190207325D01*
D131*
X193106487Y-201828962D02*
X192713653Y-202866287D01*
X171610827Y-110030935D02*
X173276841Y-108593821D01*
D133*
X182675000Y-166525000D02*
X178575000Y-166525000D01*
D132*
X214510000Y-191700000D02*
X214900000Y-191700000D01*
D133*
X203500000Y-197900000D02*
X203500000Y-197300000D01*
D131*
X253509363Y-117819130D02*
X253499449Y-117805674D01*
D132*
X166276466Y-116067624D02*
X165235983Y-117342531D01*
D131*
X174049525Y-109539258D02*
X174211898Y-109692995D01*
X158556671Y-170621857D02*
X159603817Y-170256005D01*
X211809364Y-205669130D02*
X211825169Y-204448212D01*
X169629492Y-186278969D02*
X169783229Y-186116596D01*
X158486395Y-165494482D02*
X159876484Y-170012270D01*
X232769154Y-200991188D02*
X230712091Y-201771823D01*
X252951184Y-183876381D02*
X253371388Y-184238346D01*
X199183961Y-96896010D02*
X199247712Y-97110336D01*
X161301653Y-123729770D02*
X162351097Y-124353916D01*
X162901653Y-179279771D02*
X164027634Y-181170027D01*
X265759364Y-148519130D02*
X265729364Y-146319130D01*
X176157858Y-194052028D02*
X177432764Y-195092510D01*
X183820005Y-199026841D02*
X185740261Y-200100860D01*
X202138900Y-205103038D02*
X204310687Y-205455520D01*
X155781130Y-161340978D02*
X156986244Y-161144532D01*
X161301653Y-123729771D02*
X160227634Y-125650027D01*
X157462207Y-132623419D02*
X156737953Y-134701003D01*
X168684055Y-187051653D02*
X170121169Y-188717667D01*
D132*
X214900000Y-191700000D02*
X215250000Y-191350000D01*
D131*
X264637598Y-138897282D02*
X263432484Y-139093728D01*
X211825168Y-204448212D02*
X211799603Y-204226071D01*
X261862057Y-129616403D02*
X260814910Y-129982254D01*
D132*
X244217559Y-106150886D02*
X242985963Y-105145749D01*
D133*
X203500000Y-194924999D02*
X203500000Y-196600000D01*
X207700001Y-194999999D02*
X207700001Y-197200001D01*
X182675000Y-163325000D02*
X184298500Y-161701500D01*
D132*
X214009364Y-205639130D02*
X211809364Y-205669130D01*
D131*
X238827876Y-196459133D02*
X239370005Y-197426841D01*
D132*
X162901653Y-179279771D02*
X164027633Y-181170027D01*
D131*
X259117075Y-176508490D02*
X258067631Y-175884344D01*
D132*
X154689364Y-153919130D02*
X154659364Y-151719130D01*
X183820005Y-199026841D02*
X185740261Y-200100861D01*
D131*
X251734673Y-113186607D02*
X250297559Y-111520593D01*
X259117075Y-176508489D02*
X260191094Y-174588233D01*
X265193272Y-158189594D02*
X265545754Y-156017807D01*
X264637598Y-138897281D02*
X264226028Y-136735913D01*
D133*
X204575001Y-177000000D02*
X204600000Y-177024999D01*
D131*
X250789236Y-113959291D02*
X250635499Y-114121664D01*
X168684055Y-187051653D02*
X169629491Y-186278969D01*
X183820004Y-199026841D02*
X184444150Y-197977397D01*
X261862057Y-129616403D02*
X261081422Y-127559340D01*
X156315236Y-142255402D02*
X155225456Y-142048666D01*
X157462207Y-132623419D02*
X158499531Y-133016253D01*
X189706637Y-98466437D02*
X187649574Y-99247072D01*
D132*
X221431213Y-204547364D02*
X223592580Y-204135793D01*
D133*
X208100000Y-197600000D02*
X210100000Y-197600000D01*
D131*
X166276466Y-116067624D02*
X165235984Y-117342530D01*
D133*
X203500000Y-196600000D02*
X203500000Y-197300000D01*
X182675000Y-166525000D02*
X182675000Y-163325000D01*
D131*
X221431213Y-204547364D02*
X223592581Y-204135794D01*
X251734673Y-113186607D02*
X250789237Y-113959291D01*
D133*
X207700001Y-194999999D02*
X203575000Y-194999999D01*
D132*
X239370005Y-197426841D02*
X241260261Y-196300861D01*
D131*
X203808043Y-96532064D02*
X203937712Y-96515511D01*
D132*
X189706637Y-98466437D02*
X187649574Y-99247072D01*
D133*
X182675000Y-170099999D02*
X182675000Y-166525000D01*
X198775001Y-180324999D02*
X202100000Y-177000000D01*
D131*
X227658090Y-158851953D02*
X226319755Y-160190288D01*
X252773173Y-183741810D02*
X252679872Y-183680208D01*
D133*
X212525001Y-197174999D02*
X212525001Y-194999999D01*
X210100000Y-197600000D02*
X212100000Y-197600000D01*
D131*
X160692651Y-128639958D02*
X160623697Y-128803959D01*
X258067632Y-175884343D02*
X257862470Y-175795413D01*
X210000000Y-120800000D02*
X206900000Y-120800000D01*
D132*
X155225457Y-142048665D02*
X154872975Y-144220453D01*
D131*
X239370005Y-197426841D02*
X241260261Y-196300860D01*
D133*
X198775001Y-194924999D02*
X194424999Y-194924999D01*
D131*
X218600000Y-163000000D02*
X220900000Y-160700000D01*
X181048723Y-102811419D02*
X179158467Y-103937400D01*
X155880282Y-151734934D02*
X156102423Y-151709369D01*
X218279828Y-95135222D02*
X218073091Y-96225002D01*
D133*
X194424999Y-194924999D02*
X182600000Y-183100000D01*
D131*
X263432484Y-139093727D02*
X263218158Y-139157478D01*
D133*
X184298500Y-161701500D02*
X186600000Y-161701500D01*
D132*
X212685000Y-194840000D02*
X212525001Y-194999999D01*
D131*
X202373173Y-203791810D02*
X202379872Y-203680208D01*
X207500000Y-176600000D02*
X207500000Y-175649999D01*
X207500000Y-175649999D02*
X207400000Y-175549999D01*
X155781130Y-161340979D02*
X156192700Y-163502347D01*
D132*
X261862057Y-129616403D02*
X261081422Y-127559340D01*
D131*
X202849999Y-175549999D02*
X202000000Y-174700000D01*
X186172578Y-101811855D02*
X186047873Y-101874942D01*
D132*
X236598723Y-101211419D02*
X234678467Y-100137399D01*
X176157858Y-194052028D02*
X177432765Y-195092511D01*
D131*
X166959363Y-182469130D02*
X166984201Y-182501811D01*
X156536683Y-142282939D02*
X156648286Y-142289638D01*
X170959364Y-113119130D02*
X170948142Y-113130869D01*
X192713653Y-202866287D02*
X194791237Y-203590541D01*
X207075001Y-177024999D02*
X207500000Y-176600000D01*
X255372692Y-179875546D02*
X255458230Y-179743950D01*
X257517075Y-120958489D02*
X256549367Y-121500617D01*
X264103491Y-157982857D02*
X265193272Y-158189594D01*
X158712833Y-133081825D02*
X158821577Y-133107802D01*
D132*
X265193271Y-158189595D02*
X265545753Y-156017807D01*
D131*
X167047339Y-115999913D02*
X167467543Y-116361878D01*
X208609364Y-94569130D02*
X208593559Y-95790048D01*
X247141887Y-191644439D02*
X248807901Y-190207325D01*
X227705075Y-97371973D02*
X225627491Y-96647719D01*
X227312240Y-98409297D02*
X227705075Y-97371973D01*
D132*
X155781130Y-161340979D02*
X156192701Y-163502346D01*
D131*
X162351096Y-124353917D02*
X162556258Y-124442847D01*
X262105126Y-134723367D02*
X260800889Y-130327605D01*
X188704724Y-199695263D02*
X188785504Y-199730547D01*
X183254999Y-170679998D02*
X182675000Y-170099999D01*
X227246668Y-98622599D02*
X227220692Y-98731343D01*
X231533223Y-100507712D02*
X231562260Y-100520395D01*
X230712091Y-201771823D02*
X230346239Y-200724676D01*
X206900000Y-120800000D02*
X203400000Y-117300000D01*
X205670001Y-101275000D02*
X205670001Y-99670001D01*
D133*
X203500000Y-194924999D02*
X198775001Y-194924999D01*
D132*
X215250000Y-191350000D02*
X215300000Y-191300000D01*
D131*
X238706628Y-196271794D02*
X238640023Y-196181996D01*
X243832044Y-107555320D02*
X243770442Y-107648622D01*
D132*
X213520000Y-189700001D02*
X212900000Y-189700000D01*
X218279829Y-95135223D02*
X216108041Y-94782741D01*
D131*
X158499531Y-133016253D02*
G75*
G03*
X158712833Y-133081825I620169J1637653D01*
G01*
X242509367Y-193369134D02*
G75*
G02*
X234523784Y-198236540I-34714967J47969834D01*
G01*
X156315237Y-142255399D02*
G75*
G03*
X156536683Y-142282939I326363J1720199D01*
G01*
X218073086Y-96225001D02*
G75*
G03*
X218045554Y-96446449I1720214J-326299D01*
G01*
X160623702Y-128803961D02*
G75*
G03*
X157709365Y-137669130I53552998J-22516639D01*
G01*
X213309364Y-96219124D02*
G75*
G03*
X203937712Y-96515512I-3136464J-49138376D01*
G01*
X207009364Y-204019136D02*
G75*
G03*
X216387009Y-203771745I3319936J52012936D01*
G01*
X255458228Y-179743949D02*
G75*
G03*
X259859364Y-171519130I-46041128J29926749D01*
G01*
X253499446Y-117805676D02*
G75*
G03*
X247309364Y-110769130I-43685246J-32189124D01*
G01*
X156559365Y-156369130D02*
G75*
G02*
X156304506Y-147046027I51295835J6067270D01*
G01*
X166276499Y-116067651D02*
G75*
G02*
X167047339Y-115999914I418401J-341449D01*
G01*
X252773172Y-183741812D02*
G75*
G02*
X252951184Y-183876381I-964872J-1461388D01*
G01*
X260814911Y-129982257D02*
G75*
G03*
X260609364Y-130069130I577389J-1652743D01*
G01*
X165109362Y-120419129D02*
G75*
G02*
X170948142Y-113130869I44497738J-29665171D01*
G01*
X222609362Y-97569139D02*
G75*
G02*
X231533223Y-100507713I-11173662J-48951461D01*
G01*
D132*
X253371425Y-184238303D02*
G75*
G03*
X254142261Y-184170634I352475J409103D01*
G01*
D131*
X249559360Y-187219126D02*
G75*
G03*
X255372692Y-179875546I-36361160J34757026D01*
G01*
X262105118Y-134723369D02*
G75*
G02*
X263702347Y-142330645I-45520018J-13528731D01*
G01*
X259859372Y-171519133D02*
G75*
G03*
X262786974Y-162663775I-49299172J21210033D01*
G01*
X258499552Y-125800407D02*
G75*
G03*
X253509362Y-117819130I-54725252J-28665593D01*
G01*
X254142262Y-184170634D02*
G75*
G03*
X254142262Y-184170634I0J0D01*
G01*
X190072487Y-99513583D02*
G75*
G03*
X190159364Y-99719130I1653113J577583D01*
G01*
X264934364Y-148519178D02*
G75*
G02*
X264055220Y-147695908I36J881078D01*
G01*
X227246673Y-98622600D02*
G75*
G02*
X227312240Y-98409297I1702827J-406700D01*
G01*
X230259365Y-200519130D02*
G75*
G02*
X230346239Y-200724676I-1566165J-783070D01*
G01*
X176452108Y-192860947D02*
G75*
G03*
X176586683Y-192682939I-1326808J1142947D01*
G01*
X222600832Y-97567182D02*
G75*
G03*
X213309364Y-96219130I-13017732J-57030118D01*
G01*
X176157858Y-194052028D02*
G75*
G02*
X176157858Y-194052028I0J0D01*
G01*
X181590844Y-103779130D02*
G75*
G03*
X181712100Y-103966465I1527556J855830D01*
G01*
X230309138Y-200368681D02*
G75*
G03*
X230259364Y-200519130I50662J-100219D01*
G01*
X156314307Y-146890900D02*
G75*
G02*
X157709365Y-137669130I53521793J-3380300D01*
G01*
X177972123Y-106897049D02*
G75*
G03*
X170959364Y-113119130I34243877J-45658451D01*
G01*
X163869359Y-178737641D02*
G75*
G03*
X164056699Y-178616394I-855859J1527741D01*
G01*
X207009363Y-204019138D02*
G75*
G02*
X197717895Y-202671076I3726337J58378238D01*
G01*
X231562261Y-100520393D02*
G75*
G02*
X239909364Y-104969129I-24335661J-55715807D01*
G01*
X202345634Y-204013257D02*
G75*
G03*
X202373172Y-203791810I-1720234J326357D01*
G01*
X173209365Y-189419129D02*
G75*
G03*
X180494245Y-195209051I38210935J40599129D01*
G01*
X238827873Y-196459135D02*
G75*
G03*
X238706627Y-196271795I-1527773J-855865D01*
G01*
X158486401Y-165494480D02*
G75*
G02*
X156559364Y-156369130I49380299J15193980D01*
G01*
X256362026Y-121621863D02*
G75*
G02*
X256549367Y-121500617I1043074J-1406337D01*
G01*
X159876491Y-170012268D02*
G75*
G03*
X159958427Y-170219592I1368709J421068D01*
G01*
X230309127Y-200368658D02*
G75*
G02*
X230102504Y-200452009I-592927J1172058D01*
G01*
X262941878Y-162008931D02*
G75*
G03*
X264059363Y-153719130I-41473378J9810931D01*
G01*
X239943284Y-104990747D02*
G75*
G02*
X247309363Y-110769131I-25808884J-40484453D01*
G01*
D132*
X176090119Y-193281130D02*
G75*
G03*
X176157859Y-194052027I409181J-352470D01*
G01*
D131*
X186047873Y-101874942D02*
G75*
G03*
X178009363Y-106869129I24420127J-48272358D01*
G01*
X180509363Y-195219130D02*
G75*
G03*
X188704724Y-199695263I29436337J44154530D01*
G01*
X159809365Y-170169132D02*
G75*
G02*
X159958426Y-170219592I49535J-99068D01*
G01*
D132*
X167047366Y-115999882D02*
G75*
G03*
X166276467Y-116067625I-352466J-409218D01*
G01*
D131*
X162042405Y-174486792D02*
G75*
G03*
X166959363Y-182469130I43144495J21070592D01*
G01*
X194759366Y-98419136D02*
G75*
G02*
X203808043Y-96532065I16499834J-56480064D01*
G01*
X254142306Y-184170670D02*
G75*
G02*
X253371388Y-184238346I-418406J341470D01*
G01*
X225632177Y-201827492D02*
G75*
G02*
X216409364Y-203769130I-15249877J49562092D01*
G01*
X176157882Y-194051999D02*
G75*
G02*
X176090147Y-193281154I341418J418399D01*
G01*
X166276466Y-116067624D02*
G75*
G02*
X166276466Y-116067624I0J0D01*
G01*
D132*
X244217523Y-106150930D02*
G75*
G02*
X244292095Y-106999459I-375823J-460570D01*
G01*
D131*
X230259367Y-200519128D02*
G75*
G03*
X230102504Y-200452009I-118067J-59072D01*
G01*
X243966612Y-107377306D02*
G75*
G03*
X243832044Y-107555320I1326588J-1142694D01*
G01*
X159809365Y-170169133D02*
G75*
G02*
X159603817Y-170256005I-783165J1566433D01*
G01*
X193172056Y-201615660D02*
G75*
G02*
X193106486Y-201828962I-1703256J406860D01*
G01*
X244217559Y-106150886D02*
G75*
G02*
X244217559Y-106150886I0J0D01*
G01*
X263882044Y-157955315D02*
G75*
G02*
X264103491Y-157982857I-104944J-1747785D01*
G01*
X244217523Y-106150930D02*
G75*
G02*
X244292095Y-106999459I-375823J-460570D01*
G01*
X242509361Y-193369125D02*
G75*
G03*
X249550537Y-187228363I-30218961J41757125D01*
G01*
X188785502Y-199730551D02*
G75*
G03*
X197709364Y-202669128I20097498J46012751D01*
G01*
X167467546Y-116361875D02*
G75*
G03*
X167645554Y-116496449I1142754J1326575D01*
G01*
X165109359Y-120419127D02*
G75*
G03*
X160692651Y-128639958I40931541J-27287673D01*
G01*
X159876445Y-170012282D02*
G75*
G02*
X159809364Y-170169130I-126145J-38818D01*
G01*
X194759363Y-98419127D02*
G75*
G03*
X186172578Y-101811855I14081537J-48202173D01*
G01*
X166984201Y-182501811D02*
G75*
G03*
X173209364Y-189419130I44732499J33996711D01*
G01*
X261919194Y-167222010D02*
G75*
G03*
X261705895Y-167156434I-620094J-1637290D01*
G01*
X208000000Y-124900000D02*
X208000000Y-122800000D01*
X203850000Y-125300000D02*
X207600000Y-125300000D01*
X207600000Y-125300000D02*
X208000000Y-124900000D01*
X233630835Y-133569165D02*
X234064295Y-133569165D01*
X186000000Y-165474500D02*
X186125500Y-165474500D01*
X244705203Y-121194797D02*
X245500000Y-120400000D01*
X216160624Y-154060624D02*
X216160624Y-154018198D01*
X167681500Y-130700000D02*
X167640000Y-130741500D01*
X186700000Y-142800000D02*
X186700000Y-143100000D01*
X209200000Y-187100000D02*
X209200000Y-186825000D01*
X176815689Y-195827913D02*
X176417161Y-196302861D01*
D132*
X217018233Y-146860589D02*
X217739411Y-146139411D01*
D131*
X209800000Y-195500000D02*
X209800000Y-194300000D01*
X164458500Y-130100000D02*
X165100000Y-130741500D01*
X235900000Y-147300000D02*
X236500000Y-147300000D01*
D132*
X217800000Y-146200000D02*
X218774500Y-146200000D01*
D131*
X178800000Y-170100000D02*
X179200000Y-170100000D01*
X161000000Y-142800000D02*
X161300000Y-143100000D01*
X232800000Y-134300000D02*
X233200000Y-134700000D01*
X202839097Y-146682080D02*
X202839097Y-146760903D01*
X186100000Y-142800000D02*
X186400000Y-143100000D01*
X217039411Y-153139411D02*
X217593767Y-152585055D01*
X234900000Y-132400000D02*
X234900000Y-132500000D01*
X211700000Y-174200000D02*
X211700000Y-175249999D01*
X204600000Y-180600000D02*
X204600000Y-179974999D01*
X209037500Y-186662500D02*
X208600000Y-186225000D01*
X155247285Y-163669049D02*
X154636704Y-163776711D01*
X202843153Y-157156847D02*
X201543153Y-155856847D01*
X161000000Y-165400000D02*
X161600000Y-165400000D01*
X241800000Y-143999999D02*
X241299999Y-143999999D01*
X215200000Y-176624999D02*
X214900000Y-176924999D01*
X215575000Y-194900000D02*
X215475001Y-194999999D01*
X209800000Y-195500000D02*
X210150000Y-195500000D01*
X168600000Y-130300000D02*
X168600000Y-130700000D01*
X207411999Y-192700000D02*
X207662500Y-192449499D01*
D132*
X234100000Y-143900001D02*
X233000000Y-143900000D01*
D131*
X178800000Y-169500000D02*
X178800000Y-169700000D01*
X214800000Y-176300000D02*
X214500000Y-176300000D01*
X240000000Y-115400000D02*
X240200000Y-115200000D01*
X158859313Y-124860027D02*
X159396249Y-125170027D01*
X266491169Y-156184510D02*
X267101750Y-156292172D01*
X174024998Y-170224998D02*
X174024998Y-170700000D01*
X186600000Y-165000000D02*
X186600000Y-164241500D01*
X233200000Y-134700000D02*
X233400000Y-134500000D01*
X174000000Y-170400000D02*
X174000000Y-170200000D01*
X178368467Y-102569079D02*
X178678467Y-103106015D01*
X186700000Y-143821500D02*
X186600000Y-143921500D01*
X227211686Y-161088314D02*
X226300000Y-162000000D01*
X178800000Y-169500000D02*
X179125001Y-169500000D01*
X168910819Y-189733271D02*
X169385767Y-189334743D01*
X212300000Y-175249999D02*
X212000000Y-175549999D01*
X213067500Y-170999999D02*
X213700000Y-171000000D01*
X212000000Y-174500000D02*
X212000000Y-176100000D01*
X178800000Y-169700000D02*
X179200000Y-170100000D01*
X164300000Y-131000000D02*
X164841500Y-131000000D01*
X209220000Y-169599999D02*
X208600000Y-169600000D01*
X174024998Y-170700000D02*
X174624999Y-170099999D01*
D132*
X206180001Y-185919999D02*
X206200000Y-185900000D01*
D131*
X249823505Y-191417675D02*
X249424977Y-190942727D01*
X194250846Y-205075255D02*
X194462898Y-204492646D01*
X227400000Y-124900000D02*
X227400000Y-125400000D01*
X187300000Y-143221500D02*
X186600000Y-143921500D01*
X243603039Y-104410347D02*
X244001567Y-103935399D01*
X206307500Y-170999999D02*
X205700000Y-171000000D01*
X239014043Y-115585957D02*
X239800000Y-114800000D01*
X162200000Y-142800000D02*
X161900000Y-143100000D01*
X251507909Y-110504989D02*
X251032961Y-110903517D01*
X204143984Y-206400935D02*
X204036322Y-207011516D01*
X168600000Y-130700000D02*
X167681500Y-130700000D01*
D132*
X212413002Y-146526338D02*
X211748618Y-147190722D01*
D131*
X216400000Y-195500000D02*
X216400000Y-194300000D01*
X226621996Y-126162222D02*
X226937778Y-126162222D01*
X187100000Y-165500000D02*
X186600000Y-165000000D01*
X161000000Y-142800000D02*
X162200000Y-142800000D01*
X233400000Y-134500000D02*
X233400000Y-134400000D01*
X211600000Y-176900000D02*
X212200000Y-176900000D01*
X262566136Y-127018948D02*
X261983527Y-127231000D01*
X208600000Y-187100000D02*
X208162500Y-186662500D01*
X184999999Y-169719998D02*
X185580002Y-169719998D01*
X200700000Y-155000000D02*
X200700000Y-155013694D01*
X162100000Y-143100000D02*
X162200000Y-143000000D01*
X233400000Y-134400000D02*
X233100000Y-134100000D01*
X223759283Y-205081209D02*
X223866945Y-205691790D01*
X164000000Y-130100000D02*
X164458500Y-130100000D01*
X161000000Y-165400000D02*
X161000000Y-164841500D01*
X161300000Y-143100000D02*
X161600000Y-143100000D01*
D132*
X211748618Y-147751382D02*
X211400000Y-148100000D01*
D131*
X164000000Y-131300000D02*
X164541500Y-131300000D01*
X214600000Y-176000000D02*
X214800000Y-176200000D01*
X226621996Y-126578004D02*
X226050000Y-127150000D01*
X186125500Y-165474500D02*
X186600000Y-165000000D01*
X204900000Y-180900000D02*
X204900000Y-180274999D01*
X180141500Y-130741500D02*
X179500000Y-130100000D01*
D132*
X211748618Y-147190722D02*
X211748618Y-147751382D01*
D131*
X234530835Y-133569165D02*
X234064295Y-133569165D01*
X196659445Y-95157051D02*
X196551783Y-94546470D01*
X212000000Y-176500000D02*
X212000000Y-175549999D01*
X224615628Y-165486518D02*
X224615628Y-166015628D01*
X211700000Y-174200000D02*
X212000000Y-174500000D01*
X180560000Y-130741500D02*
X180141500Y-130741500D01*
X161000000Y-143321500D02*
X161600000Y-143921500D01*
X239800000Y-114800000D02*
X239800000Y-115200000D01*
X202500000Y-142500000D02*
X202500000Y-143614033D01*
D132*
X217300000Y-147221178D02*
X217300000Y-147600000D01*
D131*
X161600000Y-143921500D02*
X161600000Y-143100000D01*
D132*
X205500000Y-185919999D02*
X206180001Y-185919999D01*
D131*
X208600000Y-186225000D02*
X208600000Y-187000000D01*
X179500000Y-130100000D02*
X179500000Y-131300000D01*
X242300001Y-143999999D02*
X242400000Y-143900000D01*
X212200000Y-176900000D02*
X212200000Y-175749999D01*
X209800000Y-194900000D02*
X210100000Y-195200000D01*
X178800000Y-170700000D02*
X178800000Y-169500000D01*
X214900000Y-176200000D02*
X214800000Y-176300000D01*
X224615628Y-165486518D02*
X224886518Y-165486518D01*
X226167882Y-95163005D02*
X225955830Y-95745614D01*
X204300000Y-180900000D02*
X204600000Y-180600000D01*
X164541500Y-131300000D02*
X165100000Y-130741500D01*
D132*
X215500000Y-141400000D02*
X215500000Y-141500000D01*
D131*
X187000000Y-142800000D02*
X186700000Y-143100000D01*
X239014043Y-115891496D02*
X239014043Y-115585957D01*
X168800000Y-130100000D02*
X168600000Y-130300000D01*
D132*
X206157782Y-149397939D02*
X206157782Y-149339762D01*
X215500000Y-141500000D02*
X215960589Y-141960589D01*
D131*
X153927559Y-144053750D02*
X153316978Y-143946088D01*
X243100000Y-122000000D02*
X243512141Y-122000000D01*
X238300000Y-117000000D02*
X238200000Y-117000000D01*
X186000000Y-165474500D02*
X187174500Y-165474500D01*
X212000000Y-176100000D02*
X211500000Y-176600000D01*
X168198500Y-131300000D02*
X167640000Y-130741500D01*
X267309364Y-146319130D02*
X266689364Y-146319130D01*
X212300000Y-174200000D02*
X212300000Y-175249999D01*
X235900000Y-147300000D02*
X235900000Y-147570000D01*
X207900000Y-192487999D02*
X207861500Y-192449499D01*
X239508504Y-115891496D02*
X240000000Y-115400000D01*
X168600000Y-131100000D02*
X168600000Y-130700000D01*
X212200000Y-172887499D02*
X212087500Y-172999999D01*
X164500581Y-116725455D02*
X164025633Y-116326927D01*
X178800000Y-170700000D02*
X178800000Y-170500000D01*
X217593767Y-152585055D02*
X217593767Y-152293767D01*
X257759415Y-118278233D02*
X257222479Y-118588233D01*
X226237778Y-126162222D02*
X225400000Y-127000000D01*
X187300000Y-142800000D02*
X187000000Y-142800000D01*
X168800000Y-130700000D02*
X168600000Y-130700000D01*
X214800000Y-176200000D02*
X214900000Y-176200000D01*
X243100000Y-122000000D02*
X243100000Y-121900000D01*
X206960589Y-156839411D02*
X206960589Y-157160589D01*
X236500000Y-147300000D02*
X236500000Y-147620000D01*
X179125001Y-169500000D02*
X179725000Y-170099999D01*
X187200000Y-164841500D02*
X186600000Y-164241500D01*
X186000000Y-165474500D02*
X186000000Y-164841500D01*
X243700000Y-122100000D02*
X243700000Y-122200000D01*
X204900000Y-180274999D02*
X204600000Y-179974999D01*
X186000000Y-164841500D02*
X186600000Y-164241500D01*
X161900000Y-165100000D02*
X161300000Y-165100000D01*
X216400000Y-195500000D02*
X216100000Y-195200000D01*
X243512141Y-122000000D02*
X244317344Y-121194797D01*
X202600000Y-120490000D02*
X202590000Y-120500000D01*
X211500000Y-176600000D02*
X211500000Y-176800000D01*
X242050261Y-197669181D02*
X241740261Y-197132245D01*
X234100000Y-150800000D02*
X234600000Y-150300000D01*
X225400000Y-127000000D02*
X225900000Y-127000000D01*
X227217781Y-161088314D02*
X227217781Y-161082219D01*
X261559415Y-175378233D02*
X261022479Y-175068233D01*
X239014043Y-115891496D02*
X239508504Y-115891496D01*
X235000000Y-133100000D02*
X234530835Y-133569165D01*
X186100000Y-143421500D02*
X186600000Y-143921500D01*
X187200000Y-165500000D02*
X187100000Y-165500000D01*
D132*
X206157782Y-149339762D02*
X205465678Y-148647658D01*
D131*
X164000000Y-130700000D02*
X164300000Y-131000000D01*
X208162500Y-186662500D02*
X208600000Y-186225000D01*
X202500000Y-143614033D02*
X202435525Y-143678508D01*
X203300000Y-123200000D02*
X203200000Y-123300000D01*
D132*
X214700000Y-145300000D02*
X214388604Y-144988604D01*
X217300000Y-147600000D02*
X216300000Y-148600000D01*
D131*
X227550000Y-125550000D02*
X227800000Y-125300000D01*
X209200000Y-187100000D02*
X208000000Y-187100000D01*
X184950261Y-201469181D02*
X185260261Y-200932245D01*
X236500000Y-147620000D02*
X236225000Y-147895000D01*
X212200000Y-171900000D02*
X212200000Y-172887499D01*
X173700000Y-170700000D02*
X174000000Y-170400000D01*
X207200000Y-192700000D02*
X207700000Y-192700000D01*
X179200000Y-170100000D02*
X179725000Y-170099999D01*
X164000000Y-130100000D02*
X164000000Y-131300000D01*
X215200000Y-176000000D02*
X215200000Y-176624999D01*
X208600000Y-187000000D02*
X208600000Y-187100000D01*
X161600000Y-143100000D02*
X161600000Y-142800000D01*
X234100000Y-150820000D02*
X234100000Y-150800000D01*
X178800000Y-170700000D02*
X179124999Y-170700000D01*
X185580002Y-169719998D02*
X185600000Y-169700000D01*
X164458500Y-130241500D02*
X164458500Y-130100000D01*
X226621996Y-126162222D02*
X226237778Y-126162222D01*
D132*
X214400000Y-141300000D02*
X214400000Y-142488730D01*
D131*
X265165489Y-166077648D02*
X264582880Y-165865596D01*
X186100000Y-142800000D02*
X187300000Y-142800000D01*
X247000000Y-120200000D02*
X247560589Y-120760589D01*
X164000000Y-130700000D02*
X164458500Y-130241500D01*
X255918147Y-183512805D02*
X256393095Y-183911333D01*
X225900000Y-127000000D02*
X226050000Y-127150000D01*
X233309546Y-202475902D02*
X233097494Y-201893293D01*
X187109182Y-97762358D02*
X187321234Y-98344967D01*
X227217781Y-161088314D02*
X227211686Y-161088314D01*
X239800000Y-115200000D02*
X240000000Y-115400000D01*
X161900000Y-143100000D02*
X162100000Y-143100000D01*
X227400000Y-124900000D02*
X227800000Y-125300000D01*
X244317344Y-121194797D02*
X244705203Y-121194797D01*
X226621996Y-126162222D02*
X226621996Y-126578004D01*
D132*
X213300000Y-141100000D02*
X212800000Y-141600000D01*
D131*
X206409364Y-93019130D02*
X206409364Y-93639130D01*
X243300000Y-121700000D02*
X243700000Y-122100000D01*
X168281500Y-130100000D02*
X167640000Y-130741500D01*
X180560000Y-130741500D02*
X180058500Y-130741500D01*
X168800000Y-131300000D02*
X168198500Y-131300000D01*
X174025000Y-169500000D02*
X174162500Y-169637500D01*
X187174500Y-165474500D02*
X187200000Y-165500000D01*
X209800000Y-194300000D02*
X209950002Y-194300000D01*
X168800000Y-130100000D02*
X168800000Y-131300000D01*
X209800000Y-194900000D02*
X210550002Y-194900000D01*
X186400000Y-143100000D02*
X186700000Y-143100000D01*
X202600000Y-119800000D02*
X202600000Y-120490000D01*
D132*
X209481980Y-153700000D02*
X208647658Y-154534322D01*
D131*
X216274744Y-93837325D02*
X216382406Y-93226744D01*
X162659313Y-181960027D02*
X163196249Y-181650027D01*
X161000000Y-142800000D02*
X161000000Y-143321500D01*
D132*
X213710738Y-150528758D02*
X213710738Y-150497203D01*
D131*
X215975002Y-195500000D02*
X215475001Y-194999999D01*
X212200000Y-175749999D02*
X212000000Y-175549999D01*
X208000000Y-187100000D02*
X208500000Y-187100000D01*
D132*
X214534322Y-151352342D02*
X213710738Y-150528758D01*
D131*
X203800000Y-123200000D02*
X203300000Y-123200000D01*
X208000000Y-187100000D02*
X208000000Y-186825000D01*
D132*
X213490000Y-190700001D02*
X212700000Y-190700000D01*
D131*
X238200000Y-117000000D02*
X237800000Y-116600000D01*
D132*
X214400000Y-142488730D02*
X214346446Y-142542284D01*
D131*
X157852592Y-173219312D02*
X158435201Y-173007260D01*
X241800000Y-143999999D02*
X242300001Y-143999999D01*
X210550002Y-194900000D02*
X210650001Y-194999999D01*
X206960589Y-157160589D02*
X207300000Y-157500000D01*
X161000000Y-164841500D02*
X161600000Y-164241500D01*
X226979268Y-158079268D02*
X226600000Y-157700000D01*
X226937778Y-126162222D02*
X227550000Y-125550000D01*
X173700000Y-169500000D02*
X174025000Y-169500000D01*
X243700000Y-122200000D02*
X243500000Y-122400000D01*
X155253239Y-134160612D02*
X155835848Y-134372664D01*
X216400000Y-194300000D02*
X216175000Y-194300000D01*
X245100000Y-120000000D02*
X245100000Y-120400000D01*
X207900000Y-192900000D02*
X207900000Y-192487999D01*
D132*
X237100000Y-145710000D02*
X237100000Y-146300000D01*
D131*
X214600000Y-176000000D02*
X215200000Y-176000000D01*
X214500000Y-176524999D02*
X214900000Y-176924999D01*
X164841500Y-131000000D02*
X165100000Y-130741500D01*
X245100000Y-120400000D02*
X245500000Y-120400000D01*
X224615628Y-166015628D02*
X224800000Y-166200000D01*
D132*
X209500000Y-153700000D02*
X209481980Y-153700000D01*
D131*
X173700000Y-170700000D02*
X173700000Y-169500000D01*
X162200000Y-165400000D02*
X162200000Y-164841500D01*
X211600000Y-176900000D02*
X212000000Y-176500000D01*
X234900000Y-132400000D02*
X234600000Y-132700000D01*
X162200000Y-143000000D02*
X162200000Y-143321500D01*
X216175000Y-194300000D02*
X215475001Y-194999999D01*
D132*
X214388604Y-142584442D02*
X214346446Y-142542284D01*
D131*
X200700000Y-155013694D02*
X201543153Y-155856847D01*
D132*
X217739411Y-146139411D02*
X217800000Y-146200000D01*
D131*
X186100000Y-142800000D02*
X186100000Y-143421500D01*
X174000000Y-170200000D02*
X174024998Y-170224998D01*
X216100000Y-195200000D02*
X216400000Y-194900000D01*
X227400000Y-125400000D02*
X227550000Y-125550000D01*
X226979268Y-158149979D02*
X226979268Y-158079268D01*
X178800000Y-170500000D02*
X179200000Y-170100000D01*
X203200000Y-122600000D02*
X203200000Y-123300000D01*
X211700000Y-175249999D02*
X212000000Y-175549999D01*
X244317344Y-121194797D02*
X244317344Y-120782656D01*
X162200000Y-143321500D02*
X161600000Y-143921500D01*
X227217781Y-161082219D02*
X228100000Y-160200000D01*
X265171443Y-136569211D02*
X265782024Y-136461549D01*
X161600000Y-165400000D02*
X161900000Y-165100000D01*
D132*
X216939411Y-146860589D02*
X217018233Y-146860589D01*
D131*
X179541500Y-130741500D02*
X179500000Y-130700000D01*
X216400000Y-195500000D02*
X215975002Y-195500000D01*
X208000000Y-186825000D02*
X208162500Y-186662500D01*
X238300000Y-116605539D02*
X239014043Y-115891496D01*
X243100000Y-121900000D02*
X243300000Y-121700000D01*
X187200000Y-165500000D02*
X187200000Y-164841500D01*
X234600000Y-132700000D02*
X235000000Y-133100000D01*
X161300000Y-165100000D02*
X161300000Y-164541500D01*
X237800000Y-116600000D02*
X238305539Y-116600000D01*
X225800000Y-127400000D02*
X225400000Y-127000000D01*
X214500000Y-176300000D02*
X214500000Y-176524999D01*
X238300000Y-117000000D02*
X238300000Y-116605539D01*
X210100000Y-195200000D02*
X209800000Y-195500000D01*
X214009364Y-207219130D02*
X214009364Y-206599130D01*
X211700000Y-174200000D02*
X212300000Y-174200000D01*
D132*
X212080000Y-190699999D02*
X212700000Y-190700000D01*
D131*
X161300000Y-164541500D02*
X161600000Y-164241500D01*
X235900000Y-147570000D02*
X236225000Y-147895000D01*
X207200000Y-192700000D02*
X207411999Y-192700000D01*
X216160624Y-154018198D02*
X217039411Y-153139411D01*
X216400000Y-194900000D02*
X215575000Y-194900000D01*
X180058500Y-130741500D02*
X179500000Y-131300000D01*
X168800000Y-131300000D02*
X168600000Y-131100000D01*
X204900000Y-180900000D02*
X204300000Y-180900000D01*
X210150000Y-195500000D02*
X210650001Y-194999999D01*
X238305539Y-116600000D02*
X239014043Y-115891496D01*
D132*
X214388604Y-144988604D02*
X214388604Y-142584442D01*
D131*
X241299999Y-143999999D02*
X241200000Y-143900000D01*
X224886518Y-165486518D02*
X225200000Y-165800000D01*
X174162500Y-169637500D02*
X174624999Y-170099999D01*
X244317344Y-120782656D02*
X245100000Y-120000000D01*
X180560000Y-130741500D02*
X179541500Y-130741500D01*
X209950002Y-194300000D02*
X210650001Y-194999999D01*
X207700000Y-192700000D02*
X207900000Y-192900000D01*
X234900000Y-132500000D02*
X235300000Y-132900000D01*
X202839097Y-146760903D02*
X202400000Y-147200000D01*
X162200000Y-165400000D02*
X161000000Y-165400000D01*
X187300000Y-142800000D02*
X187300000Y-143221500D01*
X186700000Y-143100000D02*
X186700000Y-143821500D01*
X186600000Y-165500000D02*
X186600000Y-165000000D01*
X211500000Y-176800000D02*
X211600000Y-176900000D01*
X226050000Y-127150000D02*
X225800000Y-127400000D01*
X153109364Y-153919130D02*
X153729364Y-153919130D01*
X162200000Y-164841500D02*
X161600000Y-164241500D01*
X225200000Y-165800000D02*
X224800000Y-166200000D01*
X209800000Y-194300000D02*
X209800000Y-194900000D01*
X208500000Y-187100000D02*
X208600000Y-187000000D01*
X208600000Y-187100000D02*
X209037500Y-186662500D01*
X170595223Y-108820585D02*
X170993751Y-109295533D01*
D132*
X216939411Y-146860589D02*
X217300000Y-147221178D01*
D131*
X179124999Y-170700000D02*
X179725000Y-170099999D01*
X233100000Y-134100000D02*
X233630835Y-133569165D01*
X173700000Y-170100000D02*
X174162500Y-169637500D01*
X168800000Y-130100000D02*
X168281500Y-130100000D01*
X209200000Y-186825000D02*
X209037500Y-186662500D01*
X235468467Y-98769079D02*
X235158467Y-99306015D01*
X208100001Y-173700000D02*
X207700000Y-173700000D01*
X246438664Y-123240158D02*
X248239411Y-121439411D01*
X225500000Y-148100000D02*
X221000000Y-148100000D01*
X217500000Y-167100000D02*
X215100000Y-164700000D01*
X206500000Y-111800000D02*
X205670001Y-112629999D01*
X209700000Y-177800000D02*
X210300000Y-178400000D01*
X209700000Y-175299999D02*
X208100001Y-173700000D01*
X209700000Y-175549999D02*
X209700000Y-175299999D01*
D132*
X207639411Y-156160589D02*
X207728499Y-156160589D01*
X207728499Y-156160589D02*
X209001212Y-154887876D01*
D131*
X207599999Y-171899999D02*
X207267500Y-171567500D01*
X207267500Y-170999999D02*
X208912500Y-170999999D01*
X207599999Y-172999999D02*
X207599999Y-171899999D01*
D132*
X203678508Y-146821491D02*
X203778508Y-146921491D01*
X216260589Y-147628499D02*
X214887876Y-149001212D01*
D131*
X207700000Y-173700000D02*
X207599999Y-173599999D01*
X208100000Y-159600000D02*
X208100000Y-156621178D01*
X205670001Y-112629999D02*
X205670001Y-114000000D01*
D132*
X216360589Y-152460589D02*
X216349677Y-152460589D01*
D131*
X199600000Y-151300000D02*
X203517919Y-147382081D01*
D132*
X203778508Y-146921491D02*
X203778508Y-147100313D01*
D131*
X214900000Y-181200000D02*
X214900000Y-179874999D01*
X209700000Y-175549999D02*
X209700000Y-177800000D01*
X220700000Y-153200000D02*
X219000000Y-151500000D01*
D132*
X203517919Y-147407007D02*
X205112124Y-149001212D01*
D131*
X203517919Y-147382081D02*
X203517919Y-147360902D01*
X207267500Y-171567500D02*
X207267500Y-170999999D01*
D132*
X203778508Y-147100313D02*
X203517919Y-147360902D01*
X203517919Y-147360902D02*
X203517919Y-147407007D01*
D131*
X214900000Y-179000000D02*
X214900000Y-179874999D01*
X216360589Y-152439411D02*
X216360589Y-152460589D01*
X202200000Y-159700000D02*
X199600000Y-157100000D01*
X214300000Y-178400000D02*
X214900000Y-179000000D01*
D132*
X215578787Y-146921213D02*
X215642391Y-146921213D01*
D131*
X208200000Y-159700000D02*
X208100000Y-159600000D01*
X199600000Y-157100000D02*
X199600000Y-151300000D01*
X246438664Y-123316117D02*
X246438664Y-123240158D01*
X245054781Y-124700000D02*
X246438664Y-123316117D01*
X217500000Y-177274999D02*
X217500000Y-167100000D01*
D132*
X204400000Y-145600000D02*
X204742983Y-145942983D01*
D131*
X210300000Y-178400000D02*
X214300000Y-178400000D01*
X213820000Y-109775000D02*
X213820000Y-110980000D01*
X215000000Y-159700000D02*
X209100000Y-159700000D01*
D132*
X203678508Y-146621491D02*
X203678508Y-146821491D01*
X215642391Y-146921213D02*
X216260589Y-147539411D01*
D131*
X209700000Y-181849999D02*
X214250001Y-181849999D01*
X217300000Y-151500000D02*
X216360589Y-152439411D01*
D132*
X204742983Y-145942983D02*
X204742983Y-145957017D01*
X216349677Y-152460589D02*
X214887876Y-150998788D01*
D131*
X214370001Y-101425000D02*
X214370001Y-104970000D01*
X221000000Y-148100000D02*
X219000000Y-150100000D01*
X220700000Y-155200000D02*
X220700000Y-153200000D01*
X216200000Y-159700000D02*
X220700000Y-155200000D01*
X216200000Y-150100000D02*
X215101212Y-149001212D01*
D132*
X216260589Y-147539411D02*
X216260589Y-147628499D01*
D131*
X215101212Y-149001212D02*
X215028590Y-149001212D01*
X208100000Y-156621178D02*
X207639411Y-156160589D01*
X214250001Y-181849999D02*
X214900000Y-181200000D01*
X214370001Y-104970000D02*
X213840001Y-105500000D01*
X214900000Y-179874999D02*
X217500000Y-177274999D01*
X213000000Y-111800000D02*
X206500000Y-111800000D01*
D132*
X204521491Y-145778508D02*
X203678508Y-146621491D01*
D131*
X213820000Y-110980000D02*
X213000000Y-111800000D01*
X219000000Y-150100000D02*
X216200000Y-150100000D01*
X215000000Y-159700000D02*
X216200000Y-159700000D01*
X245000000Y-124700000D02*
X245054781Y-124700000D01*
X209100000Y-159700000D02*
X202200000Y-159700000D01*
X219000000Y-151500000D02*
X217300000Y-151500000D01*
X207599999Y-173599999D02*
X207599999Y-172999999D01*
X210180000Y-169599999D02*
X210180000Y-169415613D01*
D132*
X210868797Y-147468797D02*
X210868797Y-147363437D01*
D131*
X231020000Y-151780000D02*
X231000000Y-151800000D01*
X236225000Y-151705000D02*
X234175000Y-151705000D01*
X234175000Y-151705000D02*
X234100000Y-151780000D01*
X208264387Y-167500000D02*
X203400000Y-167500000D01*
X234100000Y-151780000D02*
X231020000Y-151780000D01*
X198300000Y-167500000D02*
X195900000Y-165100000D01*
X195900000Y-165100000D02*
X195900000Y-142900000D01*
X210487500Y-170999999D02*
X212107500Y-170999999D01*
X210487500Y-169907499D02*
X210180000Y-169599999D01*
X210180000Y-169415613D02*
X208264387Y-167500000D01*
X195900000Y-142900000D02*
X200000000Y-138800000D01*
D132*
X210868797Y-147363437D02*
X212059449Y-146172785D01*
D131*
X210487500Y-170999999D02*
X210487500Y-169907499D01*
D132*
X216500000Y-145000000D02*
X214700000Y-146800000D01*
X216800000Y-142800000D02*
X216639411Y-142639411D01*
X215902081Y-144097919D02*
X216500000Y-144695838D01*
X216500000Y-144695838D02*
X216500000Y-145000000D01*
X216800000Y-143200000D02*
X216800000Y-142800000D01*
X215902081Y-144097919D02*
X216800000Y-143200000D01*
X214260660Y-146800000D02*
X213473662Y-147586998D01*
X214700000Y-146800000D02*
X214260660Y-146800000D01*
X212600000Y-143200000D02*
X212600000Y-142757644D01*
X213144365Y-143744365D02*
X212600000Y-143200000D01*
X212600000Y-144700000D02*
X214000000Y-146100000D01*
X213144365Y-143744365D02*
X212600000Y-144288730D01*
X212600000Y-144288730D02*
X212600000Y-144700000D01*
X214000000Y-146353554D02*
X213120109Y-147233445D01*
X214000000Y-146100000D02*
X214000000Y-146353554D01*
X212600000Y-142757644D02*
X212121178Y-142278822D01*
X216300035Y-146199965D02*
X216321213Y-146199965D01*
X217350000Y-145171178D02*
X217060589Y-145460589D01*
X209600000Y-119100000D02*
X209400000Y-119100000D01*
X212766555Y-146879891D02*
X212198618Y-147447828D01*
X217900000Y-144100000D02*
X217350000Y-144650000D01*
X211820001Y-114000000D02*
X211820001Y-116879999D01*
X212198618Y-147447828D02*
X212198618Y-148524118D01*
X217350000Y-144650000D02*
X217350000Y-145171178D01*
X214400000Y-135100000D02*
X217900000Y-138600000D01*
X212198618Y-148524118D02*
X212300000Y-148625500D01*
X216321213Y-146199965D02*
X217060589Y-145460589D01*
X211820001Y-116879999D02*
X209600000Y-119100000D01*
X217900000Y-138600000D02*
X217900000Y-144100000D01*
X211820001Y-116879999D02*
X211800000Y-116900000D01*
X208600000Y-188000000D02*
X208600000Y-189175000D01*
X212600001Y-191699999D02*
X212700000Y-191600000D01*
X207400000Y-188000000D02*
X208600000Y-188000000D01*
X239700000Y-145710000D02*
X239700000Y-146300000D01*
D133*
X208600000Y-189175000D02*
X209425000Y-189175000D01*
D132*
X239550000Y-151150000D02*
X240620000Y-151150000D01*
X240620000Y-151150000D02*
X241175000Y-151705000D01*
D133*
X209425000Y-189175000D02*
X212200000Y-186400000D01*
X232200000Y-172100000D02*
X232200000Y-169600000D01*
X232200000Y-169600000D02*
X229866465Y-167266465D01*
D132*
X205500000Y-186879999D02*
X206279999Y-186879999D01*
X206279999Y-186879999D02*
X207400000Y-188000000D01*
X212110000Y-191699999D02*
X212600001Y-191699999D01*
D133*
X229866465Y-167266465D02*
X229866465Y-165345145D01*
X212200000Y-186400000D02*
X217900000Y-186400000D01*
X217900000Y-186400000D02*
X232200000Y-172100000D01*
D132*
X268252286Y-147109408D02*
X267270957Y-139819536D01*
X268286260Y-138332767D02*
X269463156Y-138046405D01*
X267134364Y-150369130D02*
X265759364Y-151719130D01*
X268286257Y-138332757D02*
G75*
G03*
X267270957Y-139819536I318043J-1307243D01*
G01*
X267134390Y-150369157D02*
G75*
G03*
X268252285Y-147109408I-2696390J2746257D01*
G01*
X213700000Y-157600000D02*
X214100000Y-158000000D01*
X223900000Y-153500000D02*
X224800000Y-154400000D01*
X224800000Y-154400000D02*
X257700000Y-154400000D01*
X272100000Y-148500000D02*
X270678494Y-148500000D01*
X213300000Y-155500000D02*
X213700000Y-155900000D01*
X213700000Y-155900000D02*
X213700000Y-157600000D01*
X211352342Y-154534322D02*
X212318020Y-155500000D01*
X213000000Y-155500000D02*
X213300000Y-155500000D01*
X212318020Y-155500000D02*
X213000000Y-155500000D01*
X270678494Y-148500000D02*
X270659364Y-148519130D01*
X257700000Y-154400000D02*
X262400000Y-149700000D01*
D134*
X183100000Y-130741500D02*
X183200000Y-130641500D01*
D135*
X183100000Y-130741500D02*
X183100000Y-124600000D01*
X183100000Y-124600000D02*
X183200000Y-124500000D01*
X222800000Y-122340226D02*
X225413775Y-124954001D01*
X227400000Y-114300000D02*
X222800000Y-118900000D01*
X222800000Y-118900000D02*
X222800000Y-122340226D01*
D132*
X221200000Y-164600000D02*
X221910043Y-164600000D01*
X220900000Y-164927307D02*
X220378298Y-165449009D01*
X220378298Y-165449009D02*
X219600000Y-166227307D01*
X219600000Y-172167767D02*
X224114035Y-176681802D01*
X221910043Y-164600000D02*
X222819577Y-163690466D01*
X220378298Y-165449009D02*
X220378298Y-165421702D01*
X220378298Y-165421702D02*
X221200000Y-164600000D01*
X219600000Y-166227307D02*
X219600000Y-172167767D01*
X221200000Y-167286821D02*
X221200000Y-172000001D01*
X223717603Y-164769218D02*
X221758055Y-166728766D01*
X221200000Y-172000001D02*
X224997918Y-175797919D01*
X221758055Y-166728766D02*
X221200000Y-167286821D01*
X223717603Y-164588492D02*
X223717603Y-164769218D01*
X215439376Y-153339376D02*
X215000000Y-152900000D01*
X215439376Y-153339376D02*
X214539376Y-154239376D01*
X215000000Y-152900000D02*
X214800000Y-152900000D01*
X212300000Y-156189088D02*
X212300000Y-156200000D01*
X210998788Y-154887876D02*
X212300000Y-156189088D01*
X207600000Y-154874874D02*
X207600000Y-155300000D01*
X208294105Y-154180769D02*
X207600000Y-154874874D01*
X208760001Y-107360001D02*
X208760001Y-105500000D01*
X215900000Y-108000000D02*
X209400000Y-108000000D01*
X216400000Y-115900000D02*
X216400000Y-108500000D01*
X216400000Y-108500000D02*
X215900000Y-108000000D01*
X209400000Y-108000000D02*
X208760001Y-107360001D01*
X215900000Y-116400000D02*
X216400000Y-115900000D01*
X213120109Y-152766555D02*
X212500000Y-152146446D01*
X215300000Y-116400000D02*
X215900000Y-116400000D01*
X212500000Y-152146446D02*
X212500000Y-151400000D01*
X215300000Y-117700000D02*
X216600000Y-117700000D01*
X216600000Y-117700000D02*
X217400000Y-116900000D01*
X217400000Y-116900000D02*
X217400000Y-107900000D01*
X216600000Y-107100000D02*
X211800000Y-107100000D01*
X212046446Y-152400000D02*
X211200000Y-152400000D01*
X212766555Y-153120109D02*
X212046446Y-152400000D01*
X211300001Y-106600001D02*
X211300001Y-105500000D01*
X217400000Y-107900000D02*
X216600000Y-107100000D01*
X211800000Y-107100000D02*
X211300001Y-106600001D01*
X219459060Y-164529771D02*
X219459060Y-164440940D01*
X222479303Y-167450014D02*
X222549986Y-167450014D01*
X222549986Y-167450014D02*
X223100000Y-166900000D01*
X220350000Y-163550000D02*
X220400000Y-163500000D01*
X219459060Y-164440940D02*
X220350000Y-163550000D01*
D131*
X208619999Y-172999999D02*
X210512500Y-172999999D01*
D132*
X235210000Y-145710000D02*
X235800000Y-145710000D01*
X234975001Y-145475001D02*
X235210000Y-145710000D01*
X234100000Y-145475001D02*
X234975001Y-145475001D01*
X203100000Y-154300000D02*
X202656847Y-154743153D01*
X203839376Y-153960624D02*
X203500000Y-154300000D01*
X203500000Y-154300000D02*
X203100000Y-154300000D01*
X203839376Y-153921248D02*
X203839376Y-153960624D01*
X204400000Y-155200000D02*
X204400000Y-155600000D01*
X204400000Y-155600000D02*
X203956847Y-156043153D01*
X204778752Y-154821248D02*
X204400000Y-155200000D01*
X238400000Y-145710000D02*
X238400000Y-146500000D01*
X240700000Y-147000000D02*
X241150000Y-146550000D01*
X241150000Y-146550000D02*
X241150000Y-145999999D01*
X238400000Y-146500000D02*
X238900000Y-147000000D01*
X238900000Y-147000000D02*
X240700000Y-147000000D01*
X200900000Y-139600000D02*
X200900000Y-119700000D01*
X200900000Y-119700000D02*
X201500000Y-119100000D01*
X203610000Y-120500000D02*
X203610000Y-121700000D01*
X206665507Y-146311953D02*
X206665507Y-145365507D01*
X203200000Y-119100000D02*
X203610000Y-119510000D01*
X203610000Y-119510000D02*
X203610000Y-120500000D01*
X206665507Y-145365507D02*
X200900000Y-139600000D01*
X201500000Y-119100000D02*
X203200000Y-119100000D01*
X207233445Y-146879891D02*
X206665507Y-146311953D01*
X205939340Y-153000000D02*
X206526338Y-152413002D01*
X204760624Y-153000000D02*
X205939340Y-153000000D01*
X204560624Y-153200000D02*
X204760624Y-153000000D01*
X205500000Y-154100000D02*
X205546446Y-154100000D01*
X205546446Y-154100000D02*
X206879891Y-152766555D01*
X206879891Y-147233445D02*
X207800000Y-148153554D01*
X234900000Y-141900000D02*
X235800000Y-142800000D01*
X216600000Y-149400000D02*
X218400000Y-149400000D01*
X235800000Y-142800000D02*
X235800000Y-144690000D01*
X218400000Y-149400000D02*
X225900000Y-141900000D01*
X238400000Y-144690000D02*
X237100000Y-144690000D01*
X225900000Y-141900000D02*
X234900000Y-141900000D01*
X235800000Y-144690000D02*
X237100000Y-144690000D01*
X207800000Y-148153554D02*
X207800000Y-148200000D01*
X209950001Y-191849999D02*
X209438000Y-191849999D01*
X211090000Y-191699999D02*
X210100000Y-191700000D01*
X210100000Y-191700000D02*
X209950001Y-191849999D01*
X210400000Y-189700000D02*
X209438000Y-190662000D01*
X209438000Y-190662000D02*
X209438000Y-190849999D01*
X211080000Y-189699999D02*
X210400000Y-189700000D01*
X219500000Y-110300000D02*
X222400000Y-107400000D01*
X234800000Y-115200000D02*
X235600000Y-116000000D01*
X207400000Y-143500000D02*
X207400000Y-143510912D01*
X235600000Y-116000000D02*
X236784219Y-116000000D01*
X219500000Y-124300000D02*
X219500000Y-110300000D01*
X209100000Y-140100000D02*
X209100000Y-134700000D01*
X209100000Y-134700000D02*
X219500000Y-124300000D01*
X233900000Y-107400000D02*
X234800000Y-108300000D01*
X234800000Y-108300000D02*
X234800000Y-115200000D01*
X222400000Y-107400000D02*
X233900000Y-107400000D01*
X207400000Y-143510912D02*
X209001212Y-145112124D01*
X236784219Y-116000000D02*
X237953383Y-114830836D01*
X210998788Y-145112124D02*
X207900000Y-142013336D01*
X236770175Y-113770175D02*
X236892722Y-113770175D01*
X207900000Y-134300000D02*
X218500000Y-123700000D01*
X235000000Y-106300000D02*
X235900000Y-107200000D01*
X235900000Y-107200000D02*
X235900000Y-112900000D01*
X207900000Y-142013336D02*
X207900000Y-134300000D01*
X235900000Y-112900000D02*
X236770175Y-113770175D01*
X221500000Y-106300000D02*
X235000000Y-106300000D01*
X218500000Y-109300000D02*
X221500000Y-106300000D01*
X218500000Y-123700000D02*
X218500000Y-109300000D01*
X210922703Y-149922703D02*
X210125500Y-149125500D01*
X237435000Y-150435000D02*
X238200000Y-151200000D01*
X226700000Y-150700000D02*
X215500000Y-150700000D01*
X214722703Y-149922703D02*
X210922703Y-149922703D01*
X236225000Y-150435000D02*
X237435000Y-150435000D01*
X210125500Y-147399626D02*
X211705895Y-145819231D01*
X215500000Y-150700000D02*
X214722703Y-149922703D01*
X237700000Y-152900000D02*
X228900000Y-152900000D01*
X210125500Y-149125500D02*
X210125500Y-147399626D01*
X238200000Y-151200000D02*
X238200000Y-152400000D01*
X228900000Y-152900000D02*
X226700000Y-150700000D01*
X238200000Y-152400000D02*
X237700000Y-152900000D01*
X210418020Y-146400000D02*
X211352342Y-145465678D01*
X210300000Y-146400000D02*
X210418020Y-146400000D01*
X186661500Y-146400000D02*
X188700000Y-146400000D01*
X186600000Y-146461500D02*
X186661500Y-146400000D01*
X210077297Y-154306765D02*
X210077297Y-157677297D01*
X210800000Y-150800000D02*
X210300000Y-151300000D01*
X210300000Y-151300000D02*
X210300000Y-154084062D01*
X161698500Y-161800000D02*
X163200000Y-161800000D01*
X214180769Y-151705895D02*
X213546577Y-151071703D01*
X161600000Y-161701500D02*
X161698500Y-161800000D01*
X210077297Y-157677297D02*
X210100000Y-157700000D01*
X166300000Y-164900000D02*
X169400000Y-164900000D01*
X166100000Y-164700000D02*
X166300000Y-164900000D01*
X212800000Y-150800000D02*
X210800000Y-150800000D01*
X210300000Y-154084062D02*
X210077297Y-154306765D01*
X163200000Y-161800000D02*
X166100000Y-164700000D01*
X213071703Y-151071703D02*
X212800000Y-150800000D01*
X213546577Y-151071703D02*
X213071703Y-151071703D01*
X164600000Y-156500000D02*
X161721500Y-156500000D01*
X165900000Y-162400000D02*
X165900000Y-157800000D01*
X207586998Y-146526338D02*
X209627796Y-148567136D01*
X161721500Y-156500000D02*
X161600000Y-156621500D01*
X209000000Y-152600000D02*
X209024454Y-152575546D01*
X209627796Y-148567136D02*
X209627796Y-151906515D01*
X209627796Y-151906515D02*
X209024454Y-152509857D01*
X165900000Y-157800000D02*
X164600000Y-156500000D01*
X209024454Y-152575546D02*
X209024454Y-152509857D01*
X205600000Y-146660660D02*
X205600000Y-146600000D01*
X188700000Y-148900000D02*
X186701500Y-148900000D01*
X186701500Y-148900000D02*
X186600000Y-149001500D01*
X206526338Y-147586998D02*
X205600000Y-146660660D01*
X202958500Y-151541500D02*
X204569412Y-151541500D01*
X188658500Y-151541500D02*
X188700000Y-151500000D01*
X186600000Y-151541500D02*
X188658500Y-151541500D01*
X204569412Y-151541500D02*
X205112124Y-150998788D01*
X188400000Y-159100000D02*
X186661500Y-159100000D01*
X186661500Y-159100000D02*
X186600000Y-159161500D01*
X205465678Y-151352342D02*
X206500000Y-150318020D01*
X206500000Y-150318020D02*
X206500000Y-150100000D01*
X186621500Y-156600000D02*
X186600000Y-156621500D01*
X205819231Y-151705895D02*
X206825126Y-150700000D01*
X206825126Y-150700000D02*
X207100000Y-150700000D01*
X189600000Y-157400000D02*
X188800000Y-156600000D01*
X188800000Y-156600000D02*
X186621500Y-156600000D01*
X189600000Y-160000000D02*
X189600000Y-157400000D01*
X190900000Y-160900000D02*
X190900000Y-155100000D01*
X206932234Y-151300000D02*
X207600000Y-151300000D01*
X189881500Y-154081500D02*
X186600000Y-154081500D01*
X190900000Y-155100000D02*
X189881500Y-154081500D01*
X206172785Y-152059449D02*
X206932234Y-151300000D01*
X161638500Y-159200000D02*
X161600000Y-159161500D01*
X163800000Y-159200000D02*
X161638500Y-159200000D01*
X207233445Y-153120109D02*
X208353554Y-152000000D01*
X208353554Y-152000000D02*
X208400000Y-152000000D01*
X218000000Y-162100000D02*
X220807738Y-159292262D01*
X205300000Y-162100000D02*
X218000000Y-162100000D01*
X220807738Y-159292262D02*
X225421730Y-159292262D01*
X203900000Y-157232076D02*
X205350499Y-155781577D01*
X205350499Y-155710161D02*
X207586998Y-153473662D01*
X203900000Y-158500000D02*
X203900000Y-157232076D01*
X203700000Y-160500000D02*
X205300000Y-162100000D01*
X205350499Y-155781577D02*
X205350499Y-155710161D01*
X204900000Y-160500000D02*
X205700000Y-161300000D01*
X229800000Y-159200000D02*
X229800000Y-160300000D01*
X205700000Y-161300000D02*
X217500000Y-161300000D01*
X222200000Y-156600000D02*
X227200000Y-156600000D01*
X229800000Y-160300000D02*
X228115807Y-161984193D01*
X207940551Y-153827215D02*
X206900000Y-154867766D01*
X206900000Y-154867766D02*
X206900000Y-155600000D01*
X228115807Y-161984193D02*
X228115807Y-161986339D01*
X217500000Y-161300000D02*
X222200000Y-156600000D01*
X227200000Y-156600000D02*
X229800000Y-159200000D01*
X202550000Y-121740000D02*
X202550000Y-125300000D01*
X202590000Y-121700000D02*
X202550000Y-121740000D01*
X214200000Y-153500000D02*
X214200000Y-153139340D01*
X214348457Y-154960624D02*
X213800000Y-154412167D01*
X213800000Y-154412167D02*
X213800000Y-153900000D01*
X214200000Y-153139340D02*
X213473662Y-152413002D01*
X215260624Y-154960624D02*
X214348457Y-154960624D01*
X213800000Y-153900000D02*
X214200000Y-153500000D01*
X215300000Y-192500000D02*
X215300000Y-192300000D01*
X215000000Y-192800000D02*
X215300000Y-192500000D01*
X209588001Y-192500000D02*
X209438000Y-192349999D01*
X214510000Y-192800000D02*
X215000000Y-192800000D01*
X210300000Y-192500000D02*
X209588001Y-192500000D01*
X211120000Y-190699999D02*
X210464311Y-190699999D01*
X209814311Y-191349999D02*
X209438000Y-191349999D01*
X210464311Y-190699999D02*
X209814311Y-191349999D01*
X208500000Y-192100000D02*
X208249999Y-191849999D01*
X209100000Y-193100000D02*
X208500000Y-192500000D01*
X211120000Y-192799999D02*
X210819999Y-193100000D01*
X210819999Y-193100000D02*
X209100000Y-193100000D01*
X208249999Y-191849999D02*
X207762000Y-191849999D01*
X208500000Y-192500000D02*
X208500000Y-192100000D01*
X212080000Y-192799999D02*
X213490000Y-192800000D01*
X214480000Y-189700001D02*
X214480000Y-190670001D01*
X212300000Y-189000000D02*
X214300000Y-189000000D01*
X212100000Y-189699999D02*
X212100000Y-189200000D01*
X214480000Y-189180000D02*
X214480000Y-189700001D01*
X213490000Y-191700000D02*
X213490000Y-191810000D01*
X213490000Y-191700000D02*
X213510001Y-191700000D01*
X213510001Y-191700000D02*
X214510000Y-190700001D01*
X212100000Y-189200000D02*
X212300000Y-189000000D01*
X214480000Y-190670001D02*
X214510000Y-190700001D01*
X214300000Y-189000000D02*
X214500000Y-189200000D01*
X265287957Y-128479817D02*
X266466551Y-127940504D01*
X266051318Y-139333897D02*
X265193272Y-142048665D01*
X265925092Y-133947535D02*
X264557441Y-130235340D01*
X266051293Y-139333889D02*
G75*
G03*
X265925091Y-133947535I-7937093J2508689D01*
G01*
X265287971Y-128479847D02*
G75*
G03*
X264557441Y-130235340I582029J-1271953D01*
G01*
X262142059Y-123510289D02*
X260570066Y-120501047D01*
X263282942Y-129471275D02*
X262956521Y-132623420D01*
X260934981Y-119063809D02*
X261760599Y-118508489D01*
X262142057Y-123510290D02*
G75*
G02*
X263282942Y-129471275I-9334457J-4876210D01*
G01*
X260570071Y-120501044D02*
G75*
G02*
X260934981Y-119063809I985429J514744D01*
G01*
X259413219Y-121374450D02*
X259117075Y-123729771D01*
X258296966Y-117111154D02*
X254591653Y-112105731D01*
X254748827Y-110678039D02*
X255488291Y-110036948D01*
X258296961Y-117111157D02*
G75*
G02*
X259413219Y-121374450I-4760961J-3524343D01*
G01*
X254591622Y-112105754D02*
G75*
G02*
X254748827Y-110678040I849678J628954D01*
G01*
X247491127Y-104944080D02*
X250634339Y-107825357D01*
X253300478Y-112728540D02*
X253791593Y-115637950D01*
X247324784Y-103551206D02*
X247840205Y-102783283D01*
X247324805Y-103551220D02*
G75*
G03*
X247491127Y-104944080I893395J-599680D01*
G01*
X253300500Y-112728536D02*
G75*
G03*
X250634339Y-107825357I-8471600J-1430064D01*
G01*
X246325625Y-105856475D02*
X247141887Y-108593821D01*
X238955469Y-98989278D02*
X243092689Y-101596294D01*
X238629043Y-97743512D02*
X239048723Y-96967895D01*
X243092693Y-101596288D02*
G75*
G02*
X246325625Y-105856475I-4053693J-6433012D01*
G01*
X238629070Y-97743527D02*
G75*
G03*
X238955469Y-98989277I828830J-448473D01*
G01*
X238339684Y-100415274D02*
X239370005Y-102811419D01*
X229521506Y-94537499D02*
X234928213Y-96954615D01*
X229095168Y-93493304D02*
X229380973Y-92767479D01*
X229095209Y-93493320D02*
G75*
G03*
X229521506Y-94537499I759391J-299080D01*
G01*
X238339690Y-100415272D02*
G75*
G03*
X234928213Y-96954616I-6138590J-2639528D01*
G01*
X219602757Y-91886763D02*
X225438491Y-93297600D01*
X229360727Y-96192783D02*
X230712091Y-98466437D01*
X219020034Y-91014397D02*
X219130705Y-90309665D01*
X219602754Y-91886774D02*
G75*
G02*
X219020035Y-91014397I181846J752274D01*
G01*
X225438497Y-93297575D02*
G75*
G02*
X229360726Y-96192783I-1475597J-6103425D01*
G01*
X219620288Y-93605013D02*
X221431213Y-95690897D01*
X215048521Y-91429102D02*
X209383952Y-91244388D01*
X208609364Y-90444130D02*
X208609364Y-89669130D01*
X209383954Y-91244312D02*
G75*
G02*
X208609364Y-90444130I26046J800212D01*
G01*
X219620295Y-93605007D02*
G75*
G03*
X215048521Y-91429102I-4777995J-4148193D01*
G01*
X209609364Y-92944130D02*
X211809364Y-94569130D01*
X198323001Y-91692234D02*
X198136639Y-90865338D01*
X204698818Y-91684596D02*
X199349399Y-92405866D01*
X209609348Y-92944151D02*
G75*
G03*
X204698818Y-91684597I-4008948J-5427449D01*
G01*
X199349395Y-92405833D02*
G75*
G02*
X198323001Y-91692234I-123695J917033D01*
G01*
X188270051Y-94590536D02*
X188030738Y-93861943D01*
X199774131Y-93927176D02*
X202138899Y-95135222D01*
X189245485Y-95104083D02*
X194860437Y-93463760D01*
X188270084Y-94590525D02*
G75*
G03*
X189245485Y-95104082I753116J247325D01*
G01*
X199774124Y-93927191D02*
G75*
G03*
X194860437Y-93463761I-3039924J-5950609D01*
G01*
X179104043Y-99343512D02*
X178598723Y-98567895D01*
X190111509Y-96545551D02*
X192713654Y-97371973D01*
X180418093Y-99668698D02*
X185124143Y-97047607D01*
X185124139Y-97047601D02*
G75*
G02*
X190111509Y-96545551I3074661J-5520399D01*
G01*
X179104003Y-99343538D02*
G75*
G03*
X180418093Y-99668698I831297J541638D01*
G01*
X181214684Y-100915274D02*
X183820005Y-101211419D01*
X170768273Y-105529666D02*
X170127182Y-104840203D01*
X172152512Y-105641125D02*
X176539605Y-102228942D01*
X181214686Y-100915257D02*
G75*
G03*
X176539605Y-102228942I-726386J-6390543D01*
G01*
X170768316Y-105529626D02*
G75*
G03*
X172152512Y-105641124I752984J700126D01*
G01*
X163703297Y-113213063D02*
X163109364Y-112619130D01*
X173168774Y-106678015D02*
X175728184Y-106536901D01*
X168796839Y-108631654D02*
X164215430Y-113213063D01*
X164215448Y-113213081D02*
G75*
G02*
X163959364Y-113319130I-256048J256081D01*
G01*
X168796845Y-108631660D02*
G75*
G02*
X173168774Y-106678016I4741055J-4741040D01*
G01*
X163703315Y-113213045D02*
G75*
G03*
X163959364Y-113319130I256085J256045D01*
G01*
X159048672Y-121280717D02*
X161914816Y-116463156D01*
X157833746Y-121649450D02*
X157058129Y-121279771D01*
X165996709Y-113652868D02*
X168684055Y-113186607D01*
X161914846Y-116463174D02*
G75*
G02*
X165996709Y-113652868I5095454J-3031426D01*
G01*
X159048692Y-121280729D02*
G75*
G02*
X157833746Y-121649449I-809592J481629D01*
G01*
X157076070Y-125292912D02*
X154732998Y-130675645D01*
X160505508Y-121938809D02*
X162901653Y-120958489D01*
X153633538Y-131183325D02*
X152857713Y-130947521D01*
X154733019Y-130675654D02*
G75*
G02*
X153633538Y-131183325I-834719J363354D01*
G01*
X157076106Y-125292928D02*
G75*
G02*
X160505508Y-121938809I5842094J-2542972D01*
G01*
X151254631Y-141358459D02*
X150399899Y-141197789D01*
X152302905Y-140671235D02*
X153639784Y-134814431D01*
X156383017Y-130967766D02*
X158556671Y-129616403D01*
X152302854Y-140671223D02*
G75*
G02*
X151254631Y-141358458I-881254J201123D01*
G01*
X153639810Y-134814437D02*
G75*
G02*
X156383017Y-130967767I5983890J-1365863D01*
G01*
X150684364Y-151719130D02*
X149759364Y-151719130D01*
X153945247Y-140708205D02*
X155781131Y-138897281D01*
X151659561Y-150795493D02*
X151969421Y-145094073D01*
X153945252Y-140708210D02*
G75*
G03*
X151969421Y-145094073I4683248J-4747790D01*
G01*
X150684364Y-151719099D02*
G75*
G03*
X151659560Y-150795493I36J976599D01*
G01*
X151832468Y-162005492D02*
X150955572Y-162191855D01*
X153134364Y-150769130D02*
X154659364Y-148519130D01*
X151946504Y-155716250D02*
X152598169Y-160929572D01*
X153134379Y-150769140D02*
G75*
G03*
X151946505Y-155716250I5977521J-4051460D01*
G01*
X151832463Y-162005468D02*
G75*
G03*
X152598169Y-160929572I-202963J954868D01*
G01*
X155279966Y-170920827D02*
X153743133Y-165572647D01*
X154730770Y-172008443D02*
X153952177Y-172297756D01*
X154117410Y-160604362D02*
X155225456Y-158189595D01*
X154730751Y-172008393D02*
G75*
G03*
X155279966Y-170920827I-312151J840093D01*
G01*
X153743138Y-165572646D02*
G75*
G02*
X154117410Y-160604362I6888062J1979346D01*
G01*
X156785785Y-170266985D02*
X157462207Y-167614840D01*
X159433746Y-181324450D02*
X158658129Y-181729771D01*
X157357705Y-175354917D02*
X159810221Y-180140315D01*
X159810275Y-180140287D02*
G75*
G02*
X159433746Y-181324450I-785075J-402313D01*
G01*
X156785758Y-170266978D02*
G75*
G03*
X157357705Y-175354917I7010742J-1788022D01*
G01*
X165729870Y-188570925D02*
X162424865Y-184103048D01*
X161055508Y-179213809D02*
X161301653Y-176508489D01*
X165569900Y-189710221D02*
X164930437Y-190201312D01*
X162424841Y-184103066D02*
G75*
G02*
X161055509Y-179213809I5735659J4242766D01*
G01*
X165569869Y-189710181D02*
G75*
G03*
X165729870Y-188570925I-499969J651081D01*
G01*
X173090434Y-195654811D02*
X168914212Y-191847079D01*
X173143943Y-196837053D02*
X172578523Y-197454977D01*
X166768249Y-187309720D02*
X166627135Y-184600310D01*
X168914188Y-191847106D02*
G75*
G02*
X166768250Y-187309720I4450312J4880906D01*
G01*
X173143901Y-196837015D02*
G75*
G03*
X173090434Y-195654811I-616801J564415D01*
G01*
X181739684Y-202544747D02*
X181370005Y-203270365D01*
X173943102Y-194231784D02*
X173276841Y-191644439D01*
X176832396Y-198301151D02*
X181431774Y-201367403D01*
X173943120Y-194231779D02*
G75*
G03*
X176832396Y-198301151I6763280J1741579D01*
G01*
X181431747Y-201367443D02*
G75*
G02*
X181739684Y-202544747I-507847J-761757D01*
G01*
X182129043Y-199872985D02*
X181048723Y-197426841D01*
X185662623Y-203383194D02*
X190765455Y-205596470D01*
X191273559Y-206694955D02*
X191037755Y-207470781D01*
X190765433Y-205596522D02*
G75*
G02*
X191273559Y-206694955I-361733J-834078D01*
G01*
X185662633Y-203383172D02*
G75*
G02*
X182129043Y-199872985I2720467J6272272D01*
G01*
X191108000Y-203945476D02*
X189706637Y-201771823D01*
X195023175Y-206726864D02*
X200811727Y-208126294D01*
X201448693Y-209123862D02*
X201288023Y-209928595D01*
X195023172Y-206726876D02*
G75*
G02*
X191108001Y-203945476I1519528J6285176D01*
G01*
X201448689Y-209123861D02*
G75*
G03*
X200811727Y-208126294I-837689J167261D01*
G01*
X200948439Y-206483246D02*
X198987515Y-204547363D01*
X210783551Y-208687568D02*
X205663280Y-208513013D01*
X211759364Y-209644130D02*
X211809364Y-210569130D01*
X211759345Y-209644131D02*
G75*
G03*
X210783551Y-208687569I-1010245J-54569D01*
G01*
X205663280Y-208513021D02*
G75*
G02*
X200948439Y-206483246I240320J7049021D01*
G01*
X222095726Y-208596026D02*
X222282089Y-209372922D01*
X215838276Y-208509026D02*
X221115537Y-207909337D01*
X210859364Y-207244130D02*
X208609364Y-205669130D01*
X221115537Y-207909333D02*
G75*
G02*
X222095726Y-208596026I101963J-897367D01*
G01*
X210859355Y-207244143D02*
G75*
G03*
X215838276Y-208509026I4159845J5942643D01*
G01*
X231998677Y-205697723D02*
X232387990Y-206376317D01*
X220644596Y-206361084D02*
X218279829Y-205103038D01*
X225573333Y-206843976D02*
X230860500Y-205245530D01*
X225573342Y-206844005D02*
G75*
G02*
X220644596Y-206361084I-1879042J6215405D01*
G01*
X230860482Y-205245470D02*
G75*
G02*
X231998677Y-205697723I284718J-941830D01*
G01*
X239054043Y-199422985D02*
X236598723Y-199026841D01*
X249800455Y-194758593D02*
X250291546Y-195398057D01*
X243517404Y-198351715D02*
X248658382Y-194594847D01*
X248658403Y-194594876D02*
G75*
G02*
X249800454Y-194758594I487197J-666624D01*
G01*
X239054039Y-199423011D02*
G75*
G03*
X243517404Y-198351714I948761J5880711D01*
G01*
X247499954Y-193560244D02*
X244690544Y-193701359D01*
X256927287Y-187284550D02*
X257545211Y-187749971D01*
X255788989Y-187391542D02*
X252201560Y-191337714D01*
X256927276Y-187284565D02*
G75*
G03*
X255788990Y-187391543I-510476J-677735D01*
G01*
X252201546Y-191337701D02*
G75*
G02*
X247499954Y-193560244I-5043546J4585001D01*
G01*
X262684981Y-178588809D02*
X263360599Y-178958489D01*
X261599686Y-178871269D02*
X258565035Y-183701939D01*
X254422018Y-186535391D02*
X251734673Y-187051653D01*
X254422015Y-186535375D02*
G75*
G03*
X258565035Y-183701939I-1187615J6182175D01*
G01*
X261599644Y-178871243D02*
G75*
G02*
X262684981Y-178588810I692656J-435157D01*
G01*
X266785189Y-169004934D02*
X267561015Y-169290739D01*
X260063219Y-178199450D02*
X257517075Y-179279771D01*
X265699156Y-169485524D02*
X263647091Y-174555331D01*
X263647096Y-174555333D02*
G75*
G02*
X260063219Y-178199450I-6193796J2507033D01*
G01*
X266785193Y-169004924D02*
G75*
G03*
X265699156Y-169485524I-294993J-800776D01*
G01*
X264135710Y-169070493D02*
X261862057Y-170621857D01*
X267048269Y-164841812D02*
X268330250Y-159469699D01*
X269264096Y-158879800D02*
X270018829Y-159040471D01*
X268330173Y-159469681D02*
G75*
G02*
X269264096Y-158879800I769227J-183619D01*
G01*
X267048273Y-164841813D02*
G75*
G02*
X264135710Y-169070493I-6925573J1652713D01*
G01*
X239936672Y-200728749D02*
X234642935Y-203535067D01*
X241264684Y-200994747D02*
X241820005Y-201670365D01*
X230057219Y-203792708D02*
X227705074Y-202866287D01*
X241264659Y-200994767D02*
G75*
G03*
X239936672Y-200728749I-826759J-679533D01*
G01*
X234642946Y-203535087D02*
G75*
G02*
X230057219Y-203792707I-2572746J4853187D01*
G01*
X245525000Y-150200000D02*
X245600000Y-150200000D01*
X242090000Y-144690000D02*
X242450000Y-145050000D01*
X243600000Y-145600000D02*
X243200000Y-146000000D01*
X244300000Y-148975000D02*
X245525000Y-150200000D01*
X243200000Y-146000000D02*
X242450000Y-145999999D01*
X239700000Y-144690000D02*
X242090000Y-144690000D01*
X242450000Y-145050000D02*
X242450000Y-145999999D01*
G04 #@! TA.AperFunction,Conductor*
G36*
X249850942Y-103676184D02*
G01*
X249979650Y-103697203D01*
X250005654Y-103704376D01*
X250129748Y-103753421D01*
X250153630Y-103765964D01*
X250270093Y-103844091D01*
X250280890Y-103852207D01*
X250615010Y-104132568D01*
X250625302Y-104142237D01*
X250718688Y-104240400D01*
X250735719Y-104262885D01*
X250801279Y-104373238D01*
X250812884Y-104398956D01*
X250852243Y-104521127D01*
X250857833Y-104548782D01*
X250869021Y-104676655D01*
X250868318Y-104704861D01*
X250850772Y-104832009D01*
X250843810Y-104859352D01*
X250798409Y-104979411D01*
X250785537Y-105004519D01*
X250710620Y-105117400D01*
X250702159Y-105128716D01*
X250646975Y-105194481D01*
X250637304Y-105204774D01*
X250539143Y-105298158D01*
X250516652Y-105315194D01*
X250406307Y-105380749D01*
X250380589Y-105392354D01*
X250258414Y-105431714D01*
X250230759Y-105437304D01*
X250102887Y-105448492D01*
X250074681Y-105447789D01*
X249998701Y-105437304D01*
X249947532Y-105430243D01*
X249920190Y-105423281D01*
X249838407Y-105392354D01*
X249800130Y-105377880D01*
X249775023Y-105365008D01*
X249662143Y-105290092D01*
X249650827Y-105281631D01*
X249316706Y-105001270D01*
X249306839Y-104992046D01*
X249294699Y-104979411D01*
X249209675Y-104890918D01*
X249193181Y-104869585D01*
X249186895Y-104859352D01*
X249123328Y-104755885D01*
X249111750Y-104731523D01*
X249068700Y-104608421D01*
X249061988Y-104576221D01*
X249053213Y-104458834D01*
X249056310Y-104420166D01*
X249082954Y-104308629D01*
X249097667Y-104272736D01*
X249162086Y-104166136D01*
X249173403Y-104150313D01*
X249180176Y-104142242D01*
X249417975Y-103858844D01*
X249431593Y-103844952D01*
X249525383Y-103763003D01*
X249558174Y-103742280D01*
X249663393Y-103696672D01*
X249700935Y-103686907D01*
X249818066Y-103675165D01*
X249850942Y-103676184D01*
G37*
G04 #@! TD.AperFunction*
G04 #@! TA.AperFunction,Conductor*
G36*
X262074232Y-180447233D02*
G01*
X262112130Y-180455489D01*
X262228310Y-180500424D01*
X262245838Y-180508813D01*
X262575359Y-180699061D01*
X262591402Y-180710058D01*
X262688394Y-180788196D01*
X262714495Y-180816891D01*
X262777680Y-180912588D01*
X262793816Y-180947864D01*
X262825719Y-181061173D01*
X262830425Y-181093728D01*
X262832075Y-181224132D01*
X262829527Y-181250987D01*
X262802775Y-181381716D01*
X262794569Y-181407413D01*
X262737854Y-181535669D01*
X262731737Y-181547711D01*
X262513659Y-181925434D01*
X262505920Y-181937255D01*
X262425469Y-182046264D01*
X262406279Y-182066946D01*
X262328842Y-182133585D01*
X262308983Y-182150675D01*
X262285671Y-182166568D01*
X262172194Y-182226543D01*
X262145930Y-182236852D01*
X262021943Y-182270074D01*
X261994044Y-182274279D01*
X261949156Y-182275958D01*
X261865775Y-182279078D01*
X261837640Y-182276969D01*
X261735877Y-182257715D01*
X261711523Y-182253107D01*
X261684566Y-182244793D01*
X261560384Y-182190613D01*
X261547772Y-182184245D01*
X261473431Y-182141324D01*
X261461610Y-182133585D01*
X261371319Y-182066948D01*
X261352598Y-182053132D01*
X261331917Y-182033942D01*
X261248190Y-181936648D01*
X261232297Y-181913336D01*
X261172322Y-181799859D01*
X261162013Y-181773594D01*
X261128791Y-181649608D01*
X261124586Y-181621708D01*
X261119787Y-181493440D01*
X261121896Y-181465305D01*
X261145758Y-181339189D01*
X261154072Y-181312231D01*
X261208252Y-181188049D01*
X261214620Y-181175437D01*
X261366375Y-180912588D01*
X261432703Y-180797705D01*
X261440066Y-180786399D01*
X261522788Y-180673145D01*
X261540937Y-180653192D01*
X261640778Y-180564659D01*
X261662755Y-180549029D01*
X261776519Y-180485252D01*
X261807057Y-180473054D01*
X261921146Y-180444026D01*
X261959759Y-180440362D01*
X262074232Y-180447233D01*
G37*
G04 #@! TD.AperFunction*
G04 #@! TA.AperFunction,Conductor*
G36*
X163164938Y-187183683D02*
G01*
X163192593Y-187189273D01*
X163314769Y-187228634D01*
X163340482Y-187240236D01*
X163450835Y-187305796D01*
X163473323Y-187322829D01*
X163571494Y-187416223D01*
X163581149Y-187426500D01*
X163644811Y-187502369D01*
X163861514Y-187760627D01*
X163869629Y-187771424D01*
X163947758Y-187887889D01*
X163960301Y-187911771D01*
X164009344Y-188035861D01*
X164016517Y-188061864D01*
X164037538Y-188190578D01*
X164038556Y-188223457D01*
X164026813Y-188340580D01*
X164017049Y-188378120D01*
X163971441Y-188483340D01*
X163950717Y-188516134D01*
X163868768Y-188609924D01*
X163854881Y-188623537D01*
X163728016Y-188729990D01*
X163586972Y-188848340D01*
X163563407Y-188868113D01*
X163547584Y-188879430D01*
X163440984Y-188943849D01*
X163405090Y-188958562D01*
X163293552Y-188985206D01*
X163254889Y-188988303D01*
X163137497Y-188979528D01*
X163105307Y-188972818D01*
X162982192Y-188929765D01*
X162957838Y-188918190D01*
X162844138Y-188848338D01*
X162822801Y-188831840D01*
X162721672Y-188734674D01*
X162712447Y-188724807D01*
X162432090Y-188390690D01*
X162423630Y-188379375D01*
X162348713Y-188266495D01*
X162335840Y-188241386D01*
X162290439Y-188121327D01*
X162283477Y-188093984D01*
X162277198Y-188048479D01*
X162265931Y-187966835D01*
X162265228Y-187938630D01*
X162276416Y-187810757D01*
X162282006Y-187783102D01*
X162321365Y-187660931D01*
X162332970Y-187635213D01*
X162398530Y-187524860D01*
X162415566Y-187502369D01*
X162487737Y-187426506D01*
X162508946Y-187404212D01*
X162519239Y-187394542D01*
X162585007Y-187339357D01*
X162596321Y-187330897D01*
X162709201Y-187255980D01*
X162734310Y-187243107D01*
X162741895Y-187240239D01*
X162854369Y-187197707D01*
X162881710Y-187190745D01*
X163008861Y-187173198D01*
X163037067Y-187172495D01*
X163164938Y-187183683D01*
G37*
G04 #@! TD.AperFunction*
G04 #@! TA.AperFunction,Conductor*
G36*
X158581088Y-117961291D02*
G01*
X158682851Y-117980545D01*
X158707205Y-117985153D01*
X158734162Y-117993467D01*
X158858343Y-118047647D01*
X158870956Y-118054015D01*
X158945297Y-118096936D01*
X158957118Y-118104675D01*
X159066130Y-118185128D01*
X159086811Y-118204318D01*
X159170538Y-118301612D01*
X159186431Y-118324924D01*
X159246406Y-118438401D01*
X159256715Y-118464666D01*
X159289937Y-118588652D01*
X159294142Y-118616552D01*
X159298941Y-118744820D01*
X159296832Y-118772955D01*
X159272970Y-118899071D01*
X159264656Y-118926029D01*
X159210476Y-119050210D01*
X159204108Y-119062823D01*
X158997103Y-119421369D01*
X158986029Y-119440549D01*
X158978662Y-119451861D01*
X158895942Y-119565113D01*
X158877793Y-119585066D01*
X158777950Y-119673601D01*
X158755973Y-119689231D01*
X158642210Y-119753007D01*
X158611671Y-119765206D01*
X158497582Y-119794234D01*
X158458969Y-119797898D01*
X158344496Y-119791027D01*
X158306598Y-119782771D01*
X158190418Y-119737836D01*
X158172890Y-119729447D01*
X157843369Y-119539199D01*
X157827326Y-119528202D01*
X157730334Y-119450064D01*
X157704233Y-119421369D01*
X157641048Y-119325672D01*
X157624912Y-119290396D01*
X157593009Y-119177087D01*
X157588303Y-119144532D01*
X157586653Y-119014128D01*
X157589201Y-118987273D01*
X157615953Y-118856544D01*
X157624159Y-118830847D01*
X157680874Y-118702591D01*
X157686991Y-118690549D01*
X157905069Y-118312826D01*
X157912808Y-118301005D01*
X157993259Y-118191996D01*
X158012449Y-118171314D01*
X158109745Y-118087585D01*
X158133057Y-118071692D01*
X158246534Y-118011717D01*
X158272798Y-118001408D01*
X158396786Y-117968186D01*
X158424684Y-117963981D01*
X158469572Y-117962302D01*
X158552953Y-117959182D01*
X158581088Y-117961291D01*
G37*
G04 #@! TD.AperFunction*
G04 #@! TA.AperFunction,Conductor*
G36*
X181217055Y-96330201D02*
G01*
X181261943Y-96331880D01*
X181289841Y-96336085D01*
X181413829Y-96369307D01*
X181440093Y-96379616D01*
X181553570Y-96439591D01*
X181576882Y-96455484D01*
X181674178Y-96539213D01*
X181693368Y-96559895D01*
X181773819Y-96668904D01*
X181781558Y-96680725D01*
X181824479Y-96755066D01*
X181830847Y-96767678D01*
X181885027Y-96891860D01*
X181893341Y-96918818D01*
X181917203Y-97044934D01*
X181919312Y-97073069D01*
X181914513Y-97201337D01*
X181910308Y-97229237D01*
X181877086Y-97353223D01*
X181866777Y-97379488D01*
X181806802Y-97492965D01*
X181790909Y-97516277D01*
X181707182Y-97613571D01*
X181686501Y-97632761D01*
X181622948Y-97679664D01*
X181577489Y-97713214D01*
X181565668Y-97720953D01*
X181187945Y-97939031D01*
X181175903Y-97945148D01*
X181047645Y-98001864D01*
X181021950Y-98010069D01*
X180891221Y-98036821D01*
X180864366Y-98039369D01*
X180764442Y-98038105D01*
X180733961Y-98037719D01*
X180701410Y-98033013D01*
X180588098Y-98001110D01*
X180552822Y-97984974D01*
X180457125Y-97921789D01*
X180428430Y-97895688D01*
X180350292Y-97798696D01*
X180339293Y-97782649D01*
X180299205Y-97713214D01*
X180149047Y-97453132D01*
X180140658Y-97435604D01*
X180095723Y-97319424D01*
X180087467Y-97281526D01*
X180080596Y-97167053D01*
X180084260Y-97128440D01*
X180113288Y-97014351D01*
X180125487Y-96983812D01*
X180161923Y-96918818D01*
X180189263Y-96870049D01*
X180204895Y-96848069D01*
X180281931Y-96761195D01*
X180293428Y-96748229D01*
X180313381Y-96730080D01*
X180426633Y-96647360D01*
X180437939Y-96639997D01*
X180635096Y-96526169D01*
X180815671Y-96421914D01*
X180828284Y-96415546D01*
X180952465Y-96361366D01*
X180979422Y-96353052D01*
X181003776Y-96348444D01*
X181105539Y-96329190D01*
X181133674Y-96327081D01*
X181217055Y-96330201D01*
G37*
G04 #@! TD.AperFunction*
G04 #@! TA.AperFunction,Conductor*
G36*
X221653093Y-90005835D02*
G01*
X221765453Y-90013406D01*
X221778856Y-90015035D01*
X221844554Y-90026619D01*
X222208397Y-90090775D01*
X222222152Y-90094005D01*
X222352099Y-90132321D01*
X222378095Y-90143279D01*
X222490053Y-90206069D01*
X222512953Y-90222534D01*
X222608131Y-90308663D01*
X222626798Y-90329814D01*
X222699329Y-90433400D01*
X222700423Y-90434962D01*
X222713916Y-90459740D01*
X222762296Y-90578629D01*
X222769938Y-90605791D01*
X222790649Y-90732468D01*
X222792055Y-90760647D01*
X222783616Y-90895857D01*
X222781947Y-90909887D01*
X222767040Y-90994433D01*
X222763810Y-91008189D01*
X222725494Y-91138136D01*
X222714534Y-91164136D01*
X222651747Y-91276085D01*
X222635277Y-91298993D01*
X222549150Y-91394170D01*
X222527999Y-91412837D01*
X222422851Y-91486462D01*
X222398073Y-91499955D01*
X222279184Y-91548335D01*
X222252025Y-91555977D01*
X222125342Y-91576689D01*
X222097170Y-91578095D01*
X221961956Y-91569656D01*
X221947939Y-91567988D01*
X221518380Y-91492246D01*
X221505241Y-91489195D01*
X221370521Y-91450195D01*
X221345564Y-91439964D01*
X221228228Y-91376429D01*
X221206018Y-91361119D01*
X221107183Y-91276032D01*
X221085270Y-91251503D01*
X221018973Y-91154226D01*
X221002323Y-91119191D01*
X220969629Y-91009274D01*
X220964425Y-90970834D01*
X220965783Y-90902921D01*
X220966914Y-90846312D01*
X220968803Y-90826950D01*
X221034874Y-90452241D01*
X221039721Y-90433400D01*
X221079973Y-90315534D01*
X221098011Y-90281193D01*
X221166326Y-90189088D01*
X221193955Y-90161861D01*
X221289518Y-90093129D01*
X221318498Y-90077574D01*
X221440479Y-90031420D01*
X221466586Y-90024629D01*
X221598576Y-90005056D01*
X221625530Y-90003978D01*
X221653093Y-90005835D01*
G37*
G04 #@! TD.AperFunction*
G04 #@! TA.AperFunction,Conductor*
G36*
X219814217Y-209068313D02*
G01*
X219946211Y-209087887D01*
X219972313Y-209094676D01*
X220094291Y-209140829D01*
X220123268Y-209156383D01*
X220218836Y-209225119D01*
X220246465Y-209252346D01*
X220314781Y-209344450D01*
X220332820Y-209378793D01*
X220373071Y-209496658D01*
X220377918Y-209515498D01*
X220443990Y-209890207D01*
X220445879Y-209909569D01*
X220447011Y-209966180D01*
X220448368Y-210034093D01*
X220443165Y-210072529D01*
X220410467Y-210182454D01*
X220393818Y-210217484D01*
X220327523Y-210314760D01*
X220305610Y-210339290D01*
X220206778Y-210424374D01*
X220184568Y-210439684D01*
X220067229Y-210503221D01*
X220042272Y-210513452D01*
X219907552Y-210552452D01*
X219894413Y-210555503D01*
X219464852Y-210631246D01*
X219450839Y-210632913D01*
X219315623Y-210641352D01*
X219287451Y-210639946D01*
X219160768Y-210619234D01*
X219133609Y-210611592D01*
X219014720Y-210563212D01*
X218989942Y-210549719D01*
X218884794Y-210476094D01*
X218863643Y-210457427D01*
X218777516Y-210362250D01*
X218761046Y-210339342D01*
X218698259Y-210227393D01*
X218687299Y-210201394D01*
X218681713Y-210182448D01*
X218648981Y-210071440D01*
X218645753Y-210057691D01*
X218645053Y-210053718D01*
X218630846Y-209973144D01*
X218629177Y-209959115D01*
X218620738Y-209823905D01*
X218622144Y-209795726D01*
X218642855Y-209669049D01*
X218650497Y-209641887D01*
X218698877Y-209522998D01*
X218712370Y-209498220D01*
X218713464Y-209496658D01*
X218785995Y-209393072D01*
X218804662Y-209371921D01*
X218899839Y-209285794D01*
X218922747Y-209269324D01*
X219034696Y-209206537D01*
X219060696Y-209195577D01*
X219190642Y-209157262D01*
X219204397Y-209154032D01*
X219524733Y-209097547D01*
X219633940Y-209078291D01*
X219647339Y-209076664D01*
X219768814Y-209068478D01*
X219787263Y-209067235D01*
X219814217Y-209068313D01*
G37*
G04 #@! TD.AperFunction*
G04 #@! TA.AperFunction,Conductor*
G36*
X263200054Y-119994026D02*
G01*
X263314143Y-120023054D01*
X263344681Y-120035252D01*
X263458445Y-120099029D01*
X263480422Y-120114659D01*
X263580263Y-120203192D01*
X263598412Y-120223145D01*
X263681134Y-120336399D01*
X263688497Y-120347705D01*
X263754825Y-120462588D01*
X263906580Y-120725437D01*
X263912948Y-120738049D01*
X263967128Y-120862231D01*
X263975442Y-120889189D01*
X263999304Y-121015305D01*
X264001413Y-121043440D01*
X263996614Y-121171708D01*
X263992409Y-121199608D01*
X263959187Y-121323594D01*
X263948878Y-121349859D01*
X263888903Y-121463336D01*
X263873010Y-121486648D01*
X263789283Y-121583942D01*
X263768602Y-121603132D01*
X263749881Y-121616948D01*
X263659590Y-121683585D01*
X263647769Y-121691324D01*
X263573428Y-121734245D01*
X263560816Y-121740613D01*
X263436634Y-121794793D01*
X263409677Y-121803107D01*
X263385323Y-121807715D01*
X263283560Y-121826969D01*
X263255425Y-121829078D01*
X263172044Y-121825958D01*
X263127156Y-121824279D01*
X263099257Y-121820074D01*
X262975270Y-121786852D01*
X262949006Y-121776543D01*
X262835529Y-121716568D01*
X262812217Y-121700675D01*
X262792358Y-121683585D01*
X262714921Y-121616946D01*
X262695731Y-121596264D01*
X262615280Y-121487255D01*
X262607541Y-121475434D01*
X262389463Y-121097711D01*
X262383346Y-121085669D01*
X262326631Y-120957413D01*
X262318425Y-120931716D01*
X262291673Y-120800987D01*
X262289125Y-120774132D01*
X262290775Y-120643728D01*
X262295481Y-120611173D01*
X262327384Y-120497864D01*
X262343520Y-120462588D01*
X262406705Y-120366891D01*
X262432806Y-120338196D01*
X262529798Y-120260058D01*
X262545841Y-120249061D01*
X262875362Y-120058813D01*
X262892890Y-120050424D01*
X263009070Y-120005489D01*
X263046968Y-119997233D01*
X263161441Y-119990362D01*
X263200054Y-119994026D01*
G37*
G04 #@! TD.AperFunction*
G04 #@! TA.AperFunction,Conductor*
G36*
X198456770Y-208668605D02*
G01*
X198470800Y-208670274D01*
X198551901Y-208684574D01*
X198877456Y-208741978D01*
X198886975Y-208743656D01*
X198900343Y-208746013D01*
X198913487Y-208749065D01*
X199048207Y-208788065D01*
X199073164Y-208798296D01*
X199190500Y-208861831D01*
X199212711Y-208877141D01*
X199311550Y-208962232D01*
X199333462Y-208986762D01*
X199399752Y-209084030D01*
X199416404Y-209119066D01*
X199449099Y-209228985D01*
X199454303Y-209267424D01*
X199452804Y-209342403D01*
X199451814Y-209391948D01*
X199449925Y-209411310D01*
X199383854Y-209786019D01*
X199379007Y-209804860D01*
X199338755Y-209922726D01*
X199320717Y-209957067D01*
X199252402Y-210049172D01*
X199224773Y-210076399D01*
X199130425Y-210144257D01*
X199129207Y-210145133D01*
X199100226Y-210160689D01*
X198978248Y-210206841D01*
X198952142Y-210213631D01*
X198820152Y-210233204D01*
X198793198Y-210234282D01*
X198765635Y-210232425D01*
X198653275Y-210224854D01*
X198639870Y-210223225D01*
X198532867Y-210204358D01*
X198210327Y-210147485D01*
X198196584Y-210144258D01*
X198066627Y-210105939D01*
X198040629Y-210094979D01*
X197987065Y-210064938D01*
X197928681Y-210032194D01*
X197905775Y-210015726D01*
X197810597Y-209929597D01*
X197791930Y-209908446D01*
X197718305Y-209803298D01*
X197704812Y-209778520D01*
X197656432Y-209659631D01*
X197648790Y-209632469D01*
X197628079Y-209505792D01*
X197626673Y-209477613D01*
X197635112Y-209342403D01*
X197636781Y-209328373D01*
X197651688Y-209243827D01*
X197654918Y-209230071D01*
X197693234Y-209100124D01*
X197704194Y-209074124D01*
X197766981Y-208962175D01*
X197783451Y-208939267D01*
X197869578Y-208844090D01*
X197890729Y-208825423D01*
X197995877Y-208751798D01*
X198020655Y-208738305D01*
X198139544Y-208689925D01*
X198166706Y-208682283D01*
X198293383Y-208661572D01*
X198321562Y-208660166D01*
X198456770Y-208668605D01*
G37*
G04 #@! TD.AperFunction*
G04 #@! TA.AperFunction,Conductor*
G36*
X149816393Y-148019922D02*
G01*
X149951022Y-148035091D01*
X149978531Y-148041370D01*
X150099684Y-148083764D01*
X150125102Y-148096004D01*
X150233794Y-148164300D01*
X150255847Y-148181888D01*
X150346606Y-148272647D01*
X150364194Y-148294700D01*
X150432489Y-148403390D01*
X150444730Y-148428810D01*
X150487124Y-148549963D01*
X150493403Y-148577472D01*
X150508572Y-148712101D01*
X150509364Y-148726208D01*
X150509364Y-149162367D01*
X150508640Y-149175855D01*
X150493628Y-149315287D01*
X150487886Y-149341643D01*
X150445689Y-149468235D01*
X150434471Y-149492760D01*
X150367841Y-149604868D01*
X150347489Y-149630708D01*
X150263201Y-149712889D01*
X150231589Y-149735371D01*
X150129020Y-149786656D01*
X150092068Y-149798456D01*
X149977213Y-149816349D01*
X149969005Y-149817628D01*
X149949609Y-149819130D01*
X149569119Y-149819130D01*
X149549723Y-149817628D01*
X149541515Y-149816349D01*
X149426660Y-149798456D01*
X149389708Y-149786656D01*
X149287139Y-149735371D01*
X149255527Y-149712889D01*
X149171239Y-149630708D01*
X149150887Y-149604868D01*
X149084257Y-149492760D01*
X149073039Y-149468235D01*
X149030842Y-149341643D01*
X149025100Y-149315287D01*
X149010088Y-149175855D01*
X149009364Y-149162367D01*
X149009364Y-148726208D01*
X149010156Y-148712101D01*
X149025325Y-148577472D01*
X149031604Y-148549963D01*
X149073998Y-148428810D01*
X149086239Y-148403390D01*
X149154534Y-148294700D01*
X149172122Y-148272647D01*
X149262881Y-148181888D01*
X149284934Y-148164300D01*
X149393626Y-148096004D01*
X149419044Y-148083764D01*
X149540197Y-148041370D01*
X149567706Y-148035091D01*
X149702335Y-148019922D01*
X149716442Y-148019130D01*
X149802286Y-148019130D01*
X149816393Y-148019922D01*
G37*
G04 #@! TD.AperFunction*
G04 #@! TA.AperFunction,Conductor*
G36*
X270869005Y-150420632D02*
G01*
X270992068Y-150439804D01*
X271029020Y-150451604D01*
X271131589Y-150502889D01*
X271163201Y-150525371D01*
X271247489Y-150607552D01*
X271267839Y-150633390D01*
X271334471Y-150745500D01*
X271345689Y-150770025D01*
X271387886Y-150896617D01*
X271393628Y-150922973D01*
X271408640Y-151062405D01*
X271409364Y-151075893D01*
X271409364Y-151512052D01*
X271408572Y-151526159D01*
X271393403Y-151660788D01*
X271387124Y-151688297D01*
X271344730Y-151809450D01*
X271332490Y-151834868D01*
X271264194Y-151943560D01*
X271246606Y-151965613D01*
X271155847Y-152056372D01*
X271133794Y-152073960D01*
X271025104Y-152142255D01*
X270999684Y-152154496D01*
X270878531Y-152196890D01*
X270851022Y-152203169D01*
X270716393Y-152218338D01*
X270702286Y-152219130D01*
X270616442Y-152219130D01*
X270602335Y-152218338D01*
X270467706Y-152203169D01*
X270440197Y-152196890D01*
X270319044Y-152154496D01*
X270293624Y-152142255D01*
X270184934Y-152073960D01*
X270162881Y-152056372D01*
X270072122Y-151965613D01*
X270054534Y-151943560D01*
X269986238Y-151834868D01*
X269973998Y-151809450D01*
X269931604Y-151688297D01*
X269925325Y-151660788D01*
X269910156Y-151526159D01*
X269909364Y-151512052D01*
X269909364Y-151075893D01*
X269910088Y-151062405D01*
X269925100Y-150922973D01*
X269930842Y-150896617D01*
X269973039Y-150770025D01*
X269984257Y-150745500D01*
X270050889Y-150633390D01*
X270071239Y-150607552D01*
X270155527Y-150525371D01*
X270187139Y-150502889D01*
X270289708Y-150451604D01*
X270326660Y-150439804D01*
X270449723Y-150420632D01*
X270469119Y-150419130D01*
X270849609Y-150419130D01*
X270869005Y-150420632D01*
G37*
G04 #@! TD.AperFunction*
G04 #@! TA.AperFunction,Conductor*
G36*
X255908326Y-188966076D02*
G01*
X255996885Y-188987230D01*
X256019865Y-188992720D01*
X256055758Y-189007433D01*
X256162358Y-189071852D01*
X256178181Y-189083169D01*
X256469650Y-189327741D01*
X256483542Y-189341359D01*
X256565491Y-189435149D01*
X256586214Y-189467940D01*
X256628725Y-189566013D01*
X256631822Y-189573158D01*
X256641587Y-189610701D01*
X256653329Y-189727832D01*
X256652310Y-189760708D01*
X256631291Y-189889416D01*
X256624118Y-189915420D01*
X256575073Y-190039514D01*
X256562529Y-190063396D01*
X256484401Y-190179859D01*
X256476287Y-190190656D01*
X256195932Y-190524771D01*
X256186256Y-190535069D01*
X256088097Y-190628451D01*
X256065606Y-190645487D01*
X255955256Y-190711045D01*
X255929538Y-190722650D01*
X255807367Y-190762009D01*
X255779712Y-190767599D01*
X255651839Y-190778787D01*
X255623633Y-190778084D01*
X255547653Y-190767599D01*
X255496484Y-190760538D01*
X255469142Y-190753576D01*
X255356673Y-190711045D01*
X255349082Y-190708175D01*
X255323975Y-190695303D01*
X255211094Y-190620386D01*
X255199778Y-190611925D01*
X255181655Y-190596718D01*
X255134013Y-190556741D01*
X255123720Y-190547070D01*
X255030336Y-190448909D01*
X255013300Y-190426418D01*
X254947745Y-190316073D01*
X254936140Y-190290355D01*
X254896780Y-190168180D01*
X254891190Y-190140525D01*
X254880002Y-190012653D01*
X254880705Y-189984447D01*
X254898251Y-189857298D01*
X254905213Y-189829956D01*
X254950614Y-189709897D01*
X254963486Y-189684789D01*
X255038402Y-189571909D01*
X255046863Y-189560593D01*
X255327224Y-189226472D01*
X255336448Y-189216605D01*
X255437576Y-189119441D01*
X255458907Y-189102949D01*
X255572609Y-189033094D01*
X255596969Y-189021517D01*
X255720077Y-188978465D01*
X255752271Y-188971755D01*
X255869663Y-188962979D01*
X255908326Y-188966076D01*
G37*
G04 #@! TD.AperFunction*
G04 #@! TA.AperFunction,Conductor*
G36*
X170344046Y-194790471D02*
G01*
X170471196Y-194808017D01*
X170498537Y-194814979D01*
X170591830Y-194850258D01*
X170618597Y-194860380D01*
X170643705Y-194873252D01*
X170756585Y-194948168D01*
X170767901Y-194956629D01*
X171102022Y-195236990D01*
X171111887Y-195246212D01*
X171209053Y-195347342D01*
X171225545Y-195368673D01*
X171239991Y-195392186D01*
X171295399Y-195482373D01*
X171306977Y-195506735D01*
X171326166Y-195561605D01*
X171350028Y-195629840D01*
X171356740Y-195662040D01*
X171365515Y-195779426D01*
X171362418Y-195818094D01*
X171335774Y-195929631D01*
X171321061Y-195965524D01*
X171256642Y-196072124D01*
X171245327Y-196087945D01*
X171230430Y-196105698D01*
X171000753Y-196379416D01*
X170987135Y-196393308D01*
X170893345Y-196475257D01*
X170860554Y-196495980D01*
X170773109Y-196533884D01*
X170755336Y-196541588D01*
X170717793Y-196551353D01*
X170600662Y-196563095D01*
X170567786Y-196562076D01*
X170439078Y-196541057D01*
X170413074Y-196533884D01*
X170288980Y-196484839D01*
X170265098Y-196472295D01*
X170148635Y-196394167D01*
X170137838Y-196386053D01*
X169803723Y-196105698D01*
X169793425Y-196096022D01*
X169700043Y-195997863D01*
X169683007Y-195975372D01*
X169617449Y-195865022D01*
X169605844Y-195839304D01*
X169566485Y-195717133D01*
X169560895Y-195689478D01*
X169549707Y-195561605D01*
X169550410Y-195533399D01*
X169567956Y-195406251D01*
X169574918Y-195378908D01*
X169620319Y-195258849D01*
X169633191Y-195233741D01*
X169708108Y-195120860D01*
X169716569Y-195109544D01*
X169731776Y-195091421D01*
X169771753Y-195043779D01*
X169781424Y-195033486D01*
X169879585Y-194940102D01*
X169902076Y-194923066D01*
X170012421Y-194857511D01*
X170038139Y-194845906D01*
X170160314Y-194806546D01*
X170187969Y-194800956D01*
X170315841Y-194789768D01*
X170344046Y-194790471D01*
G37*
G04 #@! TD.AperFunction*
G04 #@! TA.AperFunction,Conductor*
G36*
X252242121Y-146120002D02*
G01*
X252288614Y-146173658D01*
X252300000Y-146226000D01*
X252300000Y-147674000D01*
X252279998Y-147742121D01*
X252226342Y-147788614D01*
X252174000Y-147800000D01*
X249700000Y-147800000D01*
X249500000Y-148000000D01*
X249500000Y-148947810D01*
X249479998Y-149015931D01*
X249463095Y-149036905D01*
X249336905Y-149163095D01*
X249274593Y-149197121D01*
X249247810Y-149200000D01*
X245526000Y-149200000D01*
X245457879Y-149179998D01*
X245411386Y-149126342D01*
X245400000Y-149074000D01*
X245400000Y-146926000D01*
X245420002Y-146857879D01*
X245473658Y-146811386D01*
X245526000Y-146800000D01*
X247700000Y-146800000D01*
X247900000Y-146600000D01*
X247900000Y-146352190D01*
X247920002Y-146284069D01*
X247936905Y-146263095D01*
X248063095Y-146136905D01*
X248125407Y-146102879D01*
X248152190Y-146100000D01*
X252174000Y-146100000D01*
X252242121Y-146120002D01*
G37*
G04 #@! TD.AperFunction*
G04 #@! TA.AperFunction,Conductor*
G36*
X270162768Y-139885331D02*
G01*
X270204689Y-139897801D01*
X270272684Y-139918026D01*
X270307719Y-139934677D01*
X270404991Y-140000970D01*
X270429520Y-140022882D01*
X270514609Y-140121718D01*
X270529920Y-140143929D01*
X270593455Y-140261265D01*
X270603686Y-140286222D01*
X270642686Y-140420942D01*
X270645737Y-140434081D01*
X270691667Y-140694560D01*
X270721478Y-140863629D01*
X270723147Y-140877660D01*
X270731586Y-141012867D01*
X270730180Y-141041047D01*
X270709468Y-141167724D01*
X270701826Y-141194885D01*
X270653446Y-141313774D01*
X270639953Y-141338552D01*
X270566328Y-141443700D01*
X270547661Y-141464851D01*
X270452484Y-141550978D01*
X270429576Y-141567448D01*
X270317627Y-141630235D01*
X270291629Y-141641194D01*
X270161677Y-141679512D01*
X270147932Y-141682739D01*
X270119869Y-141687688D01*
X270063379Y-141697648D01*
X270049349Y-141699317D01*
X269914139Y-141707756D01*
X269885960Y-141706350D01*
X269759283Y-141685639D01*
X269732121Y-141677997D01*
X269613232Y-141629617D01*
X269588454Y-141616124D01*
X269518937Y-141567448D01*
X269483306Y-141542499D01*
X269462155Y-141523832D01*
X269376028Y-141428655D01*
X269359558Y-141405747D01*
X269296771Y-141293798D01*
X269285811Y-141267798D01*
X269247496Y-141137853D01*
X269244266Y-141124098D01*
X269168526Y-140694560D01*
X269166897Y-140681151D01*
X269157469Y-140541231D01*
X269158547Y-140514277D01*
X269178121Y-140382283D01*
X269184910Y-140356181D01*
X269231064Y-140234199D01*
X269246613Y-140205231D01*
X269315353Y-140109656D01*
X269342578Y-140082029D01*
X269434684Y-140013712D01*
X269469027Y-139995674D01*
X269586892Y-139955423D01*
X269605732Y-139950576D01*
X269695899Y-139934677D01*
X269980443Y-139884504D01*
X269999802Y-139882615D01*
X270124329Y-139880126D01*
X270162768Y-139885331D01*
G37*
G04 #@! TD.AperFunction*
G04 #@! TA.AperFunction,Conductor*
G36*
X231799595Y-92894274D02*
G01*
X231864253Y-92896041D01*
X231890977Y-92899658D01*
X231968663Y-92918819D01*
X232027144Y-92933243D01*
X232040062Y-92937175D01*
X232181687Y-92988722D01*
X232449910Y-93086347D01*
X232462895Y-93091916D01*
X232584225Y-93152220D01*
X232607924Y-93167527D01*
X232707271Y-93248799D01*
X232726972Y-93268997D01*
X232805743Y-93370339D01*
X232820456Y-93394416D01*
X232874702Y-93510749D01*
X232883688Y-93537494D01*
X232910688Y-93662979D01*
X232913497Y-93691054D01*
X232911897Y-93819399D01*
X232908389Y-93847394D01*
X232893467Y-93909213D01*
X232876599Y-93979090D01*
X232872524Y-93992601D01*
X232857305Y-94034415D01*
X232843156Y-94073289D01*
X232837587Y-94086273D01*
X232777287Y-94207595D01*
X232761982Y-94231293D01*
X232680702Y-94330647D01*
X232660509Y-94350342D01*
X232559166Y-94429114D01*
X232535089Y-94443827D01*
X232418757Y-94498073D01*
X232392012Y-94507059D01*
X232277211Y-94531761D01*
X232266526Y-94534060D01*
X232238450Y-94536869D01*
X232110107Y-94535269D01*
X232082111Y-94531761D01*
X231950410Y-94499968D01*
X231936883Y-94495887D01*
X231736875Y-94423090D01*
X231527033Y-94346714D01*
X231514608Y-94341422D01*
X231388713Y-94279624D01*
X231365915Y-94265217D01*
X231261387Y-94182265D01*
X231242177Y-94163334D01*
X231159618Y-94062378D01*
X231142297Y-94034415D01*
X231093902Y-93927108D01*
X231083587Y-93889713D01*
X231070476Y-93775789D01*
X231072026Y-93737028D01*
X231096101Y-93614826D01*
X231101324Y-93596087D01*
X231231458Y-93238546D01*
X231239503Y-93220833D01*
X231299609Y-93111749D01*
X231323337Y-93081060D01*
X231406608Y-93002219D01*
X231438545Y-92980203D01*
X231544598Y-92929106D01*
X231575841Y-92918819D01*
X231703974Y-92894550D01*
X231730863Y-92892396D01*
X231799595Y-92894274D01*
G37*
G04 #@! TD.AperFunction*
G04 #@! TA.AperFunction,Conductor*
G36*
X266591465Y-170981792D02*
G01*
X266626063Y-170988608D01*
X266713668Y-171005867D01*
X266732407Y-171011090D01*
X267089948Y-171141224D01*
X267107661Y-171149269D01*
X267216745Y-171209375D01*
X267247434Y-171233103D01*
X267326275Y-171316374D01*
X267348291Y-171348311D01*
X267399388Y-171454364D01*
X267409675Y-171485607D01*
X267433944Y-171613740D01*
X267436098Y-171640629D01*
X267432454Y-171774015D01*
X267428836Y-171800743D01*
X267417513Y-171846649D01*
X267395251Y-171936910D01*
X267391318Y-171949832D01*
X267242147Y-172359676D01*
X267236578Y-172372661D01*
X267176274Y-172493991D01*
X267160967Y-172517690D01*
X267108781Y-172581482D01*
X267079695Y-172617037D01*
X267059497Y-172636738D01*
X266958155Y-172715509D01*
X266934078Y-172730222D01*
X266817745Y-172784468D01*
X266791000Y-172793454D01*
X266665515Y-172820454D01*
X266637440Y-172823263D01*
X266596793Y-172822756D01*
X266509095Y-172821663D01*
X266481100Y-172818155D01*
X266474443Y-172816548D01*
X266349397Y-172786363D01*
X266335894Y-172782290D01*
X266255196Y-172752918D01*
X266242221Y-172747353D01*
X266120899Y-172687053D01*
X266097201Y-172671748D01*
X265997847Y-172590468D01*
X265978152Y-172570275D01*
X265899380Y-172468932D01*
X265884667Y-172444855D01*
X265830421Y-172328523D01*
X265821435Y-172301779D01*
X265794434Y-172176292D01*
X265791625Y-172148216D01*
X265793225Y-172019873D01*
X265796733Y-171991877D01*
X265828526Y-171860176D01*
X265832607Y-171846649D01*
X265981779Y-171436801D01*
X265987072Y-171424374D01*
X266048870Y-171298479D01*
X266063277Y-171275681D01*
X266146229Y-171171153D01*
X266165160Y-171151943D01*
X266266116Y-171069384D01*
X266294079Y-171052063D01*
X266401386Y-171003668D01*
X266438781Y-170993353D01*
X266464567Y-170990385D01*
X266552707Y-170980242D01*
X266591465Y-170981792D01*
G37*
G04 #@! TD.AperFunction*
G04 #@! TA.AperFunction,Conductor*
G36*
X241341221Y-97498967D02*
G01*
X241471950Y-97525719D01*
X241497645Y-97533924D01*
X241535840Y-97550814D01*
X241625903Y-97590640D01*
X241637945Y-97596757D01*
X242015668Y-97814835D01*
X242027489Y-97822574D01*
X242136501Y-97903027D01*
X242157182Y-97922217D01*
X242240909Y-98019511D01*
X242256802Y-98042823D01*
X242316777Y-98156300D01*
X242327086Y-98182565D01*
X242360308Y-98306551D01*
X242364513Y-98334451D01*
X242369312Y-98462719D01*
X242367203Y-98490854D01*
X242343341Y-98616970D01*
X242335027Y-98643928D01*
X242315921Y-98687719D01*
X242280847Y-98768109D01*
X242274479Y-98780722D01*
X242231558Y-98855063D01*
X242223819Y-98866884D01*
X242143368Y-98975893D01*
X242124178Y-98996575D01*
X242039047Y-99069836D01*
X242026882Y-99080304D01*
X242003570Y-99096197D01*
X241890093Y-99156172D01*
X241863829Y-99166481D01*
X241739842Y-99199703D01*
X241711943Y-99203908D01*
X241667055Y-99205587D01*
X241583674Y-99208707D01*
X241555539Y-99206598D01*
X241453776Y-99187344D01*
X241429422Y-99182736D01*
X241402465Y-99174422D01*
X241278283Y-99120242D01*
X241265671Y-99113874D01*
X241026680Y-98975893D01*
X240887939Y-98895791D01*
X240876633Y-98888428D01*
X240763379Y-98805706D01*
X240743426Y-98787557D01*
X240654893Y-98687716D01*
X240639261Y-98665736D01*
X240627039Y-98643933D01*
X240575486Y-98551975D01*
X240563288Y-98521437D01*
X240534260Y-98407348D01*
X240530596Y-98368735D01*
X240537467Y-98254262D01*
X240545723Y-98216364D01*
X240590658Y-98100184D01*
X240599049Y-98082651D01*
X240702757Y-97903025D01*
X240789295Y-97753135D01*
X240800292Y-97737092D01*
X240878430Y-97640100D01*
X240907125Y-97613999D01*
X241002822Y-97550814D01*
X241038098Y-97534678D01*
X241151410Y-97502775D01*
X241183961Y-97498069D01*
X241214442Y-97497683D01*
X241314366Y-97496419D01*
X241341221Y-97498967D01*
G37*
G04 #@! TD.AperFunction*
G04 #@! TA.AperFunction,Conductor*
G36*
X206015931Y-187820002D02*
G01*
X206036905Y-187836905D01*
X206163095Y-187963095D01*
X206197121Y-188025407D01*
X206200000Y-188052190D01*
X206200000Y-191500000D01*
X206400000Y-191700000D01*
X207499684Y-191700000D01*
X207503082Y-191700167D01*
X207504752Y-191700499D01*
X207874000Y-191700499D01*
X207942121Y-191720501D01*
X207988614Y-191774157D01*
X208000000Y-191826499D01*
X208000000Y-191873019D01*
X207979998Y-191941140D01*
X207926342Y-191987633D01*
X207869053Y-191998922D01*
X207843289Y-191997910D01*
X207811506Y-191996661D01*
X207803206Y-191998862D01*
X207791625Y-191999499D01*
X207700944Y-191999499D01*
X207686135Y-191998626D01*
X207676190Y-191997449D01*
X207648190Y-191994135D01*
X207638926Y-191995827D01*
X207630045Y-191997449D01*
X207607407Y-191999499D01*
X207504752Y-191999499D01*
X207503075Y-191999833D01*
X207499664Y-192000000D01*
X207000000Y-192000000D01*
X206800000Y-192200000D01*
X206800000Y-192447810D01*
X206779998Y-192515931D01*
X206763095Y-192536905D01*
X206636905Y-192663095D01*
X206574593Y-192697121D01*
X206547810Y-192700000D01*
X204752190Y-192700000D01*
X204684069Y-192679998D01*
X204663095Y-192663095D01*
X204536905Y-192536905D01*
X204502879Y-192474593D01*
X204500000Y-192447810D01*
X204500000Y-190300000D01*
X201826000Y-190300000D01*
X201757879Y-190279998D01*
X201711386Y-190226342D01*
X201700000Y-190174000D01*
X201700000Y-187926000D01*
X201720002Y-187857879D01*
X201773658Y-187811386D01*
X201826000Y-187800000D01*
X205947810Y-187800000D01*
X206015931Y-187820002D01*
G37*
G04 #@! TD.AperFunction*
G04 #@! TA.AperFunction,Conductor*
G36*
X172517737Y-102186182D02*
G01*
X172545392Y-102191772D01*
X172667563Y-102231131D01*
X172693281Y-102242736D01*
X172803634Y-102308296D01*
X172826123Y-102325331D01*
X172924282Y-102418712D01*
X172933952Y-102429005D01*
X172989137Y-102494773D01*
X172997597Y-102506087D01*
X173072514Y-102618967D01*
X173085386Y-102644075D01*
X173126919Y-102753907D01*
X173130787Y-102764135D01*
X173137749Y-102791477D01*
X173155296Y-102918626D01*
X173155999Y-102946833D01*
X173144811Y-103074704D01*
X173139221Y-103102359D01*
X173099860Y-103224535D01*
X173088256Y-103250251D01*
X173028551Y-103350750D01*
X173022700Y-103360598D01*
X173005664Y-103383089D01*
X172912281Y-103481249D01*
X172901995Y-103490914D01*
X172663094Y-103691376D01*
X172567867Y-103771280D01*
X172557070Y-103779395D01*
X172440605Y-103857524D01*
X172416723Y-103870067D01*
X172292633Y-103919110D01*
X172266631Y-103926283D01*
X172137913Y-103947304D01*
X172105037Y-103948322D01*
X171987914Y-103936579D01*
X171950374Y-103926815D01*
X171845154Y-103881207D01*
X171812360Y-103860483D01*
X171718570Y-103778534D01*
X171704952Y-103764642D01*
X171460381Y-103473173D01*
X171449064Y-103457350D01*
X171384645Y-103350750D01*
X171369932Y-103314857D01*
X171364442Y-103291877D01*
X171343288Y-103203318D01*
X171340191Y-103164652D01*
X171348966Y-103047266D01*
X171355678Y-103015066D01*
X171398730Y-102891958D01*
X171410304Y-102867604D01*
X171480156Y-102753904D01*
X171496654Y-102732567D01*
X171593820Y-102631438D01*
X171603687Y-102622213D01*
X171937804Y-102341856D01*
X171949119Y-102333396D01*
X172061999Y-102258479D01*
X172087108Y-102245606D01*
X172207168Y-102200205D01*
X172234509Y-102193243D01*
X172361659Y-102175697D01*
X172389864Y-102174994D01*
X172517737Y-102186182D01*
G37*
G04 #@! TD.AperFunction*
G04 #@! TA.AperFunction,Conductor*
G36*
X248430816Y-196301681D02*
G01*
X248468358Y-196311446D01*
X248573577Y-196357054D01*
X248606368Y-196377777D01*
X248700158Y-196459726D01*
X248713776Y-196473618D01*
X248958347Y-196765087D01*
X248969664Y-196780910D01*
X249034083Y-196887510D01*
X249048796Y-196923403D01*
X249075440Y-197034940D01*
X249078537Y-197073605D01*
X249071814Y-197163556D01*
X249069763Y-197190993D01*
X249063051Y-197223194D01*
X249020000Y-197346299D01*
X249008424Y-197370656D01*
X248938574Y-197484353D01*
X248922074Y-197505693D01*
X248824908Y-197606822D01*
X248815041Y-197616047D01*
X248480919Y-197896409D01*
X248469608Y-197904866D01*
X248356728Y-197979782D01*
X248331621Y-197992654D01*
X248324031Y-197995524D01*
X248211561Y-198038055D01*
X248184219Y-198045017D01*
X248133050Y-198052078D01*
X248057070Y-198062563D01*
X248028864Y-198063266D01*
X247900991Y-198052078D01*
X247873336Y-198046488D01*
X247751165Y-198007129D01*
X247725447Y-197995524D01*
X247615094Y-197929964D01*
X247592603Y-197912928D01*
X247584129Y-197904866D01*
X247494446Y-197819548D01*
X247484776Y-197809255D01*
X247429591Y-197743487D01*
X247421131Y-197732173D01*
X247346214Y-197619293D01*
X247333341Y-197594184D01*
X247296181Y-197495914D01*
X247287941Y-197474125D01*
X247280979Y-197446783D01*
X247263432Y-197319634D01*
X247262729Y-197291427D01*
X247273917Y-197163556D01*
X247279507Y-197135901D01*
X247318868Y-197013725D01*
X247330470Y-196988012D01*
X247396030Y-196877660D01*
X247413064Y-196855172D01*
X247506447Y-196757012D01*
X247516745Y-196747336D01*
X247850861Y-196466979D01*
X247861659Y-196458864D01*
X247978124Y-196380736D01*
X248002005Y-196368193D01*
X248126095Y-196319150D01*
X248152100Y-196311977D01*
X248280810Y-196290958D01*
X248313685Y-196289939D01*
X248430816Y-196301681D01*
G37*
G04 #@! TD.AperFunction*
G04 #@! TA.AperFunction,Conductor*
G36*
X190916290Y-92095363D02*
G01*
X190979035Y-92108864D01*
X191041778Y-92122364D01*
X191068522Y-92131350D01*
X191184854Y-92185596D01*
X191208931Y-92200309D01*
X191310273Y-92279080D01*
X191330470Y-92298780D01*
X191377097Y-92355776D01*
X191411742Y-92398126D01*
X191427049Y-92421824D01*
X191443831Y-92455589D01*
X191487353Y-92543153D01*
X191492922Y-92556139D01*
X191522281Y-92636802D01*
X191526362Y-92650330D01*
X191558154Y-92782029D01*
X191561662Y-92810025D01*
X191563262Y-92938368D01*
X191560453Y-92966444D01*
X191533452Y-93091931D01*
X191524466Y-93118675D01*
X191470220Y-93235007D01*
X191455507Y-93259084D01*
X191376736Y-93360426D01*
X191357036Y-93380623D01*
X191322850Y-93408590D01*
X191257690Y-93461895D01*
X191233989Y-93477203D01*
X191112659Y-93537507D01*
X191099675Y-93543076D01*
X190689826Y-93692248D01*
X190676908Y-93696180D01*
X190660135Y-93700317D01*
X190540741Y-93729765D01*
X190514017Y-93733382D01*
X190449359Y-93735149D01*
X190380627Y-93737027D01*
X190353738Y-93734873D01*
X190225605Y-93710604D01*
X190194362Y-93700317D01*
X190088309Y-93649220D01*
X190056372Y-93627204D01*
X189973101Y-93548363D01*
X189949373Y-93517674D01*
X189889267Y-93408590D01*
X189881222Y-93390877D01*
X189751088Y-93033336D01*
X189745865Y-93014597D01*
X189721790Y-92892395D01*
X189720240Y-92853634D01*
X189733351Y-92739710D01*
X189743666Y-92702315D01*
X189792061Y-92595008D01*
X189809382Y-92567045D01*
X189891941Y-92466089D01*
X189911153Y-92447156D01*
X190015679Y-92364206D01*
X190038477Y-92349799D01*
X190164372Y-92288001D01*
X190176799Y-92282708D01*
X190586647Y-92133536D01*
X190600174Y-92129455D01*
X190731876Y-92097662D01*
X190759872Y-92094154D01*
X190888215Y-92092554D01*
X190916290Y-92095363D01*
G37*
G04 #@! TD.AperFunction*
G04 #@! TA.AperFunction,Conductor*
G36*
X267562998Y-129640149D02*
G01*
X267588784Y-129643117D01*
X267626179Y-129653432D01*
X267733486Y-129701827D01*
X267761449Y-129719148D01*
X267862405Y-129801707D01*
X267881336Y-129820917D01*
X267964288Y-129925445D01*
X267978695Y-129948243D01*
X268040493Y-130074138D01*
X268045786Y-130086565D01*
X268194958Y-130496413D01*
X268199039Y-130509940D01*
X268230832Y-130641642D01*
X268234340Y-130669638D01*
X268235940Y-130797981D01*
X268233131Y-130826057D01*
X268206130Y-130951544D01*
X268197144Y-130978288D01*
X268142898Y-131094620D01*
X268128185Y-131118696D01*
X268090286Y-131167456D01*
X268049414Y-131220039D01*
X268029714Y-131240236D01*
X267983809Y-131277790D01*
X267930368Y-131321508D01*
X267906670Y-131336815D01*
X267785341Y-131397119D01*
X267772355Y-131402688D01*
X267691692Y-131432047D01*
X267678166Y-131436127D01*
X267546465Y-131467920D01*
X267518469Y-131471428D01*
X267390126Y-131473028D01*
X267362050Y-131470219D01*
X267351366Y-131467920D01*
X267236564Y-131443218D01*
X267209819Y-131434232D01*
X267093487Y-131379986D01*
X267069410Y-131365273D01*
X266968068Y-131286502D01*
X266947870Y-131266801D01*
X266926139Y-131240237D01*
X266866598Y-131167454D01*
X266851291Y-131143755D01*
X266790987Y-131022425D01*
X266785418Y-131009440D01*
X266656573Y-130655441D01*
X266636246Y-130599592D01*
X266632314Y-130586674D01*
X266610052Y-130496413D01*
X266598729Y-130450507D01*
X266595111Y-130423779D01*
X266591467Y-130290393D01*
X266593621Y-130263504D01*
X266617890Y-130135371D01*
X266628177Y-130104128D01*
X266679274Y-129998075D01*
X266701290Y-129966138D01*
X266780131Y-129882867D01*
X266810820Y-129859139D01*
X266919904Y-129799033D01*
X266937617Y-129790988D01*
X267295158Y-129660854D01*
X267313897Y-129655631D01*
X267401502Y-129638372D01*
X267436100Y-129631556D01*
X267474858Y-129630006D01*
X267562998Y-129640149D01*
G37*
G04 #@! TD.AperFunction*
G04 #@! TA.AperFunction,Conductor*
G36*
X178863189Y-201031662D02*
G01*
X178964952Y-201050916D01*
X178989306Y-201055524D01*
X179016263Y-201063838D01*
X179140444Y-201118018D01*
X179153057Y-201124386D01*
X179333632Y-201228641D01*
X179530789Y-201342469D01*
X179542095Y-201349832D01*
X179655347Y-201432552D01*
X179675300Y-201450701D01*
X179686798Y-201463667D01*
X179763833Y-201550541D01*
X179779465Y-201572521D01*
X179806805Y-201621290D01*
X179843241Y-201686284D01*
X179855440Y-201716823D01*
X179884468Y-201830912D01*
X179888132Y-201869525D01*
X179881261Y-201983998D01*
X179873005Y-202021896D01*
X179828070Y-202138076D01*
X179819681Y-202155604D01*
X179669523Y-202415686D01*
X179629435Y-202485121D01*
X179618436Y-202501168D01*
X179540298Y-202598160D01*
X179511603Y-202624261D01*
X179415906Y-202687446D01*
X179380630Y-202703582D01*
X179267318Y-202735485D01*
X179234767Y-202740191D01*
X179204286Y-202740577D01*
X179104362Y-202741841D01*
X179077507Y-202739293D01*
X178946778Y-202712541D01*
X178921083Y-202704336D01*
X178792825Y-202647620D01*
X178780783Y-202641503D01*
X178403060Y-202423425D01*
X178391239Y-202415686D01*
X178345780Y-202382136D01*
X178282227Y-202335233D01*
X178261546Y-202316043D01*
X178177819Y-202218749D01*
X178161926Y-202195437D01*
X178101951Y-202081960D01*
X178091642Y-202055695D01*
X178058420Y-201931709D01*
X178054215Y-201903809D01*
X178049416Y-201775541D01*
X178051525Y-201747406D01*
X178075387Y-201621290D01*
X178083701Y-201594332D01*
X178137881Y-201470150D01*
X178144249Y-201457538D01*
X178187170Y-201383197D01*
X178194909Y-201371376D01*
X178275360Y-201262367D01*
X178294550Y-201241685D01*
X178391846Y-201157956D01*
X178415158Y-201142063D01*
X178528635Y-201082088D01*
X178554899Y-201071779D01*
X178678887Y-201038557D01*
X178706785Y-201034352D01*
X178751673Y-201032673D01*
X178835054Y-201029553D01*
X178863189Y-201031662D01*
G37*
G04 #@! TD.AperFunction*
G04 #@! TA.AperFunction,Conductor*
G36*
X209266088Y-209819854D02*
G01*
X209319144Y-209825566D01*
X209405521Y-209834866D01*
X209431877Y-209840608D01*
X209558469Y-209882805D01*
X209582994Y-209894023D01*
X209695104Y-209960655D01*
X209720942Y-209981005D01*
X209803123Y-210065293D01*
X209825605Y-210096905D01*
X209876890Y-210199474D01*
X209888690Y-210236427D01*
X209907862Y-210359489D01*
X209909364Y-210378885D01*
X209909364Y-210759375D01*
X209907862Y-210778771D01*
X209888690Y-210901833D01*
X209876890Y-210938786D01*
X209825605Y-211041355D01*
X209803123Y-211072967D01*
X209720942Y-211157255D01*
X209695104Y-211177605D01*
X209582994Y-211244237D01*
X209558469Y-211255455D01*
X209431877Y-211297652D01*
X209405521Y-211303394D01*
X209319144Y-211312694D01*
X209266721Y-211318338D01*
X209266089Y-211318406D01*
X209252601Y-211319130D01*
X208816442Y-211319130D01*
X208802335Y-211318338D01*
X208667706Y-211303169D01*
X208640197Y-211296890D01*
X208519044Y-211254496D01*
X208493624Y-211242255D01*
X208384934Y-211173960D01*
X208362881Y-211156372D01*
X208272122Y-211065613D01*
X208254534Y-211043560D01*
X208186238Y-210934868D01*
X208173998Y-210909450D01*
X208131604Y-210788297D01*
X208125325Y-210760788D01*
X208110156Y-210626159D01*
X208109364Y-210612052D01*
X208109364Y-210526208D01*
X208110156Y-210512101D01*
X208125325Y-210377472D01*
X208131604Y-210349963D01*
X208173998Y-210228810D01*
X208186239Y-210203390D01*
X208188700Y-210199474D01*
X208254534Y-210094700D01*
X208272122Y-210072647D01*
X208362881Y-209981888D01*
X208384934Y-209964300D01*
X208493626Y-209896004D01*
X208519044Y-209883764D01*
X208640197Y-209841370D01*
X208667706Y-209835091D01*
X208802335Y-209819922D01*
X208816442Y-209819130D01*
X209252601Y-209819130D01*
X209266088Y-209819854D01*
G37*
G04 #@! TD.AperFunction*
G04 #@! TA.AperFunction,Conductor*
G36*
X257281231Y-111258733D02*
G01*
X257313426Y-111265444D01*
X257436536Y-111308496D01*
X257460890Y-111320070D01*
X257574590Y-111389922D01*
X257595927Y-111406420D01*
X257697056Y-111503586D01*
X257706281Y-111513453D01*
X257791253Y-111614718D01*
X257986639Y-111847570D01*
X257995100Y-111858886D01*
X258070016Y-111971766D01*
X258082888Y-111996874D01*
X258128289Y-112116933D01*
X258135251Y-112144275D01*
X258143272Y-112202399D01*
X258152797Y-112271424D01*
X258153500Y-112299630D01*
X258142312Y-112427503D01*
X258136722Y-112455158D01*
X258097363Y-112577329D01*
X258085758Y-112603047D01*
X258020198Y-112713400D01*
X258003163Y-112735889D01*
X257909782Y-112834048D01*
X257899489Y-112843718D01*
X257833721Y-112898903D01*
X257822407Y-112907363D01*
X257709527Y-112982280D01*
X257684419Y-112995152D01*
X257564359Y-113040553D01*
X257537018Y-113047515D01*
X257409867Y-113065062D01*
X257381661Y-113065765D01*
X257253790Y-113054577D01*
X257226135Y-113048987D01*
X257103959Y-113009626D01*
X257078246Y-112998024D01*
X256967892Y-112932463D01*
X256945403Y-112915429D01*
X256847235Y-112822038D01*
X256837580Y-112811761D01*
X256557211Y-112477631D01*
X256549098Y-112466835D01*
X256470970Y-112350370D01*
X256458427Y-112326489D01*
X256409384Y-112202399D01*
X256402211Y-112176394D01*
X256381192Y-112047684D01*
X256380173Y-112014809D01*
X256391915Y-111897678D01*
X256401680Y-111860135D01*
X256404776Y-111852993D01*
X256447288Y-111754917D01*
X256468011Y-111722126D01*
X256549960Y-111628336D01*
X256563847Y-111614723D01*
X256709587Y-111492432D01*
X256855323Y-111370146D01*
X256871144Y-111358830D01*
X256977744Y-111294411D01*
X257013637Y-111279698D01*
X257036617Y-111274208D01*
X257125176Y-111253054D01*
X257163839Y-111249957D01*
X257281231Y-111258733D01*
G37*
G04 #@! TD.AperFunction*
G04 #@! TA.AperFunction,Conductor*
G36*
X239654286Y-202200155D02*
G01*
X239684767Y-202200541D01*
X239717318Y-202205247D01*
X239830630Y-202237150D01*
X239865906Y-202253286D01*
X239961603Y-202316471D01*
X239990298Y-202342572D01*
X240068436Y-202439564D01*
X240079433Y-202455607D01*
X240165972Y-202605497D01*
X240269679Y-202785123D01*
X240278070Y-202802656D01*
X240323005Y-202918836D01*
X240331261Y-202956734D01*
X240338132Y-203071207D01*
X240334468Y-203109820D01*
X240305440Y-203223909D01*
X240293242Y-203254447D01*
X240241690Y-203346405D01*
X240229467Y-203368208D01*
X240213835Y-203390188D01*
X240125302Y-203490029D01*
X240105349Y-203508178D01*
X239992095Y-203590900D01*
X239980789Y-203598263D01*
X239842048Y-203678365D01*
X239603057Y-203816346D01*
X239590445Y-203822714D01*
X239466263Y-203876894D01*
X239439306Y-203885208D01*
X239414952Y-203889816D01*
X239313189Y-203909070D01*
X239285054Y-203911179D01*
X239201673Y-203908059D01*
X239156785Y-203906380D01*
X239128886Y-203902175D01*
X239004899Y-203868953D01*
X238978635Y-203858644D01*
X238865158Y-203798669D01*
X238841846Y-203782776D01*
X238829682Y-203772308D01*
X238744550Y-203699047D01*
X238725360Y-203678365D01*
X238644909Y-203569356D01*
X238637170Y-203557535D01*
X238594249Y-203483194D01*
X238587881Y-203470581D01*
X238552807Y-203390191D01*
X238533701Y-203346400D01*
X238525387Y-203319442D01*
X238501525Y-203193326D01*
X238499416Y-203165191D01*
X238504215Y-203036923D01*
X238508420Y-203009023D01*
X238541642Y-202885037D01*
X238551951Y-202858772D01*
X238611926Y-202745295D01*
X238627819Y-202721983D01*
X238711546Y-202624689D01*
X238732227Y-202605499D01*
X238841239Y-202525046D01*
X238853060Y-202517307D01*
X239230783Y-202299229D01*
X239242825Y-202293112D01*
X239332888Y-202253286D01*
X239371083Y-202236396D01*
X239396778Y-202228191D01*
X239527507Y-202201439D01*
X239554362Y-202198891D01*
X239654286Y-202200155D01*
G37*
G04 #@! TD.AperFunction*
G04 #@! TA.AperFunction,Conductor*
G36*
X201131280Y-89598315D02*
G01*
X201257957Y-89619026D01*
X201285119Y-89626668D01*
X201404008Y-89675048D01*
X201428786Y-89688541D01*
X201533934Y-89762166D01*
X201555085Y-89780833D01*
X201641212Y-89876010D01*
X201657682Y-89898918D01*
X201720469Y-90010867D01*
X201731428Y-90036864D01*
X201769747Y-90166820D01*
X201772974Y-90180565D01*
X201777136Y-90204167D01*
X201787882Y-90265115D01*
X201789551Y-90279145D01*
X201797990Y-90414355D01*
X201796584Y-90442534D01*
X201775873Y-90569211D01*
X201768231Y-90596373D01*
X201719851Y-90715262D01*
X201706358Y-90740040D01*
X201632733Y-90845188D01*
X201614066Y-90866339D01*
X201518889Y-90952466D01*
X201495981Y-90968936D01*
X201384032Y-91031723D01*
X201358032Y-91042683D01*
X201228087Y-91080998D01*
X201214332Y-91084228D01*
X200931949Y-91134020D01*
X200784788Y-91159969D01*
X200771389Y-91161596D01*
X200649914Y-91169782D01*
X200631465Y-91171025D01*
X200604511Y-91169947D01*
X200472521Y-91150374D01*
X200446415Y-91143584D01*
X200324438Y-91097432D01*
X200295457Y-91081876D01*
X200267327Y-91061644D01*
X200199891Y-91013142D01*
X200172263Y-90985916D01*
X200103946Y-90893809D01*
X200085908Y-90859467D01*
X200045657Y-90741602D01*
X200040810Y-90722762D01*
X199974738Y-90348053D01*
X199972849Y-90328691D01*
X199971859Y-90279145D01*
X199970360Y-90204165D01*
X199975565Y-90165725D01*
X200008260Y-90055810D01*
X200024911Y-90020775D01*
X200091204Y-89923503D01*
X200113116Y-89898974D01*
X200211952Y-89813885D01*
X200234163Y-89798574D01*
X200351499Y-89735039D01*
X200376456Y-89724808D01*
X200511168Y-89685810D01*
X200524327Y-89682755D01*
X200953863Y-89607017D01*
X200967893Y-89605348D01*
X201103101Y-89596909D01*
X201131280Y-89598315D01*
G37*
G04 #@! TD.AperFunction*
G04 #@! TA.AperFunction,Conductor*
G36*
X269482182Y-160876680D02*
G01*
X269501544Y-160878569D01*
X269876253Y-160944640D01*
X269895089Y-160949486D01*
X269997965Y-160984618D01*
X270012960Y-160989739D01*
X270047301Y-161007777D01*
X270139406Y-161076092D01*
X270166633Y-161103721D01*
X270235367Y-161199287D01*
X270250923Y-161228268D01*
X270297075Y-161350246D01*
X270303865Y-161376352D01*
X270323438Y-161508342D01*
X270324516Y-161535296D01*
X270315088Y-161675218D01*
X270313460Y-161688618D01*
X270252365Y-162035111D01*
X270237721Y-162118159D01*
X270234491Y-162131915D01*
X270196173Y-162261867D01*
X270185213Y-162287865D01*
X270122430Y-162399810D01*
X270105960Y-162422719D01*
X270019831Y-162517897D01*
X269998680Y-162536564D01*
X269963049Y-162561513D01*
X269893532Y-162610189D01*
X269868754Y-162623682D01*
X269749865Y-162672062D01*
X269722703Y-162679704D01*
X269596026Y-162700415D01*
X269567847Y-162701821D01*
X269451886Y-162694583D01*
X269432636Y-162693382D01*
X269418611Y-162691713D01*
X269376332Y-162684259D01*
X269334055Y-162676805D01*
X269320305Y-162673576D01*
X269190358Y-162635260D01*
X269164358Y-162624300D01*
X269052409Y-162561513D01*
X269029501Y-162545043D01*
X268934324Y-162458916D01*
X268915657Y-162437765D01*
X268842032Y-162332617D01*
X268828539Y-162307839D01*
X268780159Y-162188950D01*
X268772517Y-162161788D01*
X268751806Y-162035111D01*
X268750400Y-162006932D01*
X268758839Y-161871724D01*
X268760508Y-161857694D01*
X268836246Y-161428158D01*
X268839301Y-161415000D01*
X268878298Y-161280289D01*
X268888530Y-161255330D01*
X268952065Y-161137994D01*
X268967375Y-161115784D01*
X269052462Y-161016949D01*
X269076991Y-160995036D01*
X269174268Y-160928739D01*
X269209302Y-160912090D01*
X269319219Y-160879395D01*
X269357658Y-160874191D01*
X269482182Y-160876680D01*
G37*
G04 #@! TD.AperFunction*
G04 #@! TA.AperFunction,Conductor*
G36*
X230064990Y-206503387D02*
G01*
X230193125Y-206527656D01*
X230224369Y-206537944D01*
X230330420Y-206589041D01*
X230362356Y-206611056D01*
X230445627Y-206689897D01*
X230469355Y-206720586D01*
X230529461Y-206829670D01*
X230537506Y-206847383D01*
X230667640Y-207204924D01*
X230672863Y-207223663D01*
X230696938Y-207345865D01*
X230698488Y-207384626D01*
X230685377Y-207498551D01*
X230675062Y-207535946D01*
X230626668Y-207643252D01*
X230609347Y-207671215D01*
X230526788Y-207772171D01*
X230507577Y-207791102D01*
X230459642Y-207829143D01*
X230403055Y-207874050D01*
X230380251Y-207888461D01*
X230254356Y-207950259D01*
X230241929Y-207955552D01*
X229832081Y-208104724D01*
X229818554Y-208108805D01*
X229686852Y-208140598D01*
X229658856Y-208144106D01*
X229530513Y-208145706D01*
X229502437Y-208142897D01*
X229491753Y-208140598D01*
X229376951Y-208115896D01*
X229350206Y-208106910D01*
X229233874Y-208052664D01*
X229209797Y-208037951D01*
X229108455Y-207959180D01*
X229088257Y-207939479D01*
X229046521Y-207888461D01*
X229006985Y-207840132D01*
X228991678Y-207816434D01*
X228979089Y-207791104D01*
X228931374Y-207695104D01*
X228925806Y-207682121D01*
X228896447Y-207601458D01*
X228892366Y-207587930D01*
X228860574Y-207456231D01*
X228857066Y-207428235D01*
X228855466Y-207299892D01*
X228858275Y-207271816D01*
X228885276Y-207146329D01*
X228894262Y-207119585D01*
X228948508Y-207003253D01*
X228963221Y-206979176D01*
X229041992Y-206877834D01*
X229061693Y-206857636D01*
X229161040Y-206776364D01*
X229184739Y-206761057D01*
X229306069Y-206700753D01*
X229319054Y-206695184D01*
X229610680Y-206589041D01*
X229728902Y-206546012D01*
X229741820Y-206542080D01*
X229800301Y-206527656D01*
X229877987Y-206508495D01*
X229904711Y-206504878D01*
X229969369Y-206503111D01*
X230038101Y-206501233D01*
X230064990Y-206503387D01*
G37*
G04 #@! TD.AperFunction*
G04 #@! TA.AperFunction,Conductor*
G36*
X153056677Y-168768041D02*
G01*
X153119421Y-168781541D01*
X153182165Y-168795042D01*
X153208909Y-168804028D01*
X153325241Y-168858274D01*
X153349318Y-168872987D01*
X153450660Y-168951758D01*
X153470857Y-168971458D01*
X153509113Y-169018221D01*
X153552129Y-169070804D01*
X153567437Y-169094505D01*
X153627741Y-169215835D01*
X153633310Y-169228819D01*
X153767178Y-169596618D01*
X153782481Y-169638664D01*
X153786414Y-169651586D01*
X153819999Y-169787753D01*
X153823617Y-169814481D01*
X153827261Y-169947867D01*
X153825107Y-169974756D01*
X153800838Y-170102891D01*
X153790550Y-170134135D01*
X153739453Y-170240186D01*
X153717438Y-170272122D01*
X153638597Y-170355393D01*
X153607908Y-170379121D01*
X153498824Y-170439227D01*
X153481111Y-170447272D01*
X153123570Y-170577406D01*
X153104831Y-170582629D01*
X153017226Y-170599888D01*
X152982628Y-170606704D01*
X152943870Y-170608254D01*
X152829943Y-170595143D01*
X152792548Y-170584828D01*
X152685242Y-170536434D01*
X152657279Y-170519113D01*
X152604334Y-170475816D01*
X152556321Y-170436552D01*
X152537390Y-170417341D01*
X152499542Y-170369648D01*
X152454443Y-170312819D01*
X152440033Y-170290017D01*
X152415573Y-170240186D01*
X152378234Y-170164120D01*
X152372942Y-170151695D01*
X152223770Y-169741847D01*
X152219689Y-169728320D01*
X152187896Y-169596618D01*
X152184388Y-169568622D01*
X152182788Y-169440279D01*
X152185597Y-169412203D01*
X152212598Y-169286716D01*
X152221584Y-169259972D01*
X152275830Y-169143640D01*
X152290543Y-169119563D01*
X152319899Y-169081795D01*
X152369315Y-169018220D01*
X152389015Y-168998023D01*
X152421487Y-168971459D01*
X152488362Y-168916751D01*
X152512058Y-168901445D01*
X152633390Y-168841140D01*
X152646373Y-168835572D01*
X152727036Y-168806213D01*
X152740562Y-168802133D01*
X152872264Y-168770340D01*
X152900259Y-168766832D01*
X153028602Y-168765232D01*
X153056677Y-168768041D01*
G37*
G04 #@! TD.AperFunction*
G04 #@! TA.AperFunction,Conductor*
G36*
X150532768Y-158531910D02*
G01*
X150659445Y-158552621D01*
X150686607Y-158560263D01*
X150805496Y-158608643D01*
X150830274Y-158622136D01*
X150935422Y-158695761D01*
X150956573Y-158714428D01*
X151042700Y-158809605D01*
X151059170Y-158832513D01*
X151121957Y-158944462D01*
X151132917Y-158970462D01*
X151171232Y-159100408D01*
X151174462Y-159114163D01*
X151250202Y-159543700D01*
X151251831Y-159557109D01*
X151261259Y-159697029D01*
X151260181Y-159723983D01*
X151240608Y-159855973D01*
X151233818Y-159882079D01*
X151187666Y-160004058D01*
X151172110Y-160033038D01*
X151112050Y-160116544D01*
X151103378Y-160128601D01*
X151076150Y-160156231D01*
X150984043Y-160224548D01*
X150949701Y-160242586D01*
X150831836Y-160282837D01*
X150812996Y-160287684D01*
X150660134Y-160314638D01*
X150438285Y-160353756D01*
X150418926Y-160355645D01*
X150294399Y-160358134D01*
X150255965Y-160352931D01*
X150146040Y-160320233D01*
X150111010Y-160303584D01*
X150013734Y-160237289D01*
X149989204Y-160215376D01*
X149904120Y-160116544D01*
X149888810Y-160094334D01*
X149825273Y-159976995D01*
X149815041Y-159952036D01*
X149787232Y-159855973D01*
X149776042Y-159817318D01*
X149772989Y-159804169D01*
X149697251Y-159374631D01*
X149695582Y-159360601D01*
X149687143Y-159225393D01*
X149688549Y-159197214D01*
X149709260Y-159070537D01*
X149716902Y-159043375D01*
X149765282Y-158924486D01*
X149778775Y-158899708D01*
X149825825Y-158832513D01*
X149852400Y-158794560D01*
X149871067Y-158773409D01*
X149966244Y-158687282D01*
X149989152Y-158670812D01*
X150101101Y-158608025D01*
X150127099Y-158597066D01*
X150257051Y-158558748D01*
X150270796Y-158555521D01*
X150298859Y-158550572D01*
X150355349Y-158540612D01*
X150369379Y-158538943D01*
X150504589Y-158530504D01*
X150532768Y-158531910D01*
G37*
G04 #@! TD.AperFunction*
G04 #@! TA.AperFunction,Conductor*
G36*
X244542121Y-146820002D02*
G01*
X244588614Y-146873658D01*
X244600000Y-146926000D01*
X244600000Y-148438500D01*
X244579998Y-148506621D01*
X244526342Y-148553114D01*
X244474000Y-148564500D01*
X243930252Y-148564500D01*
X243924184Y-148565707D01*
X243883939Y-148573712D01*
X243883938Y-148573712D01*
X243871769Y-148576133D01*
X243861453Y-148583026D01*
X243849983Y-148587777D01*
X243848659Y-148584580D01*
X243797827Y-148600000D01*
X243400000Y-148600000D01*
X243200000Y-148800000D01*
X243200000Y-149247810D01*
X243179998Y-149315931D01*
X243163095Y-149336905D01*
X243036905Y-149463095D01*
X242974593Y-149497121D01*
X242947810Y-149500000D01*
X240426000Y-149500000D01*
X240357879Y-149479998D01*
X240311386Y-149426342D01*
X240300000Y-149374000D01*
X240300000Y-147726000D01*
X240320002Y-147657879D01*
X240373658Y-147611386D01*
X240426000Y-147600000D01*
X242000000Y-147600000D01*
X242200000Y-147400000D01*
X242200000Y-147052190D01*
X242220002Y-146984069D01*
X242236905Y-146963095D01*
X242363095Y-146836905D01*
X242425407Y-146802879D01*
X242452190Y-146800000D01*
X244474000Y-146800000D01*
X244542121Y-146820002D01*
G37*
G04 #@! TD.AperFunction*
G04 #@! TA.AperFunction,Conductor*
G36*
X244715931Y-150120002D02*
G01*
X244736905Y-150136905D01*
X244863095Y-150263095D01*
X244897121Y-150325407D01*
X244900000Y-150352190D01*
X244900000Y-151747810D01*
X244879998Y-151815931D01*
X244863095Y-151836905D01*
X244736905Y-151963095D01*
X244674593Y-151997121D01*
X244647810Y-152000000D01*
X240326000Y-152000000D01*
X240257879Y-151979998D01*
X240211386Y-151926342D01*
X240200000Y-151874000D01*
X240200000Y-150226000D01*
X240220002Y-150157879D01*
X240273658Y-150111386D01*
X240326000Y-150100000D01*
X244647810Y-150100000D01*
X244715931Y-150120002D01*
G37*
G04 #@! TD.AperFunction*
G04 #@! TA.AperFunction,Conductor*
G36*
X164795094Y-109460176D02*
G01*
X164922244Y-109477722D01*
X164949585Y-109484684D01*
X165069645Y-109530085D01*
X165094753Y-109542957D01*
X165207634Y-109617874D01*
X165218950Y-109626335D01*
X165284715Y-109681519D01*
X165295008Y-109691190D01*
X165388392Y-109789351D01*
X165405428Y-109811842D01*
X165470983Y-109922187D01*
X165482588Y-109947905D01*
X165521948Y-110070080D01*
X165527538Y-110097735D01*
X165538726Y-110225607D01*
X165538023Y-110253812D01*
X165526757Y-110335456D01*
X165520477Y-110380961D01*
X165513515Y-110408304D01*
X165468114Y-110528363D01*
X165455242Y-110553471D01*
X165380326Y-110666351D01*
X165371865Y-110677667D01*
X165091504Y-111011788D01*
X165082282Y-111021653D01*
X164981152Y-111118819D01*
X164959821Y-111135311D01*
X164846121Y-111205165D01*
X164821759Y-111216743D01*
X164698652Y-111259795D01*
X164666458Y-111266505D01*
X164549065Y-111275281D01*
X164510402Y-111272184D01*
X164398864Y-111245540D01*
X164362970Y-111230827D01*
X164256370Y-111166408D01*
X164240547Y-111155091D01*
X163949078Y-110910519D01*
X163935186Y-110896901D01*
X163853237Y-110803111D01*
X163832513Y-110770318D01*
X163792353Y-110677667D01*
X163786906Y-110665101D01*
X163777141Y-110627559D01*
X163765399Y-110510428D01*
X163766418Y-110477552D01*
X163787437Y-110348844D01*
X163794610Y-110322840D01*
X163843655Y-110198746D01*
X163856198Y-110174864D01*
X163917425Y-110083594D01*
X163934327Y-110058398D01*
X163942441Y-110047604D01*
X164222802Y-109713484D01*
X164232471Y-109703192D01*
X164330634Y-109609806D01*
X164353119Y-109592775D01*
X164463472Y-109527215D01*
X164489190Y-109515610D01*
X164611361Y-109476251D01*
X164639016Y-109470661D01*
X164766889Y-109459473D01*
X164795094Y-109460176D01*
G37*
G04 #@! TD.AperFunction*
G04 #@! TA.AperFunction,Conductor*
G36*
X153821935Y-127415504D02*
G01*
X153909633Y-127416597D01*
X153937628Y-127420105D01*
X154069331Y-127451897D01*
X154082834Y-127455970D01*
X154148849Y-127479998D01*
X154163534Y-127485343D01*
X154176507Y-127490907D01*
X154297829Y-127551207D01*
X154321527Y-127566512D01*
X154420881Y-127647792D01*
X154440576Y-127667985D01*
X154519348Y-127769328D01*
X154534061Y-127793405D01*
X154588307Y-127909737D01*
X154597293Y-127936481D01*
X154624294Y-128061968D01*
X154627103Y-128090044D01*
X154625503Y-128218387D01*
X154621995Y-128246383D01*
X154590203Y-128378082D01*
X154586122Y-128391610D01*
X154436947Y-128801463D01*
X154431654Y-128813889D01*
X154369858Y-128939781D01*
X154355448Y-128962583D01*
X154310350Y-129019412D01*
X154272501Y-129067105D01*
X154253570Y-129086316D01*
X154205557Y-129125580D01*
X154152612Y-129168877D01*
X154124649Y-129186198D01*
X154017343Y-129234592D01*
X153979948Y-129244907D01*
X153866021Y-129258018D01*
X153827263Y-129256468D01*
X153792665Y-129249652D01*
X153705060Y-129232393D01*
X153686321Y-129227170D01*
X153328780Y-129097036D01*
X153311067Y-129088991D01*
X153201983Y-129028885D01*
X153171294Y-129005157D01*
X153092453Y-128921886D01*
X153070437Y-128889949D01*
X153019340Y-128783896D01*
X153009053Y-128752653D01*
X152984784Y-128624520D01*
X152982630Y-128597631D01*
X152986274Y-128464245D01*
X152989892Y-128437517D01*
X153023477Y-128301350D01*
X153027410Y-128288428D01*
X153176581Y-127878584D01*
X153182150Y-127865599D01*
X153242454Y-127744269D01*
X153257762Y-127720568D01*
X153300779Y-127667985D01*
X153339034Y-127621222D01*
X153359231Y-127601522D01*
X153460573Y-127522751D01*
X153484650Y-127508038D01*
X153600983Y-127453792D01*
X153627728Y-127444806D01*
X153753213Y-127417806D01*
X153781288Y-127414997D01*
X153821935Y-127415504D01*
G37*
G04 #@! TD.AperFunction*
G04 #@! TA.AperFunction,Conductor*
G36*
X188308621Y-205702991D02*
G01*
X188336616Y-205706499D01*
X188468322Y-205738293D01*
X188481836Y-205742370D01*
X188618846Y-205792237D01*
X188891697Y-205891547D01*
X188904123Y-205896840D01*
X189030015Y-205958636D01*
X189052819Y-205973047D01*
X189157339Y-206055993D01*
X189176552Y-206074926D01*
X189259111Y-206175882D01*
X189276432Y-206203845D01*
X189324826Y-206311151D01*
X189335141Y-206348546D01*
X189348252Y-206462471D01*
X189346702Y-206501232D01*
X189322627Y-206623434D01*
X189317404Y-206642173D01*
X189187270Y-206999714D01*
X189179225Y-207017427D01*
X189119119Y-207126511D01*
X189095391Y-207157200D01*
X189012120Y-207236041D01*
X188980183Y-207258057D01*
X188874131Y-207309154D01*
X188842888Y-207319441D01*
X188714754Y-207343710D01*
X188687865Y-207345864D01*
X188619133Y-207343986D01*
X188554475Y-207342219D01*
X188527751Y-207338602D01*
X188408357Y-207309154D01*
X188391584Y-207305017D01*
X188378666Y-207301085D01*
X187968817Y-207151913D01*
X187955833Y-207146344D01*
X187834503Y-207086040D01*
X187810802Y-207070732D01*
X187745643Y-207017427D01*
X187711456Y-206989460D01*
X187691756Y-206969263D01*
X187612985Y-206867921D01*
X187598272Y-206843844D01*
X187544026Y-206727511D01*
X187535040Y-206700766D01*
X187508040Y-206575281D01*
X187505231Y-206547206D01*
X187506831Y-206418861D01*
X187510339Y-206390866D01*
X187520555Y-206348546D01*
X187542131Y-206259163D01*
X187546204Y-206245660D01*
X187575576Y-206164962D01*
X187581141Y-206151987D01*
X187641441Y-206030665D01*
X187656746Y-206006967D01*
X187738026Y-205907613D01*
X187758219Y-205887918D01*
X187859562Y-205809146D01*
X187883639Y-205794433D01*
X187999971Y-205740187D01*
X188026715Y-205731201D01*
X188089459Y-205717700D01*
X188152203Y-205704200D01*
X188180278Y-205701391D01*
X188308621Y-205702991D01*
G37*
G04 #@! TD.AperFunction*
G04 #@! TA.AperFunction,Conductor*
G36*
X157246684Y-178412302D02*
G01*
X157291572Y-178413981D01*
X157319470Y-178418186D01*
X157443458Y-178451408D01*
X157469722Y-178461717D01*
X157583199Y-178521692D01*
X157606511Y-178537585D01*
X157703807Y-178621314D01*
X157722997Y-178641996D01*
X157803448Y-178751005D01*
X157811187Y-178762826D01*
X158029265Y-179140549D01*
X158035382Y-179152591D01*
X158092097Y-179280847D01*
X158100303Y-179306544D01*
X158127055Y-179437273D01*
X158129603Y-179464128D01*
X158127953Y-179594532D01*
X158123247Y-179627087D01*
X158091344Y-179740396D01*
X158075208Y-179775672D01*
X158012023Y-179871369D01*
X157985922Y-179900064D01*
X157888930Y-179978202D01*
X157872887Y-179989199D01*
X157543366Y-180179447D01*
X157525838Y-180187836D01*
X157409658Y-180232771D01*
X157371760Y-180241027D01*
X157257287Y-180247898D01*
X157218674Y-180244234D01*
X157104585Y-180215206D01*
X157074046Y-180203007D01*
X156960283Y-180139231D01*
X156938306Y-180123601D01*
X156838463Y-180035066D01*
X156820314Y-180015113D01*
X156737594Y-179901861D01*
X156730227Y-179890549D01*
X156719154Y-179871369D01*
X156512148Y-179512823D01*
X156505780Y-179500210D01*
X156451600Y-179376029D01*
X156443286Y-179349071D01*
X156419424Y-179222955D01*
X156417315Y-179194820D01*
X156422114Y-179066552D01*
X156426319Y-179038652D01*
X156459541Y-178914666D01*
X156469850Y-178888401D01*
X156529825Y-178774924D01*
X156545718Y-178751612D01*
X156629445Y-178654318D01*
X156650126Y-178635128D01*
X156759138Y-178554675D01*
X156770959Y-178546936D01*
X156845300Y-178504015D01*
X156857913Y-178497647D01*
X156982094Y-178443467D01*
X157009051Y-178435153D01*
X157033405Y-178430545D01*
X157135168Y-178411291D01*
X157163303Y-178409182D01*
X157246684Y-178412302D01*
G37*
G04 #@! TD.AperFunction*
G04 #@! TA.AperFunction,Conductor*
G36*
X211616393Y-88919922D02*
G01*
X211751022Y-88935091D01*
X211778531Y-88941370D01*
X211899684Y-88983764D01*
X211925102Y-88996004D01*
X212033794Y-89064300D01*
X212055847Y-89081888D01*
X212146606Y-89172647D01*
X212164194Y-89194700D01*
X212230028Y-89299474D01*
X212232489Y-89303390D01*
X212244730Y-89328810D01*
X212287124Y-89449963D01*
X212293403Y-89477472D01*
X212308572Y-89612101D01*
X212309364Y-89626208D01*
X212309364Y-89712052D01*
X212308572Y-89726159D01*
X212293403Y-89860788D01*
X212287124Y-89888297D01*
X212244730Y-90009450D01*
X212232490Y-90034868D01*
X212164194Y-90143560D01*
X212146606Y-90165613D01*
X212055847Y-90256372D01*
X212033794Y-90273960D01*
X211925104Y-90342255D01*
X211899684Y-90354496D01*
X211778531Y-90396890D01*
X211751022Y-90403169D01*
X211616393Y-90418338D01*
X211602286Y-90419130D01*
X211166127Y-90419130D01*
X211152639Y-90418406D01*
X211152008Y-90418338D01*
X211099584Y-90412694D01*
X211013207Y-90403394D01*
X210986851Y-90397652D01*
X210860259Y-90355455D01*
X210835734Y-90344237D01*
X210723624Y-90277605D01*
X210697786Y-90257255D01*
X210615605Y-90172967D01*
X210593123Y-90141355D01*
X210541838Y-90038786D01*
X210530038Y-90001833D01*
X210510866Y-89878771D01*
X210509364Y-89859375D01*
X210509364Y-89478885D01*
X210510866Y-89459489D01*
X210530038Y-89336427D01*
X210541838Y-89299474D01*
X210593123Y-89196905D01*
X210615605Y-89165293D01*
X210697786Y-89081005D01*
X210723624Y-89060655D01*
X210835734Y-88994023D01*
X210860259Y-88982805D01*
X210986851Y-88940608D01*
X211013207Y-88934866D01*
X211099584Y-88925566D01*
X211152640Y-88919854D01*
X211166127Y-88919130D01*
X211602286Y-88919130D01*
X211616393Y-88919922D01*
G37*
G04 #@! TD.AperFunction*
G04 #@! TA.AperFunction,Conductor*
G36*
X150966842Y-137543677D02*
G01*
X150986092Y-137544878D01*
X151000117Y-137546547D01*
X151042396Y-137554001D01*
X151084673Y-137561455D01*
X151098423Y-137564684D01*
X151228370Y-137603000D01*
X151254370Y-137613960D01*
X151366319Y-137676747D01*
X151389227Y-137693217D01*
X151484404Y-137779344D01*
X151503071Y-137800495D01*
X151576696Y-137905643D01*
X151590189Y-137930421D01*
X151638569Y-138049310D01*
X151646211Y-138076471D01*
X151666923Y-138203148D01*
X151668329Y-138231328D01*
X151659890Y-138366536D01*
X151658223Y-138380553D01*
X151627235Y-138556294D01*
X151598987Y-138716498D01*
X151582482Y-138810105D01*
X151579429Y-138823253D01*
X151568239Y-138861908D01*
X151540430Y-138957971D01*
X151530198Y-138982930D01*
X151466663Y-139100266D01*
X151451353Y-139122477D01*
X151366262Y-139221316D01*
X151341734Y-139243226D01*
X151267791Y-139293620D01*
X151244464Y-139309518D01*
X151209429Y-139326170D01*
X151099508Y-139358865D01*
X151061070Y-139364069D01*
X150936546Y-139361580D01*
X150917184Y-139359691D01*
X150911543Y-139358696D01*
X150729829Y-139326655D01*
X150542474Y-139293620D01*
X150523639Y-139288774D01*
X150405768Y-139248521D01*
X150371430Y-139230485D01*
X150279318Y-139162165D01*
X150252094Y-139134538D01*
X150183359Y-139038970D01*
X150167805Y-139009992D01*
X150121653Y-138888014D01*
X150114863Y-138861908D01*
X150095290Y-138729918D01*
X150094212Y-138702964D01*
X150103640Y-138563044D01*
X150105269Y-138549635D01*
X150181009Y-138120098D01*
X150184239Y-138106343D01*
X150222555Y-137976395D01*
X150233514Y-137950396D01*
X150252092Y-137917271D01*
X150296303Y-137838441D01*
X150312768Y-137815541D01*
X150398897Y-137720363D01*
X150420048Y-137701696D01*
X150525196Y-137628071D01*
X150549974Y-137614578D01*
X150668863Y-137566198D01*
X150696025Y-137558556D01*
X150822702Y-137537845D01*
X150850881Y-137536439D01*
X150966842Y-137543677D01*
G37*
G04 #@! TD.AperFunction*
G04 #@! TA.AperFunction,Conductor*
G36*
X209942121Y-188520002D02*
G01*
X209988614Y-188573658D01*
X210000000Y-188626000D01*
X210000000Y-189474000D01*
X209979998Y-189542121D01*
X209926342Y-189588614D01*
X209874000Y-189600000D01*
X207400000Y-189600000D01*
X207200000Y-189800000D01*
X207200000Y-191000000D01*
X207400000Y-191200000D01*
X207499684Y-191200000D01*
X207503082Y-191200167D01*
X207504752Y-191200499D01*
X207874000Y-191200499D01*
X207942121Y-191220501D01*
X207988614Y-191274157D01*
X208000000Y-191326499D01*
X208000000Y-191373499D01*
X207979998Y-191441620D01*
X207926342Y-191488113D01*
X207874000Y-191499499D01*
X207504752Y-191499499D01*
X207503075Y-191499833D01*
X207499664Y-191500000D01*
X206852190Y-191500000D01*
X206784069Y-191479998D01*
X206763095Y-191463095D01*
X206636905Y-191336905D01*
X206602879Y-191274593D01*
X206600000Y-191247810D01*
X206600000Y-188752190D01*
X206620002Y-188684069D01*
X206636905Y-188663095D01*
X206763095Y-188536905D01*
X206825407Y-188502879D01*
X206852190Y-188500000D01*
X209874000Y-188500000D01*
X209942121Y-188520002D01*
G37*
G04 #@! TD.AperFunction*
M02*
