%FSLAX45Y45*%
G04 Gerber Fmt 4.5, Leading zero omitted, Abs format (unit mm)*
G04 Created by KiCad (PCBNEW (6.0.6)) date 2023-02-05 11:55:53*
%MOMM*%
%LPD*%
G01*
G04 APERTURE LIST*
%TA.AperFunction,Profile*%
%ADD10C,0.100000*%
%TD*%
%ADD11C,0.200000*%
G04 APERTURE END LIST*
D10*
X27370936Y-15011913D02*
G75*
G03*
X27370936Y-15011913I-6350000J0D01*
G01*
X25287165Y-17180404D02*
X23413332Y-19054236D01*
X22479951Y-18120856D01*
X24353784Y-16247022D01*
X25287165Y-17180404D01*
D11*
X14923555Y-21677389D02*
X14923555Y-21477389D01*
X14971174Y-21477389D01*
X14999746Y-21486913D01*
X15018793Y-21505961D01*
X15028317Y-21525008D01*
X15037841Y-21563103D01*
X15037841Y-21591675D01*
X15028317Y-21629770D01*
X15018793Y-21648818D01*
X14999746Y-21667865D01*
X14971174Y-21677389D01*
X14923555Y-21677389D01*
X15123555Y-21677389D02*
X15123555Y-21544056D01*
X15123555Y-21582151D02*
X15133079Y-21563103D01*
X15142603Y-21553580D01*
X15161651Y-21544056D01*
X15180698Y-21544056D01*
X15247365Y-21677389D02*
X15247365Y-21544056D01*
X15247365Y-21477389D02*
X15237841Y-21486913D01*
X15247365Y-21496437D01*
X15256889Y-21486913D01*
X15247365Y-21477389D01*
X15247365Y-21496437D01*
X15371174Y-21677389D02*
X15352127Y-21667865D01*
X15342603Y-21648818D01*
X15342603Y-21477389D01*
X15475936Y-21677389D02*
X15456889Y-21667865D01*
X15447365Y-21648818D01*
X15447365Y-21477389D01*
X15704508Y-21677389D02*
X15704508Y-21477389D01*
X15771174Y-21620246D01*
X15837841Y-21477389D01*
X15837841Y-21677389D01*
X16018793Y-21677389D02*
X16018793Y-21572627D01*
X16009270Y-21553580D01*
X15990222Y-21544056D01*
X15952127Y-21544056D01*
X15933079Y-21553580D01*
X16018793Y-21667865D02*
X15999746Y-21677389D01*
X15952127Y-21677389D01*
X15933079Y-21667865D01*
X15923555Y-21648818D01*
X15923555Y-21629770D01*
X15933079Y-21610723D01*
X15952127Y-21601199D01*
X15999746Y-21601199D01*
X16018793Y-21591675D01*
X16114032Y-21544056D02*
X16114032Y-21744056D01*
X16114032Y-21553580D02*
X16133079Y-21544056D01*
X16171174Y-21544056D01*
X16190222Y-21553580D01*
X16199746Y-21563103D01*
X16209270Y-21582151D01*
X16209270Y-21639294D01*
X16199746Y-21658342D01*
X16190222Y-21667865D01*
X16171174Y-21677389D01*
X16133079Y-21677389D01*
X16114032Y-21667865D01*
X16294984Y-21658342D02*
X16304508Y-21667865D01*
X16294984Y-21677389D01*
X16285460Y-21667865D01*
X16294984Y-21658342D01*
X16294984Y-21677389D01*
X16294984Y-21553580D02*
X16304508Y-21563103D01*
X16294984Y-21572627D01*
X16285460Y-21563103D01*
X16294984Y-21553580D01*
X16294984Y-21572627D01*
M02*
