%FSLAX45Y45*%
G04 Gerber Fmt 4.5, Leading zero omitted, Abs format (unit mm)*
G04 Created by KiCad (PCBNEW (6.0.6)) date 2023-02-05 11:55:53*
%MOMM*%
%LPD*%
G01*
G04 APERTURE LIST*
%TA.AperFunction,Profile*%
%ADD10C,0.100000*%
%TD*%
%ADD11C,0.200000*%
%ADD12C,0.025000*%
%ADD13C,0.050000*%
%ADD14C,0.090000*%
%ADD15C,0.100000*%
%ADD16C,0.102000*%
%ADD17C,0.150000*%
%ADD18C,0.170000*%
%ADD19C,0.220000*%
%ADD20C,0.241000*%
G04 APERTURE END LIST*
D10*
X27370936Y-15011913D02*
G75*
G03*
X27370936Y-15011913I-6350000J0D01*
G01*
X25287165Y-17180404D02*
X23413332Y-19054236D01*
X22479951Y-18120856D01*
X24353784Y-16247022D01*
X25287165Y-17180404D01*
D11*
D12*
X14928436Y-14929413D02*
X14953436Y-14954413D01*
X14953436Y-14929413D02*
X14928436Y-14954413D01*
X14994102Y-14930096D02*
X15019102Y-14955096D01*
X15019102Y-14930096D02*
X14994102Y-14955096D01*
X15008650Y-15986257D02*
X15033650Y-16011257D01*
X15033650Y-15986257D02*
X15008650Y-16011257D01*
X15032961Y-13874695D02*
X15057961Y-13899695D01*
X15057961Y-13874695D02*
X15032961Y-13899695D01*
X15073437Y-15975527D02*
X15098437Y-16000527D01*
X15098437Y-15975527D02*
X15073437Y-16000527D01*
X15097510Y-13886771D02*
X15122510Y-13911771D01*
X15122510Y-13886771D02*
X15097510Y-13911771D01*
X15271164Y-17013117D02*
X15296164Y-17038117D01*
X15296164Y-17013117D02*
X15271164Y-17038117D01*
X15298436Y-15379413D02*
X15323436Y-15404413D01*
X15323436Y-15379413D02*
X15298436Y-15404413D01*
X15319047Y-12854152D02*
X15344047Y-12879152D01*
X15344047Y-12854152D02*
X15319047Y-12879152D01*
X15319198Y-14382109D02*
X15344198Y-14407109D01*
X15344198Y-14382109D02*
X15319198Y-14407109D01*
X15333103Y-16991300D02*
X15358103Y-17016300D01*
X15358103Y-16991300D02*
X15333103Y-17016300D01*
X15380519Y-12877253D02*
X15405519Y-12902253D01*
X15405519Y-12877253D02*
X15380519Y-12902253D01*
X15451170Y-16365171D02*
X15476170Y-16390171D01*
X15476170Y-16365171D02*
X15451170Y-16390171D01*
X15512824Y-13403561D02*
X15537824Y-13428561D01*
X15537824Y-13403561D02*
X15512824Y-13428561D01*
X15708002Y-17978791D02*
X15733002Y-18003791D01*
X15733002Y-17978791D02*
X15708002Y-18003791D01*
X15765212Y-17946550D02*
X15790212Y-17971550D01*
X15790212Y-17946550D02*
X15765212Y-17971550D01*
X15772759Y-17309431D02*
X15797759Y-17334431D01*
X15797759Y-17309431D02*
X15772759Y-17334431D01*
X15778002Y-11898791D02*
X15803002Y-11923791D01*
X15803002Y-11898791D02*
X15778002Y-11923791D01*
X15834529Y-11932216D02*
X15859529Y-11957216D01*
X15859529Y-11932216D02*
X15834529Y-11957216D01*
X15873431Y-12473503D02*
X15898431Y-12498503D01*
X15898431Y-12473503D02*
X15873431Y-12498503D01*
X16087500Y-14267500D02*
X16112500Y-14292500D01*
X16112500Y-14267500D02*
X16087500Y-14292500D01*
X16087500Y-16527500D02*
X16112500Y-16552500D01*
X16112500Y-16527500D02*
X16087500Y-16552500D01*
X16147500Y-14267500D02*
X16172500Y-14292500D01*
X16172500Y-14267500D02*
X16147500Y-14292500D01*
X16147500Y-16527500D02*
X16172500Y-16552500D01*
X16172500Y-16527500D02*
X16147500Y-16552500D01*
X16207500Y-14267500D02*
X16232500Y-14292500D01*
X16232500Y-14267500D02*
X16207500Y-14292500D01*
X16207500Y-16527500D02*
X16232500Y-16552500D01*
X16232500Y-16527500D02*
X16207500Y-16552500D01*
X16253431Y-18183503D02*
X16278431Y-18208503D01*
X16278431Y-18183503D02*
X16253431Y-18208503D01*
X16305891Y-18853939D02*
X16330891Y-18878939D01*
X16330891Y-18853939D02*
X16305891Y-18878939D01*
X16356633Y-18812252D02*
X16381633Y-18837252D01*
X16381633Y-18812252D02*
X16356633Y-18837252D01*
X16367500Y-15827500D02*
X16392500Y-15852500D01*
X16392500Y-15827500D02*
X16367500Y-15852500D01*
X16367500Y-15907500D02*
X16392500Y-15932500D01*
X16392500Y-15907500D02*
X16367500Y-15932500D01*
X16387500Y-12997500D02*
X16412500Y-13022500D01*
X16412500Y-12997500D02*
X16387500Y-13022500D01*
X16387500Y-13057500D02*
X16412500Y-13082500D01*
X16412500Y-13057500D02*
X16387500Y-13082500D01*
X16387500Y-13117500D02*
X16412500Y-13142500D01*
X16412500Y-13117500D02*
X16387500Y-13142500D01*
X16390063Y-11620193D02*
X16415063Y-11645193D01*
X16415063Y-11620193D02*
X16390063Y-11645193D01*
X16395881Y-11037641D02*
X16420881Y-11062641D01*
X16420881Y-11037641D02*
X16395881Y-11062641D01*
X16445745Y-11080374D02*
X16470745Y-11105374D01*
X16470745Y-11080374D02*
X16445745Y-11105374D01*
X16497500Y-16227500D02*
X16522500Y-16252500D01*
X16522500Y-16227500D02*
X16497500Y-16252500D01*
X16577500Y-16227500D02*
X16602500Y-16252500D01*
X16602500Y-16227500D02*
X16577500Y-16252500D01*
X16867500Y-12997500D02*
X16892500Y-13022500D01*
X16892500Y-12997500D02*
X16867500Y-13022500D01*
X16867500Y-13057500D02*
X16892500Y-13082500D01*
X16892500Y-13057500D02*
X16867500Y-13082500D01*
X16867500Y-13117500D02*
X16892500Y-13142500D01*
X16892500Y-13117500D02*
X16867500Y-13142500D01*
X16878582Y-18960827D02*
X16903582Y-18985827D01*
X16903582Y-18960827D02*
X16878582Y-18985827D01*
X16927500Y-16477500D02*
X16952500Y-16502500D01*
X16952500Y-16477500D02*
X16927500Y-16502500D01*
X16927500Y-16557500D02*
X16952500Y-16582500D01*
X16952500Y-16557500D02*
X16927500Y-16582500D01*
X17046665Y-19611968D02*
X17071665Y-19636968D01*
X17071665Y-19611968D02*
X17046665Y-19636968D01*
X17047022Y-10869559D02*
X17072022Y-10894559D01*
X17072022Y-10869559D02*
X17047022Y-10894559D01*
X17089397Y-19562104D02*
X17114397Y-19587104D01*
X17114397Y-19562104D02*
X17089397Y-19587104D01*
X17153911Y-10296868D02*
X17178911Y-10321868D01*
X17178911Y-10296868D02*
X17153911Y-10321868D01*
X17195597Y-10347610D02*
X17220597Y-10372610D01*
X17220597Y-10347610D02*
X17195597Y-10372610D01*
X17357500Y-16937500D02*
X17382500Y-16962500D01*
X17382500Y-16937500D02*
X17357500Y-16962500D01*
X17357500Y-16997500D02*
X17382500Y-17022500D01*
X17382500Y-16997500D02*
X17357500Y-17022500D01*
X17357500Y-17057500D02*
X17382500Y-17082500D01*
X17382500Y-17057500D02*
X17357500Y-17082500D01*
X17629216Y-19617786D02*
X17654216Y-19642786D01*
X17654216Y-19617786D02*
X17629216Y-19642786D01*
X17824347Y-10244408D02*
X17849347Y-10269408D01*
X17849347Y-10244408D02*
X17824347Y-10269408D01*
X17867500Y-16937500D02*
X17892500Y-16962500D01*
X17892500Y-16937500D02*
X17867500Y-16962500D01*
X17867500Y-16997500D02*
X17892500Y-17022500D01*
X17892500Y-16997500D02*
X17867500Y-17022500D01*
X17867500Y-17057500D02*
X17892500Y-17082500D01*
X17892500Y-17057500D02*
X17867500Y-17082500D01*
X17907815Y-20229848D02*
X17932815Y-20254848D01*
X17932815Y-20229848D02*
X17907815Y-20254848D01*
X17937500Y-12997500D02*
X17962500Y-13022500D01*
X17962500Y-12997500D02*
X17937500Y-13022500D01*
X17937500Y-13057500D02*
X17962500Y-13082500D01*
X17962500Y-13057500D02*
X17937500Y-13082500D01*
X17937500Y-13117500D02*
X17962500Y-13142500D01*
X17962500Y-13117500D02*
X17937500Y-13142500D01*
X17941239Y-20173321D02*
X17966239Y-20198321D01*
X17966239Y-20173321D02*
X17941239Y-20198321D01*
X18029058Y-9698979D02*
X18054058Y-9723979D01*
X18054058Y-9698979D02*
X18029058Y-9723979D01*
X18061300Y-9756188D02*
X18086300Y-9781188D01*
X18086300Y-9756188D02*
X18061300Y-9781188D01*
X18482526Y-20134418D02*
X18507526Y-20159418D01*
X18507526Y-20134418D02*
X18482526Y-20159418D01*
X18547500Y-16957500D02*
X18572500Y-16982500D01*
X18572500Y-16957500D02*
X18547500Y-16982500D01*
X18587500Y-16534950D02*
X18612500Y-16559950D01*
X18612500Y-16534950D02*
X18587500Y-16559950D01*
X18597500Y-14267500D02*
X18622500Y-14292500D01*
X18622500Y-14267500D02*
X18597500Y-14292500D01*
X18647500Y-16537500D02*
X18672500Y-16562500D01*
X18672500Y-16537500D02*
X18647500Y-16562500D01*
X18657500Y-14267500D02*
X18682500Y-14292500D01*
X18682500Y-14267500D02*
X18657500Y-14292500D01*
X18698418Y-9763736D02*
X18723418Y-9788736D01*
X18723418Y-9763736D02*
X18698418Y-9788736D01*
X18707500Y-16537500D02*
X18732500Y-16562500D01*
X18732500Y-16537500D02*
X18707500Y-16562500D01*
X18717500Y-14267500D02*
X18742500Y-14292500D01*
X18742500Y-14267500D02*
X18717500Y-14292500D01*
X18827500Y-15897500D02*
X18852500Y-15922500D01*
X18852500Y-15897500D02*
X18827500Y-15922500D01*
X18827500Y-15977500D02*
X18852500Y-16002500D01*
X18852500Y-15977500D02*
X18827500Y-16002500D01*
X18853350Y-15141650D02*
X18878350Y-15166650D01*
X18878350Y-15141650D02*
X18853350Y-15166650D01*
X18857500Y-14627500D02*
X18882500Y-14652500D01*
X18882500Y-14627500D02*
X18857500Y-14652500D01*
X18857500Y-14707500D02*
X18882500Y-14732500D01*
X18882500Y-14707500D02*
X18857500Y-14732500D01*
X18857500Y-14877500D02*
X18882500Y-14902500D01*
X18882500Y-14877500D02*
X18857500Y-14902500D01*
X18857500Y-14957500D02*
X18882500Y-14982500D01*
X18882500Y-14957500D02*
X18857500Y-14982500D01*
X18857500Y-15217500D02*
X18882500Y-15242500D01*
X18882500Y-15217500D02*
X18857500Y-15242500D01*
X18863175Y-20688803D02*
X18888175Y-20713803D01*
X18888175Y-20688803D02*
X18863175Y-20713803D01*
X18886276Y-20627330D02*
X18911276Y-20652330D01*
X18911276Y-20627330D02*
X18886276Y-20652330D01*
X18947500Y-15987500D02*
X18972500Y-16012500D01*
X18972500Y-15987500D02*
X18947500Y-16012500D01*
X18947500Y-16067500D02*
X18972500Y-16092500D01*
X18972500Y-16067500D02*
X18947500Y-16092500D01*
X18994732Y-9262141D02*
X19019732Y-9287141D01*
X19019732Y-9262141D02*
X18994732Y-9287141D01*
X19016550Y-9324080D02*
X19041550Y-9349080D01*
X19041550Y-9324080D02*
X19016550Y-9349080D01*
X19077500Y-16077500D02*
X19102500Y-16102500D01*
X19102500Y-16077500D02*
X19077500Y-16102500D01*
X19077500Y-16157500D02*
X19102500Y-16182500D01*
X19102500Y-16157500D02*
X19077500Y-16182500D01*
X19412585Y-20495026D02*
X19437585Y-20520026D01*
X19437585Y-20495026D02*
X19412585Y-20520026D01*
X19642678Y-9442147D02*
X19667678Y-9467147D01*
X19667678Y-9442147D02*
X19642678Y-9467147D01*
X19817500Y-16737500D02*
X19842500Y-16762500D01*
X19842500Y-16737500D02*
X19817500Y-16762500D01*
X19817500Y-16817500D02*
X19842500Y-16842500D01*
X19842500Y-16817500D02*
X19817500Y-16842500D01*
X19883719Y-20974889D02*
X19908719Y-20999889D01*
X19908719Y-20974889D02*
X19883719Y-20999889D01*
X19895794Y-20910339D02*
X19920794Y-20935339D01*
X19920794Y-20910339D02*
X19895794Y-20935339D01*
X19987500Y-13787500D02*
X20012500Y-13812500D01*
X20012500Y-13787500D02*
X19987500Y-13812500D01*
X19987500Y-13867500D02*
X20012500Y-13892500D01*
X20012500Y-13867500D02*
X19987500Y-13892500D01*
X20021592Y-8999627D02*
X20046592Y-9024627D01*
X20046592Y-8999627D02*
X20021592Y-9024627D01*
X20032322Y-9064414D02*
X20057322Y-9089414D01*
X20057322Y-9064414D02*
X20032322Y-9089414D01*
X20057500Y-15487500D02*
X20082500Y-15512500D01*
X20082500Y-15487500D02*
X20057500Y-15512500D01*
X20227500Y-14707500D02*
X20252500Y-14732500D01*
X20252500Y-14707500D02*
X20227500Y-14732500D01*
X20237500Y-14237500D02*
X20262500Y-14262500D01*
X20262500Y-14237500D02*
X20237500Y-14262500D01*
X20247500Y-11967500D02*
X20272500Y-11992500D01*
X20272500Y-11967500D02*
X20247500Y-11992500D01*
X20277500Y-16037500D02*
X20302500Y-16062500D01*
X20302500Y-16037500D02*
X20277500Y-16062500D01*
X20283350Y-15141650D02*
X20308350Y-15166650D01*
X20308350Y-15141650D02*
X20283350Y-15166650D01*
X20287500Y-15057500D02*
X20312500Y-15082500D01*
X20312500Y-15057500D02*
X20287500Y-15082500D01*
X20307500Y-12247500D02*
X20332500Y-12272500D01*
X20332500Y-12247500D02*
X20307500Y-12272500D01*
X20327500Y-16737500D02*
X20352500Y-16762500D01*
X20352500Y-16737500D02*
X20327500Y-16762500D01*
X20327500Y-16817500D02*
X20352500Y-16842500D01*
X20352500Y-16817500D02*
X20327500Y-16842500D01*
X20337500Y-19647500D02*
X20362500Y-19672500D01*
X20362500Y-19647500D02*
X20337500Y-19672500D01*
X20337500Y-19717500D02*
X20362500Y-19742500D01*
X20362500Y-19717500D02*
X20337500Y-19742500D01*
X20337500Y-19777500D02*
X20362500Y-19802500D01*
X20362500Y-19777500D02*
X20337500Y-19802500D01*
X20357500Y-16037500D02*
X20382500Y-16062500D01*
X20382500Y-16037500D02*
X20357500Y-16062500D01*
X20367500Y-12307500D02*
X20392500Y-12332500D01*
X20392500Y-12307500D02*
X20367500Y-12332500D01*
X20377500Y-15837500D02*
X20402500Y-15862500D01*
X20402500Y-15837500D02*
X20377500Y-15862500D01*
X20391132Y-20688652D02*
X20416132Y-20713652D01*
X20416132Y-20688652D02*
X20391132Y-20713652D01*
X20417500Y-18077500D02*
X20442500Y-18102500D01*
X20442500Y-18077500D02*
X20417500Y-18102500D01*
X20437500Y-15777500D02*
X20462500Y-15802500D01*
X20462500Y-15777500D02*
X20437500Y-15802500D01*
X20477500Y-16037500D02*
X20502500Y-16062500D01*
X20502500Y-16037500D02*
X20477500Y-16062500D01*
X20477500Y-18077500D02*
X20502500Y-18102500D01*
X20502500Y-18077500D02*
X20477500Y-18102500D01*
X20547500Y-14647500D02*
X20572500Y-14672500D01*
X20572500Y-14647500D02*
X20547500Y-14672500D01*
X20557500Y-17087500D02*
X20582500Y-17112500D01*
X20582500Y-17087500D02*
X20557500Y-17112500D01*
X20567500Y-16037500D02*
X20592500Y-16062500D01*
X20592500Y-16037500D02*
X20567500Y-16062500D01*
X20587500Y-14567500D02*
X20612500Y-14592500D01*
X20612500Y-14567500D02*
X20587500Y-14592500D01*
X20603278Y-14927294D02*
X20628278Y-14952294D01*
X20628278Y-14927294D02*
X20603278Y-14952294D01*
X20607500Y-18577500D02*
X20632500Y-18602500D01*
X20632500Y-18577500D02*
X20607500Y-18602500D01*
X20617500Y-15607500D02*
X20642500Y-15632500D01*
X20642500Y-15607500D02*
X20617500Y-15632500D01*
X20628436Y-9289413D02*
X20653436Y-9314413D01*
X20653436Y-9289413D02*
X20628436Y-9314413D01*
X20637500Y-14997500D02*
X20662500Y-15022500D01*
X20662500Y-14997500D02*
X20637500Y-15022500D01*
X20667500Y-14387500D02*
X20692500Y-14412500D01*
X20692500Y-14387500D02*
X20667500Y-14412500D01*
X20677500Y-15547500D02*
X20702500Y-15572500D01*
X20702500Y-15547500D02*
X20677500Y-15572500D01*
X20697500Y-15057500D02*
X20722500Y-15082500D01*
X20722500Y-15057500D02*
X20697500Y-15082500D01*
X20707500Y-14947500D02*
X20732500Y-14972500D01*
X20732500Y-14947500D02*
X20707500Y-14972500D01*
X20707500Y-19257500D02*
X20732500Y-19282500D01*
X20732500Y-19257500D02*
X20707500Y-19282500D01*
X20717500Y-14867500D02*
X20742500Y-14892500D01*
X20742500Y-14867500D02*
X20717500Y-14892500D01*
X20717500Y-15737500D02*
X20742500Y-15762500D01*
X20742500Y-15737500D02*
X20717500Y-15762500D01*
X20727500Y-14337500D02*
X20752500Y-14362500D01*
X20752500Y-14337500D02*
X20727500Y-14362500D01*
X20747500Y-15117500D02*
X20772500Y-15142500D01*
X20772500Y-15117500D02*
X20747500Y-15142500D01*
X20747500Y-15517500D02*
X20772500Y-15542500D01*
X20772500Y-15517500D02*
X20747500Y-15542500D01*
X20767500Y-14807500D02*
X20792500Y-14832500D01*
X20792500Y-14807500D02*
X20767500Y-14832500D01*
X20767500Y-15007500D02*
X20792500Y-15032500D01*
X20792500Y-15007500D02*
X20767500Y-15032500D01*
X20777500Y-19277500D02*
X20802500Y-19302500D01*
X20802500Y-19277500D02*
X20777500Y-19302500D01*
X20787500Y-18697500D02*
X20812500Y-18722500D01*
X20812500Y-18697500D02*
X20787500Y-18722500D01*
X20817500Y-15067500D02*
X20842500Y-15092500D01*
X20842500Y-15067500D02*
X20817500Y-15092500D01*
X20827500Y-15187500D02*
X20852500Y-15212500D01*
X20852500Y-15187500D02*
X20827500Y-15212500D01*
X20837500Y-11927500D02*
X20862500Y-11952500D01*
X20862500Y-11927500D02*
X20837500Y-11952500D01*
X20847500Y-16947500D02*
X20872500Y-16972500D01*
X20872500Y-16947500D02*
X20847500Y-16972500D01*
X20847500Y-18697500D02*
X20872500Y-18722500D01*
X20872500Y-18697500D02*
X20847500Y-18722500D01*
X20847500Y-18787500D02*
X20872500Y-18812500D01*
X20872500Y-18787500D02*
X20847500Y-18812500D01*
X20887500Y-15137500D02*
X20912500Y-15162500D01*
X20912500Y-15137500D02*
X20887500Y-15162500D01*
X20889945Y-15238486D02*
X20914945Y-15263486D01*
X20914945Y-15238486D02*
X20889945Y-15263486D01*
X20897500Y-13997500D02*
X20922500Y-14022500D01*
X20922500Y-13997500D02*
X20897500Y-14022500D01*
X20907500Y-18697500D02*
X20932500Y-18722500D01*
X20932500Y-18697500D02*
X20907500Y-18722500D01*
X20927500Y-11897500D02*
X20952500Y-11922500D01*
X20952500Y-11897500D02*
X20927500Y-11922500D01*
X20937500Y-15357500D02*
X20962500Y-15382500D01*
X20962500Y-15357500D02*
X20937500Y-15382500D01*
X20938436Y-21079413D02*
X20963436Y-21104413D01*
X20963436Y-21079413D02*
X20938436Y-21104413D01*
X20939119Y-21013747D02*
X20964119Y-21038747D01*
X20964119Y-21013747D02*
X20939119Y-21038747D01*
X20947500Y-14677500D02*
X20972500Y-14702500D01*
X20972500Y-14677500D02*
X20947500Y-14702500D01*
X20957500Y-15277500D02*
X20982500Y-15302500D01*
X20982500Y-15277500D02*
X20957500Y-15302500D01*
X20967500Y-19417500D02*
X20992500Y-19442500D01*
X20992500Y-19417500D02*
X20967500Y-19442500D01*
X20967500Y-19477500D02*
X20992500Y-19502500D01*
X20992500Y-19477500D02*
X20967500Y-19502500D01*
X20967500Y-19537500D02*
X20992500Y-19562500D01*
X20992500Y-19537500D02*
X20967500Y-19562500D01*
X20977500Y-13997500D02*
X21002500Y-14022500D01*
X21002500Y-13997500D02*
X20977500Y-14022500D01*
X20997500Y-15757500D02*
X21022500Y-15782500D01*
X21022500Y-15757500D02*
X20997500Y-15782500D01*
X21017500Y-14627500D02*
X21042500Y-14652500D01*
X21042500Y-14627500D02*
X21017500Y-14652500D01*
X21017500Y-19237500D02*
X21042500Y-19262500D01*
X21042500Y-19237500D02*
X21017500Y-19262500D01*
X21074380Y-14734380D02*
X21099380Y-14759380D01*
X21099380Y-14734380D02*
X21074380Y-14759380D01*
X21077500Y-15307500D02*
X21102500Y-15332500D01*
X21102500Y-15307500D02*
X21077500Y-15332500D01*
X21077754Y-8985079D02*
X21102754Y-9010079D01*
X21102754Y-8985079D02*
X21077754Y-9010079D01*
X21078436Y-8919413D02*
X21103436Y-8944413D01*
X21103436Y-8919413D02*
X21078436Y-8944413D01*
X21107500Y-15227500D02*
X21132500Y-15252500D01*
X21132500Y-15227500D02*
X21107500Y-15252500D01*
X21127500Y-14797500D02*
X21152500Y-14822500D01*
X21152500Y-14797500D02*
X21127500Y-14822500D01*
X21137500Y-15637500D02*
X21162500Y-15662500D01*
X21162500Y-15637500D02*
X21137500Y-15662500D01*
X21147500Y-17677500D02*
X21172500Y-17702500D01*
X21172500Y-17677500D02*
X21147500Y-17702500D01*
X21157500Y-15147500D02*
X21182500Y-15172500D01*
X21182500Y-15147500D02*
X21157500Y-15172500D01*
X21157500Y-17407500D02*
X21182500Y-17432500D01*
X21182500Y-17407500D02*
X21157500Y-17432500D01*
X21207500Y-17177500D02*
X21232500Y-17202500D01*
X21232500Y-17177500D02*
X21207500Y-17202500D01*
X21207500Y-17677500D02*
X21232500Y-17702500D01*
X21232500Y-17677500D02*
X21207500Y-17702500D01*
X21217500Y-14850050D02*
X21242500Y-14875050D01*
X21242500Y-14850050D02*
X21217500Y-14875050D01*
X21217500Y-15607500D02*
X21242500Y-15632500D01*
X21242500Y-15607500D02*
X21217500Y-15632500D01*
X21217500Y-17407500D02*
X21242500Y-17432500D01*
X21242500Y-17407500D02*
X21217500Y-17432500D01*
X21237500Y-15127500D02*
X21262500Y-15152500D01*
X21262500Y-15127500D02*
X21237500Y-15152500D01*
X21257500Y-19057500D02*
X21282500Y-19082500D01*
X21282500Y-19057500D02*
X21257500Y-19082500D01*
X21257500Y-19147500D02*
X21282500Y-19172500D01*
X21282500Y-19147500D02*
X21257500Y-19172500D01*
X21277500Y-18957500D02*
X21302500Y-18982500D01*
X21302500Y-18957500D02*
X21277500Y-18982500D01*
X21317500Y-14097500D02*
X21342500Y-14122500D01*
X21342500Y-14097500D02*
X21317500Y-14122500D01*
X21357500Y-17087500D02*
X21382500Y-17112500D01*
X21382500Y-17087500D02*
X21357500Y-17112500D01*
X21358574Y-15037220D02*
X21383574Y-15062220D01*
X21383574Y-15037220D02*
X21358574Y-15062220D01*
X21367500Y-15867500D02*
X21392500Y-15892500D01*
X21392500Y-15867500D02*
X21367500Y-15892500D01*
X21377500Y-19487500D02*
X21402500Y-19512500D01*
X21402500Y-19487500D02*
X21377500Y-19512500D01*
X21388436Y-20709413D02*
X21413436Y-20734413D01*
X21413436Y-20709413D02*
X21388436Y-20734413D01*
X21397500Y-13577500D02*
X21422500Y-13602500D01*
X21422500Y-13577500D02*
X21397500Y-13602500D01*
X21397500Y-15787500D02*
X21422500Y-15812500D01*
X21422500Y-15787500D02*
X21397500Y-15812500D01*
X21417500Y-16487500D02*
X21442500Y-16512500D01*
X21442500Y-16487500D02*
X21417500Y-16512500D01*
X21427500Y-13497500D02*
X21452500Y-13522500D01*
X21452500Y-13497500D02*
X21427500Y-13522500D01*
X21427500Y-14117500D02*
X21452500Y-14142500D01*
X21452500Y-14117500D02*
X21427500Y-14142500D01*
X21447500Y-11587500D02*
X21472500Y-11612500D01*
X21472500Y-11587500D02*
X21447500Y-11612500D01*
X21447500Y-17587500D02*
X21472500Y-17612500D01*
X21472500Y-17587500D02*
X21447500Y-17612500D01*
X21457500Y-11817500D02*
X21482500Y-11842500D01*
X21482500Y-11817500D02*
X21457500Y-11842500D01*
X21467500Y-15277500D02*
X21492500Y-15302500D01*
X21492500Y-15277500D02*
X21467500Y-15302500D01*
X21487500Y-15957500D02*
X21512500Y-15982500D01*
X21512500Y-15957500D02*
X21487500Y-15982500D01*
X21497500Y-15877500D02*
X21522500Y-15902500D01*
X21522500Y-15877500D02*
X21497500Y-15902500D01*
X21497500Y-16457500D02*
X21522500Y-16482500D01*
X21522500Y-16457500D02*
X21497500Y-16482500D01*
X21507500Y-17587500D02*
X21532500Y-17612500D01*
X21532500Y-17587500D02*
X21507500Y-17612500D01*
X21512500Y-19122500D02*
X21537500Y-19147500D01*
X21537500Y-19122500D02*
X21512500Y-19147500D01*
X21517500Y-11627500D02*
X21542500Y-11652500D01*
X21542500Y-11627500D02*
X21517500Y-11652500D01*
X21517500Y-11757500D02*
X21542500Y-11782500D01*
X21542500Y-11757500D02*
X21517500Y-11782500D01*
X21517500Y-19217500D02*
X21542500Y-19242500D01*
X21542500Y-19217500D02*
X21517500Y-19242500D01*
X21527500Y-15227500D02*
X21552500Y-15252500D01*
X21552500Y-15227500D02*
X21527500Y-15252500D01*
X21537500Y-14127500D02*
X21562500Y-14152500D01*
X21562500Y-14127500D02*
X21537500Y-14152500D01*
X21617500Y-14847500D02*
X21642500Y-14872500D01*
X21642500Y-14847500D02*
X21617500Y-14872500D01*
X21625741Y-9310174D02*
X21650741Y-9335174D01*
X21650741Y-9310174D02*
X21625741Y-9335174D01*
X21627500Y-19417500D02*
X21652500Y-19442500D01*
X21652500Y-19417500D02*
X21627500Y-19442500D01*
X21627500Y-19477500D02*
X21652500Y-19502500D01*
X21652500Y-19477500D02*
X21627500Y-19502500D01*
X21627500Y-19537500D02*
X21652500Y-19562500D01*
X21652500Y-19537500D02*
X21627500Y-19562500D01*
X21647500Y-14927500D02*
X21672500Y-14952500D01*
X21672500Y-14927500D02*
X21647500Y-14952500D01*
X21722500Y-14452500D02*
X21747500Y-14477500D01*
X21747500Y-14452500D02*
X21722500Y-14477500D01*
X21746877Y-15216877D02*
X21771877Y-15241877D01*
X21771877Y-15216877D02*
X21746877Y-15241877D01*
X21864950Y-14607500D02*
X21889950Y-14632500D01*
X21889950Y-14607500D02*
X21864950Y-14632500D01*
X21984551Y-20934413D02*
X22009551Y-20959413D01*
X22009551Y-20934413D02*
X21984551Y-20959413D01*
X21995281Y-20999200D02*
X22020281Y-21024200D01*
X22020281Y-20999200D02*
X21995281Y-21024200D01*
X22017500Y-16267500D02*
X22042500Y-16292500D01*
X22042500Y-16267500D02*
X22017500Y-16292500D01*
X22022500Y-16342500D02*
X22047500Y-16367500D01*
X22047500Y-16342500D02*
X22022500Y-16367500D01*
X22121079Y-9088487D02*
X22146079Y-9113487D01*
X22146079Y-9088487D02*
X22121079Y-9113487D01*
X22133154Y-9023937D02*
X22158154Y-9048937D01*
X22158154Y-9023937D02*
X22133154Y-9048937D01*
X22297500Y-16677500D02*
X22322500Y-16702500D01*
X22322500Y-16677500D02*
X22297500Y-16702500D01*
X22367500Y-16717500D02*
X22392500Y-16742500D01*
X22392500Y-16717500D02*
X22367500Y-16742500D01*
X22374194Y-20556679D02*
X22399194Y-20581679D01*
X22399194Y-20556679D02*
X22374194Y-20581679D01*
X22377500Y-15237500D02*
X22402500Y-15262500D01*
X22402500Y-15237500D02*
X22377500Y-15262500D01*
X22377500Y-15337500D02*
X22402500Y-15362500D01*
X22402500Y-15337500D02*
X22377500Y-15362500D01*
X22467500Y-16607500D02*
X22492500Y-16632500D01*
X22492500Y-16607500D02*
X22467500Y-16632500D01*
X22507500Y-16567500D02*
X22532500Y-16592500D01*
X22532500Y-16567500D02*
X22507500Y-16592500D01*
X22527500Y-12687500D02*
X22552500Y-12712500D01*
X22552500Y-12687500D02*
X22527500Y-12712500D01*
X22537500Y-14797500D02*
X22562500Y-14822500D01*
X22562500Y-14797500D02*
X22537500Y-14822500D01*
X22567500Y-12727500D02*
X22592500Y-12752500D01*
X22592500Y-12727500D02*
X22567500Y-12752500D01*
X22604288Y-9503801D02*
X22629288Y-9528801D01*
X22629288Y-9503801D02*
X22604288Y-9528801D01*
X22617500Y-14797500D02*
X22642500Y-14822500D01*
X22642500Y-14797500D02*
X22617500Y-14822500D01*
X22617500Y-16187500D02*
X22642500Y-16212500D01*
X22642500Y-16187500D02*
X22617500Y-16212500D01*
X22647500Y-15757500D02*
X22672500Y-15782500D01*
X22672500Y-15757500D02*
X22647500Y-15782500D01*
X22727500Y-12477500D02*
X22752500Y-12502500D01*
X22752500Y-12477500D02*
X22727500Y-12502500D01*
X22767500Y-12517500D02*
X22792500Y-12542500D01*
X22792500Y-12517500D02*
X22767500Y-12542500D01*
X22797500Y-16007500D02*
X22822500Y-16032500D01*
X22822500Y-16007500D02*
X22797500Y-16032500D01*
X23000323Y-20674746D02*
X23025323Y-20699746D01*
X23025323Y-20674746D02*
X23000323Y-20699746D01*
X23022140Y-20736686D02*
X23047140Y-20761686D01*
X23047140Y-20736686D02*
X23022140Y-20761686D01*
X23087500Y-15087500D02*
X23112500Y-15112500D01*
X23112500Y-15087500D02*
X23087500Y-15112500D01*
X23087500Y-15167500D02*
X23112500Y-15192500D01*
X23112500Y-15167500D02*
X23087500Y-15192500D01*
X23130596Y-9371496D02*
X23155596Y-9396496D01*
X23155596Y-9371496D02*
X23130596Y-9396496D01*
X23153697Y-9310023D02*
X23178697Y-9335023D01*
X23178697Y-9310023D02*
X23153697Y-9335023D01*
X23267500Y-13417500D02*
X23292500Y-13442500D01*
X23292500Y-13417500D02*
X23267500Y-13442500D01*
X23287500Y-14377500D02*
X23312500Y-14402500D01*
X23312500Y-14377500D02*
X23287500Y-14402500D01*
X23307500Y-13457500D02*
X23332500Y-13482500D01*
X23332500Y-13457500D02*
X23307500Y-13482500D01*
X23318455Y-20235090D02*
X23343455Y-20260090D01*
X23343455Y-20235090D02*
X23318455Y-20260090D01*
X23447500Y-15017500D02*
X23472500Y-15042500D01*
X23472500Y-15017500D02*
X23447500Y-15042500D01*
X23477500Y-13227500D02*
X23502500Y-13252500D01*
X23502500Y-13227500D02*
X23477500Y-13252500D01*
X23517500Y-13277500D02*
X23542500Y-13302500D01*
X23542500Y-13277500D02*
X23517500Y-13302500D01*
X23534347Y-9864408D02*
X23559347Y-9889408D01*
X23559347Y-9864408D02*
X23534347Y-9889408D01*
X23577500Y-14717500D02*
X23602500Y-14742500D01*
X23602500Y-14717500D02*
X23577500Y-14742500D01*
X23637500Y-14717500D02*
X23662500Y-14742500D01*
X23662500Y-14717500D02*
X23637500Y-14742500D01*
X23697500Y-14617500D02*
X23722500Y-14642500D01*
X23722500Y-14617500D02*
X23697500Y-14642500D01*
X23767500Y-11647500D02*
X23792500Y-11672500D01*
X23792500Y-11647500D02*
X23767500Y-11672500D01*
X23817500Y-11687500D02*
X23842500Y-11712500D01*
X23842500Y-11687500D02*
X23817500Y-11712500D01*
X23942500Y-15102500D02*
X23967500Y-15127500D01*
X23967500Y-15102500D02*
X23942500Y-15127500D01*
X23955573Y-20242638D02*
X23980573Y-20267638D01*
X23980573Y-20242638D02*
X23955573Y-20267638D01*
X23957500Y-14617500D02*
X23982500Y-14642500D01*
X23982500Y-14617500D02*
X23957500Y-14642500D01*
X23967500Y-11467500D02*
X23992500Y-11492500D01*
X23992500Y-11467500D02*
X23967500Y-11492500D01*
X23987815Y-20299848D02*
X24012815Y-20324848D01*
X24012815Y-20299848D02*
X23987815Y-20324848D01*
X24007500Y-11507500D02*
X24032500Y-11532500D01*
X24032500Y-11507500D02*
X24007500Y-11532500D01*
X24075634Y-9825506D02*
X24100634Y-9850506D01*
X24100634Y-9825506D02*
X24075634Y-9850506D01*
X24107500Y-14377500D02*
X24132500Y-14402500D01*
X24132500Y-14377500D02*
X24107500Y-14402500D01*
X24109058Y-9768979D02*
X24134058Y-9793979D01*
X24134058Y-9768979D02*
X24109058Y-9793979D01*
X24192526Y-19754418D02*
X24217526Y-19779418D01*
X24217526Y-19754418D02*
X24192526Y-19779418D01*
X24227500Y-14377500D02*
X24252500Y-14402500D01*
X24252500Y-14377500D02*
X24227500Y-14402500D01*
X24297500Y-12187500D02*
X24322500Y-12212500D01*
X24322500Y-12187500D02*
X24297500Y-12212500D01*
X24327500Y-15057500D02*
X24352500Y-15082500D01*
X24352500Y-15057500D02*
X24327500Y-15082500D01*
X24327500Y-15137500D02*
X24352500Y-15162500D01*
X24352500Y-15137500D02*
X24327500Y-15162500D01*
X24337500Y-12227500D02*
X24362500Y-12252500D01*
X24362500Y-12227500D02*
X24337500Y-12252500D01*
X24347500Y-14547500D02*
X24372500Y-14572500D01*
X24372500Y-14547500D02*
X24347500Y-14572500D01*
X24387657Y-10381040D02*
X24412657Y-10406040D01*
X24412657Y-10381040D02*
X24387657Y-10406040D01*
X24397500Y-14487500D02*
X24422500Y-14512500D01*
X24422500Y-14487500D02*
X24397500Y-14512500D01*
X24397500Y-15057500D02*
X24422500Y-15082500D01*
X24422500Y-15057500D02*
X24397500Y-15082500D01*
X24397500Y-15137500D02*
X24422500Y-15162500D01*
X24422500Y-15137500D02*
X24397500Y-15162500D01*
X24407500Y-12457500D02*
X24432500Y-12482500D01*
X24432500Y-12457500D02*
X24407500Y-12482500D01*
X24487500Y-12457500D02*
X24512500Y-12482500D01*
X24512500Y-12457500D02*
X24487500Y-12482500D01*
X24497500Y-11987500D02*
X24522500Y-12012500D01*
X24522500Y-11987500D02*
X24497500Y-12012500D01*
X24537500Y-12027500D02*
X24562500Y-12052500D01*
X24562500Y-12027500D02*
X24537500Y-12052500D01*
X24547500Y-15007500D02*
X24572500Y-15032500D01*
X24572500Y-15007500D02*
X24547500Y-15032500D01*
X24627500Y-15007500D02*
X24652500Y-15032500D01*
X24652500Y-15007500D02*
X24627500Y-15032500D01*
X24687500Y-12007500D02*
X24712500Y-12032500D01*
X24712500Y-12007500D02*
X24687500Y-12032500D01*
X24821276Y-19651216D02*
X24846276Y-19676216D01*
X24846276Y-19651216D02*
X24821276Y-19676216D01*
X24862962Y-19701958D02*
X24887962Y-19726958D01*
X24887962Y-19701958D02*
X24862962Y-19726958D01*
X24927476Y-10436722D02*
X24952476Y-10461722D01*
X24952476Y-10436722D02*
X24927476Y-10461722D01*
X24969850Y-19129268D02*
X24994850Y-19154268D01*
X24994850Y-19129268D02*
X24969850Y-19154268D01*
X24970208Y-10386858D02*
X24995208Y-10411858D01*
X24995208Y-10386858D02*
X24970208Y-10411858D01*
X25138291Y-11037999D02*
X25163291Y-11062999D01*
X25163291Y-11037999D02*
X25138291Y-11062999D01*
X25571127Y-18918452D02*
X25596127Y-18943452D01*
X25596127Y-18918452D02*
X25571127Y-18943452D01*
X25620991Y-18961185D02*
X25645991Y-18986185D01*
X25645991Y-18961185D02*
X25620991Y-18986185D01*
X25626809Y-18378633D02*
X25651809Y-18403633D01*
X25651809Y-18378633D02*
X25626809Y-18403633D01*
X25660240Y-11186574D02*
X25685240Y-11211574D01*
X25685240Y-11186574D02*
X25660240Y-11211574D01*
X25710982Y-11144887D02*
X25735982Y-11169887D01*
X25735982Y-11144887D02*
X25710982Y-11169887D01*
X25763441Y-11815323D02*
X25788441Y-11840323D01*
X25788441Y-11815323D02*
X25763441Y-11840323D01*
X26143441Y-17525323D02*
X26168441Y-17550323D01*
X26168441Y-17525323D02*
X26143441Y-17550323D01*
X26167500Y-14897500D02*
X26192500Y-14922500D01*
X26192500Y-14897500D02*
X26167500Y-14922500D01*
X26182344Y-18066610D02*
X26207344Y-18091610D01*
X26207344Y-18066610D02*
X26182344Y-18091610D01*
X26227500Y-14957500D02*
X26252500Y-14982500D01*
X26252500Y-14957500D02*
X26227500Y-14982500D01*
X26238871Y-18100035D02*
X26263871Y-18125035D01*
X26263871Y-18100035D02*
X26238871Y-18125035D01*
X26244114Y-12689395D02*
X26269114Y-12714395D01*
X26269114Y-12689395D02*
X26244114Y-12714395D01*
X26251661Y-12052276D02*
X26276661Y-12077276D01*
X26276661Y-12052276D02*
X26251661Y-12077276D01*
X26308871Y-12020035D02*
X26333871Y-12045035D01*
X26333871Y-12020035D02*
X26308871Y-12045035D01*
X26504049Y-16595265D02*
X26529049Y-16620265D01*
X26529049Y-16595265D02*
X26504049Y-16620265D01*
X26565702Y-13633655D02*
X26590702Y-13658655D01*
X26590702Y-13633655D02*
X26565702Y-13658655D01*
X26636354Y-17121573D02*
X26661354Y-17146573D01*
X26661354Y-17121573D02*
X26636354Y-17146573D01*
X26683769Y-13007526D02*
X26708769Y-13032526D01*
X26708769Y-13007526D02*
X26683769Y-13032526D01*
X26697675Y-15616717D02*
X26722675Y-15641717D01*
X26722675Y-15616717D02*
X26697675Y-15641717D01*
X26697826Y-17144674D02*
X26722826Y-17169674D01*
X26722826Y-17144674D02*
X26697826Y-17169674D01*
X26718436Y-14619413D02*
X26743436Y-14644413D01*
X26743436Y-14619413D02*
X26718436Y-14644413D01*
X26745709Y-12985709D02*
X26770709Y-13010709D01*
X26770709Y-12985709D02*
X26745709Y-13010709D01*
X26919362Y-16112055D02*
X26944362Y-16137055D01*
X26944362Y-16112055D02*
X26919362Y-16137055D01*
X26943436Y-14023299D02*
X26968436Y-14048299D01*
X26968436Y-14023299D02*
X26943436Y-14048299D01*
X26983912Y-16124130D02*
X27008912Y-16149130D01*
X27008912Y-16124130D02*
X26983912Y-16149130D01*
X27008223Y-14012569D02*
X27033223Y-14037569D01*
X27033223Y-14012569D02*
X27008223Y-14037569D01*
X27022770Y-15068730D02*
X27047770Y-15093730D01*
X27047770Y-15068730D02*
X27022770Y-15093730D01*
X27088436Y-15069413D02*
X27113436Y-15094413D01*
X27113436Y-15069413D02*
X27088436Y-15094413D01*
X27197500Y-14837500D02*
X27222500Y-14862500D01*
X27222500Y-14837500D02*
X27197500Y-14862500D01*
D13*
X22436403Y-17668180D02*
G75*
G03*
X22436403Y-17668180I-25000J0D01*
G01*
X22524792Y-17579792D02*
G75*
G03*
X22524792Y-17579792I-25000J0D01*
G01*
X22613180Y-17491404D02*
G75*
G03*
X22613180Y-17491404I-25000J0D01*
G01*
X23756403Y-16338180D02*
G75*
G03*
X23756403Y-16338180I-25000J0D01*
G01*
X23844792Y-16249792D02*
G75*
G03*
X23844792Y-16249792I-25000J0D01*
G01*
X23933180Y-16161403D02*
G75*
G03*
X23933180Y-16161403I-25000J0D01*
G01*
D14*
X20800000Y-12235000D02*
X20800000Y-12325000D01*
X20755000Y-12280000D02*
X20845000Y-12280000D01*
X21200000Y-12235000D02*
X21200000Y-12325000D01*
X21155000Y-12280000D02*
X21245000Y-12280000D01*
D15*
X20602356Y-10162856D02*
X20602356Y-10092144D01*
X20531644Y-10092144D01*
X20531644Y-10162856D01*
X20602356Y-10162856D01*
X20602356Y-11435356D02*
X20602356Y-11364644D01*
X20531644Y-11364644D01*
X20531644Y-11435356D01*
X20602356Y-11435356D01*
X20655356Y-11012856D02*
X20655356Y-10942144D01*
X20584644Y-10942144D01*
X20584644Y-11012856D01*
X20655356Y-11012856D01*
X20657356Y-10585356D02*
X20657356Y-10514644D01*
X20586644Y-10514644D01*
X20586644Y-10585356D01*
X20657356Y-10585356D01*
X20856356Y-10162856D02*
X20856356Y-10092144D01*
X20785644Y-10092144D01*
X20785644Y-10162856D01*
X20856356Y-10162856D01*
X20856356Y-11435356D02*
X20856356Y-11364644D01*
X20785644Y-11364644D01*
X20785644Y-11435356D01*
X20856356Y-11435356D01*
X20909356Y-11012856D02*
X20909356Y-10942144D01*
X20838644Y-10942144D01*
X20838644Y-11012856D01*
X20909356Y-11012856D01*
X20911356Y-10585356D02*
X20911356Y-10514644D01*
X20840644Y-10514644D01*
X20840644Y-10585356D01*
X20911356Y-10585356D01*
X21163356Y-11012856D02*
X21163356Y-10942144D01*
X21092644Y-10942144D01*
X21092644Y-11012856D01*
X21163356Y-11012856D01*
X21165356Y-10585356D02*
X21165356Y-10514644D01*
X21094644Y-10514644D01*
X21094644Y-10585356D01*
X21165356Y-10585356D01*
X21217356Y-11435356D02*
X21217356Y-11364644D01*
X21146644Y-11364644D01*
X21146644Y-11435356D01*
X21217356Y-11435356D01*
X21218356Y-10165356D02*
X21218356Y-10094644D01*
X21147644Y-10094644D01*
X21147644Y-10165356D01*
X21218356Y-10165356D01*
X21417356Y-11012856D02*
X21417356Y-10942144D01*
X21346644Y-10942144D01*
X21346644Y-11012856D01*
X21417356Y-11012856D01*
X21419356Y-10585356D02*
X21419356Y-10514644D01*
X21348644Y-10514644D01*
X21348644Y-10585356D01*
X21419356Y-10585356D01*
X21471356Y-11435356D02*
X21471356Y-11364644D01*
X21400644Y-11364644D01*
X21400644Y-11435356D01*
X21471356Y-11435356D01*
X21472356Y-10165356D02*
X21472356Y-10094644D01*
X21401644Y-10094644D01*
X21401644Y-10165356D01*
X21472356Y-10165356D01*
X25177856Y-14730356D02*
X25177856Y-14659644D01*
X25107144Y-14659644D01*
X25107144Y-14730356D01*
X25177856Y-14730356D01*
X25177856Y-14984356D02*
X25177856Y-14913644D01*
X25107144Y-14913644D01*
X25107144Y-14984356D01*
X25177856Y-14984356D01*
X25582856Y-14443356D02*
X25582856Y-14372644D01*
X25512144Y-14372644D01*
X25512144Y-14443356D01*
X25582856Y-14443356D01*
X25582856Y-14697356D02*
X25582856Y-14626644D01*
X25512144Y-14626644D01*
X25512144Y-14697356D01*
X25582856Y-14697356D01*
X25582856Y-14951356D02*
X25582856Y-14880644D01*
X25512144Y-14880644D01*
X25512144Y-14951356D01*
X25582856Y-14951356D01*
X25582856Y-15205356D02*
X25582856Y-15134644D01*
X25512144Y-15134644D01*
X25512144Y-15205356D01*
X25582856Y-15205356D01*
D16*
X22744514Y-16757646D02*
X22795514Y-16706646D01*
X22744514Y-16655646D01*
X22693514Y-16706646D01*
X22744514Y-16757646D01*
X22956646Y-16545514D02*
X23007646Y-16494514D01*
X22956646Y-16443514D01*
X22905646Y-16494514D01*
X22956646Y-16545514D01*
D17*
X18245000Y-12375000D02*
X18395000Y-12525000D01*
X18395000Y-12375000D02*
X18245000Y-12525000D01*
X18395000Y-12450000D02*
G75*
G03*
X18395000Y-12450000I-75000J0D01*
G01*
X22665000Y-11355000D02*
X22815000Y-11505000D01*
X22815000Y-11355000D02*
X22665000Y-11505000D01*
X22815000Y-11430000D02*
G75*
G03*
X22815000Y-11430000I-75000J0D01*
G01*
D18*
X17981000Y-12111000D02*
X18151000Y-12281000D01*
X18151000Y-12111000D02*
X17981000Y-12281000D01*
X18066000Y-12111000D02*
X18066000Y-12281000D01*
X17981000Y-12196000D02*
X18151000Y-12196000D01*
X17981000Y-12619000D02*
X18151000Y-12789000D01*
X18151000Y-12619000D02*
X17981000Y-12789000D01*
X18066000Y-12619000D02*
X18066000Y-12789000D01*
X17981000Y-12704000D02*
X18151000Y-12704000D01*
X18489000Y-12111000D02*
X18659000Y-12281000D01*
X18659000Y-12111000D02*
X18489000Y-12281000D01*
X18574000Y-12111000D02*
X18574000Y-12281000D01*
X18489000Y-12196000D02*
X18659000Y-12196000D01*
X18489000Y-12619000D02*
X18659000Y-12789000D01*
X18659000Y-12619000D02*
X18489000Y-12789000D01*
X18574000Y-12619000D02*
X18574000Y-12789000D01*
X18489000Y-12704000D02*
X18659000Y-12704000D01*
X22295790Y-11345000D02*
X22465790Y-11515000D01*
X22465790Y-11345000D02*
X22295790Y-11515000D01*
X22380790Y-11345000D02*
X22380790Y-11515000D01*
X22295790Y-11430000D02*
X22465790Y-11430000D01*
X22655000Y-10985790D02*
X22825000Y-11155790D01*
X22825000Y-10985790D02*
X22655000Y-11155790D01*
X22740000Y-10985790D02*
X22740000Y-11155790D01*
X22655000Y-11070790D02*
X22825000Y-11070790D01*
X22655000Y-11704210D02*
X22825000Y-11874210D01*
X22825000Y-11704210D02*
X22655000Y-11874210D01*
X22740000Y-11704210D02*
X22740000Y-11874210D01*
X22655000Y-11789210D02*
X22825000Y-11789210D01*
X23014210Y-11345000D02*
X23184210Y-11515000D01*
X23184210Y-11345000D02*
X23014210Y-11515000D01*
X23099210Y-11345000D02*
X23099210Y-11515000D01*
X23014210Y-11430000D02*
X23184210Y-11430000D01*
D19*
X17890000Y-10890000D02*
X18110000Y-11110000D01*
X18110000Y-10890000D02*
X17890000Y-11110000D01*
X18077783Y-11077783D02*
X18077783Y-10922218D01*
X17922218Y-10922218D01*
X17922218Y-11077783D01*
X18077783Y-11077783D01*
X17890000Y-18900000D02*
X18110000Y-19120000D01*
X18110000Y-18900000D02*
X17890000Y-19120000D01*
X18077783Y-19087783D02*
X18077783Y-18932218D01*
X17922218Y-18932218D01*
X17922218Y-19087783D01*
X18077783Y-19087783D01*
X23880000Y-10880000D02*
X24100000Y-11100000D01*
X24100000Y-10880000D02*
X23880000Y-11100000D01*
X24067782Y-11067783D02*
X24067782Y-10912218D01*
X23912217Y-10912218D01*
X23912217Y-11067783D01*
X24067782Y-11067783D01*
X23880000Y-18890000D02*
X24100000Y-19110000D01*
X24100000Y-18890000D02*
X23880000Y-19110000D01*
X24067782Y-19077783D02*
X24067782Y-18922218D01*
X23912217Y-18922218D01*
X23912217Y-19077783D01*
X24067782Y-19077783D01*
D20*
X22777457Y-17043645D02*
X23018457Y-17284645D01*
X23018457Y-17043645D02*
X22777457Y-17284645D01*
X22897957Y-17284645D02*
X23018457Y-17164145D01*
X22897957Y-17043645D01*
X22777457Y-17164145D01*
X22897957Y-17284645D01*
X23293645Y-16527457D02*
X23534645Y-16768457D01*
X23534645Y-16527457D02*
X23293645Y-16768457D01*
X23414145Y-16768457D02*
X23534645Y-16647957D01*
X23414145Y-16527457D01*
X23293645Y-16647957D01*
X23414145Y-16768457D01*
D11*
X14923555Y-21677389D02*
X14923555Y-21477389D01*
X14971174Y-21477389D01*
X14999746Y-21486913D01*
X15018793Y-21505961D01*
X15028317Y-21525008D01*
X15037841Y-21563103D01*
X15037841Y-21591675D01*
X15028317Y-21629770D01*
X15018793Y-21648818D01*
X14999746Y-21667865D01*
X14971174Y-21677389D01*
X14923555Y-21677389D01*
X15123555Y-21677389D02*
X15123555Y-21544056D01*
X15123555Y-21582151D02*
X15133079Y-21563103D01*
X15142603Y-21553580D01*
X15161651Y-21544056D01*
X15180698Y-21544056D01*
X15247365Y-21677389D02*
X15247365Y-21544056D01*
X15247365Y-21477389D02*
X15237841Y-21486913D01*
X15247365Y-21496437D01*
X15256889Y-21486913D01*
X15247365Y-21477389D01*
X15247365Y-21496437D01*
X15371174Y-21677389D02*
X15352127Y-21667865D01*
X15342603Y-21648818D01*
X15342603Y-21477389D01*
X15475936Y-21677389D02*
X15456889Y-21667865D01*
X15447365Y-21648818D01*
X15447365Y-21477389D01*
X15704508Y-21677389D02*
X15704508Y-21477389D01*
X15771174Y-21620246D01*
X15837841Y-21477389D01*
X15837841Y-21677389D01*
X16018793Y-21677389D02*
X16018793Y-21572627D01*
X16009270Y-21553580D01*
X15990222Y-21544056D01*
X15952127Y-21544056D01*
X15933079Y-21553580D01*
X16018793Y-21667865D02*
X15999746Y-21677389D01*
X15952127Y-21677389D01*
X15933079Y-21667865D01*
X15923555Y-21648818D01*
X15923555Y-21629770D01*
X15933079Y-21610723D01*
X15952127Y-21601199D01*
X15999746Y-21601199D01*
X16018793Y-21591675D01*
X16114032Y-21544056D02*
X16114032Y-21744056D01*
X16114032Y-21553580D02*
X16133079Y-21544056D01*
X16171174Y-21544056D01*
X16190222Y-21553580D01*
X16199746Y-21563103D01*
X16209270Y-21582151D01*
X16209270Y-21639294D01*
X16199746Y-21658342D01*
X16190222Y-21667865D01*
X16171174Y-21677389D01*
X16133079Y-21677389D01*
X16114032Y-21667865D01*
X16294984Y-21658342D02*
X16304508Y-21667865D01*
X16294984Y-21677389D01*
X16285460Y-21667865D01*
X16294984Y-21658342D01*
X16294984Y-21677389D01*
X16294984Y-21553580D02*
X16304508Y-21563103D01*
X16294984Y-21572627D01*
X16285460Y-21563103D01*
X16294984Y-21553580D01*
X16294984Y-21572627D01*
D12*
X14640936Y-21994413D02*
X14665936Y-22019413D01*
X14665936Y-21994413D02*
X14640936Y-22019413D01*
D11*
X14961651Y-21897389D02*
X14980698Y-21897389D01*
X14999746Y-21906913D01*
X15009270Y-21916437D01*
X15018793Y-21935484D01*
X15028317Y-21973580D01*
X15028317Y-22021199D01*
X15018793Y-22059294D01*
X15009270Y-22078342D01*
X14999746Y-22087865D01*
X14980698Y-22097389D01*
X14961651Y-22097389D01*
X14942603Y-22087865D01*
X14933079Y-22078342D01*
X14923555Y-22059294D01*
X14914032Y-22021199D01*
X14914032Y-21973580D01*
X14923555Y-21935484D01*
X14933079Y-21916437D01*
X14942603Y-21906913D01*
X14961651Y-21897389D01*
X15114032Y-22078342D02*
X15123555Y-22087865D01*
X15114032Y-22097389D01*
X15104508Y-22087865D01*
X15114032Y-22078342D01*
X15114032Y-22097389D01*
X15199746Y-21916437D02*
X15209270Y-21906913D01*
X15228317Y-21897389D01*
X15275936Y-21897389D01*
X15294984Y-21906913D01*
X15304508Y-21916437D01*
X15314032Y-21935484D01*
X15314032Y-21954532D01*
X15304508Y-21983103D01*
X15190222Y-22097389D01*
X15314032Y-22097389D01*
X15494984Y-21897389D02*
X15399746Y-21897389D01*
X15390222Y-21992627D01*
X15399746Y-21983103D01*
X15418793Y-21973580D01*
X15466412Y-21973580D01*
X15485460Y-21983103D01*
X15494984Y-21992627D01*
X15504508Y-22011675D01*
X15504508Y-22059294D01*
X15494984Y-22078342D01*
X15485460Y-22087865D01*
X15466412Y-22097389D01*
X15418793Y-22097389D01*
X15399746Y-22087865D01*
X15390222Y-22078342D01*
X15628317Y-21897389D02*
X15647365Y-21897389D01*
X15666412Y-21906913D01*
X15675936Y-21916437D01*
X15685460Y-21935484D01*
X15694984Y-21973580D01*
X15694984Y-22021199D01*
X15685460Y-22059294D01*
X15675936Y-22078342D01*
X15666412Y-22087865D01*
X15647365Y-22097389D01*
X15628317Y-22097389D01*
X15609270Y-22087865D01*
X15599746Y-22078342D01*
X15590222Y-22059294D01*
X15580698Y-22021199D01*
X15580698Y-21973580D01*
X15590222Y-21935484D01*
X15599746Y-21916437D01*
X15609270Y-21906913D01*
X15628317Y-21897389D01*
X15780698Y-22097389D02*
X15780698Y-21964056D01*
X15780698Y-21983103D02*
X15790222Y-21973580D01*
X15809270Y-21964056D01*
X15837841Y-21964056D01*
X15856889Y-21973580D01*
X15866412Y-21992627D01*
X15866412Y-22097389D01*
X15866412Y-21992627D02*
X15875936Y-21973580D01*
X15894984Y-21964056D01*
X15923555Y-21964056D01*
X15942603Y-21973580D01*
X15952127Y-21992627D01*
X15952127Y-22097389D01*
X16047365Y-22097389D02*
X16047365Y-21964056D01*
X16047365Y-21983103D02*
X16056889Y-21973580D01*
X16075936Y-21964056D01*
X16104508Y-21964056D01*
X16123555Y-21973580D01*
X16133079Y-21992627D01*
X16133079Y-22097389D01*
X16133079Y-21992627D02*
X16142603Y-21973580D01*
X16161651Y-21964056D01*
X16190222Y-21964056D01*
X16209270Y-21973580D01*
X16218793Y-21992627D01*
X16218793Y-22097389D01*
X16609270Y-21887865D02*
X16437841Y-22145008D01*
X16866413Y-21897389D02*
X16885460Y-21897389D01*
X16904508Y-21906913D01*
X16914032Y-21916437D01*
X16923555Y-21935484D01*
X16933079Y-21973580D01*
X16933079Y-22021199D01*
X16923555Y-22059294D01*
X16914032Y-22078342D01*
X16904508Y-22087865D01*
X16885460Y-22097389D01*
X16866413Y-22097389D01*
X16847365Y-22087865D01*
X16837841Y-22078342D01*
X16828317Y-22059294D01*
X16818794Y-22021199D01*
X16818794Y-21973580D01*
X16828317Y-21935484D01*
X16837841Y-21916437D01*
X16847365Y-21906913D01*
X16866413Y-21897389D01*
X17018794Y-22078342D02*
X17028317Y-22087865D01*
X17018794Y-22097389D01*
X17009270Y-22087865D01*
X17018794Y-22078342D01*
X17018794Y-22097389D01*
X17152127Y-21897389D02*
X17171174Y-21897389D01*
X17190222Y-21906913D01*
X17199746Y-21916437D01*
X17209270Y-21935484D01*
X17218794Y-21973580D01*
X17218794Y-22021199D01*
X17209270Y-22059294D01*
X17199746Y-22078342D01*
X17190222Y-22087865D01*
X17171174Y-22097389D01*
X17152127Y-22097389D01*
X17133079Y-22087865D01*
X17123555Y-22078342D01*
X17114032Y-22059294D01*
X17104508Y-22021199D01*
X17104508Y-21973580D01*
X17114032Y-21935484D01*
X17123555Y-21916437D01*
X17133079Y-21906913D01*
X17152127Y-21897389D01*
X17342603Y-21897389D02*
X17361651Y-21897389D01*
X17380698Y-21906913D01*
X17390222Y-21916437D01*
X17399746Y-21935484D01*
X17409270Y-21973580D01*
X17409270Y-22021199D01*
X17399746Y-22059294D01*
X17390222Y-22078342D01*
X17380698Y-22087865D01*
X17361651Y-22097389D01*
X17342603Y-22097389D01*
X17323555Y-22087865D01*
X17314032Y-22078342D01*
X17304508Y-22059294D01*
X17294984Y-22021199D01*
X17294984Y-21973580D01*
X17304508Y-21935484D01*
X17314032Y-21916437D01*
X17323555Y-21906913D01*
X17342603Y-21897389D01*
X17504508Y-22097389D02*
X17542603Y-22097389D01*
X17561651Y-22087865D01*
X17571174Y-22078342D01*
X17590222Y-22049770D01*
X17599746Y-22011675D01*
X17599746Y-21935484D01*
X17590222Y-21916437D01*
X17580698Y-21906913D01*
X17561651Y-21897389D01*
X17523555Y-21897389D01*
X17504508Y-21906913D01*
X17494984Y-21916437D01*
X17485460Y-21935484D01*
X17485460Y-21983103D01*
X17494984Y-22002151D01*
X17504508Y-22011675D01*
X17523555Y-22021199D01*
X17561651Y-22021199D01*
X17580698Y-22011675D01*
X17590222Y-22002151D01*
X17599746Y-21983103D01*
X17714032Y-21983103D02*
X17694984Y-21973580D01*
X17685460Y-21964056D01*
X17675936Y-21945008D01*
X17675936Y-21935484D01*
X17685460Y-21916437D01*
X17694984Y-21906913D01*
X17714032Y-21897389D01*
X17752127Y-21897389D01*
X17771174Y-21906913D01*
X17780698Y-21916437D01*
X17790222Y-21935484D01*
X17790222Y-21945008D01*
X17780698Y-21964056D01*
X17771174Y-21973580D01*
X17752127Y-21983103D01*
X17714032Y-21983103D01*
X17694984Y-21992627D01*
X17685460Y-22002151D01*
X17675936Y-22021199D01*
X17675936Y-22059294D01*
X17685460Y-22078342D01*
X17694984Y-22087865D01*
X17714032Y-22097389D01*
X17752127Y-22097389D01*
X17771174Y-22087865D01*
X17780698Y-22078342D01*
X17790222Y-22059294D01*
X17790222Y-22021199D01*
X17780698Y-22002151D01*
X17771174Y-21992627D01*
X17752127Y-21983103D01*
X17866413Y-21897389D02*
X17866413Y-21935484D01*
X17942603Y-21897389D02*
X17942603Y-21935484D01*
X18237841Y-22173580D02*
X18228317Y-22164056D01*
X18209270Y-22135484D01*
X18199746Y-22116437D01*
X18190222Y-22087865D01*
X18180698Y-22040246D01*
X18180698Y-22002151D01*
X18190222Y-21954532D01*
X18199746Y-21925961D01*
X18209270Y-21906913D01*
X18228317Y-21878342D01*
X18237841Y-21868818D01*
X18294984Y-21897389D02*
X18418794Y-21897389D01*
X18352127Y-21973580D01*
X18380698Y-21973580D01*
X18399746Y-21983103D01*
X18409270Y-21992627D01*
X18418794Y-22011675D01*
X18418794Y-22059294D01*
X18409270Y-22078342D01*
X18399746Y-22087865D01*
X18380698Y-22097389D01*
X18323555Y-22097389D01*
X18304508Y-22087865D01*
X18294984Y-22078342D01*
X18494984Y-21916437D02*
X18504508Y-21906913D01*
X18523555Y-21897389D01*
X18571174Y-21897389D01*
X18590222Y-21906913D01*
X18599746Y-21916437D01*
X18609270Y-21935484D01*
X18609270Y-21954532D01*
X18599746Y-21983103D01*
X18485460Y-22097389D01*
X18609270Y-22097389D01*
X18780698Y-21964056D02*
X18780698Y-22097389D01*
X18733079Y-21887865D02*
X18685460Y-22030723D01*
X18809270Y-22030723D01*
X19037841Y-22097389D02*
X19037841Y-21897389D01*
X19123555Y-22097389D02*
X19123555Y-21992627D01*
X19114032Y-21973580D01*
X19094984Y-21964056D01*
X19066413Y-21964056D01*
X19047365Y-21973580D01*
X19037841Y-21983103D01*
X19247365Y-22097389D02*
X19228317Y-22087865D01*
X19218794Y-22078342D01*
X19209270Y-22059294D01*
X19209270Y-22002151D01*
X19218794Y-21983103D01*
X19228317Y-21973580D01*
X19247365Y-21964056D01*
X19275936Y-21964056D01*
X19294984Y-21973580D01*
X19304508Y-21983103D01*
X19314032Y-22002151D01*
X19314032Y-22059294D01*
X19304508Y-22078342D01*
X19294984Y-22087865D01*
X19275936Y-22097389D01*
X19247365Y-22097389D01*
X19428317Y-22097389D02*
X19409270Y-22087865D01*
X19399746Y-22068818D01*
X19399746Y-21897389D01*
X19580698Y-22087865D02*
X19561651Y-22097389D01*
X19523555Y-22097389D01*
X19504508Y-22087865D01*
X19494984Y-22068818D01*
X19494984Y-21992627D01*
X19504508Y-21973580D01*
X19523555Y-21964056D01*
X19561651Y-21964056D01*
X19580698Y-21973580D01*
X19590222Y-21992627D01*
X19590222Y-22011675D01*
X19494984Y-22030723D01*
X19666413Y-22087865D02*
X19685460Y-22097389D01*
X19723555Y-22097389D01*
X19742603Y-22087865D01*
X19752127Y-22068818D01*
X19752127Y-22059294D01*
X19742603Y-22040246D01*
X19723555Y-22030723D01*
X19694984Y-22030723D01*
X19675936Y-22021199D01*
X19666413Y-22002151D01*
X19666413Y-21992627D01*
X19675936Y-21973580D01*
X19694984Y-21964056D01*
X19723555Y-21964056D01*
X19742603Y-21973580D01*
X19818794Y-22173580D02*
X19828317Y-22164056D01*
X19847365Y-22135484D01*
X19856889Y-22116437D01*
X19866413Y-22087865D01*
X19875936Y-22040246D01*
X19875936Y-22002151D01*
X19866413Y-21954532D01*
X19856889Y-21925961D01*
X19847365Y-21906913D01*
X19828317Y-21878342D01*
X19818794Y-21868818D01*
D13*
X14665936Y-22270913D02*
G75*
G03*
X14665936Y-22270913I-25000J0D01*
G01*
D11*
X14961651Y-22161389D02*
X14980698Y-22161389D01*
X14999746Y-22170913D01*
X15009270Y-22180437D01*
X15018793Y-22199484D01*
X15028317Y-22237580D01*
X15028317Y-22285199D01*
X15018793Y-22323294D01*
X15009270Y-22342342D01*
X14999746Y-22351865D01*
X14980698Y-22361389D01*
X14961651Y-22361389D01*
X14942603Y-22351865D01*
X14933079Y-22342342D01*
X14923555Y-22323294D01*
X14914032Y-22285199D01*
X14914032Y-22237580D01*
X14923555Y-22199484D01*
X14933079Y-22180437D01*
X14942603Y-22170913D01*
X14961651Y-22161389D01*
X15114032Y-22342342D02*
X15123555Y-22351865D01*
X15114032Y-22361389D01*
X15104508Y-22351865D01*
X15114032Y-22342342D01*
X15114032Y-22361389D01*
X15304508Y-22161389D02*
X15209270Y-22161389D01*
X15199746Y-22256627D01*
X15209270Y-22247103D01*
X15228317Y-22237580D01*
X15275936Y-22237580D01*
X15294984Y-22247103D01*
X15304508Y-22256627D01*
X15314032Y-22275675D01*
X15314032Y-22323294D01*
X15304508Y-22342342D01*
X15294984Y-22351865D01*
X15275936Y-22361389D01*
X15228317Y-22361389D01*
X15209270Y-22351865D01*
X15199746Y-22342342D01*
X15437841Y-22161389D02*
X15456889Y-22161389D01*
X15475936Y-22170913D01*
X15485460Y-22180437D01*
X15494984Y-22199484D01*
X15504508Y-22237580D01*
X15504508Y-22285199D01*
X15494984Y-22323294D01*
X15485460Y-22342342D01*
X15475936Y-22351865D01*
X15456889Y-22361389D01*
X15437841Y-22361389D01*
X15418793Y-22351865D01*
X15409270Y-22342342D01*
X15399746Y-22323294D01*
X15390222Y-22285199D01*
X15390222Y-22237580D01*
X15399746Y-22199484D01*
X15409270Y-22180437D01*
X15418793Y-22170913D01*
X15437841Y-22161389D01*
X15628317Y-22161389D02*
X15647365Y-22161389D01*
X15666412Y-22170913D01*
X15675936Y-22180437D01*
X15685460Y-22199484D01*
X15694984Y-22237580D01*
X15694984Y-22285199D01*
X15685460Y-22323294D01*
X15675936Y-22342342D01*
X15666412Y-22351865D01*
X15647365Y-22361389D01*
X15628317Y-22361389D01*
X15609270Y-22351865D01*
X15599746Y-22342342D01*
X15590222Y-22323294D01*
X15580698Y-22285199D01*
X15580698Y-22237580D01*
X15590222Y-22199484D01*
X15599746Y-22180437D01*
X15609270Y-22170913D01*
X15628317Y-22161389D01*
X15780698Y-22361389D02*
X15780698Y-22228056D01*
X15780698Y-22247103D02*
X15790222Y-22237580D01*
X15809270Y-22228056D01*
X15837841Y-22228056D01*
X15856889Y-22237580D01*
X15866412Y-22256627D01*
X15866412Y-22361389D01*
X15866412Y-22256627D02*
X15875936Y-22237580D01*
X15894984Y-22228056D01*
X15923555Y-22228056D01*
X15942603Y-22237580D01*
X15952127Y-22256627D01*
X15952127Y-22361389D01*
X16047365Y-22361389D02*
X16047365Y-22228056D01*
X16047365Y-22247103D02*
X16056889Y-22237580D01*
X16075936Y-22228056D01*
X16104508Y-22228056D01*
X16123555Y-22237580D01*
X16133079Y-22256627D01*
X16133079Y-22361389D01*
X16133079Y-22256627D02*
X16142603Y-22237580D01*
X16161651Y-22228056D01*
X16190222Y-22228056D01*
X16209270Y-22237580D01*
X16218793Y-22256627D01*
X16218793Y-22361389D01*
X16609270Y-22151865D02*
X16437841Y-22409008D01*
X16866413Y-22161389D02*
X16885460Y-22161389D01*
X16904508Y-22170913D01*
X16914032Y-22180437D01*
X16923555Y-22199484D01*
X16933079Y-22237580D01*
X16933079Y-22285199D01*
X16923555Y-22323294D01*
X16914032Y-22342342D01*
X16904508Y-22351865D01*
X16885460Y-22361389D01*
X16866413Y-22361389D01*
X16847365Y-22351865D01*
X16837841Y-22342342D01*
X16828317Y-22323294D01*
X16818794Y-22285199D01*
X16818794Y-22237580D01*
X16828317Y-22199484D01*
X16837841Y-22180437D01*
X16847365Y-22170913D01*
X16866413Y-22161389D01*
X17018794Y-22342342D02*
X17028317Y-22351865D01*
X17018794Y-22361389D01*
X17009270Y-22351865D01*
X17018794Y-22342342D01*
X17018794Y-22361389D01*
X17152127Y-22161389D02*
X17171174Y-22161389D01*
X17190222Y-22170913D01*
X17199746Y-22180437D01*
X17209270Y-22199484D01*
X17218794Y-22237580D01*
X17218794Y-22285199D01*
X17209270Y-22323294D01*
X17199746Y-22342342D01*
X17190222Y-22351865D01*
X17171174Y-22361389D01*
X17152127Y-22361389D01*
X17133079Y-22351865D01*
X17123555Y-22342342D01*
X17114032Y-22323294D01*
X17104508Y-22285199D01*
X17104508Y-22237580D01*
X17114032Y-22199484D01*
X17123555Y-22180437D01*
X17133079Y-22170913D01*
X17152127Y-22161389D01*
X17409270Y-22361389D02*
X17294984Y-22361389D01*
X17352127Y-22361389D02*
X17352127Y-22161389D01*
X17333079Y-22189961D01*
X17314032Y-22209008D01*
X17294984Y-22218532D01*
X17504508Y-22361389D02*
X17542603Y-22361389D01*
X17561651Y-22351865D01*
X17571174Y-22342342D01*
X17590222Y-22313770D01*
X17599746Y-22275675D01*
X17599746Y-22199484D01*
X17590222Y-22180437D01*
X17580698Y-22170913D01*
X17561651Y-22161389D01*
X17523555Y-22161389D01*
X17504508Y-22170913D01*
X17494984Y-22180437D01*
X17485460Y-22199484D01*
X17485460Y-22247103D01*
X17494984Y-22266151D01*
X17504508Y-22275675D01*
X17523555Y-22285199D01*
X17561651Y-22285199D01*
X17580698Y-22275675D01*
X17590222Y-22266151D01*
X17599746Y-22247103D01*
X17666413Y-22161389D02*
X17799746Y-22161389D01*
X17714032Y-22361389D01*
X17866413Y-22161389D02*
X17866413Y-22199484D01*
X17942603Y-22161389D02*
X17942603Y-22199484D01*
X18237841Y-22437580D02*
X18228317Y-22428056D01*
X18209270Y-22399484D01*
X18199746Y-22380437D01*
X18190222Y-22351865D01*
X18180698Y-22304246D01*
X18180698Y-22266151D01*
X18190222Y-22218532D01*
X18199746Y-22189961D01*
X18209270Y-22170913D01*
X18228317Y-22142342D01*
X18237841Y-22132818D01*
X18399746Y-22161389D02*
X18361651Y-22161389D01*
X18342603Y-22170913D01*
X18333079Y-22180437D01*
X18314032Y-22209008D01*
X18304508Y-22247103D01*
X18304508Y-22323294D01*
X18314032Y-22342342D01*
X18323555Y-22351865D01*
X18342603Y-22361389D01*
X18380698Y-22361389D01*
X18399746Y-22351865D01*
X18409270Y-22342342D01*
X18418794Y-22323294D01*
X18418794Y-22275675D01*
X18409270Y-22256627D01*
X18399746Y-22247103D01*
X18380698Y-22237580D01*
X18342603Y-22237580D01*
X18323555Y-22247103D01*
X18314032Y-22256627D01*
X18304508Y-22275675D01*
X18656889Y-22361389D02*
X18656889Y-22161389D01*
X18742603Y-22361389D02*
X18742603Y-22256627D01*
X18733079Y-22237580D01*
X18714032Y-22228056D01*
X18685460Y-22228056D01*
X18666413Y-22237580D01*
X18656889Y-22247103D01*
X18866413Y-22361389D02*
X18847365Y-22351865D01*
X18837841Y-22342342D01*
X18828317Y-22323294D01*
X18828317Y-22266151D01*
X18837841Y-22247103D01*
X18847365Y-22237580D01*
X18866413Y-22228056D01*
X18894984Y-22228056D01*
X18914032Y-22237580D01*
X18923555Y-22247103D01*
X18933079Y-22266151D01*
X18933079Y-22323294D01*
X18923555Y-22342342D01*
X18914032Y-22351865D01*
X18894984Y-22361389D01*
X18866413Y-22361389D01*
X19047365Y-22361389D02*
X19028317Y-22351865D01*
X19018794Y-22332818D01*
X19018794Y-22161389D01*
X19199746Y-22351865D02*
X19180698Y-22361389D01*
X19142603Y-22361389D01*
X19123555Y-22351865D01*
X19114032Y-22332818D01*
X19114032Y-22256627D01*
X19123555Y-22237580D01*
X19142603Y-22228056D01*
X19180698Y-22228056D01*
X19199746Y-22237580D01*
X19209270Y-22256627D01*
X19209270Y-22275675D01*
X19114032Y-22294723D01*
X19285460Y-22351865D02*
X19304508Y-22361389D01*
X19342603Y-22361389D01*
X19361651Y-22351865D01*
X19371174Y-22332818D01*
X19371174Y-22323294D01*
X19361651Y-22304246D01*
X19342603Y-22294723D01*
X19314032Y-22294723D01*
X19294984Y-22285199D01*
X19285460Y-22266151D01*
X19285460Y-22256627D01*
X19294984Y-22237580D01*
X19314032Y-22228056D01*
X19342603Y-22228056D01*
X19361651Y-22237580D01*
X19437841Y-22437580D02*
X19447365Y-22428056D01*
X19466413Y-22399484D01*
X19475936Y-22380437D01*
X19485460Y-22351865D01*
X19494984Y-22304246D01*
X19494984Y-22266151D01*
X19485460Y-22218532D01*
X19475936Y-22189961D01*
X19466413Y-22170913D01*
X19447365Y-22142342D01*
X19437841Y-22132818D01*
D14*
X14620936Y-22489913D02*
X14620936Y-22579913D01*
X14575936Y-22534913D02*
X14665936Y-22534913D01*
D11*
X14961651Y-22425389D02*
X14980698Y-22425389D01*
X14999746Y-22434913D01*
X15009270Y-22444437D01*
X15018793Y-22463484D01*
X15028317Y-22501580D01*
X15028317Y-22549199D01*
X15018793Y-22587294D01*
X15009270Y-22606341D01*
X14999746Y-22615865D01*
X14980698Y-22625389D01*
X14961651Y-22625389D01*
X14942603Y-22615865D01*
X14933079Y-22606341D01*
X14923555Y-22587294D01*
X14914032Y-22549199D01*
X14914032Y-22501580D01*
X14923555Y-22463484D01*
X14933079Y-22444437D01*
X14942603Y-22434913D01*
X14961651Y-22425389D01*
X15114032Y-22606341D02*
X15123555Y-22615865D01*
X15114032Y-22625389D01*
X15104508Y-22615865D01*
X15114032Y-22606341D01*
X15114032Y-22625389D01*
X15218793Y-22625389D02*
X15256889Y-22625389D01*
X15275936Y-22615865D01*
X15285460Y-22606341D01*
X15304508Y-22577770D01*
X15314032Y-22539675D01*
X15314032Y-22463484D01*
X15304508Y-22444437D01*
X15294984Y-22434913D01*
X15275936Y-22425389D01*
X15237841Y-22425389D01*
X15218793Y-22434913D01*
X15209270Y-22444437D01*
X15199746Y-22463484D01*
X15199746Y-22511103D01*
X15209270Y-22530151D01*
X15218793Y-22539675D01*
X15237841Y-22549199D01*
X15275936Y-22549199D01*
X15294984Y-22539675D01*
X15304508Y-22530151D01*
X15314032Y-22511103D01*
X15437841Y-22425389D02*
X15456889Y-22425389D01*
X15475936Y-22434913D01*
X15485460Y-22444437D01*
X15494984Y-22463484D01*
X15504508Y-22501580D01*
X15504508Y-22549199D01*
X15494984Y-22587294D01*
X15485460Y-22606341D01*
X15475936Y-22615865D01*
X15456889Y-22625389D01*
X15437841Y-22625389D01*
X15418793Y-22615865D01*
X15409270Y-22606341D01*
X15399746Y-22587294D01*
X15390222Y-22549199D01*
X15390222Y-22501580D01*
X15399746Y-22463484D01*
X15409270Y-22444437D01*
X15418793Y-22434913D01*
X15437841Y-22425389D01*
X15628317Y-22425389D02*
X15647365Y-22425389D01*
X15666412Y-22434913D01*
X15675936Y-22444437D01*
X15685460Y-22463484D01*
X15694984Y-22501580D01*
X15694984Y-22549199D01*
X15685460Y-22587294D01*
X15675936Y-22606341D01*
X15666412Y-22615865D01*
X15647365Y-22625389D01*
X15628317Y-22625389D01*
X15609270Y-22615865D01*
X15599746Y-22606341D01*
X15590222Y-22587294D01*
X15580698Y-22549199D01*
X15580698Y-22501580D01*
X15590222Y-22463484D01*
X15599746Y-22444437D01*
X15609270Y-22434913D01*
X15628317Y-22425389D01*
X15780698Y-22625389D02*
X15780698Y-22492056D01*
X15780698Y-22511103D02*
X15790222Y-22501580D01*
X15809270Y-22492056D01*
X15837841Y-22492056D01*
X15856889Y-22501580D01*
X15866412Y-22520627D01*
X15866412Y-22625389D01*
X15866412Y-22520627D02*
X15875936Y-22501580D01*
X15894984Y-22492056D01*
X15923555Y-22492056D01*
X15942603Y-22501580D01*
X15952127Y-22520627D01*
X15952127Y-22625389D01*
X16047365Y-22625389D02*
X16047365Y-22492056D01*
X16047365Y-22511103D02*
X16056889Y-22501580D01*
X16075936Y-22492056D01*
X16104508Y-22492056D01*
X16123555Y-22501580D01*
X16133079Y-22520627D01*
X16133079Y-22625389D01*
X16133079Y-22520627D02*
X16142603Y-22501580D01*
X16161651Y-22492056D01*
X16190222Y-22492056D01*
X16209270Y-22501580D01*
X16218793Y-22520627D01*
X16218793Y-22625389D01*
X16609270Y-22415865D02*
X16437841Y-22673008D01*
X16866413Y-22425389D02*
X16885460Y-22425389D01*
X16904508Y-22434913D01*
X16914032Y-22444437D01*
X16923555Y-22463484D01*
X16933079Y-22501580D01*
X16933079Y-22549199D01*
X16923555Y-22587294D01*
X16914032Y-22606341D01*
X16904508Y-22615865D01*
X16885460Y-22625389D01*
X16866413Y-22625389D01*
X16847365Y-22615865D01*
X16837841Y-22606341D01*
X16828317Y-22587294D01*
X16818794Y-22549199D01*
X16818794Y-22501580D01*
X16828317Y-22463484D01*
X16837841Y-22444437D01*
X16847365Y-22434913D01*
X16866413Y-22425389D01*
X17018794Y-22606341D02*
X17028317Y-22615865D01*
X17018794Y-22625389D01*
X17009270Y-22615865D01*
X17018794Y-22606341D01*
X17018794Y-22625389D01*
X17152127Y-22425389D02*
X17171174Y-22425389D01*
X17190222Y-22434913D01*
X17199746Y-22444437D01*
X17209270Y-22463484D01*
X17218794Y-22501580D01*
X17218794Y-22549199D01*
X17209270Y-22587294D01*
X17199746Y-22606341D01*
X17190222Y-22615865D01*
X17171174Y-22625389D01*
X17152127Y-22625389D01*
X17133079Y-22615865D01*
X17123555Y-22606341D01*
X17114032Y-22587294D01*
X17104508Y-22549199D01*
X17104508Y-22501580D01*
X17114032Y-22463484D01*
X17123555Y-22444437D01*
X17133079Y-22434913D01*
X17152127Y-22425389D01*
X17285460Y-22425389D02*
X17409270Y-22425389D01*
X17342603Y-22501580D01*
X17371174Y-22501580D01*
X17390222Y-22511103D01*
X17399746Y-22520627D01*
X17409270Y-22539675D01*
X17409270Y-22587294D01*
X17399746Y-22606341D01*
X17390222Y-22615865D01*
X17371174Y-22625389D01*
X17314032Y-22625389D01*
X17294984Y-22615865D01*
X17285460Y-22606341D01*
X17590222Y-22425389D02*
X17494984Y-22425389D01*
X17485460Y-22520627D01*
X17494984Y-22511103D01*
X17514032Y-22501580D01*
X17561651Y-22501580D01*
X17580698Y-22511103D01*
X17590222Y-22520627D01*
X17599746Y-22539675D01*
X17599746Y-22587294D01*
X17590222Y-22606341D01*
X17580698Y-22615865D01*
X17561651Y-22625389D01*
X17514032Y-22625389D01*
X17494984Y-22615865D01*
X17485460Y-22606341D01*
X17771174Y-22492056D02*
X17771174Y-22625389D01*
X17723555Y-22415865D02*
X17675936Y-22558722D01*
X17799746Y-22558722D01*
X17866413Y-22425389D02*
X17866413Y-22463484D01*
X17942603Y-22425389D02*
X17942603Y-22463484D01*
X18237841Y-22701580D02*
X18228317Y-22692056D01*
X18209270Y-22663484D01*
X18199746Y-22644437D01*
X18190222Y-22615865D01*
X18180698Y-22568246D01*
X18180698Y-22530151D01*
X18190222Y-22482532D01*
X18199746Y-22453961D01*
X18209270Y-22434913D01*
X18228317Y-22406341D01*
X18237841Y-22396818D01*
X18304508Y-22444437D02*
X18314032Y-22434913D01*
X18333079Y-22425389D01*
X18380698Y-22425389D01*
X18399746Y-22434913D01*
X18409270Y-22444437D01*
X18418794Y-22463484D01*
X18418794Y-22482532D01*
X18409270Y-22511103D01*
X18294984Y-22625389D01*
X18418794Y-22625389D01*
X18656889Y-22625389D02*
X18656889Y-22425389D01*
X18742603Y-22625389D02*
X18742603Y-22520627D01*
X18733079Y-22501580D01*
X18714032Y-22492056D01*
X18685460Y-22492056D01*
X18666413Y-22501580D01*
X18656889Y-22511103D01*
X18866413Y-22625389D02*
X18847365Y-22615865D01*
X18837841Y-22606341D01*
X18828317Y-22587294D01*
X18828317Y-22530151D01*
X18837841Y-22511103D01*
X18847365Y-22501580D01*
X18866413Y-22492056D01*
X18894984Y-22492056D01*
X18914032Y-22501580D01*
X18923555Y-22511103D01*
X18933079Y-22530151D01*
X18933079Y-22587294D01*
X18923555Y-22606341D01*
X18914032Y-22615865D01*
X18894984Y-22625389D01*
X18866413Y-22625389D01*
X19047365Y-22625389D02*
X19028317Y-22615865D01*
X19018794Y-22596818D01*
X19018794Y-22425389D01*
X19199746Y-22615865D02*
X19180698Y-22625389D01*
X19142603Y-22625389D01*
X19123555Y-22615865D01*
X19114032Y-22596818D01*
X19114032Y-22520627D01*
X19123555Y-22501580D01*
X19142603Y-22492056D01*
X19180698Y-22492056D01*
X19199746Y-22501580D01*
X19209270Y-22520627D01*
X19209270Y-22539675D01*
X19114032Y-22558722D01*
X19285460Y-22615865D02*
X19304508Y-22625389D01*
X19342603Y-22625389D01*
X19361651Y-22615865D01*
X19371174Y-22596818D01*
X19371174Y-22587294D01*
X19361651Y-22568246D01*
X19342603Y-22558722D01*
X19314032Y-22558722D01*
X19294984Y-22549199D01*
X19285460Y-22530151D01*
X19285460Y-22520627D01*
X19294984Y-22501580D01*
X19314032Y-22492056D01*
X19342603Y-22492056D01*
X19361651Y-22501580D01*
X19437841Y-22701580D02*
X19447365Y-22692056D01*
X19466413Y-22663484D01*
X19475936Y-22644437D01*
X19485460Y-22615865D01*
X19494984Y-22568246D01*
X19494984Y-22530151D01*
X19485460Y-22482532D01*
X19475936Y-22453961D01*
X19466413Y-22434913D01*
X19447365Y-22406341D01*
X19437841Y-22396818D01*
D15*
X14651292Y-22834269D02*
X14651292Y-22763557D01*
X14580581Y-22763557D01*
X14580581Y-22834269D01*
X14651292Y-22834269D01*
D11*
X15028317Y-22889389D02*
X14914032Y-22889389D01*
X14971174Y-22889389D02*
X14971174Y-22689389D01*
X14952127Y-22717961D01*
X14933079Y-22737008D01*
X14914032Y-22746532D01*
X15114032Y-22870341D02*
X15123555Y-22879865D01*
X15114032Y-22889389D01*
X15104508Y-22879865D01*
X15114032Y-22870341D01*
X15114032Y-22889389D01*
X15247365Y-22689389D02*
X15266412Y-22689389D01*
X15285460Y-22698913D01*
X15294984Y-22708437D01*
X15304508Y-22727484D01*
X15314032Y-22765580D01*
X15314032Y-22813199D01*
X15304508Y-22851294D01*
X15294984Y-22870341D01*
X15285460Y-22879865D01*
X15266412Y-22889389D01*
X15247365Y-22889389D01*
X15228317Y-22879865D01*
X15218793Y-22870341D01*
X15209270Y-22851294D01*
X15199746Y-22813199D01*
X15199746Y-22765580D01*
X15209270Y-22727484D01*
X15218793Y-22708437D01*
X15228317Y-22698913D01*
X15247365Y-22689389D01*
X15437841Y-22689389D02*
X15456889Y-22689389D01*
X15475936Y-22698913D01*
X15485460Y-22708437D01*
X15494984Y-22727484D01*
X15504508Y-22765580D01*
X15504508Y-22813199D01*
X15494984Y-22851294D01*
X15485460Y-22870341D01*
X15475936Y-22879865D01*
X15456889Y-22889389D01*
X15437841Y-22889389D01*
X15418793Y-22879865D01*
X15409270Y-22870341D01*
X15399746Y-22851294D01*
X15390222Y-22813199D01*
X15390222Y-22765580D01*
X15399746Y-22727484D01*
X15409270Y-22708437D01*
X15418793Y-22698913D01*
X15437841Y-22689389D01*
X15628317Y-22689389D02*
X15647365Y-22689389D01*
X15666412Y-22698913D01*
X15675936Y-22708437D01*
X15685460Y-22727484D01*
X15694984Y-22765580D01*
X15694984Y-22813199D01*
X15685460Y-22851294D01*
X15675936Y-22870341D01*
X15666412Y-22879865D01*
X15647365Y-22889389D01*
X15628317Y-22889389D01*
X15609270Y-22879865D01*
X15599746Y-22870341D01*
X15590222Y-22851294D01*
X15580698Y-22813199D01*
X15580698Y-22765580D01*
X15590222Y-22727484D01*
X15599746Y-22708437D01*
X15609270Y-22698913D01*
X15628317Y-22689389D01*
X15780698Y-22889389D02*
X15780698Y-22756056D01*
X15780698Y-22775103D02*
X15790222Y-22765580D01*
X15809270Y-22756056D01*
X15837841Y-22756056D01*
X15856889Y-22765580D01*
X15866412Y-22784627D01*
X15866412Y-22889389D01*
X15866412Y-22784627D02*
X15875936Y-22765580D01*
X15894984Y-22756056D01*
X15923555Y-22756056D01*
X15942603Y-22765580D01*
X15952127Y-22784627D01*
X15952127Y-22889389D01*
X16047365Y-22889389D02*
X16047365Y-22756056D01*
X16047365Y-22775103D02*
X16056889Y-22765580D01*
X16075936Y-22756056D01*
X16104508Y-22756056D01*
X16123555Y-22765580D01*
X16133079Y-22784627D01*
X16133079Y-22889389D01*
X16133079Y-22784627D02*
X16142603Y-22765580D01*
X16161651Y-22756056D01*
X16190222Y-22756056D01*
X16209270Y-22765580D01*
X16218793Y-22784627D01*
X16218793Y-22889389D01*
X16609270Y-22679865D02*
X16437841Y-22937008D01*
X16866413Y-22689389D02*
X16885460Y-22689389D01*
X16904508Y-22698913D01*
X16914032Y-22708437D01*
X16923555Y-22727484D01*
X16933079Y-22765580D01*
X16933079Y-22813199D01*
X16923555Y-22851294D01*
X16914032Y-22870341D01*
X16904508Y-22879865D01*
X16885460Y-22889389D01*
X16866413Y-22889389D01*
X16847365Y-22879865D01*
X16837841Y-22870341D01*
X16828317Y-22851294D01*
X16818794Y-22813199D01*
X16818794Y-22765580D01*
X16828317Y-22727484D01*
X16837841Y-22708437D01*
X16847365Y-22698913D01*
X16866413Y-22689389D01*
X17018794Y-22870341D02*
X17028317Y-22879865D01*
X17018794Y-22889389D01*
X17009270Y-22879865D01*
X17018794Y-22870341D01*
X17018794Y-22889389D01*
X17152127Y-22689389D02*
X17171174Y-22689389D01*
X17190222Y-22698913D01*
X17199746Y-22708437D01*
X17209270Y-22727484D01*
X17218794Y-22765580D01*
X17218794Y-22813199D01*
X17209270Y-22851294D01*
X17199746Y-22870341D01*
X17190222Y-22879865D01*
X17171174Y-22889389D01*
X17152127Y-22889389D01*
X17133079Y-22879865D01*
X17123555Y-22870341D01*
X17114032Y-22851294D01*
X17104508Y-22813199D01*
X17104508Y-22765580D01*
X17114032Y-22727484D01*
X17123555Y-22708437D01*
X17133079Y-22698913D01*
X17152127Y-22689389D01*
X17285460Y-22689389D02*
X17409270Y-22689389D01*
X17342603Y-22765580D01*
X17371174Y-22765580D01*
X17390222Y-22775103D01*
X17399746Y-22784627D01*
X17409270Y-22803675D01*
X17409270Y-22851294D01*
X17399746Y-22870341D01*
X17390222Y-22879865D01*
X17371174Y-22889389D01*
X17314032Y-22889389D01*
X17294984Y-22879865D01*
X17285460Y-22870341D01*
X17504508Y-22889389D02*
X17542603Y-22889389D01*
X17561651Y-22879865D01*
X17571174Y-22870341D01*
X17590222Y-22841770D01*
X17599746Y-22803675D01*
X17599746Y-22727484D01*
X17590222Y-22708437D01*
X17580698Y-22698913D01*
X17561651Y-22689389D01*
X17523555Y-22689389D01*
X17504508Y-22698913D01*
X17494984Y-22708437D01*
X17485460Y-22727484D01*
X17485460Y-22775103D01*
X17494984Y-22794151D01*
X17504508Y-22803675D01*
X17523555Y-22813199D01*
X17561651Y-22813199D01*
X17580698Y-22803675D01*
X17590222Y-22794151D01*
X17599746Y-22775103D01*
X17771174Y-22756056D02*
X17771174Y-22889389D01*
X17723555Y-22679865D02*
X17675936Y-22822722D01*
X17799746Y-22822722D01*
X17866413Y-22689389D02*
X17866413Y-22727484D01*
X17942603Y-22689389D02*
X17942603Y-22727484D01*
X18237841Y-22965580D02*
X18228317Y-22956056D01*
X18209270Y-22927484D01*
X18199746Y-22908437D01*
X18190222Y-22879865D01*
X18180698Y-22832246D01*
X18180698Y-22794151D01*
X18190222Y-22746532D01*
X18199746Y-22717961D01*
X18209270Y-22698913D01*
X18228317Y-22670341D01*
X18237841Y-22660818D01*
X18304508Y-22708437D02*
X18314032Y-22698913D01*
X18333079Y-22689389D01*
X18380698Y-22689389D01*
X18399746Y-22698913D01*
X18409270Y-22708437D01*
X18418794Y-22727484D01*
X18418794Y-22746532D01*
X18409270Y-22775103D01*
X18294984Y-22889389D01*
X18418794Y-22889389D01*
X18494984Y-22708437D02*
X18504508Y-22698913D01*
X18523555Y-22689389D01*
X18571174Y-22689389D01*
X18590222Y-22698913D01*
X18599746Y-22708437D01*
X18609270Y-22727484D01*
X18609270Y-22746532D01*
X18599746Y-22775103D01*
X18485460Y-22889389D01*
X18609270Y-22889389D01*
X18847365Y-22889389D02*
X18847365Y-22689389D01*
X18933079Y-22889389D02*
X18933079Y-22784627D01*
X18923555Y-22765580D01*
X18904508Y-22756056D01*
X18875936Y-22756056D01*
X18856889Y-22765580D01*
X18847365Y-22775103D01*
X19056889Y-22889389D02*
X19037841Y-22879865D01*
X19028317Y-22870341D01*
X19018794Y-22851294D01*
X19018794Y-22794151D01*
X19028317Y-22775103D01*
X19037841Y-22765580D01*
X19056889Y-22756056D01*
X19085460Y-22756056D01*
X19104508Y-22765580D01*
X19114032Y-22775103D01*
X19123555Y-22794151D01*
X19123555Y-22851294D01*
X19114032Y-22870341D01*
X19104508Y-22879865D01*
X19085460Y-22889389D01*
X19056889Y-22889389D01*
X19237841Y-22889389D02*
X19218794Y-22879865D01*
X19209270Y-22860818D01*
X19209270Y-22689389D01*
X19390222Y-22879865D02*
X19371174Y-22889389D01*
X19333079Y-22889389D01*
X19314032Y-22879865D01*
X19304508Y-22860818D01*
X19304508Y-22784627D01*
X19314032Y-22765580D01*
X19333079Y-22756056D01*
X19371174Y-22756056D01*
X19390222Y-22765580D01*
X19399746Y-22784627D01*
X19399746Y-22803675D01*
X19304508Y-22822722D01*
X19475936Y-22879865D02*
X19494984Y-22889389D01*
X19533079Y-22889389D01*
X19552127Y-22879865D01*
X19561651Y-22860818D01*
X19561651Y-22851294D01*
X19552127Y-22832246D01*
X19533079Y-22822722D01*
X19504508Y-22822722D01*
X19485460Y-22813199D01*
X19475936Y-22794151D01*
X19475936Y-22784627D01*
X19485460Y-22765580D01*
X19504508Y-22756056D01*
X19533079Y-22756056D01*
X19552127Y-22765580D01*
X19628317Y-22965580D02*
X19637841Y-22956056D01*
X19656889Y-22927484D01*
X19666413Y-22908437D01*
X19675936Y-22879865D01*
X19685460Y-22832246D01*
X19685460Y-22794151D01*
X19675936Y-22746532D01*
X19666413Y-22717961D01*
X19656889Y-22698913D01*
X19637841Y-22670341D01*
X19628317Y-22660818D01*
D16*
X14614936Y-23113913D02*
X14665936Y-23062913D01*
X14614936Y-23011913D01*
X14563936Y-23062913D01*
X14614936Y-23113913D01*
D11*
X15028317Y-23153389D02*
X14914032Y-23153389D01*
X14971174Y-23153389D02*
X14971174Y-22953389D01*
X14952127Y-22981961D01*
X14933079Y-23001008D01*
X14914032Y-23010532D01*
X15114032Y-23134341D02*
X15123555Y-23143865D01*
X15114032Y-23153389D01*
X15104508Y-23143865D01*
X15114032Y-23134341D01*
X15114032Y-23153389D01*
X15247365Y-22953389D02*
X15266412Y-22953389D01*
X15285460Y-22962913D01*
X15294984Y-22972437D01*
X15304508Y-22991484D01*
X15314032Y-23029580D01*
X15314032Y-23077199D01*
X15304508Y-23115294D01*
X15294984Y-23134341D01*
X15285460Y-23143865D01*
X15266412Y-23153389D01*
X15247365Y-23153389D01*
X15228317Y-23143865D01*
X15218793Y-23134341D01*
X15209270Y-23115294D01*
X15199746Y-23077199D01*
X15199746Y-23029580D01*
X15209270Y-22991484D01*
X15218793Y-22972437D01*
X15228317Y-22962913D01*
X15247365Y-22953389D01*
X15390222Y-22972437D02*
X15399746Y-22962913D01*
X15418793Y-22953389D01*
X15466412Y-22953389D01*
X15485460Y-22962913D01*
X15494984Y-22972437D01*
X15504508Y-22991484D01*
X15504508Y-23010532D01*
X15494984Y-23039103D01*
X15380698Y-23153389D01*
X15504508Y-23153389D01*
X15628317Y-22953389D02*
X15647365Y-22953389D01*
X15666412Y-22962913D01*
X15675936Y-22972437D01*
X15685460Y-22991484D01*
X15694984Y-23029580D01*
X15694984Y-23077199D01*
X15685460Y-23115294D01*
X15675936Y-23134341D01*
X15666412Y-23143865D01*
X15647365Y-23153389D01*
X15628317Y-23153389D01*
X15609270Y-23143865D01*
X15599746Y-23134341D01*
X15590222Y-23115294D01*
X15580698Y-23077199D01*
X15580698Y-23029580D01*
X15590222Y-22991484D01*
X15599746Y-22972437D01*
X15609270Y-22962913D01*
X15628317Y-22953389D01*
X15780698Y-23153389D02*
X15780698Y-23020056D01*
X15780698Y-23039103D02*
X15790222Y-23029580D01*
X15809270Y-23020056D01*
X15837841Y-23020056D01*
X15856889Y-23029580D01*
X15866412Y-23048627D01*
X15866412Y-23153389D01*
X15866412Y-23048627D02*
X15875936Y-23029580D01*
X15894984Y-23020056D01*
X15923555Y-23020056D01*
X15942603Y-23029580D01*
X15952127Y-23048627D01*
X15952127Y-23153389D01*
X16047365Y-23153389D02*
X16047365Y-23020056D01*
X16047365Y-23039103D02*
X16056889Y-23029580D01*
X16075936Y-23020056D01*
X16104508Y-23020056D01*
X16123555Y-23029580D01*
X16133079Y-23048627D01*
X16133079Y-23153389D01*
X16133079Y-23048627D02*
X16142603Y-23029580D01*
X16161651Y-23020056D01*
X16190222Y-23020056D01*
X16209270Y-23029580D01*
X16218793Y-23048627D01*
X16218793Y-23153389D01*
X16609270Y-22943865D02*
X16437841Y-23201008D01*
X16866413Y-22953389D02*
X16885460Y-22953389D01*
X16904508Y-22962913D01*
X16914032Y-22972437D01*
X16923555Y-22991484D01*
X16933079Y-23029580D01*
X16933079Y-23077199D01*
X16923555Y-23115294D01*
X16914032Y-23134341D01*
X16904508Y-23143865D01*
X16885460Y-23153389D01*
X16866413Y-23153389D01*
X16847365Y-23143865D01*
X16837841Y-23134341D01*
X16828317Y-23115294D01*
X16818794Y-23077199D01*
X16818794Y-23029580D01*
X16828317Y-22991484D01*
X16837841Y-22972437D01*
X16847365Y-22962913D01*
X16866413Y-22953389D01*
X17018794Y-23134341D02*
X17028317Y-23143865D01*
X17018794Y-23153389D01*
X17009270Y-23143865D01*
X17018794Y-23134341D01*
X17018794Y-23153389D01*
X17152127Y-22953389D02*
X17171174Y-22953389D01*
X17190222Y-22962913D01*
X17199746Y-22972437D01*
X17209270Y-22991484D01*
X17218794Y-23029580D01*
X17218794Y-23077199D01*
X17209270Y-23115294D01*
X17199746Y-23134341D01*
X17190222Y-23143865D01*
X17171174Y-23153389D01*
X17152127Y-23153389D01*
X17133079Y-23143865D01*
X17123555Y-23134341D01*
X17114032Y-23115294D01*
X17104508Y-23077199D01*
X17104508Y-23029580D01*
X17114032Y-22991484D01*
X17123555Y-22972437D01*
X17133079Y-22962913D01*
X17152127Y-22953389D01*
X17390222Y-23020056D02*
X17390222Y-23153389D01*
X17342603Y-22943865D02*
X17294984Y-23086722D01*
X17418794Y-23086722D01*
X17533079Y-22953389D02*
X17552127Y-22953389D01*
X17571174Y-22962913D01*
X17580698Y-22972437D01*
X17590222Y-22991484D01*
X17599746Y-23029580D01*
X17599746Y-23077199D01*
X17590222Y-23115294D01*
X17580698Y-23134341D01*
X17571174Y-23143865D01*
X17552127Y-23153389D01*
X17533079Y-23153389D01*
X17514032Y-23143865D01*
X17504508Y-23134341D01*
X17494984Y-23115294D01*
X17485460Y-23077199D01*
X17485460Y-23029580D01*
X17494984Y-22991484D01*
X17504508Y-22972437D01*
X17514032Y-22962913D01*
X17533079Y-22953389D01*
X17675936Y-22972437D02*
X17685460Y-22962913D01*
X17704508Y-22953389D01*
X17752127Y-22953389D01*
X17771174Y-22962913D01*
X17780698Y-22972437D01*
X17790222Y-22991484D01*
X17790222Y-23010532D01*
X17780698Y-23039103D01*
X17666413Y-23153389D01*
X17790222Y-23153389D01*
X17866413Y-22953389D02*
X17866413Y-22991484D01*
X17942603Y-22953389D02*
X17942603Y-22991484D01*
X18237841Y-23229580D02*
X18228317Y-23220056D01*
X18209270Y-23191484D01*
X18199746Y-23172437D01*
X18190222Y-23143865D01*
X18180698Y-23096246D01*
X18180698Y-23058151D01*
X18190222Y-23010532D01*
X18199746Y-22981961D01*
X18209270Y-22962913D01*
X18228317Y-22934341D01*
X18237841Y-22924818D01*
X18304508Y-22972437D02*
X18314032Y-22962913D01*
X18333079Y-22953389D01*
X18380698Y-22953389D01*
X18399746Y-22962913D01*
X18409270Y-22972437D01*
X18418794Y-22991484D01*
X18418794Y-23010532D01*
X18409270Y-23039103D01*
X18294984Y-23153389D01*
X18418794Y-23153389D01*
X18656889Y-23153389D02*
X18656889Y-22953389D01*
X18742603Y-23153389D02*
X18742603Y-23048627D01*
X18733079Y-23029580D01*
X18714032Y-23020056D01*
X18685460Y-23020056D01*
X18666413Y-23029580D01*
X18656889Y-23039103D01*
X18866413Y-23153389D02*
X18847365Y-23143865D01*
X18837841Y-23134341D01*
X18828317Y-23115294D01*
X18828317Y-23058151D01*
X18837841Y-23039103D01*
X18847365Y-23029580D01*
X18866413Y-23020056D01*
X18894984Y-23020056D01*
X18914032Y-23029580D01*
X18923555Y-23039103D01*
X18933079Y-23058151D01*
X18933079Y-23115294D01*
X18923555Y-23134341D01*
X18914032Y-23143865D01*
X18894984Y-23153389D01*
X18866413Y-23153389D01*
X19047365Y-23153389D02*
X19028317Y-23143865D01*
X19018794Y-23124818D01*
X19018794Y-22953389D01*
X19199746Y-23143865D02*
X19180698Y-23153389D01*
X19142603Y-23153389D01*
X19123555Y-23143865D01*
X19114032Y-23124818D01*
X19114032Y-23048627D01*
X19123555Y-23029580D01*
X19142603Y-23020056D01*
X19180698Y-23020056D01*
X19199746Y-23029580D01*
X19209270Y-23048627D01*
X19209270Y-23067675D01*
X19114032Y-23086722D01*
X19285460Y-23143865D02*
X19304508Y-23153389D01*
X19342603Y-23153389D01*
X19361651Y-23143865D01*
X19371174Y-23124818D01*
X19371174Y-23115294D01*
X19361651Y-23096246D01*
X19342603Y-23086722D01*
X19314032Y-23086722D01*
X19294984Y-23077199D01*
X19285460Y-23058151D01*
X19285460Y-23048627D01*
X19294984Y-23029580D01*
X19314032Y-23020056D01*
X19342603Y-23020056D01*
X19361651Y-23029580D01*
X19437841Y-23229580D02*
X19447365Y-23220056D01*
X19466413Y-23191484D01*
X19475936Y-23172437D01*
X19485460Y-23143865D01*
X19494984Y-23096246D01*
X19494984Y-23058151D01*
X19485460Y-23010532D01*
X19475936Y-22981961D01*
X19466413Y-22962913D01*
X19447365Y-22934341D01*
X19437841Y-22924818D01*
D17*
X14515936Y-23251913D02*
X14665936Y-23401913D01*
X14665936Y-23251913D02*
X14515936Y-23401913D01*
X14665936Y-23326913D02*
G75*
G03*
X14665936Y-23326913I-75000J0D01*
G01*
D11*
X15028317Y-23417389D02*
X14914032Y-23417389D01*
X14971174Y-23417389D02*
X14971174Y-23217389D01*
X14952127Y-23245961D01*
X14933079Y-23265008D01*
X14914032Y-23274532D01*
X15114032Y-23398341D02*
X15123555Y-23407865D01*
X15114032Y-23417389D01*
X15104508Y-23407865D01*
X15114032Y-23398341D01*
X15114032Y-23417389D01*
X15304508Y-23217389D02*
X15209270Y-23217389D01*
X15199746Y-23312627D01*
X15209270Y-23303103D01*
X15228317Y-23293580D01*
X15275936Y-23293580D01*
X15294984Y-23303103D01*
X15304508Y-23312627D01*
X15314032Y-23331675D01*
X15314032Y-23379294D01*
X15304508Y-23398341D01*
X15294984Y-23407865D01*
X15275936Y-23417389D01*
X15228317Y-23417389D01*
X15209270Y-23407865D01*
X15199746Y-23398341D01*
X15437841Y-23217389D02*
X15456889Y-23217389D01*
X15475936Y-23226913D01*
X15485460Y-23236437D01*
X15494984Y-23255484D01*
X15504508Y-23293580D01*
X15504508Y-23341199D01*
X15494984Y-23379294D01*
X15485460Y-23398341D01*
X15475936Y-23407865D01*
X15456889Y-23417389D01*
X15437841Y-23417389D01*
X15418793Y-23407865D01*
X15409270Y-23398341D01*
X15399746Y-23379294D01*
X15390222Y-23341199D01*
X15390222Y-23293580D01*
X15399746Y-23255484D01*
X15409270Y-23236437D01*
X15418793Y-23226913D01*
X15437841Y-23217389D01*
X15628317Y-23217389D02*
X15647365Y-23217389D01*
X15666412Y-23226913D01*
X15675936Y-23236437D01*
X15685460Y-23255484D01*
X15694984Y-23293580D01*
X15694984Y-23341199D01*
X15685460Y-23379294D01*
X15675936Y-23398341D01*
X15666412Y-23407865D01*
X15647365Y-23417389D01*
X15628317Y-23417389D01*
X15609270Y-23407865D01*
X15599746Y-23398341D01*
X15590222Y-23379294D01*
X15580698Y-23341199D01*
X15580698Y-23293580D01*
X15590222Y-23255484D01*
X15599746Y-23236437D01*
X15609270Y-23226913D01*
X15628317Y-23217389D01*
X15780698Y-23417389D02*
X15780698Y-23284056D01*
X15780698Y-23303103D02*
X15790222Y-23293580D01*
X15809270Y-23284056D01*
X15837841Y-23284056D01*
X15856889Y-23293580D01*
X15866412Y-23312627D01*
X15866412Y-23417389D01*
X15866412Y-23312627D02*
X15875936Y-23293580D01*
X15894984Y-23284056D01*
X15923555Y-23284056D01*
X15942603Y-23293580D01*
X15952127Y-23312627D01*
X15952127Y-23417389D01*
X16047365Y-23417389D02*
X16047365Y-23284056D01*
X16047365Y-23303103D02*
X16056889Y-23293580D01*
X16075936Y-23284056D01*
X16104508Y-23284056D01*
X16123555Y-23293580D01*
X16133079Y-23312627D01*
X16133079Y-23417389D01*
X16133079Y-23312627D02*
X16142603Y-23293580D01*
X16161651Y-23284056D01*
X16190222Y-23284056D01*
X16209270Y-23293580D01*
X16218793Y-23312627D01*
X16218793Y-23417389D01*
X16609270Y-23207865D02*
X16437841Y-23465008D01*
X16866413Y-23217389D02*
X16885460Y-23217389D01*
X16904508Y-23226913D01*
X16914032Y-23236437D01*
X16923555Y-23255484D01*
X16933079Y-23293580D01*
X16933079Y-23341199D01*
X16923555Y-23379294D01*
X16914032Y-23398341D01*
X16904508Y-23407865D01*
X16885460Y-23417389D01*
X16866413Y-23417389D01*
X16847365Y-23407865D01*
X16837841Y-23398341D01*
X16828317Y-23379294D01*
X16818794Y-23341199D01*
X16818794Y-23293580D01*
X16828317Y-23255484D01*
X16837841Y-23236437D01*
X16847365Y-23226913D01*
X16866413Y-23217389D01*
X17018794Y-23398341D02*
X17028317Y-23407865D01*
X17018794Y-23417389D01*
X17009270Y-23407865D01*
X17018794Y-23398341D01*
X17018794Y-23417389D01*
X17152127Y-23217389D02*
X17171174Y-23217389D01*
X17190222Y-23226913D01*
X17199746Y-23236437D01*
X17209270Y-23255484D01*
X17218794Y-23293580D01*
X17218794Y-23341199D01*
X17209270Y-23379294D01*
X17199746Y-23398341D01*
X17190222Y-23407865D01*
X17171174Y-23417389D01*
X17152127Y-23417389D01*
X17133079Y-23407865D01*
X17123555Y-23398341D01*
X17114032Y-23379294D01*
X17104508Y-23341199D01*
X17104508Y-23293580D01*
X17114032Y-23255484D01*
X17123555Y-23236437D01*
X17133079Y-23226913D01*
X17152127Y-23217389D01*
X17399746Y-23217389D02*
X17304508Y-23217389D01*
X17294984Y-23312627D01*
X17304508Y-23303103D01*
X17323555Y-23293580D01*
X17371174Y-23293580D01*
X17390222Y-23303103D01*
X17399746Y-23312627D01*
X17409270Y-23331675D01*
X17409270Y-23379294D01*
X17399746Y-23398341D01*
X17390222Y-23407865D01*
X17371174Y-23417389D01*
X17323555Y-23417389D01*
X17304508Y-23407865D01*
X17294984Y-23398341D01*
X17504508Y-23417389D02*
X17542603Y-23417389D01*
X17561651Y-23407865D01*
X17571174Y-23398341D01*
X17590222Y-23369770D01*
X17599746Y-23331675D01*
X17599746Y-23255484D01*
X17590222Y-23236437D01*
X17580698Y-23226913D01*
X17561651Y-23217389D01*
X17523555Y-23217389D01*
X17504508Y-23226913D01*
X17494984Y-23236437D01*
X17485460Y-23255484D01*
X17485460Y-23303103D01*
X17494984Y-23322151D01*
X17504508Y-23331675D01*
X17523555Y-23341199D01*
X17561651Y-23341199D01*
X17580698Y-23331675D01*
X17590222Y-23322151D01*
X17599746Y-23303103D01*
X17790222Y-23417389D02*
X17675936Y-23417389D01*
X17733079Y-23417389D02*
X17733079Y-23217389D01*
X17714032Y-23245961D01*
X17694984Y-23265008D01*
X17675936Y-23274532D01*
X17866413Y-23217389D02*
X17866413Y-23255484D01*
X17942603Y-23217389D02*
X17942603Y-23255484D01*
X18237841Y-23493580D02*
X18228317Y-23484056D01*
X18209270Y-23455484D01*
X18199746Y-23436437D01*
X18190222Y-23407865D01*
X18180698Y-23360246D01*
X18180698Y-23322151D01*
X18190222Y-23274532D01*
X18199746Y-23245961D01*
X18209270Y-23226913D01*
X18228317Y-23198341D01*
X18237841Y-23188818D01*
X18304508Y-23236437D02*
X18314032Y-23226913D01*
X18333079Y-23217389D01*
X18380698Y-23217389D01*
X18399746Y-23226913D01*
X18409270Y-23236437D01*
X18418794Y-23255484D01*
X18418794Y-23274532D01*
X18409270Y-23303103D01*
X18294984Y-23417389D01*
X18418794Y-23417389D01*
X18656889Y-23417389D02*
X18656889Y-23217389D01*
X18742603Y-23417389D02*
X18742603Y-23312627D01*
X18733079Y-23293580D01*
X18714032Y-23284056D01*
X18685460Y-23284056D01*
X18666413Y-23293580D01*
X18656889Y-23303103D01*
X18866413Y-23417389D02*
X18847365Y-23407865D01*
X18837841Y-23398341D01*
X18828317Y-23379294D01*
X18828317Y-23322151D01*
X18837841Y-23303103D01*
X18847365Y-23293580D01*
X18866413Y-23284056D01*
X18894984Y-23284056D01*
X18914032Y-23293580D01*
X18923555Y-23303103D01*
X18933079Y-23322151D01*
X18933079Y-23379294D01*
X18923555Y-23398341D01*
X18914032Y-23407865D01*
X18894984Y-23417389D01*
X18866413Y-23417389D01*
X19047365Y-23417389D02*
X19028317Y-23407865D01*
X19018794Y-23388818D01*
X19018794Y-23217389D01*
X19199746Y-23407865D02*
X19180698Y-23417389D01*
X19142603Y-23417389D01*
X19123555Y-23407865D01*
X19114032Y-23388818D01*
X19114032Y-23312627D01*
X19123555Y-23293580D01*
X19142603Y-23284056D01*
X19180698Y-23284056D01*
X19199746Y-23293580D01*
X19209270Y-23312627D01*
X19209270Y-23331675D01*
X19114032Y-23350722D01*
X19285460Y-23407865D02*
X19304508Y-23417389D01*
X19342603Y-23417389D01*
X19361651Y-23407865D01*
X19371174Y-23388818D01*
X19371174Y-23379294D01*
X19361651Y-23360246D01*
X19342603Y-23350722D01*
X19314032Y-23350722D01*
X19294984Y-23341199D01*
X19285460Y-23322151D01*
X19285460Y-23312627D01*
X19294984Y-23293580D01*
X19314032Y-23284056D01*
X19342603Y-23284056D01*
X19361651Y-23293580D01*
X19437841Y-23493580D02*
X19447365Y-23484056D01*
X19466413Y-23455484D01*
X19475936Y-23436437D01*
X19485460Y-23407865D01*
X19494984Y-23360246D01*
X19494984Y-23322151D01*
X19485460Y-23274532D01*
X19475936Y-23245961D01*
X19466413Y-23226913D01*
X19447365Y-23198341D01*
X19437841Y-23188818D01*
D18*
X14495936Y-23511913D02*
X14665936Y-23681913D01*
X14665936Y-23511913D02*
X14495936Y-23681913D01*
X14580936Y-23511913D02*
X14580936Y-23681913D01*
X14495936Y-23596913D02*
X14665936Y-23596913D01*
D11*
X15028317Y-23687389D02*
X14914032Y-23687389D01*
X14971174Y-23687389D02*
X14971174Y-23487389D01*
X14952127Y-23515961D01*
X14933079Y-23535008D01*
X14914032Y-23544532D01*
X15114032Y-23668341D02*
X15123555Y-23677865D01*
X15114032Y-23687389D01*
X15104508Y-23677865D01*
X15114032Y-23668341D01*
X15114032Y-23687389D01*
X15190222Y-23487389D02*
X15323555Y-23487389D01*
X15237841Y-23687389D01*
X15437841Y-23487389D02*
X15456889Y-23487389D01*
X15475936Y-23496913D01*
X15485460Y-23506437D01*
X15494984Y-23525484D01*
X15504508Y-23563580D01*
X15504508Y-23611199D01*
X15494984Y-23649294D01*
X15485460Y-23668341D01*
X15475936Y-23677865D01*
X15456889Y-23687389D01*
X15437841Y-23687389D01*
X15418793Y-23677865D01*
X15409270Y-23668341D01*
X15399746Y-23649294D01*
X15390222Y-23611199D01*
X15390222Y-23563580D01*
X15399746Y-23525484D01*
X15409270Y-23506437D01*
X15418793Y-23496913D01*
X15437841Y-23487389D01*
X15628317Y-23487389D02*
X15647365Y-23487389D01*
X15666412Y-23496913D01*
X15675936Y-23506437D01*
X15685460Y-23525484D01*
X15694984Y-23563580D01*
X15694984Y-23611199D01*
X15685460Y-23649294D01*
X15675936Y-23668341D01*
X15666412Y-23677865D01*
X15647365Y-23687389D01*
X15628317Y-23687389D01*
X15609270Y-23677865D01*
X15599746Y-23668341D01*
X15590222Y-23649294D01*
X15580698Y-23611199D01*
X15580698Y-23563580D01*
X15590222Y-23525484D01*
X15599746Y-23506437D01*
X15609270Y-23496913D01*
X15628317Y-23487389D01*
X15780698Y-23687389D02*
X15780698Y-23554056D01*
X15780698Y-23573103D02*
X15790222Y-23563580D01*
X15809270Y-23554056D01*
X15837841Y-23554056D01*
X15856889Y-23563580D01*
X15866412Y-23582627D01*
X15866412Y-23687389D01*
X15866412Y-23582627D02*
X15875936Y-23563580D01*
X15894984Y-23554056D01*
X15923555Y-23554056D01*
X15942603Y-23563580D01*
X15952127Y-23582627D01*
X15952127Y-23687389D01*
X16047365Y-23687389D02*
X16047365Y-23554056D01*
X16047365Y-23573103D02*
X16056889Y-23563580D01*
X16075936Y-23554056D01*
X16104508Y-23554056D01*
X16123555Y-23563580D01*
X16133079Y-23582627D01*
X16133079Y-23687389D01*
X16133079Y-23582627D02*
X16142603Y-23563580D01*
X16161651Y-23554056D01*
X16190222Y-23554056D01*
X16209270Y-23563580D01*
X16218793Y-23582627D01*
X16218793Y-23687389D01*
X16609270Y-23477865D02*
X16437841Y-23735008D01*
X16866413Y-23487389D02*
X16885460Y-23487389D01*
X16904508Y-23496913D01*
X16914032Y-23506437D01*
X16923555Y-23525484D01*
X16933079Y-23563580D01*
X16933079Y-23611199D01*
X16923555Y-23649294D01*
X16914032Y-23668341D01*
X16904508Y-23677865D01*
X16885460Y-23687389D01*
X16866413Y-23687389D01*
X16847365Y-23677865D01*
X16837841Y-23668341D01*
X16828317Y-23649294D01*
X16818794Y-23611199D01*
X16818794Y-23563580D01*
X16828317Y-23525484D01*
X16837841Y-23506437D01*
X16847365Y-23496913D01*
X16866413Y-23487389D01*
X17018794Y-23668341D02*
X17028317Y-23677865D01*
X17018794Y-23687389D01*
X17009270Y-23677865D01*
X17018794Y-23668341D01*
X17018794Y-23687389D01*
X17152127Y-23487389D02*
X17171174Y-23487389D01*
X17190222Y-23496913D01*
X17199746Y-23506437D01*
X17209270Y-23525484D01*
X17218794Y-23563580D01*
X17218794Y-23611199D01*
X17209270Y-23649294D01*
X17199746Y-23668341D01*
X17190222Y-23677865D01*
X17171174Y-23687389D01*
X17152127Y-23687389D01*
X17133079Y-23677865D01*
X17123555Y-23668341D01*
X17114032Y-23649294D01*
X17104508Y-23611199D01*
X17104508Y-23563580D01*
X17114032Y-23525484D01*
X17123555Y-23506437D01*
X17133079Y-23496913D01*
X17152127Y-23487389D01*
X17390222Y-23487389D02*
X17352127Y-23487389D01*
X17333079Y-23496913D01*
X17323555Y-23506437D01*
X17304508Y-23535008D01*
X17294984Y-23573103D01*
X17294984Y-23649294D01*
X17304508Y-23668341D01*
X17314032Y-23677865D01*
X17333079Y-23687389D01*
X17371174Y-23687389D01*
X17390222Y-23677865D01*
X17399746Y-23668341D01*
X17409270Y-23649294D01*
X17409270Y-23601675D01*
X17399746Y-23582627D01*
X17390222Y-23573103D01*
X17371174Y-23563580D01*
X17333079Y-23563580D01*
X17314032Y-23573103D01*
X17304508Y-23582627D01*
X17294984Y-23601675D01*
X17580698Y-23487389D02*
X17542603Y-23487389D01*
X17523555Y-23496913D01*
X17514032Y-23506437D01*
X17494984Y-23535008D01*
X17485460Y-23573103D01*
X17485460Y-23649294D01*
X17494984Y-23668341D01*
X17504508Y-23677865D01*
X17523555Y-23687389D01*
X17561651Y-23687389D01*
X17580698Y-23677865D01*
X17590222Y-23668341D01*
X17599746Y-23649294D01*
X17599746Y-23601675D01*
X17590222Y-23582627D01*
X17580698Y-23573103D01*
X17561651Y-23563580D01*
X17523555Y-23563580D01*
X17504508Y-23573103D01*
X17494984Y-23582627D01*
X17485460Y-23601675D01*
X17694984Y-23687389D02*
X17733079Y-23687389D01*
X17752127Y-23677865D01*
X17761651Y-23668341D01*
X17780698Y-23639770D01*
X17790222Y-23601675D01*
X17790222Y-23525484D01*
X17780698Y-23506437D01*
X17771174Y-23496913D01*
X17752127Y-23487389D01*
X17714032Y-23487389D01*
X17694984Y-23496913D01*
X17685460Y-23506437D01*
X17675936Y-23525484D01*
X17675936Y-23573103D01*
X17685460Y-23592151D01*
X17694984Y-23601675D01*
X17714032Y-23611199D01*
X17752127Y-23611199D01*
X17771174Y-23601675D01*
X17780698Y-23592151D01*
X17790222Y-23573103D01*
X17866413Y-23487389D02*
X17866413Y-23525484D01*
X17942603Y-23487389D02*
X17942603Y-23525484D01*
X18237841Y-23763580D02*
X18228317Y-23754056D01*
X18209270Y-23725484D01*
X18199746Y-23706437D01*
X18190222Y-23677865D01*
X18180698Y-23630246D01*
X18180698Y-23592151D01*
X18190222Y-23544532D01*
X18199746Y-23515961D01*
X18209270Y-23496913D01*
X18228317Y-23468341D01*
X18237841Y-23458818D01*
X18342603Y-23573103D02*
X18323555Y-23563580D01*
X18314032Y-23554056D01*
X18304508Y-23535008D01*
X18304508Y-23525484D01*
X18314032Y-23506437D01*
X18323555Y-23496913D01*
X18342603Y-23487389D01*
X18380698Y-23487389D01*
X18399746Y-23496913D01*
X18409270Y-23506437D01*
X18418794Y-23525484D01*
X18418794Y-23535008D01*
X18409270Y-23554056D01*
X18399746Y-23563580D01*
X18380698Y-23573103D01*
X18342603Y-23573103D01*
X18323555Y-23582627D01*
X18314032Y-23592151D01*
X18304508Y-23611199D01*
X18304508Y-23649294D01*
X18314032Y-23668341D01*
X18323555Y-23677865D01*
X18342603Y-23687389D01*
X18380698Y-23687389D01*
X18399746Y-23677865D01*
X18409270Y-23668341D01*
X18418794Y-23649294D01*
X18418794Y-23611199D01*
X18409270Y-23592151D01*
X18399746Y-23582627D01*
X18380698Y-23573103D01*
X18656889Y-23687389D02*
X18656889Y-23487389D01*
X18742603Y-23687389D02*
X18742603Y-23582627D01*
X18733079Y-23563580D01*
X18714032Y-23554056D01*
X18685460Y-23554056D01*
X18666413Y-23563580D01*
X18656889Y-23573103D01*
X18866413Y-23687389D02*
X18847365Y-23677865D01*
X18837841Y-23668341D01*
X18828317Y-23649294D01*
X18828317Y-23592151D01*
X18837841Y-23573103D01*
X18847365Y-23563580D01*
X18866413Y-23554056D01*
X18894984Y-23554056D01*
X18914032Y-23563580D01*
X18923555Y-23573103D01*
X18933079Y-23592151D01*
X18933079Y-23649294D01*
X18923555Y-23668341D01*
X18914032Y-23677865D01*
X18894984Y-23687389D01*
X18866413Y-23687389D01*
X19047365Y-23687389D02*
X19028317Y-23677865D01*
X19018794Y-23658818D01*
X19018794Y-23487389D01*
X19199746Y-23677865D02*
X19180698Y-23687389D01*
X19142603Y-23687389D01*
X19123555Y-23677865D01*
X19114032Y-23658818D01*
X19114032Y-23582627D01*
X19123555Y-23563580D01*
X19142603Y-23554056D01*
X19180698Y-23554056D01*
X19199746Y-23563580D01*
X19209270Y-23582627D01*
X19209270Y-23601675D01*
X19114032Y-23620722D01*
X19285460Y-23677865D02*
X19304508Y-23687389D01*
X19342603Y-23687389D01*
X19361651Y-23677865D01*
X19371174Y-23658818D01*
X19371174Y-23649294D01*
X19361651Y-23630246D01*
X19342603Y-23620722D01*
X19314032Y-23620722D01*
X19294984Y-23611199D01*
X19285460Y-23592151D01*
X19285460Y-23582627D01*
X19294984Y-23563580D01*
X19314032Y-23554056D01*
X19342603Y-23554056D01*
X19361651Y-23563580D01*
X19437841Y-23763580D02*
X19447365Y-23754056D01*
X19466413Y-23725484D01*
X19475936Y-23706437D01*
X19485460Y-23677865D01*
X19494984Y-23630246D01*
X19494984Y-23592151D01*
X19485460Y-23544532D01*
X19475936Y-23515961D01*
X19466413Y-23496913D01*
X19447365Y-23468341D01*
X19437841Y-23458818D01*
X14465936Y-23786913D02*
X14665936Y-23986913D01*
X14665936Y-23786913D02*
X14465936Y-23986913D01*
X14636648Y-23957624D02*
X14636648Y-23816202D01*
X14495225Y-23816202D01*
X14495225Y-23957624D01*
X14636648Y-23957624D01*
X14914032Y-23796437D02*
X14923555Y-23786913D01*
X14942603Y-23777389D01*
X14990222Y-23777389D01*
X15009270Y-23786913D01*
X15018793Y-23796437D01*
X15028317Y-23815484D01*
X15028317Y-23834532D01*
X15018793Y-23863103D01*
X14904508Y-23977389D01*
X15028317Y-23977389D01*
X15114032Y-23958341D02*
X15123555Y-23967865D01*
X15114032Y-23977389D01*
X15104508Y-23967865D01*
X15114032Y-23958341D01*
X15114032Y-23977389D01*
X15199746Y-23796437D02*
X15209270Y-23786913D01*
X15228317Y-23777389D01*
X15275936Y-23777389D01*
X15294984Y-23786913D01*
X15304508Y-23796437D01*
X15314032Y-23815484D01*
X15314032Y-23834532D01*
X15304508Y-23863103D01*
X15190222Y-23977389D01*
X15314032Y-23977389D01*
X15437841Y-23777389D02*
X15456889Y-23777389D01*
X15475936Y-23786913D01*
X15485460Y-23796437D01*
X15494984Y-23815484D01*
X15504508Y-23853580D01*
X15504508Y-23901199D01*
X15494984Y-23939294D01*
X15485460Y-23958341D01*
X15475936Y-23967865D01*
X15456889Y-23977389D01*
X15437841Y-23977389D01*
X15418793Y-23967865D01*
X15409270Y-23958341D01*
X15399746Y-23939294D01*
X15390222Y-23901199D01*
X15390222Y-23853580D01*
X15399746Y-23815484D01*
X15409270Y-23796437D01*
X15418793Y-23786913D01*
X15437841Y-23777389D01*
X15628317Y-23777389D02*
X15647365Y-23777389D01*
X15666412Y-23786913D01*
X15675936Y-23796437D01*
X15685460Y-23815484D01*
X15694984Y-23853580D01*
X15694984Y-23901199D01*
X15685460Y-23939294D01*
X15675936Y-23958341D01*
X15666412Y-23967865D01*
X15647365Y-23977389D01*
X15628317Y-23977389D01*
X15609270Y-23967865D01*
X15599746Y-23958341D01*
X15590222Y-23939294D01*
X15580698Y-23901199D01*
X15580698Y-23853580D01*
X15590222Y-23815484D01*
X15599746Y-23796437D01*
X15609270Y-23786913D01*
X15628317Y-23777389D01*
X15780698Y-23977389D02*
X15780698Y-23844056D01*
X15780698Y-23863103D02*
X15790222Y-23853580D01*
X15809270Y-23844056D01*
X15837841Y-23844056D01*
X15856889Y-23853580D01*
X15866412Y-23872627D01*
X15866412Y-23977389D01*
X15866412Y-23872627D02*
X15875936Y-23853580D01*
X15894984Y-23844056D01*
X15923555Y-23844056D01*
X15942603Y-23853580D01*
X15952127Y-23872627D01*
X15952127Y-23977389D01*
X16047365Y-23977389D02*
X16047365Y-23844056D01*
X16047365Y-23863103D02*
X16056889Y-23853580D01*
X16075936Y-23844056D01*
X16104508Y-23844056D01*
X16123555Y-23853580D01*
X16133079Y-23872627D01*
X16133079Y-23977389D01*
X16133079Y-23872627D02*
X16142603Y-23853580D01*
X16161651Y-23844056D01*
X16190222Y-23844056D01*
X16209270Y-23853580D01*
X16218793Y-23872627D01*
X16218793Y-23977389D01*
X16609270Y-23767865D02*
X16437841Y-24025008D01*
X16866413Y-23777389D02*
X16885460Y-23777389D01*
X16904508Y-23786913D01*
X16914032Y-23796437D01*
X16923555Y-23815484D01*
X16933079Y-23853580D01*
X16933079Y-23901199D01*
X16923555Y-23939294D01*
X16914032Y-23958341D01*
X16904508Y-23967865D01*
X16885460Y-23977389D01*
X16866413Y-23977389D01*
X16847365Y-23967865D01*
X16837841Y-23958341D01*
X16828317Y-23939294D01*
X16818794Y-23901199D01*
X16818794Y-23853580D01*
X16828317Y-23815484D01*
X16837841Y-23796437D01*
X16847365Y-23786913D01*
X16866413Y-23777389D01*
X17018794Y-23958341D02*
X17028317Y-23967865D01*
X17018794Y-23977389D01*
X17009270Y-23967865D01*
X17018794Y-23958341D01*
X17018794Y-23977389D01*
X17152127Y-23777389D02*
X17171174Y-23777389D01*
X17190222Y-23786913D01*
X17199746Y-23796437D01*
X17209270Y-23815484D01*
X17218794Y-23853580D01*
X17218794Y-23901199D01*
X17209270Y-23939294D01*
X17199746Y-23958341D01*
X17190222Y-23967865D01*
X17171174Y-23977389D01*
X17152127Y-23977389D01*
X17133079Y-23967865D01*
X17123555Y-23958341D01*
X17114032Y-23939294D01*
X17104508Y-23901199D01*
X17104508Y-23853580D01*
X17114032Y-23815484D01*
X17123555Y-23796437D01*
X17133079Y-23786913D01*
X17152127Y-23777389D01*
X17333079Y-23863103D02*
X17314032Y-23853580D01*
X17304508Y-23844056D01*
X17294984Y-23825008D01*
X17294984Y-23815484D01*
X17304508Y-23796437D01*
X17314032Y-23786913D01*
X17333079Y-23777389D01*
X17371174Y-23777389D01*
X17390222Y-23786913D01*
X17399746Y-23796437D01*
X17409270Y-23815484D01*
X17409270Y-23825008D01*
X17399746Y-23844056D01*
X17390222Y-23853580D01*
X17371174Y-23863103D01*
X17333079Y-23863103D01*
X17314032Y-23872627D01*
X17304508Y-23882151D01*
X17294984Y-23901199D01*
X17294984Y-23939294D01*
X17304508Y-23958341D01*
X17314032Y-23967865D01*
X17333079Y-23977389D01*
X17371174Y-23977389D01*
X17390222Y-23967865D01*
X17399746Y-23958341D01*
X17409270Y-23939294D01*
X17409270Y-23901199D01*
X17399746Y-23882151D01*
X17390222Y-23872627D01*
X17371174Y-23863103D01*
X17580698Y-23777389D02*
X17542603Y-23777389D01*
X17523555Y-23786913D01*
X17514032Y-23796437D01*
X17494984Y-23825008D01*
X17485460Y-23863103D01*
X17485460Y-23939294D01*
X17494984Y-23958341D01*
X17504508Y-23967865D01*
X17523555Y-23977389D01*
X17561651Y-23977389D01*
X17580698Y-23967865D01*
X17590222Y-23958341D01*
X17599746Y-23939294D01*
X17599746Y-23891675D01*
X17590222Y-23872627D01*
X17580698Y-23863103D01*
X17561651Y-23853580D01*
X17523555Y-23853580D01*
X17504508Y-23863103D01*
X17494984Y-23872627D01*
X17485460Y-23891675D01*
X17771174Y-23777389D02*
X17733079Y-23777389D01*
X17714032Y-23786913D01*
X17704508Y-23796437D01*
X17685460Y-23825008D01*
X17675936Y-23863103D01*
X17675936Y-23939294D01*
X17685460Y-23958341D01*
X17694984Y-23967865D01*
X17714032Y-23977389D01*
X17752127Y-23977389D01*
X17771174Y-23967865D01*
X17780698Y-23958341D01*
X17790222Y-23939294D01*
X17790222Y-23891675D01*
X17780698Y-23872627D01*
X17771174Y-23863103D01*
X17752127Y-23853580D01*
X17714032Y-23853580D01*
X17694984Y-23863103D01*
X17685460Y-23872627D01*
X17675936Y-23891675D01*
X17866413Y-23777389D02*
X17866413Y-23815484D01*
X17942603Y-23777389D02*
X17942603Y-23815484D01*
X18237841Y-24053580D02*
X18228317Y-24044056D01*
X18209270Y-24015484D01*
X18199746Y-23996437D01*
X18190222Y-23967865D01*
X18180698Y-23920246D01*
X18180698Y-23882151D01*
X18190222Y-23834532D01*
X18199746Y-23805961D01*
X18209270Y-23786913D01*
X18228317Y-23758341D01*
X18237841Y-23748818D01*
X18399746Y-23844056D02*
X18399746Y-23977389D01*
X18352127Y-23767865D02*
X18304508Y-23910722D01*
X18428317Y-23910722D01*
X18656889Y-23977389D02*
X18656889Y-23777389D01*
X18742603Y-23977389D02*
X18742603Y-23872627D01*
X18733079Y-23853580D01*
X18714032Y-23844056D01*
X18685460Y-23844056D01*
X18666413Y-23853580D01*
X18656889Y-23863103D01*
X18866413Y-23977389D02*
X18847365Y-23967865D01*
X18837841Y-23958341D01*
X18828317Y-23939294D01*
X18828317Y-23882151D01*
X18837841Y-23863103D01*
X18847365Y-23853580D01*
X18866413Y-23844056D01*
X18894984Y-23844056D01*
X18914032Y-23853580D01*
X18923555Y-23863103D01*
X18933079Y-23882151D01*
X18933079Y-23939294D01*
X18923555Y-23958341D01*
X18914032Y-23967865D01*
X18894984Y-23977389D01*
X18866413Y-23977389D01*
X19047365Y-23977389D02*
X19028317Y-23967865D01*
X19018794Y-23948818D01*
X19018794Y-23777389D01*
X19199746Y-23967865D02*
X19180698Y-23977389D01*
X19142603Y-23977389D01*
X19123555Y-23967865D01*
X19114032Y-23948818D01*
X19114032Y-23872627D01*
X19123555Y-23853580D01*
X19142603Y-23844056D01*
X19180698Y-23844056D01*
X19199746Y-23853580D01*
X19209270Y-23872627D01*
X19209270Y-23891675D01*
X19114032Y-23910722D01*
X19285460Y-23967865D02*
X19304508Y-23977389D01*
X19342603Y-23977389D01*
X19361651Y-23967865D01*
X19371174Y-23948818D01*
X19371174Y-23939294D01*
X19361651Y-23920246D01*
X19342603Y-23910722D01*
X19314032Y-23910722D01*
X19294984Y-23901199D01*
X19285460Y-23882151D01*
X19285460Y-23872627D01*
X19294984Y-23853580D01*
X19314032Y-23844056D01*
X19342603Y-23844056D01*
X19361651Y-23853580D01*
X19437841Y-24053580D02*
X19447365Y-24044056D01*
X19466413Y-24015484D01*
X19475936Y-23996437D01*
X19485460Y-23967865D01*
X19494984Y-23920246D01*
X19494984Y-23882151D01*
X19485460Y-23834532D01*
X19475936Y-23805961D01*
X19466413Y-23786913D01*
X19447365Y-23758341D01*
X19437841Y-23748818D01*
X14465936Y-24106913D02*
X14665936Y-24306913D01*
X14665936Y-24106913D02*
X14465936Y-24306913D01*
X14565936Y-24306913D02*
X14665936Y-24206913D01*
X14565936Y-24106913D01*
X14465936Y-24206913D01*
X14565936Y-24306913D01*
X14914032Y-24116437D02*
X14923555Y-24106913D01*
X14942603Y-24097389D01*
X14990222Y-24097389D01*
X15009270Y-24106913D01*
X15018793Y-24116437D01*
X15028317Y-24135484D01*
X15028317Y-24154532D01*
X15018793Y-24183103D01*
X14904508Y-24297389D01*
X15028317Y-24297389D01*
X15114032Y-24278341D02*
X15123555Y-24287865D01*
X15114032Y-24297389D01*
X15104508Y-24287865D01*
X15114032Y-24278341D01*
X15114032Y-24297389D01*
X15294984Y-24164056D02*
X15294984Y-24297389D01*
X15247365Y-24087865D02*
X15199746Y-24230722D01*
X15323555Y-24230722D01*
X15504508Y-24297389D02*
X15390222Y-24297389D01*
X15447365Y-24297389D02*
X15447365Y-24097389D01*
X15428317Y-24125961D01*
X15409270Y-24145008D01*
X15390222Y-24154532D01*
X15628317Y-24097389D02*
X15647365Y-24097389D01*
X15666412Y-24106913D01*
X15675936Y-24116437D01*
X15685460Y-24135484D01*
X15694984Y-24173580D01*
X15694984Y-24221199D01*
X15685460Y-24259294D01*
X15675936Y-24278341D01*
X15666412Y-24287865D01*
X15647365Y-24297389D01*
X15628317Y-24297389D01*
X15609270Y-24287865D01*
X15599746Y-24278341D01*
X15590222Y-24259294D01*
X15580698Y-24221199D01*
X15580698Y-24173580D01*
X15590222Y-24135484D01*
X15599746Y-24116437D01*
X15609270Y-24106913D01*
X15628317Y-24097389D01*
X15780698Y-24297389D02*
X15780698Y-24164056D01*
X15780698Y-24183103D02*
X15790222Y-24173580D01*
X15809270Y-24164056D01*
X15837841Y-24164056D01*
X15856889Y-24173580D01*
X15866412Y-24192627D01*
X15866412Y-24297389D01*
X15866412Y-24192627D02*
X15875936Y-24173580D01*
X15894984Y-24164056D01*
X15923555Y-24164056D01*
X15942603Y-24173580D01*
X15952127Y-24192627D01*
X15952127Y-24297389D01*
X16047365Y-24297389D02*
X16047365Y-24164056D01*
X16047365Y-24183103D02*
X16056889Y-24173580D01*
X16075936Y-24164056D01*
X16104508Y-24164056D01*
X16123555Y-24173580D01*
X16133079Y-24192627D01*
X16133079Y-24297389D01*
X16133079Y-24192627D02*
X16142603Y-24173580D01*
X16161651Y-24164056D01*
X16190222Y-24164056D01*
X16209270Y-24173580D01*
X16218793Y-24192627D01*
X16218793Y-24297389D01*
X16609270Y-24087865D02*
X16437841Y-24345008D01*
X16866413Y-24097389D02*
X16885460Y-24097389D01*
X16904508Y-24106913D01*
X16914032Y-24116437D01*
X16923555Y-24135484D01*
X16933079Y-24173580D01*
X16933079Y-24221199D01*
X16923555Y-24259294D01*
X16914032Y-24278341D01*
X16904508Y-24287865D01*
X16885460Y-24297389D01*
X16866413Y-24297389D01*
X16847365Y-24287865D01*
X16837841Y-24278341D01*
X16828317Y-24259294D01*
X16818794Y-24221199D01*
X16818794Y-24173580D01*
X16828317Y-24135484D01*
X16837841Y-24116437D01*
X16847365Y-24106913D01*
X16866413Y-24097389D01*
X17018794Y-24278341D02*
X17028317Y-24287865D01*
X17018794Y-24297389D01*
X17009270Y-24287865D01*
X17018794Y-24278341D01*
X17018794Y-24297389D01*
X17152127Y-24097389D02*
X17171174Y-24097389D01*
X17190222Y-24106913D01*
X17199746Y-24116437D01*
X17209270Y-24135484D01*
X17218794Y-24173580D01*
X17218794Y-24221199D01*
X17209270Y-24259294D01*
X17199746Y-24278341D01*
X17190222Y-24287865D01*
X17171174Y-24297389D01*
X17152127Y-24297389D01*
X17133079Y-24287865D01*
X17123555Y-24278341D01*
X17114032Y-24259294D01*
X17104508Y-24221199D01*
X17104508Y-24173580D01*
X17114032Y-24135484D01*
X17123555Y-24116437D01*
X17133079Y-24106913D01*
X17152127Y-24097389D01*
X17314032Y-24297389D02*
X17352127Y-24297389D01*
X17371174Y-24287865D01*
X17380698Y-24278341D01*
X17399746Y-24249770D01*
X17409270Y-24211675D01*
X17409270Y-24135484D01*
X17399746Y-24116437D01*
X17390222Y-24106913D01*
X17371174Y-24097389D01*
X17333079Y-24097389D01*
X17314032Y-24106913D01*
X17304508Y-24116437D01*
X17294984Y-24135484D01*
X17294984Y-24183103D01*
X17304508Y-24202151D01*
X17314032Y-24211675D01*
X17333079Y-24221199D01*
X17371174Y-24221199D01*
X17390222Y-24211675D01*
X17399746Y-24202151D01*
X17409270Y-24183103D01*
X17580698Y-24164056D02*
X17580698Y-24297389D01*
X17533079Y-24087865D02*
X17485460Y-24230722D01*
X17609270Y-24230722D01*
X17694984Y-24297389D02*
X17733079Y-24297389D01*
X17752127Y-24287865D01*
X17761651Y-24278341D01*
X17780698Y-24249770D01*
X17790222Y-24211675D01*
X17790222Y-24135484D01*
X17780698Y-24116437D01*
X17771174Y-24106913D01*
X17752127Y-24097389D01*
X17714032Y-24097389D01*
X17694984Y-24106913D01*
X17685460Y-24116437D01*
X17675936Y-24135484D01*
X17675936Y-24183103D01*
X17685460Y-24202151D01*
X17694984Y-24211675D01*
X17714032Y-24221199D01*
X17752127Y-24221199D01*
X17771174Y-24211675D01*
X17780698Y-24202151D01*
X17790222Y-24183103D01*
X17866413Y-24097389D02*
X17866413Y-24135484D01*
X17942603Y-24097389D02*
X17942603Y-24135484D01*
X18237841Y-24373580D02*
X18228317Y-24364056D01*
X18209270Y-24335484D01*
X18199746Y-24316437D01*
X18190222Y-24287865D01*
X18180698Y-24240246D01*
X18180698Y-24202151D01*
X18190222Y-24154532D01*
X18199746Y-24125961D01*
X18209270Y-24106913D01*
X18228317Y-24078341D01*
X18237841Y-24068818D01*
X18304508Y-24116437D02*
X18314032Y-24106913D01*
X18333079Y-24097389D01*
X18380698Y-24097389D01*
X18399746Y-24106913D01*
X18409270Y-24116437D01*
X18418794Y-24135484D01*
X18418794Y-24154532D01*
X18409270Y-24183103D01*
X18294984Y-24297389D01*
X18418794Y-24297389D01*
X18656889Y-24297389D02*
X18656889Y-24097389D01*
X18742603Y-24297389D02*
X18742603Y-24192627D01*
X18733079Y-24173580D01*
X18714032Y-24164056D01*
X18685460Y-24164056D01*
X18666413Y-24173580D01*
X18656889Y-24183103D01*
X18866413Y-24297389D02*
X18847365Y-24287865D01*
X18837841Y-24278341D01*
X18828317Y-24259294D01*
X18828317Y-24202151D01*
X18837841Y-24183103D01*
X18847365Y-24173580D01*
X18866413Y-24164056D01*
X18894984Y-24164056D01*
X18914032Y-24173580D01*
X18923555Y-24183103D01*
X18933079Y-24202151D01*
X18933079Y-24259294D01*
X18923555Y-24278341D01*
X18914032Y-24287865D01*
X18894984Y-24297389D01*
X18866413Y-24297389D01*
X19047365Y-24297389D02*
X19028317Y-24287865D01*
X19018794Y-24268818D01*
X19018794Y-24097389D01*
X19199746Y-24287865D02*
X19180698Y-24297389D01*
X19142603Y-24297389D01*
X19123555Y-24287865D01*
X19114032Y-24268818D01*
X19114032Y-24192627D01*
X19123555Y-24173580D01*
X19142603Y-24164056D01*
X19180698Y-24164056D01*
X19199746Y-24173580D01*
X19209270Y-24192627D01*
X19209270Y-24211675D01*
X19114032Y-24230722D01*
X19285460Y-24287865D02*
X19304508Y-24297389D01*
X19342603Y-24297389D01*
X19361651Y-24287865D01*
X19371174Y-24268818D01*
X19371174Y-24259294D01*
X19361651Y-24240246D01*
X19342603Y-24230722D01*
X19314032Y-24230722D01*
X19294984Y-24221199D01*
X19285460Y-24202151D01*
X19285460Y-24192627D01*
X19294984Y-24173580D01*
X19314032Y-24164056D01*
X19342603Y-24164056D01*
X19361651Y-24173580D01*
X19437841Y-24373580D02*
X19447365Y-24364056D01*
X19466413Y-24335484D01*
X19475936Y-24316437D01*
X19485460Y-24287865D01*
X19494984Y-24240246D01*
X19494984Y-24202151D01*
X19485460Y-24154532D01*
X19475936Y-24125961D01*
X19466413Y-24106913D01*
X19447365Y-24078341D01*
X19437841Y-24068818D01*
M02*
