G04 #@! TF.GenerationSoftware,KiCad,Pcbnew,(6.0.6)*
G04 #@! TF.CreationDate,2023-02-05T11:55:43-05:00*
G04 #@! TF.ProjectId,NoseConeBoardV1,4e6f7365-436f-46e6-9542-6f6172645631,rev?*
G04 #@! TF.SameCoordinates,Original*
G04 #@! TF.FileFunction,Copper,L4,Bot*
G04 #@! TF.FilePolarity,Positive*
%FSLAX46Y46*%
G04 Gerber Fmt 4.6, Leading zero omitted, Abs format (unit mm)*
G04 Created by KiCad (PCBNEW (6.0.6)) date 2023-02-05 11:55:43*
%MOMM*%
%LPD*%
G01*
G04 APERTURE LIST*
G04 Aperture macros list*
%AMRoundRect*
0 Rectangle with rounded corners*
0 $1 Rounding radius*
0 $2 $3 $4 $5 $6 $7 $8 $9 X,Y pos of 4 corners*
0 Add a 4 corners polygon primitive as box body*
4,1,4,$2,$3,$4,$5,$6,$7,$8,$9,$2,$3,0*
0 Add four circle primitives for the rounded corners*
1,1,$1+$1,$2,$3*
1,1,$1+$1,$4,$5*
1,1,$1+$1,$6,$7*
1,1,$1+$1,$8,$9*
0 Add four rect primitives between the rounded corners*
20,1,$1+$1,$2,$3,$4,$5,0*
20,1,$1+$1,$4,$5,$6,$7,0*
20,1,$1+$1,$6,$7,$8,$9,0*
20,1,$1+$1,$8,$9,$2,$3,0*%
%AMHorizOval*
0 Thick line with rounded ends*
0 $1 width*
0 $2 $3 position (X,Y) of the first rounded end (center of the circle)*
0 $4 $5 position (X,Y) of the second rounded end (center of the circle)*
0 Add line between two ends*
20,1,$1,$2,$3,$4,$5,0*
0 Add two circle primitives to create the rounded ends*
1,1,$1,$2,$3*
1,1,$1,$4,$5*%
%AMRotRect*
0 Rectangle, with rotation*
0 The origin of the aperture is its center*
0 $1 length*
0 $2 width*
0 $3 Rotation angle, in degrees counterclockwise*
0 Add horizontal line*
21,1,$1,$2,0,0,$3*%
G04 Aperture macros list end*
G04 #@! TA.AperFunction,ComponentPad*
%ADD10R,1.700000X1.700000*%
G04 #@! TD*
G04 #@! TA.AperFunction,ComponentPad*
%ADD11O,1.700000X1.700000*%
G04 #@! TD*
G04 #@! TA.AperFunction,ComponentPad*
%ADD12C,3.800000*%
G04 #@! TD*
G04 #@! TA.AperFunction,ComponentPad*
%ADD13RoundRect,0.200000X0.176777X-0.459619X0.459619X-0.176777X-0.176777X0.459619X-0.459619X0.176777X0*%
G04 #@! TD*
G04 #@! TA.AperFunction,ComponentPad*
%ADD14HorizOval,0.800000X-0.176777X0.176777X0.176777X-0.176777X0*%
G04 #@! TD*
G04 #@! TA.AperFunction,ComponentPad*
%ADD15C,2.050000*%
G04 #@! TD*
G04 #@! TA.AperFunction,ComponentPad*
%ADD16C,2.250000*%
G04 #@! TD*
G04 #@! TA.AperFunction,ComponentPad*
%ADD17R,1.600000X1.600000*%
G04 #@! TD*
G04 #@! TA.AperFunction,ComponentPad*
%ADD18C,1.600000*%
G04 #@! TD*
G04 #@! TA.AperFunction,ComponentPad*
%ADD19RotRect,1.520000X1.520000X45.000000*%
G04 #@! TD*
G04 #@! TA.AperFunction,ComponentPad*
%ADD20C,1.520000*%
G04 #@! TD*
G04 #@! TA.AperFunction,ComponentPad*
%ADD21C,2.910000*%
G04 #@! TD*
G04 #@! TA.AperFunction,ViaPad*
%ADD22C,0.500000*%
G04 #@! TD*
G04 #@! TA.AperFunction,Conductor*
%ADD23C,0.250000*%
G04 #@! TD*
G04 #@! TA.AperFunction,Conductor*
%ADD24C,1.000000*%
G04 #@! TD*
G04 #@! TA.AperFunction,Conductor*
%ADD25C,0.500000*%
G04 #@! TD*
G04 #@! TA.AperFunction,Conductor*
%ADD26C,2.000000*%
G04 #@! TD*
G04 #@! TA.AperFunction,Conductor*
%ADD27C,0.261100*%
G04 #@! TD*
G04 APERTURE END LIST*
D10*
X211820001Y-114000000D03*
D11*
X214360001Y-114000000D03*
D10*
X205670001Y-114000000D03*
D11*
X208210001Y-114000000D03*
D10*
X206200000Y-109775000D03*
D11*
X208740000Y-109775000D03*
X211280000Y-109775000D03*
X213820000Y-109775000D03*
D12*
X180000000Y-190100000D03*
X239900000Y-109900000D03*
D10*
X255475000Y-151700000D03*
D11*
X255475000Y-149160000D03*
X255475000Y-146620000D03*
X255475000Y-144080000D03*
D10*
X206220001Y-105500000D03*
D11*
X208760001Y-105500000D03*
X211300001Y-105500000D03*
X213840001Y-105500000D03*
D13*
X224114035Y-176681802D03*
D14*
X224997918Y-175797919D03*
X225881802Y-174914035D03*
D10*
X251425000Y-146950000D03*
D11*
X251425000Y-149490000D03*
D15*
X183200000Y-124500000D03*
D16*
X180660000Y-127040000D03*
X185740000Y-127040000D03*
X180660000Y-121960000D03*
X185740000Y-121960000D03*
D15*
X227400000Y-114300000D03*
D16*
X223807898Y-114300000D03*
X227400000Y-110707898D03*
X227400000Y-117892102D03*
X230992102Y-114300000D03*
D10*
X214370001Y-101300000D03*
D11*
X211830001Y-101300000D03*
D13*
X237314035Y-163381802D03*
D14*
X238197918Y-162497919D03*
X239081802Y-161614035D03*
D17*
X212000000Y-122800000D03*
D18*
X208000000Y-122800000D03*
D12*
X180000000Y-110000000D03*
D10*
X205670001Y-101275000D03*
D11*
X208210001Y-101275000D03*
D12*
X239900000Y-190000000D03*
D19*
X229566465Y-164945145D03*
D20*
X227445145Y-167066465D03*
D21*
X234141446Y-166479567D03*
X228979566Y-171641446D03*
D22*
X203500000Y-196600000D03*
X215250000Y-191350000D03*
X203500000Y-197300000D03*
X213900000Y-195000000D03*
X203500000Y-197900000D03*
X212900000Y-189700000D03*
X150859369Y-159880271D03*
X214700000Y-118300000D03*
X261800000Y-149100000D03*
X161000000Y-165400000D03*
X207200000Y-192700000D03*
X210909364Y-89319130D03*
X164025633Y-116326926D03*
X239680730Y-202551376D03*
X245500000Y-120400000D03*
X208300000Y-150800000D03*
X215200000Y-176000000D03*
X149409364Y-149419130D03*
X179500000Y-131300000D03*
X223800000Y-167300000D03*
X179537390Y-201858205D03*
X204300000Y-180900000D03*
X207800000Y-150200000D03*
X225400000Y-127000000D03*
X161000000Y-142800000D03*
X216382405Y-93226744D03*
X213800000Y-158800000D03*
X187109182Y-97762358D03*
X178800000Y-170700000D03*
X245100000Y-120000000D03*
X221335786Y-91009870D03*
X249823505Y-191417675D03*
X266488538Y-171340731D03*
X196551784Y-94546470D03*
X209800000Y-194900000D03*
X209500000Y-153700000D03*
X209200000Y-187100000D03*
X220077808Y-210116995D03*
X216300000Y-148600000D03*
X188400000Y-159900000D03*
X202900000Y-160500000D03*
X262641610Y-120647764D03*
X218774500Y-146200000D03*
X180737998Y-97686884D03*
X243100000Y-122000000D03*
X205800000Y-160500000D03*
X211700000Y-151600000D03*
X176417160Y-196302861D03*
X270207229Y-140250686D03*
X153316978Y-143946089D03*
X150211499Y-159987574D03*
X163691331Y-188247524D03*
X257759415Y-118278233D03*
X266962695Y-130200264D03*
X198962189Y-209873888D03*
X163800000Y-158400000D03*
X179500000Y-130100000D03*
X213700000Y-171000000D03*
X237100000Y-146300000D03*
X186000000Y-165474500D03*
X202600000Y-119800000D03*
X244100000Y-145000000D03*
X152836639Y-170256170D03*
X194250846Y-205075255D03*
X211700000Y-174200000D03*
X184950261Y-201469181D03*
X214300000Y-165000000D03*
X170595223Y-108820585D03*
X235468467Y-98769079D03*
X238300000Y-117000000D03*
X178800000Y-170100000D03*
X158859313Y-124860027D03*
X150454606Y-138871955D03*
X208000000Y-187100000D03*
X212700000Y-190700000D03*
X188756754Y-207013027D03*
X269964122Y-161366305D03*
X150066024Y-149425959D03*
X202400000Y-147200000D03*
X164000000Y-131300000D03*
X233200000Y-134700000D03*
X168800000Y-130100000D03*
X153315467Y-128666520D03*
X231430965Y-93839956D03*
X205700000Y-171000000D03*
X189600000Y-160800000D03*
X208600000Y-187100000D03*
X171664108Y-103093677D03*
X262566136Y-127018948D03*
X164083813Y-110501412D03*
X172080970Y-103601097D03*
X187300000Y-142800000D03*
X168910819Y-189733271D03*
X256334915Y-189736848D03*
X168800000Y-130700000D03*
X242400000Y-143900000D03*
X265782024Y-136461550D03*
X216400000Y-195500000D03*
X157777118Y-179590496D03*
X228100000Y-160200000D03*
X188987763Y-206398304D03*
X244200000Y-124700000D03*
X200340920Y-90121265D03*
X209800000Y-195500000D03*
X209900000Y-140100000D03*
X211500000Y-156500000D03*
X204500000Y-157900000D03*
X157905019Y-119112912D03*
X267101750Y-156292171D03*
X215500000Y-141400000D03*
X155253239Y-134160612D03*
X248337758Y-196637163D03*
X209516193Y-210262470D03*
X267103261Y-171571740D03*
X214600000Y-176000000D03*
X231000000Y-151000000D03*
X204036323Y-207011516D03*
X186100000Y-142800000D03*
X242050261Y-197669181D03*
X267582089Y-129982090D03*
X230128230Y-206872461D03*
X164000000Y-130700000D03*
X207300000Y-157500000D03*
X210902535Y-89975790D03*
X188700000Y-149700000D03*
X239800000Y-114800000D03*
X163183911Y-188664386D03*
X200700000Y-155000000D03*
X240881338Y-98380055D03*
X226300000Y-162000000D03*
X173700000Y-170100000D03*
X247000000Y-120200000D03*
X217593767Y-152293767D03*
X207200000Y-149600000D03*
X154636704Y-163776710D03*
X212300000Y-174200000D03*
X209509364Y-210919130D03*
X170591646Y-196244681D03*
X231661974Y-93225233D03*
X240200000Y-115200000D03*
X203000000Y-150700000D03*
X267309364Y-146319130D03*
X261948439Y-180791104D03*
X207900000Y-192900000D03*
X226167882Y-95163005D03*
X270352704Y-150812301D03*
X158470289Y-119447156D03*
X216400000Y-194300000D03*
X188700000Y-152300000D03*
X208500000Y-119400000D03*
X237800000Y-116600000D03*
X200448223Y-90769135D03*
X234600000Y-150300000D03*
X206800000Y-144000000D03*
X206409364Y-93019130D03*
X180415582Y-97114785D03*
X212200000Y-176900000D03*
X256393095Y-183911334D03*
X249827082Y-103993579D03*
X153109364Y-153919130D03*
X199082942Y-209228390D03*
X227400000Y-124900000D03*
X216400000Y-194900000D03*
X235900000Y-147300000D03*
X169400000Y-165700000D03*
X190072324Y-92746405D03*
X223900000Y-152500000D03*
X214400000Y-141300000D03*
X157852592Y-173219312D03*
X257234817Y-111573874D03*
X188700000Y-147200000D03*
X187200000Y-165500000D03*
X186600000Y-165500000D03*
X162659313Y-181960027D03*
X153930190Y-128897529D03*
X209600000Y-146900000D03*
X173700000Y-169500000D03*
X209000000Y-151500000D03*
X226300000Y-148100000D03*
X232800000Y-134300000D03*
X251507909Y-110504989D03*
X241200000Y-143900000D03*
X226600000Y-157700000D03*
X269559359Y-140357989D03*
X202500000Y-142500000D03*
X164000000Y-130100000D03*
X262513709Y-181125348D03*
X157205019Y-179912912D03*
X249399758Y-104492220D03*
X203800000Y-123200000D03*
X162200000Y-142800000D03*
X179500000Y-130700000D03*
X161600000Y-165400000D03*
X206300000Y-156200000D03*
X153456033Y-170037996D03*
X263213709Y-120325348D03*
X219970505Y-209469125D03*
X211400000Y-148100000D03*
X214009364Y-207219130D03*
X221456539Y-90364372D03*
X211600000Y-176900000D03*
X190900000Y-161700000D03*
X206157782Y-149397939D03*
X173700000Y-170700000D03*
X171018970Y-195746040D03*
X208600000Y-169600000D03*
X185600000Y-169700000D03*
X213710738Y-150497203D03*
X165100000Y-162400000D03*
X203400000Y-168300000D03*
X164582454Y-110928736D03*
X151100104Y-138992708D03*
X269318624Y-161245552D03*
X244001568Y-103935399D03*
X206000000Y-145800000D03*
X206200000Y-185900000D03*
X261559415Y-175378233D03*
X225800000Y-127400000D03*
X256727397Y-111990736D03*
X215400000Y-152400000D03*
X210900000Y-153200000D03*
X161600000Y-142800000D03*
X240003146Y-203123475D03*
X213300000Y-141100000D03*
X246400000Y-150200000D03*
X214100000Y-135900000D03*
X265165489Y-166077648D03*
X220300000Y-162800000D03*
X168800000Y-131300000D03*
X233000000Y-143900000D03*
X162200000Y-165400000D03*
X190290498Y-93365799D03*
X248754620Y-197144583D03*
X223866944Y-205691790D03*
X204900000Y-180900000D03*
X230346404Y-207491855D03*
X255836274Y-189309524D03*
X233309546Y-202475902D03*
X235300000Y-132900000D03*
X241215582Y-97814785D03*
X234900000Y-132400000D03*
X200000000Y-138000000D03*
X198300000Y-168300000D03*
X209800000Y-194300000D03*
X179203146Y-202423475D03*
X271009364Y-150819130D03*
X207300000Y-148800000D03*
X178368467Y-102569079D03*
X212200000Y-171900000D03*
X227800000Y-125300000D03*
X243500000Y-122400000D03*
X225200000Y-165800000D03*
X203200000Y-122600000D03*
X209700000Y-152900000D03*
X224800000Y-166200000D03*
X178800000Y-169500000D03*
X236500000Y-147300000D03*
X214600000Y-116000000D03*
X186700000Y-142800000D03*
X215100000Y-158900000D03*
X245000000Y-124700000D03*
X215000000Y-159700000D03*
X215100000Y-164700000D03*
X225500000Y-148100000D03*
X210868797Y-147468797D03*
X200000000Y-138800000D03*
X198300000Y-167500000D03*
X203400000Y-167500000D03*
X231000000Y-151800000D03*
X212300000Y-148625500D03*
X209400000Y-119100000D03*
X214400000Y-135100000D03*
X217350000Y-144650000D03*
X212700000Y-191600000D03*
X244100000Y-150700000D03*
X243400000Y-150700000D03*
X208600000Y-188000000D03*
X243400000Y-151500000D03*
X244100000Y-151500000D03*
X239550000Y-151150000D03*
X239700000Y-146300000D03*
X214100000Y-158000000D03*
X272100000Y-148500000D03*
X262400000Y-149700000D03*
X223900000Y-153500000D03*
X214800000Y-152900000D03*
X212300000Y-156200000D03*
X207600000Y-155300000D03*
X215300000Y-116400000D03*
X212500000Y-151400000D03*
X215300000Y-117700000D03*
X211200000Y-152400000D03*
X223100000Y-166900000D03*
X220350000Y-163550000D03*
X207800000Y-148200000D03*
X216600000Y-149400000D03*
X209100000Y-140100000D03*
X207400000Y-143500000D03*
X210300000Y-146400000D03*
X188700000Y-146400000D03*
X169400000Y-164900000D03*
X210100000Y-157700000D03*
X165900000Y-162400000D03*
X209024454Y-152509857D03*
X188700000Y-148900000D03*
X205600000Y-146600000D03*
X188658500Y-151541500D03*
X202958500Y-151541500D03*
X188400000Y-159100000D03*
X206500000Y-150100000D03*
X207100000Y-150700000D03*
X189600000Y-160000000D03*
X207600000Y-151300000D03*
X190900000Y-160900000D03*
X208400000Y-152000000D03*
X163800000Y-159200000D03*
X203700000Y-160500000D03*
X203900000Y-158500000D03*
X206900000Y-155600000D03*
X204900000Y-160500000D03*
X215300000Y-192300000D03*
X210300000Y-192500000D03*
X245600000Y-150200000D03*
X243600000Y-145600000D03*
D23*
X215250000Y-191350000D02*
X215850000Y-191350000D01*
X214100000Y-195000000D02*
X213900000Y-195000000D01*
D24*
X206400000Y-200800000D02*
X235400000Y-200800000D01*
D23*
X215900000Y-193200000D02*
X214100000Y-195000000D01*
D24*
X258700000Y-177500000D02*
X258700000Y-145700000D01*
X257080000Y-144080000D02*
X255475000Y-144080000D01*
X235400000Y-200800000D02*
X258700000Y-177500000D01*
D23*
X215900000Y-190100000D02*
X215900000Y-191400000D01*
D24*
X258700000Y-145700000D02*
X257080000Y-144080000D01*
D23*
X215850000Y-191350000D02*
X215900000Y-191400000D01*
X212900000Y-189700000D02*
X215500000Y-189700000D01*
D24*
X203500000Y-197900000D02*
X203500000Y-196700000D01*
D23*
X215500000Y-189700000D02*
X215900000Y-190100000D01*
D24*
X203500000Y-197900000D02*
X206400000Y-200800000D01*
D23*
X215900000Y-191400000D02*
X215900000Y-193200000D01*
D25*
X219400000Y-159700000D02*
X225300000Y-153800000D01*
X225500000Y-153600000D02*
X225500000Y-148100000D01*
X241800000Y-125400000D02*
X243600000Y-127200000D01*
X213840001Y-105500000D02*
X231589950Y-105500000D01*
X225300000Y-153800000D02*
X225500000Y-153600000D01*
X245000000Y-125800000D02*
X245000000Y-124700000D01*
X225500000Y-148100000D02*
X225500000Y-145300000D01*
X213840001Y-109754999D02*
X213820000Y-109775000D01*
X215000000Y-159700000D02*
X219400000Y-159700000D01*
X227900000Y-142900000D02*
X243600000Y-127200000D01*
X215000000Y-159700000D02*
X215000000Y-164600000D01*
X215000000Y-164600000D02*
X215100000Y-164700000D01*
X231589950Y-105500000D02*
X241800000Y-115710050D01*
X213840001Y-105500000D02*
X213840001Y-109754999D01*
X241800000Y-115710050D02*
X241800000Y-125400000D01*
X225500000Y-145300000D02*
X227900000Y-142900000D01*
X243600000Y-127200000D02*
X245000000Y-125800000D01*
X211440527Y-139740527D02*
X210500000Y-138800000D01*
X211440527Y-146897067D02*
X211440527Y-139740527D01*
X210500000Y-138800000D02*
X200000000Y-138800000D01*
X229900000Y-151800000D02*
X214200000Y-167500000D01*
X210868797Y-147468797D02*
X211440527Y-146897067D01*
X203400000Y-167500000D02*
X198300000Y-167500000D01*
X214200000Y-167500000D02*
X203400000Y-167500000D01*
X231000000Y-151800000D02*
X229900000Y-151800000D01*
D23*
X209300000Y-119200000D02*
X209400000Y-119100000D01*
X212300000Y-148625500D02*
X212300000Y-147300000D01*
X213400000Y-146200000D02*
X214600000Y-146200000D01*
X215100000Y-146700000D02*
X215300000Y-146700000D01*
X209300000Y-130000000D02*
X209300000Y-119200000D01*
X212300000Y-147300000D02*
X213400000Y-146200000D01*
X214600000Y-146200000D02*
X215100000Y-146700000D01*
X215300000Y-146700000D02*
X217350000Y-144650000D01*
X214400000Y-135100000D02*
X209300000Y-130000000D01*
X217350000Y-144650000D02*
X217400000Y-144600000D01*
X239700000Y-146300000D02*
X239700000Y-151000000D01*
D26*
X230266465Y-164945145D02*
X238000000Y-157211610D01*
X238000000Y-157211610D02*
X238000000Y-157100000D01*
X238000000Y-157100000D02*
X243800000Y-151300000D01*
D23*
X239550000Y-151150000D02*
X239500000Y-151200000D01*
D26*
X229566465Y-164945145D02*
X230266465Y-164945145D01*
D23*
X212700000Y-191600000D02*
X212200000Y-191600000D01*
X239700000Y-151000000D02*
X239550000Y-151150000D01*
X212200000Y-191600000D02*
X208600000Y-188000000D01*
X214100000Y-158000000D02*
X219400000Y-158000000D01*
X263600000Y-148500000D02*
X262400000Y-149700000D01*
X272100000Y-148500000D02*
X263600000Y-148500000D01*
X219400000Y-158000000D02*
X223900000Y-153500000D01*
X214874500Y-152974500D02*
X215637966Y-152974500D01*
X210400000Y-129400000D02*
X210400000Y-116189999D01*
X214800000Y-152900000D02*
X214874500Y-152974500D01*
X218200000Y-150412466D02*
X218200000Y-137200000D01*
X215637966Y-152974500D02*
X218200000Y-150412466D01*
X210400000Y-116189999D02*
X208210001Y-114000000D01*
X218200000Y-137200000D02*
X210400000Y-129400000D01*
X221200000Y-152700000D02*
X221200000Y-134500000D01*
X221200000Y-134500000D02*
X216600000Y-129900000D01*
X216600000Y-112700000D02*
X216200000Y-112300000D01*
X209200000Y-112300000D02*
X208740000Y-111840000D01*
X208740000Y-111840000D02*
X208740000Y-109775000D01*
X217700000Y-156200000D02*
X221200000Y-152700000D01*
X212300000Y-156200000D02*
X217700000Y-156200000D01*
X216600000Y-129900000D02*
X216600000Y-112700000D01*
X216200000Y-112300000D02*
X209200000Y-112300000D01*
X216700000Y-111400000D02*
X217900000Y-112600000D01*
X209400000Y-157100000D02*
X207600000Y-155300000D01*
X217900000Y-112600000D02*
X217900000Y-129300000D01*
X222200000Y-153400000D02*
X218500000Y-157100000D01*
X212905000Y-111400000D02*
X216700000Y-111400000D01*
X211280000Y-109775000D02*
X212905000Y-111400000D01*
X222200000Y-133600000D02*
X222200000Y-153400000D01*
X217900000Y-129300000D02*
X222200000Y-133600000D01*
X218500000Y-157100000D02*
X209400000Y-157100000D01*
X212500000Y-152100000D02*
X214700000Y-154300000D01*
X214000000Y-117700000D02*
X215300000Y-116400000D01*
X214000000Y-131100000D02*
X214000000Y-117700000D01*
X212500000Y-151400000D02*
X212500000Y-152100000D01*
X219349000Y-136449000D02*
X214000000Y-131100000D01*
X216400000Y-154300000D02*
X219349000Y-151351000D01*
X219349000Y-151351000D02*
X219349000Y-136449000D01*
X214700000Y-154300000D02*
X216400000Y-154300000D01*
X215400000Y-130500000D02*
X215400000Y-117800000D01*
X211200000Y-152400000D02*
X214100000Y-155300000D01*
X220300000Y-135400000D02*
X215400000Y-130500000D01*
X220300000Y-152100000D02*
X220300000Y-135400000D01*
X217100000Y-155300000D02*
X220300000Y-152100000D01*
X215400000Y-117800000D02*
X215300000Y-117700000D01*
X214100000Y-155300000D02*
X217100000Y-155300000D01*
X223200000Y-166400000D02*
X223200000Y-166800000D01*
X220350000Y-163550000D02*
X223200000Y-166400000D01*
X223200000Y-166800000D02*
X223100000Y-166900000D01*
X216400000Y-149200000D02*
X216600000Y-149400000D01*
X207800000Y-148200000D02*
X208800000Y-149200000D01*
X208800000Y-149200000D02*
X216400000Y-149200000D01*
X209100000Y-140100000D02*
X207400000Y-141800000D01*
X207400000Y-141800000D02*
X207400000Y-143500000D01*
X205800000Y-144800000D02*
X208700000Y-144800000D01*
X188700000Y-146400000D02*
X204200000Y-146400000D01*
X204200000Y-146400000D02*
X205800000Y-144800000D01*
X208700000Y-144800000D02*
X210300000Y-146400000D01*
X169400000Y-164900000D02*
X202900000Y-164900000D01*
X202900000Y-164900000D02*
X210100000Y-157700000D01*
X197834311Y-163700000D02*
X209024454Y-152509857D01*
X165900000Y-162400000D02*
X167200000Y-163700000D01*
X167200000Y-163700000D02*
X197834311Y-163700000D01*
X205600000Y-146600000D02*
X203300000Y-148900000D01*
X203300000Y-148900000D02*
X188700000Y-148900000D01*
X188658500Y-151541500D02*
X202958500Y-151541500D01*
X202958500Y-151541500D02*
X203000000Y-151500000D01*
X206500000Y-150100000D02*
X197500000Y-159100000D01*
X197500000Y-159100000D02*
X188400000Y-159100000D01*
X198900000Y-158900000D02*
X197800000Y-160000000D01*
X200300000Y-157500000D02*
X198900000Y-158900000D01*
X207100000Y-150700000D02*
X200300000Y-157500000D01*
X197800000Y-160000000D02*
X189600000Y-160000000D01*
X207600000Y-151300000D02*
X207600000Y-151400000D01*
X198100000Y-160900000D02*
X190900000Y-160900000D01*
X207600000Y-151400000D02*
X198100000Y-160900000D01*
X165200000Y-159200000D02*
X163800000Y-159200000D01*
X167500000Y-161500000D02*
X165200000Y-159200000D01*
X186700000Y-162800000D02*
X168800000Y-162800000D01*
X168800000Y-162800000D02*
X167500000Y-161500000D01*
X197600000Y-162800000D02*
X186700000Y-162800000D01*
X208400000Y-152000000D02*
X197600000Y-162800000D01*
X203900000Y-160300000D02*
X203900000Y-158500000D01*
X203700000Y-160500000D02*
X203900000Y-160300000D01*
X206900000Y-156900000D02*
X206900000Y-155600000D01*
X204900000Y-160500000D02*
X204900000Y-158900000D01*
X204900000Y-158900000D02*
X206900000Y-156900000D01*
X215300000Y-192300000D02*
X210500000Y-192300000D01*
X210500000Y-192300000D02*
X210300000Y-192500000D01*
X243600000Y-148200000D02*
X245600000Y-150200000D01*
X243600000Y-145600000D02*
X243600000Y-148200000D01*
D27*
X239213112Y-162957539D02*
X239387723Y-163132150D01*
X241696160Y-163132150D02*
X248114155Y-156714155D01*
X239387723Y-163132150D02*
X241696160Y-163132150D01*
X238657538Y-162957539D02*
X239213112Y-162957539D01*
X253532150Y-151296160D02*
X253532150Y-149219470D01*
X238197918Y-162497919D02*
X238657538Y-162957539D01*
X248814383Y-156714155D02*
X248888533Y-156640004D01*
X248888532Y-155939775D02*
X248962683Y-155865626D01*
X248962683Y-155865626D02*
X253532150Y-151296160D01*
X253591620Y-149160000D02*
X255475000Y-149160000D01*
X248888533Y-156289890D02*
X248888532Y-156289889D01*
X253532150Y-149219470D02*
X253591620Y-149160000D01*
X248814382Y-156714154D02*
G75*
G02*
X248464270Y-156714154I-175056J175056D01*
G01*
X248888500Y-155939743D02*
G75*
G03*
X248888532Y-156289889I175100J-175057D01*
G01*
X248464268Y-156714156D02*
G75*
G03*
X248114156Y-156714156I-175056J-175056D01*
G01*
X248888580Y-156289843D02*
G75*
G02*
X248888533Y-156640004I-175080J-175057D01*
G01*
X239541422Y-162629229D02*
X239580043Y-162667850D01*
X241503840Y-162667850D02*
X253067850Y-151103840D01*
X239580043Y-162667850D02*
X241503840Y-162667850D01*
X253067850Y-151103840D02*
X253067850Y-149027150D01*
X239541422Y-162073655D02*
X239541422Y-162629229D01*
X239081802Y-161614035D02*
X239541422Y-162073655D01*
X253067850Y-149027150D02*
X255475000Y-146620000D01*
M02*
