M48
; DRILL file {KiCad (6.0.6)} date Sun Feb  5 11:55:52 2023
; FORMAT={-:-/ absolute / metric / decimal}
; #@! TF.CreationDate,2023-02-05T11:55:52-05:00
; #@! TF.GenerationSoftware,Kicad,Pcbnew,(6.0.6)
; #@! TF.FileFunction,Plated,1,4,PTH
FMAT,2
METRIC
; #@! TA.AperFunction,Plated,PTH,ViaDrill
T1C0.250
; #@! TA.AperFunction,Plated,PTH,ComponentDrill
T2C0.500
; #@! TA.AperFunction,Plated,PTH,ComponentDrill
T3C0.900
; #@! TA.AperFunction,Plated,PTH,ComponentDrill
T4C1.000
; #@! TA.AperFunction,Plated,PTH,ComponentDrill
T5C1.020
; #@! TA.AperFunction,Plated,PTH,ComponentDrill
T6C1.500
; #@! TA.AperFunction,Plated,PTH,ComponentDrill
T7C1.700
; #@! TA.AperFunction,Plated,PTH,ComponentDrill
T8C2.200
; #@! TA.AperFunction,Plated,PTH,ComponentDrill
T9C2.410
%
G90
G05
T1
X149.409Y-149.419
X150.066Y-149.426
X150.211Y-159.988
X150.455Y-138.872
X150.859Y-159.88
X151.1Y-138.993
X152.837Y-170.256
X153.109Y-153.919
X153.315Y-128.667
X153.317Y-143.946
X153.456Y-170.038
X153.93Y-128.898
X154.637Y-163.777
X155.253Y-134.161
X157.205Y-179.913
X157.777Y-179.59
X157.853Y-173.219
X157.905Y-119.113
X158.47Y-119.447
X158.859Y-124.86
X161.0Y-142.8
X161.0Y-165.4
X161.6Y-142.8
X161.6Y-165.4
X162.2Y-142.8
X162.2Y-165.4
X162.659Y-181.96
X163.184Y-188.664
X163.691Y-188.248
X163.8Y-158.4
X163.8Y-159.2
X164.0Y-130.1
X164.0Y-130.7
X164.0Y-131.3
X164.026Y-116.327
X164.084Y-110.501
X164.582Y-110.929
X165.1Y-162.4
X165.9Y-162.4
X168.8Y-130.1
X168.8Y-130.7
X168.8Y-131.3
X168.911Y-189.733
X169.4Y-164.9
X169.4Y-165.7
X170.592Y-196.245
X170.595Y-108.821
X171.019Y-195.746
X171.664Y-103.094
X172.081Y-103.601
X173.7Y-169.5
X173.7Y-170.1
X173.7Y-170.7
X176.417Y-196.303
X178.368Y-102.569
X178.8Y-169.5
X178.8Y-170.1
X178.8Y-170.7
X179.203Y-202.423
X179.5Y-130.1
X179.5Y-130.7
X179.5Y-131.3
X179.537Y-201.858
X180.416Y-97.115
X180.738Y-97.687
X184.95Y-201.469
X185.6Y-169.7
X186.0Y-165.475
X186.1Y-142.8
X186.6Y-165.5
X186.7Y-142.8
X187.109Y-97.762
X187.2Y-165.5
X187.3Y-142.8
X188.4Y-159.1
X188.4Y-159.9
X188.659Y-151.541
X188.7Y-146.4
X188.7Y-147.2
X188.7Y-148.9
X188.7Y-149.7
X188.7Y-152.3
X188.757Y-207.013
X188.988Y-206.398
X189.6Y-160.0
X189.6Y-160.8
X190.072Y-92.746
X190.29Y-93.366
X190.9Y-160.9
X190.9Y-161.7
X194.251Y-205.075
X196.552Y-94.546
X198.3Y-167.5
X198.3Y-168.3
X198.962Y-209.874
X199.083Y-209.228
X200.0Y-138.0
X200.0Y-138.8
X200.341Y-90.121
X200.448Y-90.769
X200.7Y-155.0
X202.4Y-147.2
X202.5Y-142.5
X202.6Y-119.8
X202.9Y-160.5
X202.958Y-151.541
X203.0Y-150.7
X203.2Y-122.6
X203.4Y-167.5
X203.4Y-168.3
X203.5Y-196.6
X203.5Y-197.3
X203.5Y-197.9
X203.7Y-160.5
X203.8Y-123.2
X203.9Y-158.5
X204.036Y-207.012
X204.3Y-180.9
X204.5Y-157.9
X204.9Y-160.5
X204.9Y-180.9
X205.6Y-146.6
X205.7Y-171.0
X205.8Y-160.5
X206.0Y-145.8
X206.158Y-149.398
X206.2Y-185.9
X206.3Y-156.2
X206.409Y-93.019
X206.5Y-150.1
X206.8Y-144.0
X206.9Y-155.6
X207.1Y-150.7
X207.2Y-149.6
X207.2Y-192.7
X207.3Y-148.8
X207.3Y-157.5
X207.4Y-143.5
X207.6Y-151.3
X207.6Y-155.3
X207.8Y-148.2
X207.8Y-150.2
X207.9Y-192.9
X208.0Y-187.1
X208.3Y-150.8
X208.4Y-152.0
X208.5Y-119.4
X208.6Y-169.6
X208.6Y-187.1
X208.6Y-188.0
X209.0Y-151.5
X209.024Y-152.51
X209.1Y-140.1
X209.2Y-187.1
X209.4Y-119.1
X209.5Y-153.7
X209.509Y-210.919
X209.516Y-210.262
X209.6Y-146.9
X209.7Y-152.9
X209.8Y-194.3
X209.8Y-194.9
X209.8Y-195.5
X209.9Y-140.1
X210.1Y-157.7
X210.3Y-146.4
X210.3Y-192.5
X210.869Y-147.469
X210.9Y-153.2
X210.903Y-89.976
X210.909Y-89.319
X211.2Y-152.4
X211.4Y-148.1
X211.5Y-156.5
X211.6Y-176.9
X211.7Y-151.6
X211.7Y-174.2
X212.2Y-171.9
X212.2Y-176.9
X212.3Y-148.625
X212.3Y-156.2
X212.3Y-174.2
X212.5Y-151.4
X212.7Y-190.7
X212.7Y-191.6
X212.9Y-189.7
X213.3Y-141.1
X213.7Y-171.0
X213.711Y-150.497
X213.8Y-158.8
X213.9Y-195.0
X214.009Y-207.219
X214.1Y-135.9
X214.1Y-158.0
X214.3Y-165.0
X214.4Y-135.1
X214.4Y-141.3
X214.6Y-116.0
X214.6Y-176.0
X214.7Y-118.3
X214.8Y-152.9
X215.0Y-159.7
X215.1Y-158.9
X215.1Y-164.7
X215.2Y-176.0
X215.25Y-191.35
X215.3Y-116.4
X215.3Y-117.7
X215.3Y-192.3
X215.4Y-152.4
X215.5Y-141.4
X216.3Y-148.6
X216.382Y-93.227
X216.4Y-194.3
X216.4Y-194.9
X216.4Y-195.5
X216.6Y-149.4
X217.35Y-144.65
X217.594Y-152.294
X218.774Y-146.2
X219.971Y-209.469
X220.078Y-210.117
X220.3Y-162.8
X220.35Y-163.55
X221.336Y-91.01
X221.457Y-90.364
X223.1Y-166.9
X223.8Y-167.3
X223.867Y-205.692
X223.9Y-152.5
X223.9Y-153.5
X224.8Y-166.2
X225.2Y-165.8
X225.4Y-127.0
X225.5Y-148.1
X225.8Y-127.4
X226.168Y-95.163
X226.3Y-148.1
X226.3Y-162.0
X226.6Y-157.7
X227.4Y-124.9
X227.8Y-125.3
X228.1Y-160.2
X230.128Y-206.872
X230.346Y-207.492
X231.0Y-151.0
X231.0Y-151.8
X231.431Y-93.84
X231.662Y-93.225
X232.8Y-134.3
X233.0Y-143.9
X233.2Y-134.7
X233.31Y-202.476
X234.6Y-150.3
X234.9Y-132.4
X235.3Y-132.9
X235.468Y-98.769
X235.9Y-147.3
X236.5Y-147.3
X237.1Y-146.3
X237.8Y-116.6
X238.3Y-117.0
X239.55Y-151.15
X239.681Y-202.551
X239.7Y-146.3
X239.8Y-114.8
X240.003Y-203.123
X240.2Y-115.2
X240.881Y-98.38
X241.2Y-143.9
X241.216Y-97.815
X242.05Y-197.669
X242.4Y-143.9
X243.1Y-122.0
X243.4Y-150.7
X243.4Y-151.5
X243.5Y-122.4
X243.6Y-145.6
X244.002Y-103.935
X244.1Y-145.0
X244.1Y-150.7
X244.1Y-151.5
X244.2Y-124.7
X245.0Y-124.7
X245.1Y-120.0
X245.5Y-120.4
X245.6Y-150.2
X246.4Y-150.2
X247.0Y-120.2
X248.338Y-196.637
X248.755Y-197.145
X249.4Y-104.492
X249.824Y-191.418
X249.827Y-103.994
X251.508Y-110.505
X255.836Y-189.31
X256.335Y-189.737
X256.393Y-183.911
X256.727Y-111.991
X257.235Y-111.574
X257.759Y-118.278
X261.559Y-175.378
X261.8Y-149.1
X261.948Y-180.791
X262.4Y-149.7
X262.514Y-181.125
X262.566Y-127.019
X262.642Y-120.648
X263.214Y-120.325
X265.165Y-166.078
X265.782Y-136.462
X266.489Y-171.341
X266.963Y-130.2
X267.102Y-156.292
X267.103Y-171.572
X267.309Y-146.319
X267.582Y-129.982
X269.319Y-161.246
X269.559Y-140.358
X269.964Y-161.366
X270.207Y-140.251
X270.353Y-150.812
X271.009Y-150.819
X272.1Y-148.5
T2
X224.114Y-176.682
X224.998Y-175.798
X225.882Y-174.914
X237.314Y-163.382
X238.198Y-162.498
X239.082Y-161.614
T3
X208.0Y-122.8
X212.0Y-122.8
T4
X205.67Y-101.275
X205.67Y-114.0
X206.2Y-109.775
X206.22Y-105.5
X208.21Y-101.275
X208.21Y-114.0
X208.74Y-109.775
X208.76Y-105.5
X211.28Y-109.775
X211.3Y-105.5
X211.82Y-114.0
X211.83Y-101.3
X213.82Y-109.775
X213.84Y-105.5
X214.36Y-114.0
X214.37Y-101.3
X251.425Y-146.95
X251.425Y-149.49
X255.475Y-144.08
X255.475Y-146.62
X255.475Y-149.16
X255.475Y-151.7
T5
X227.445Y-167.066
X229.566Y-164.945
T6
X183.2Y-124.5
X227.4Y-114.3
T7
X180.66Y-121.96
X180.66Y-127.04
X185.74Y-121.96
X185.74Y-127.04
X223.808Y-114.3
X227.4Y-110.708
X227.4Y-117.892
X230.992Y-114.3
T8
X180.0Y-110.0
X180.0Y-190.1
X239.9Y-109.9
X239.9Y-190.0
T9
X228.98Y-171.641
X234.141Y-166.48
T0
M30
