G04 #@! TF.GenerationSoftware,KiCad,Pcbnew,(6.0.6)*
G04 #@! TF.CreationDate,2023-02-05T11:55:43-05:00*
G04 #@! TF.ProjectId,NoseConeBoardV1,4e6f7365-436f-46e6-9542-6f6172645631,rev?*
G04 #@! TF.SameCoordinates,Original*
G04 #@! TF.FileFunction,Soldermask,Bot*
G04 #@! TF.FilePolarity,Negative*
%FSLAX46Y46*%
G04 Gerber Fmt 4.6, Leading zero omitted, Abs format (unit mm)*
G04 Created by KiCad (PCBNEW (6.0.6)) date 2023-02-05 11:55:43*
%MOMM*%
%LPD*%
G01*
G04 APERTURE LIST*
G04 Aperture macros list*
%AMRoundRect*
0 Rectangle with rounded corners*
0 $1 Rounding radius*
0 $2 $3 $4 $5 $6 $7 $8 $9 X,Y pos of 4 corners*
0 Add a 4 corners polygon primitive as box body*
4,1,4,$2,$3,$4,$5,$6,$7,$8,$9,$2,$3,0*
0 Add four circle primitives for the rounded corners*
1,1,$1+$1,$2,$3*
1,1,$1+$1,$4,$5*
1,1,$1+$1,$6,$7*
1,1,$1+$1,$8,$9*
0 Add four rect primitives between the rounded corners*
20,1,$1+$1,$2,$3,$4,$5,0*
20,1,$1+$1,$4,$5,$6,$7,0*
20,1,$1+$1,$6,$7,$8,$9,0*
20,1,$1+$1,$8,$9,$2,$3,0*%
%AMHorizOval*
0 Thick line with rounded ends*
0 $1 width*
0 $2 $3 position (X,Y) of the first rounded end (center of the circle)*
0 $4 $5 position (X,Y) of the second rounded end (center of the circle)*
0 Add line between two ends*
20,1,$1,$2,$3,$4,$5,0*
0 Add two circle primitives to create the rounded ends*
1,1,$1,$2,$3*
1,1,$1,$4,$5*%
G04 Aperture macros list end*
%ADD10C,1.531200*%
%ADD11C,0.836200*%
%ADD12C,0.010000*%
%ADD13R,1.700000X1.700000*%
%ADD14O,1.700000X1.700000*%
%ADD15C,3.800000*%
%ADD16RoundRect,0.200000X0.176777X-0.459619X0.459619X-0.176777X-0.176777X0.459619X-0.459619X0.176777X0*%
%ADD17HorizOval,0.800000X-0.176777X0.176777X0.176777X-0.176777X0*%
%ADD18C,2.050000*%
%ADD19C,2.250000*%
%ADD20R,1.600000X1.600000*%
%ADD21C,1.600000*%
G04 APERTURE END LIST*
D10*
X229745166Y-171641446D02*
G75*
G03*
X229745166Y-171641446I-765600J0D01*
G01*
X234907046Y-166479567D02*
G75*
G03*
X234907046Y-166479567I-765600J0D01*
G01*
D11*
X227863245Y-167066465D02*
G75*
G03*
X227863245Y-167066465I-418100J0D01*
G01*
G36*
X230749030Y-164945145D02*
G01*
X229566465Y-166127710D01*
X228383900Y-164945145D01*
X229566465Y-163762580D01*
X230749030Y-164945145D01*
G37*
D12*
X230749030Y-164945145D02*
X229566465Y-166127710D01*
X228383900Y-164945145D01*
X229566465Y-163762580D01*
X230749030Y-164945145D01*
D13*
X211820001Y-114000000D03*
D14*
X214360001Y-114000000D03*
D13*
X205670001Y-114000000D03*
D14*
X208210001Y-114000000D03*
D13*
X206200000Y-109775000D03*
D14*
X208740000Y-109775000D03*
X211280000Y-109775000D03*
X213820000Y-109775000D03*
D15*
X180000000Y-190100000D03*
X239900000Y-109900000D03*
D13*
X255475000Y-151700000D03*
D14*
X255475000Y-149160000D03*
X255475000Y-146620000D03*
X255475000Y-144080000D03*
D13*
X206220001Y-105500000D03*
D14*
X208760001Y-105500000D03*
X211300001Y-105500000D03*
X213840001Y-105500000D03*
D16*
X224114035Y-176681802D03*
D17*
X224997918Y-175797919D03*
X225881802Y-174914035D03*
D13*
X251425000Y-146950000D03*
D14*
X251425000Y-149490000D03*
D18*
X183200000Y-124500000D03*
D19*
X180660000Y-127040000D03*
X185740000Y-127040000D03*
X180660000Y-121960000D03*
X185740000Y-121960000D03*
D18*
X227400000Y-114300000D03*
D19*
X223807898Y-114300000D03*
X227400000Y-110707898D03*
X227400000Y-117892102D03*
X230992102Y-114300000D03*
D13*
X214370001Y-101300000D03*
D14*
X211830001Y-101300000D03*
D16*
X237314035Y-163381802D03*
D17*
X238197918Y-162497919D03*
X239081802Y-161614035D03*
D20*
X212000000Y-122800000D03*
D21*
X208000000Y-122800000D03*
D15*
X180000000Y-110000000D03*
D13*
X205670001Y-101275000D03*
D14*
X208210001Y-101275000D03*
D15*
X239900000Y-190000000D03*
M02*
